0,0, Header,1,3,384,
1,0, Start_track,,,,
1,0, Time_signature,4,2,24,8
1,0, Tempo,500000,,,
1,length of the track, End_track,,,,
2,0, Start_track,,,,
2,0, Text_t,"""harpsichord: John Sankey"""\,,,
2,0, Title_t," ""Track 1""",,,2,0, Note_on_c,0,103,127,
2,0, Note_on_c,0,107,127,
2,0, Note_on_c,0,97,127,
2,0, Note_on_c,0,99,127,
2,0, Note_on_c,0,101,127,
2,0, Note_on_c,0,112,127,
2,0, Note_off_c,0,48,127,
2,1, Note_on_c,0,117,127,
2,1, Note_on_c,0,110,127,
2,1, Note_off_c,0,97,127,
2,1, Note_off_c,0,103,127,
2,1, Note_off_c,0,107,127,
2,1, Note_off_c,0,101,127,
2,1, Note_off_c,0,112,127,
2,2, Note_on_c,0,111,127,
2,2, Note_on_c,0,116,127,
2,2, Note_off_c,0,117,127,
2,2, Note_off_c,0,99,127,
2,3, Note_on_c,0,117,127,
2,3, Note_on_c,0,102,127,
2,3, Note_on_c,0,9,127,
2,3, Note_on_c,0,100,127,
2,3, Note_on_c,0,10,127,
2,3, Note_on_c,0,33,127,
2,3, Note_off_c,0,116,127,
2,4, Note_on_c,0,103,127,
2,4, Note_on_c,0,107,127,
2,4, Note_on_c,0,97,127,
2,4, Note_on_c,0,99,127,
2,4, Note_on_c,0,101,127,
2,4, Note_on_c,0,112,127,
2,4, Note_off_c,0,117,127,
2,4, Note_off_c,0,102,127,
2,4, Note_off_c,0,110,127,
2,4, Note_off_c,0,9,127,
2,4, Note_off_c,0,100,127,
2,4, Note_off_c,0,111,127,
2,4, Note_off_c,0,10,127,
2,4, Note_off_c,0,33,127,
2,5, Note_on_c,0,117,127,
2,5, Note_on_c,0,111,127,
2,5, Note_on_c,0,114,127,
2,5, Note_on_c,0,104,127,
2,5, Note_on_c,0,116,127,
2,5, Note_off_c,0,97,127,
2,5, Note_off_c,0,103,127,
2,5, Note_off_c,0,107,127,
2,5, Note_off_c,0,101,127,
2,5, Note_off_c,0,112,127,
2,6, Note_on_c,0,110,127,
2,6, Note_off_c,0,117,127,
2,6, Note_off_c,0,99,127,
2,6, Note_off_c,0,114,127,
2,6, Note_off_c,0,104,127,
2,7, Note_on_c,0,117,127,
2,7, Note_on_c,0,102,127,
2,7, Note_on_c,0,9,127,
2,7, Note_on_c,0,100,127,
2,7, Note_on_c,0,10,127,
2,7, Note_on_c,0,33,127,
2,7, Note_off_c,0,116,127,
2,8, Note_on_c,0,97,127,
2,8, Note_on_c,0,103,127,
2,8, Note_on_c,0,105,127,
2,8, Note_on_c,0,108,127,
2,8, Note_on_c,0,70,127,
2,8, Note_off_c,0,117,127,
2,8, Note_off_c,0,102,127,
2,8, Note_off_c,0,9,127,
2,8, Note_off_c,0,100,127,
2,8, Note_off_c,0,111,127,
2,8, Note_off_c,0,10,127,
2,8, Note_off_c,0,33,127,
2,9, Note_on_c,0,107,127,
2,9, Note_on_c,0,99,127,
2,9, Note_on_c,0,98,127,
2,9, Note_off_c,0,108,127,
2,9, Note_off_c,0,103,127,
2,9, Note_off_c,0,110,127,
2,9, Note_off_c,0,105,127,
2,9, Note_off_c,0,70,127,
2,10, Note_on_c,0,111,127,
2,10, Note_on_c,0,110,127,
2,10, Note_off_c,0,97,127,
2,10, Note_off_c,0,107,127,
2,10, Note_off_c,0,99,127,
2,10, Note_off_c,0,98,127,
2,11, Note_on_c,0,85,127,
2,11, Note_on_c,0,67,127,
2,11, Note_on_c,0,80,127,
2,11, Note_off_c,0,111,127,
2,11, Note_off_c,0,110,127,
2,12, Note_on_c,0,9,127,
2,12, Note_on_c,0,100,127,
2,12, Note_on_c,0,111,127,
2,12, Note_on_c,0,109,127,
2,12, Note_on_c,0,10,127,
2,12, Note_on_c,0,101,127,
2,12, Note_off_c,0,85,127,
2,12, Note_off_c,0,67,127,
2,12, Note_off_c,0,80,127,
2,13, Note_on_c,0,103,127,
2,13, Note_on_c,0,114,127,
2,13, Note_on_c,0,105,127,
2,13, Note_on_c,0,97,127,
2,13, Note_on_c,0,116,127,
2,13, Note_on_c,0,110,127,
2,13, Note_on_c,0,99,127,
2,13, Note_off_c,0,109,127,
2,13, Note_off_c,0,111,127,
2,13, Note_off_c,0,10,127,
2,13, Note_off_c,0,9,127,
2,13, Note_off_c,0,100,127,
2,14, Note_off_c,0,103,127,
2,14, Note_off_c,0,114,127,
2,14, Note_off_c,0,105,127,
2,14, Note_off_c,0,116,127,
2,14, Note_off_c,0,99,127,
2,14, Note_off_c,0,101,127,
2,15, Note_on_c,0,115,127,
2,15, Note_on_c,0,116,127,
2,15, Note_on_c,0,46,127,
2,15, Note_on_c,0,9,127,
2,15, Note_on_c,0,108,127,
2,15, Note_on_c,0,109,127,
2,15, Note_on_c,0,10,127,
2,15, Note_off_c,0,97,127,
2,15, Note_off_c,0,110,127,
2,16, Note_on_c,0,103,127,
2,16, Note_on_c,0,110,127,
2,16, Note_on_c,0,105,127,
2,16, Note_off_c,0,108,127,
2,16, Note_off_c,0,46,127,
2,16, Note_off_c,0,9,127,
2,16, Note_off_c,0,10,127,
2,16, Note_off_c,0,116,127,
2,17, Note_on_c,0,101,127,
2,17, Note_on_c,0,100,127,
2,17, Note_off_c,0,109,127,
2,17, Note_off_c,0,103,127,
2,17, Note_off_c,0,110,127,
2,17, Note_off_c,0,105,127,
2,18, Note_on_c,0,120,127,
2,18, Note_on_c,0,44,127,
2,18, Note_on_c,0,116,127,
2,18, Note_off_c,0,115,127,
2,18, Note_off_c,0,100,127,
2,19, Note_on_c,0,117,127,
2,19, Note_on_c,0,115,127,
2,19, Note_on_c,0,110,127,
2,19, Note_on_c,0,103,127,
2,19, Note_on_c,0,105,127,
2,19, Note_off_c,0,120,127,
2,19, Note_off_c,0,44,127,
2,19, Note_off_c,0,101,127,
2,19, Note_off_c,0,116,127,
2,20, Note_on_c,0,109,127,
2,20, Note_on_c,0,111,127,
2,20, Note_on_c,0,114,127,
2,20, Note_on_c,0,102,127,
2,20, Note_off_c,0,115,127,
2,20, Note_off_c,0,103,127,
2,21, Note_on_c,0,121,127,
2,21, Note_on_c,0,116,127,
2,21, Note_on_c,0,97,127,
2,21, Note_on_c,0,98,127,
2,21, Note_on_c,0,108,127,
2,21, Note_on_c,0,112,127,
2,21, Note_off_c,0,109,127,
2,21, Note_off_c,0,117,127,
2,21, Note_off_c,0,110,127,
2,21, Note_off_c,0,102,127,
2,22, Note_on_c,0,118,127,
2,22, Note_on_c,0,101,127,
2,22, Note_off_c,0,121,127,
2,22, Note_off_c,0,116,127,
2,22, Note_off_c,0,97,127,
2,22, Note_off_c,0,105,127,
2,22, Note_off_c,0,98,127,
2,22, Note_off_c,0,108,127,
2,22, Note_off_c,0,112,127,
2,23, Note_on_c,0,115,127,
2,23, Note_on_c,0,116,127,
2,23, Note_on_c,0,102,127,
2,23, Note_on_c,0,105,127,
2,23, Note_off_c,0,111,127,
2,23, Note_off_c,0,118,127,
2,23, Note_off_c,0,101,127,
2,24, Note_on_c,0,97,127,
2,24, Note_on_c,0,9,127,
2,24, Note_on_c,0,10,127,
2,24, Note_on_c,0,99,127,
2,24, Note_on_c,0,101,127,
2,24, Note_on_c,0,104,127,
2,24, Note_off_c,0,115,127,
2,24, Note_off_c,0,102,127,
2,24, Note_off_c,0,105,127,
2,25, Note_on_c,0,45,127,
2,25, Note_off_c,0,114,127,
2,25, Note_off_c,0,116,127,
2,25, Note_off_c,0,97,127,
2,25, Note_off_c,0,99,127,
2,25, Note_off_c,0,101,127,
2,25, Note_off_c,0,104,127,
2,26, Note_on_c,0,66,127,
2,26, Note_off_c,0,10,127,
2,26, Note_off_c,0,9,127,
2,26, Note_off_c,0,45,127,
2,27, Note_on_c,0,58,127,
2,27, Note_on_c,0,40,127,
2,28, Note_on_c,0,61,127,
2,28, Note_on_c,0,46,127,
2,28, Note_off_c,0,58,127,
2,28, Note_off_c,0,40,127,
2,29, Note_on_c,0,71,127,
2,29, Note_off_c,0,61,127,
2,30, Note_on_c,0,61,127,
2,30, Note_off_c,0,71,127,
2,33, Note_on_c,0,37,127,
2,33, Note_off_c,0,46,127,
2,34, Note_on_c,0,46,127,
2,34, Note_off_c,0,66,127,
2,34, Note_off_c,0,37,127,
2,35, Note_on_c,0,63,127,
2,35, Note_off_c,0,61,127,
2,36, Note_on_c,0,66,127,
2,36, Note_off_c,0,63,127,
2,37, Note_on_c,0,61,127,
2,37, Note_on_c,0,40,127,
2,37, Note_off_c,0,46,127,
2,37, Note_off_c,0,66,127,
2,38, Note_on_c,0,66,127,
2,38, Note_off_c,0,61,127,
2,38, Note_off_c,0,40,127,
2,39, Note_on_c,0,46,127,
2,40, Note_on_c,0,61,127,
2,40, Note_on_c,0,40,127,
2,40, Note_off_c,0,46,127,
2,40, Note_off_c,0,66,127,
2,41, Note_on_c,0,66,127,
2,41, Note_off_c,0,61,127,
2,42, Note_on_c,0,61,127,
2,42, Note_off_c,0,66,127,
2,43, Note_on_c,0,67,127,
2,43, Note_off_c,0,61,127,
2,44, Note_on_c,0,61,127,
2,44, Note_off_c,0,67,127,
2,45, Note_on_c,0,59,127,
2,45, Note_off_c,0,61,127,
2,46, Note_on_c,0,61,127,
2,46, Note_off_c,0,59,127,
2,73, Note_on_c,0,68,127,
2,73, Note_off_c,0,61,127,
2,74, Note_on_c,0,61,127,
2,74, Note_off_c,0,68,127,
2,85, Note_off_c,0,40,127,
2,87, Note_on_c,0,40,127,
2,87, Note_off_c,0,61,127,
2,112, Note_on_c,0,34,127,
2,112, Note_off_c,0,40,127,
2,113, Note_on_c,0,46,127,
2,113, Note_off_c,0,34,127,
2,114, Note_on_c,0,40,127,
2,114, Note_off_c,0,46,127,
2,119, Note_on_c,0,43,127,
2,119, Note_off_c,0,40,127,
2,120, Note_on_c,0,40,127,
2,120, Note_off_c,0,43,127,
2,147, Note_on_c,0,61,127,
2,148, Note_off_c,0,61,127,
2,149, Note_on_c,0,61,127,
2,156, Note_on_c,0,64,127,
2,156, Note_off_c,0,61,127,
2,157, Note_on_c,0,61,127,
2,157, Note_off_c,0,64,127,
2,161, Note_on_c,0,63,127,
2,161, Note_off_c,0,61,127,
2,162, Note_on_c,0,44,127,
2,162, Note_off_c,0,63,127,
2,163, Note_on_c,0,61,127,
2,163, Note_off_c,0,44,127,
2,169, Note_on_c,0,37,127,
2,169, Note_off_c,0,40,127,
2,170, Note_on_c,0,64,127,
2,170, Note_on_c,0,40,127,
2,170, Note_off_c,0,61,127,
2,170, Note_off_c,0,37,127,
2,171, Note_on_c,0,61,127,
2,171, Note_off_c,0,64,127,
2,180, Note_on_c,0,70,127,
2,180, Note_off_c,0,61,127,
2,181, Note_on_c,0,61,127,
2,181, Note_off_c,0,70,127,
2,184, Note_on_c,0,44,127,
2,184, Note_off_c,0,40,127,
2,185, Note_on_c,0,40,127,
2,185, Note_off_c,0,44,127,
2,192, Note_on_c,0,64,127,
2,192, Note_off_c,0,61,127,
2,193, Note_on_c,0,61,127,
2,193, Note_off_c,0,64,127,
2,194, Note_on_c,0,64,127,
2,194, Note_off_c,0,61,127,
2,195, Note_on_c,0,61,127,
2,195, Note_off_c,0,64,127,
2,203, Note_on_c,0,44,127,
2,203, Note_off_c,0,40,127,
2,204, Note_on_c,0,40,127,
2,204, Note_off_c,0,44,127,
2,205, Note_on_c,0,37,127,
2,205, Note_off_c,0,40,127,
2,206, Note_on_c,0,64,127,
2,206, Note_on_c,0,40,127,
2,206, Note_off_c,0,61,127,
2,206, Note_off_c,0,37,127,
2,207, Note_on_c,0,61,127,
2,207, Note_off_c,0,64,127,
2,222, Note_on_c,0,46,127,
2,222, Note_off_c,0,40,127,
2,223, Note_on_c,0,40,127,
2,223, Note_off_c,0,46,127,
2,226, Note_on_c,0,56,127,
2,226, Note_off_c,0,61,127,
2,227, Note_on_c,0,61,127,
2,227, Note_off_c,0,56,127,
2,232, Note_on_c,0,56,127,
2,232, Note_off_c,0,61,127,
2,233, Note_on_c,0,61,127,
2,233, Note_off_c,0,56,127,
2,234, Note_on_c,0,53,127,
2,235, Note_on_c,0,64,127,
2,235, Note_off_c,0,53,127,
2,236, Note_off_c,0,64,127,
2,239, Note_on_c,0,70,127,
2,240, Note_off_c,0,70,127,
2,242, Note_on_c,0,46,127,
2,243, Note_off_c,0,46,127,
2,251, Note_on_c,0,64,127,
2,251, Note_off_c,0,61,127,
2,251, Note_off_c,0,40,127,
2,252, Note_on_c,0,61,127,
2,252, Note_on_c,0,40,127,
2,252, Note_off_c,0,64,127,
2,253, Note_off_c,0,61,127,
2,254, Note_on_c,0,61,127,
2,254, Note_off_c,0,40,127,
2,255, Note_on_c,0,40,127,
2,300, Note_on_c,0,37,127,
2,300, Note_off_c,0,40,127,
2,301, Note_on_c,0,40,127,
2,301, Note_off_c,0,37,127,
2,307, Note_on_c,0,44,127,
2,307, Note_off_c,0,40,127,
2,308, Note_on_c,0,40,127,
2,308, Note_off_c,0,44,127,
2,315, Note_on_c,0,63,127,
2,315, Note_off_c,0,61,127,
2,316, Note_on_c,0,61,127,
2,316, Note_off_c,0,63,127,
2,318, Note_on_c,0,64,127,
2,319, Note_off_c,0,64,127,
2,320, Note_on_c,0,64,127,
2,321, Note_off_c,0,64,127,
2,322, Note_on_c,0,64,127,
2,322, Note_off_c,0,61,127,
2,323, Note_on_c,0,61,127,
2,323, Note_off_c,0,64,127,
2,325, Note_on_c,0,58,127,
2,326, Note_off_c,0,58,127,
2,328, Note_on_c,0,64,127,
2,328, Note_off_c,0,61,127,
2,328, Note_off_c,0,40,127,
2,329, Note_on_c,0,61,127,
2,329, Note_on_c,0,40,127,
2,329, Note_off_c,0,64,127,
2,337, Note_on_c,0,64,127,
2,337, Note_off_c,0,61,127,
2,338, Note_on_c,0,61,127,
2,338, Note_off_c,0,64,127,
2,340, Note_on_c,0,64,127,
2,340, Note_off_c,0,61,127,
2,341, Note_on_c,0,61,127,
2,341, Note_off_c,0,64,127,
2,354, Note_on_c,0,64,127,
2,355, Note_off_c,0,64,127,
2,357, Note_on_c,0,58,127,
2,358, Note_off_c,0,58,127,
2,362, Note_on_c,0,64,127,
2,362, Note_off_c,0,40,127,
2,363, Note_on_c,0,40,127,
2,363, Note_off_c,0,64,127,
2,364, Note_off_c,0,40,127,
2,365, Note_on_c,0,64,127,
2,365, Note_on_c,0,40,127,
2,366, Note_off_c,0,64,127,
2,372, Note_on_c,0,64,127,
2,374, Note_off_c,0,64,127,
2,375, Note_on_c,0,64,127,
2,376, Note_off_c,0,64,127,
2,378, Note_off_c,0,40,127,
2,379, Note_on_c,0,40,127,
2,382, Note_on_c,0,70,127,
2,383, Note_off_c,0,70,127,
2,386, Note_on_c,0,58,127,
2,387, Note_off_c,0,58,127,
2,389, Note_on_c,0,63,127,
2,390, Note_off_c,0,63,127,
2,391, Note_on_c,0,64,127,
2,392, Note_off_c,0,64,127,
2,403, Note_on_c,0,64,127,
2,408, Note_off_c,0,64,127,
2,409, Note_on_c,0,49,127,
2,410, Note_on_c,0,56,127,
2,410, Note_off_c,0,49,127,
2,411, Note_off_c,0,56,127,
2,412, Note_on_c,0,64,127,
2,413, Note_off_c,0,64,127,
2,417, Note_on_c,0,37,127,
2,418, Note_off_c,0,37,127,
2,419, Note_on_c,0,58,127,
2,420, Note_off_c,0,58,127,
2,423, Note_on_c,0,64,127,
2,424, Note_off_c,0,64,127,
2,425, Note_on_c,0,64,127,
2,426, Note_on_c,0,66,127,
2,426, Note_off_c,0,64,127,
2,427, Note_on_c,0,46,127,
2,427, Note_off_c,0,66,127,
2,427, Note_off_c,0,40,127,
2,428, Note_on_c,0,64,127,
2,428, Note_on_c,0,40,127,
2,428, Note_off_c,0,46,127,
2,429, Note_off_c,0,64,127,
2,431, Note_on_c,0,49,127,
2,432, Note_off_c,0,49,127,
2,439, Note_on_c,0,63,127,
2,439, Note_off_c,0,61,127,
2,440, Note_on_c,0,61,127,
2,440, Note_off_c,0,63,127,
2,441, Note_on_c,0,56,127,
2,442, Note_off_c,0,56,127,
2,444, Note_on_c,0,71,127,
2,445, Note_on_c,0,56,127,
2,445, Note_off_c,0,71,127,
2,446, Note_on_c,0,64,127,
2,446, Note_off_c,0,56,127,
2,447, Note_off_c,0,64,127,
2,452, Note_on_c,0,70,127,
2,453, Note_off_c,0,70,127,
2,455, Note_off_c,0,61,127,
2,455, Note_off_c,0,40,127,
2,456, Note_on_c,0,61,127,
2,456, Note_on_c,0,70,127,
2,457, Note_on_c,0,40,127,
2,457, Note_off_c,0,70,127,
2,463, Note_on_c,0,56,127,
2,463, Note_off_c,0,61,127,
2,464, Note_on_c,0,61,127,
2,464, Note_off_c,0,56,127,
2,472, Note_on_c,0,68,127,
2,472, Note_off_c,0,61,127,
2,473, Note_on_c,0,61,127,
2,473, Note_off_c,0,68,127,
2,474, Note_on_c,0,64,127,
2,474, Note_off_c,0,61,127,
2,475, Note_on_c,0,61,127,
2,475, Note_off_c,0,64,127,
2,477, Note_on_c,0,39,127,
2,477, Note_off_c,0,40,127,
2,478, Note_on_c,0,40,127,
2,478, Note_off_c,0,39,127,
2,483, Note_on_c,0,63,127,
2,483, Note_off_c,0,61,127,
2,484, Note_on_c,0,61,127,
2,484, Note_off_c,0,63,127,
2,493, Note_on_c,0,64,127,
2,493, Note_off_c,0,61,127,
2,494, Note_on_c,0,61,127,
2,494, Note_off_c,0,64,127,
2,497, Note_on_c,0,63,127,
2,497, Note_off_c,0,61,127,
2,498, Note_on_c,0,61,127,
2,498, Note_off_c,0,63,127,
2,503, Note_on_c,0,57,127,
2,503, Note_off_c,0,61,127,
2,504, Note_on_c,0,61,127,
2,504, Note_off_c,0,57,127,
2,506, Note_on_c,0,64,127,
2,506, Note_off_c,0,61,127,
2,507, Note_on_c,0,61,127,
2,507, Note_off_c,0,64,127,
2,516, Note_off_c,0,40,127,
2,517, Note_on_c,0,44,127,
2,518, Note_on_c,0,40,127,
2,518, Note_off_c,0,44,127,
2,519, Note_on_c,0,58,127,
2,520, Note_on_c,0,64,127,
2,520, Note_on_c,0,46,127,
2,520, Note_off_c,0,61,127,
2,520, Note_off_c,0,58,127,
2,521, Note_on_c,0,68,127,
2,521, Note_off_c,0,64,127,
2,521, Note_off_c,0,46,127,
2,522, Note_on_c,0,61,127,
2,522, Note_off_c,0,68,127,
2,531, Note_on_c,0,55,127,
2,531, Note_off_c,0,61,127,
2,532, Note_on_c,0,61,127,
2,532, Note_off_c,0,55,127,
2,533, Note_on_c,0,64,127,
2,533, Note_off_c,0,61,127,
2,534, Note_on_c,0,61,127,
2,534, Note_off_c,0,64,127,
2,545, Note_off_c,0,40,127,
2,546, Note_on_c,0,40,127,
2,559, Note_on_c,0,64,127,
2,559, Note_off_c,0,61,127,
2,560, Note_on_c,0,61,127,
2,560, Note_off_c,0,64,127,
2,564, Note_on_c,0,46,127,
2,564, Note_off_c,0,40,127,
2,565, Note_on_c,0,40,127,
2,565, Note_off_c,0,46,127,
2,576, Note_on_c,0,64,127,
2,576, Note_off_c,0,61,127,
2,577, Note_on_c,0,61,127,
2,577, Note_off_c,0,64,127,
2,595, Note_on_c,0,68,127,
2,595, Note_off_c,0,61,127,
2,596, Note_on_c,0,61,127,
2,596, Note_on_c,0,39,127,
2,596, Note_off_c,0,68,127,
2,596, Note_off_c,0,40,127,
2,597, Note_on_c,0,40,127,
2,597, Note_off_c,0,39,127,
2,600, Note_on_c,0,46,127,
2,600, Note_off_c,0,40,127,
2,601, Note_on_c,0,40,127,
2,601, Note_off_c,0,46,127,
2,607, Note_on_c,0,64,127,
2,607, Note_off_c,0,61,127,
2,608, Note_on_c,0,61,127,
2,608, Note_off_c,0,64,127,
2,629, Note_on_c,0,39,127,
2,629, Note_off_c,0,40,127,
2,630, Note_on_c,0,40,127,
2,630, Note_off_c,0,39,127,
2,632, Note_on_c,0,58,127,
2,632, Note_off_c,0,61,127,
2,633, Note_on_c,0,61,127,
2,633, Note_off_c,0,58,127,
2,643, Note_off_c,0,40,127,
2,644, Note_on_c,0,40,127,
2,646, Note_on_c,0,63,127,
2,646, Note_on_c,0,46,127,
2,646, Note_off_c,0,61,127,
2,647, Note_on_c,0,61,127,
2,647, Note_off_c,0,63,127,
2,647, Note_off_c,0,46,127,
2,662, Note_on_c,0,64,127,
2,662, Note_off_c,0,61,127,
2,663, Note_on_c,0,61,127,
2,663, Note_off_c,0,64,127,
2,663, Note_off_c,0,40,127,
2,664, Note_on_c,0,40,127,
2,669, Note_on_c,0,49,127,
2,669, Note_off_c,0,61,127,
2,670, Note_on_c,0,61,127,
2,670, Note_off_c,0,49,127,
2,690, Note_on_c,0,66,127,
2,690, Note_off_c,0,61,127,
2,690, Note_off_c,0,40,127,
2,691, Note_on_c,0,61,127,
2,691, Note_on_c,0,40,127,
2,691, Note_off_c,0,66,127,
2,693, Note_on_c,0,64,127,
2,693, Note_off_c,0,61,127,
2,694, Note_on_c,0,61,127,
2,694, Note_off_c,0,64,127,
2,695, Note_on_c,0,64,127,
2,695, Note_off_c,0,61,127,
2,697, Note_on_c,0,61,127,
2,697, Note_off_c,0,64,127,
2,698, Note_on_c,0,30,127,
2,698, Note_off_c,0,40,127,
2,699, Note_on_c,0,40,127,
2,699, Note_off_c,0,30,127,
2,705, Note_on_c,0,28,127,
2,705, Note_off_c,0,40,127,
2,706, Note_on_c,0,40,127,
2,706, Note_off_c,0,28,127,
2,712, Note_on_c,0,67,127,
2,712, Note_off_c,0,40,127,
2,713, Note_on_c,0,40,127,
2,713, Note_off_c,0,67,127,
2,714, Note_on_c,0,70,127,
2,715, Note_off_c,0,70,127,
2,718, Note_on_c,0,39,127,
2,718, Note_off_c,0,40,127,
2,719, Note_on_c,0,40,127,
2,719, Note_off_c,0,39,127,
2,720, Note_off_c,0,40,127,
2,721, Note_on_c,0,40,127,
2,723, Note_on_c,0,64,127,
2,724, Note_off_c,0,64,127,
2,725, Note_off_c,0,40,127,
2,726, Note_on_c,0,64,127,
2,726, Note_on_c,0,40,127,
2,726, Note_off_c,0,61,127,
2,727, Note_on_c,0,61,127,
2,727, Note_off_c,0,64,127,
2,757, Note_on_c,0,37,127,
2,757, Note_off_c,0,40,127,
2,758, Note_on_c,0,59,127,
2,758, Note_on_c,0,40,127,
2,758, Note_off_c,0,61,127,
2,758, Note_off_c,0,37,127,
2,759, Note_on_c,0,61,127,
2,759, Note_off_c,0,59,127,
2,762, Note_on_c,0,70,127,
2,763, Note_off_c,0,70,127,
2,765, Note_on_c,0,63,127,
2,765, Note_off_c,0,61,127,
2,765, Note_off_c,0,40,127,
2,766, Note_on_c,0,40,127,
2,766, Note_off_c,0,63,127,
2,767, Note_on_c,0,61,127,
2,767, Note_off_c,0,40,127,
2,768, Note_on_c,0,40,127,
2,768, Note_off_c,0,61,127,
2,810, Note_on_c,0,46,127,
2,810, Note_off_c,0,40,127,
2,811, Note_on_c,0,40,127,
2,811, Note_off_c,0,46,127,
2,816, Note_on_c,0,64,127,
2,817, Note_on_c,0,56,127,
2,817, Note_off_c,0,64,127,
2,818, Note_on_c,0,61,127,
2,818, Note_off_c,0,56,127,
2,819, Note_on_c,0,68,127,
2,819, Note_off_c,0,61,127,
2,820, Note_on_c,0,61,127,
2,820, Note_off_c,0,68,127,
2,824, Note_on_c,0,43,127,
2,824, Note_off_c,0,61,127,
2,825, Note_on_c,0,61,127,
2,825, Note_off_c,0,43,127,
2,828, Note_on_c,0,34,127,
2,828, Note_off_c,0,40,127,
2,829, Note_on_c,0,40,127,
2,829, Note_off_c,0,34,127,
2,830, Note_on_c,0,39,127,
2,830, Note_off_c,0,40,127,
2,831, Note_on_c,0,40,127,
2,831, Note_off_c,0,39,127,
2,856, Note_on_c,0,64,127,
2,856, Note_off_c,0,61,127,
2,857, Note_on_c,0,61,127,
2,857, Note_off_c,0,64,127,
2,866, Note_on_c,0,58,127,
2,866, Note_off_c,0,61,127,
2,867, Note_on_c,0,61,127,
2,867, Note_off_c,0,58,127,
2,870, Note_on_c,0,47,127,
2,870, Note_on_c,0,70,127,
2,870, Note_off_c,0,61,127,
2,870, Note_off_c,0,40,127,
2,871, Note_on_c,0,61,127,
2,871, Note_on_c,0,40,127,
2,871, Note_off_c,0,47,127,
2,871, Note_off_c,0,70,127,
2,874, Note_on_c,0,39,127,
2,874, Note_off_c,0,40,127,
2,875, Note_on_c,0,40,127,
2,875, Note_off_c,0,39,127,
2,877, Note_on_c,0,56,127,
2,877, Note_on_c,0,37,127,
2,877, Note_off_c,0,61,127,
2,877, Note_off_c,0,40,127,
2,878, Note_on_c,0,61,127,
2,878, Note_on_c,0,40,127,
2,878, Note_off_c,0,56,127,
2,878, Note_off_c,0,37,127,
2,885, Note_on_c,0,63,127,
2,885, Note_off_c,0,61,127,
2,886, Note_on_c,0,61,127,
2,886, Note_off_c,0,63,127,
2,888, Note_on_c,0,64,127,
2,890, Note_off_c,0,64,127,
2,891, Note_on_c,0,43,127,
2,892, Note_off_c,0,43,127,
2,894, Note_on_c,0,64,127,
2,895, Note_off_c,0,64,127,
2,896, Note_on_c,0,39,127,
2,896, Note_off_c,0,40,127,
2,897, Note_on_c,0,40,127,
2,897, Note_off_c,0,39,127,
2,900, Note_on_c,0,39,127,
2,900, Note_off_c,0,40,127,
2,901, Note_on_c,0,40,127,
2,901, Note_off_c,0,39,127,
2,904, Note_on_c,0,64,127,
2,905, Note_off_c,0,64,127,
2,906, Note_on_c,0,59,127,
2,907, Note_on_c,0,43,127,
2,907, Note_off_c,0,59,127,
2,908, Note_off_c,0,43,127,
2,908, Note_off_c,0,40,127,
2,909, Note_on_c,0,40,127,
2,910, Note_on_c,0,64,127,
2,910, Note_off_c,0,61,127,
2,911, Note_on_c,0,61,127,
2,911, Note_off_c,0,64,127,
2,912, Note_on_c,0,64,127,
2,913, Note_off_c,0,64,127,
2,916, Note_on_c,0,64,127,
2,916, Note_on_c,0,70,127,
2,916, Note_off_c,0,61,127,
2,917, Note_on_c,0,61,127,
2,917, Note_on_c,0,58,127,
2,917, Note_on_c,0,37,127,
2,917, Note_off_c,0,64,127,
2,917, Note_off_c,0,40,127,
2,917, Note_off_c,0,70,127,
2,918, Note_on_c,0,40,127,
2,918, Note_off_c,0,58,127,
2,918, Note_off_c,0,37,127,
2,919, Note_off_c,0,40,127,
2,920, Note_on_c,0,40,127,
2,922, Note_on_c,0,63,127,
2,923, Note_on_c,0,58,127,
2,923, Note_off_c,0,63,127,
2,924, Note_off_c,0,58,127,
2,925, Note_on_c,0,64,127,
2,926, Note_on_c,0,46,127,
2,926, Note_off_c,0,64,127,
2,926, Note_off_c,0,40,127,
2,927, Note_on_c,0,40,127,
2,927, Note_off_c,0,46,127,
2,931, Note_on_c,0,64,127,
2,931, Note_off_c,0,40,127,
2,932, Note_on_c,0,40,127,
2,932, Note_off_c,0,64,127,
2,938, Note_on_c,0,64,127,
2,938, Note_off_c,0,61,127,
2,939, Note_on_c,0,61,127,
2,939, Note_off_c,0,64,127,
2,955, Note_on_c,0,46,127,
2,955, Note_off_c,0,40,127,
2,956, Note_on_c,0,40,127,
2,956, Note_off_c,0,46,127,
2,958, Note_on_c,0,35,127,
2,958, Note_off_c,0,40,127,
2,959, Note_on_c,0,40,127,
2,959, Note_off_c,0,35,127,
2,967, Note_on_c,0,58,127,
2,967, Note_on_c,0,70,127,
2,967, Note_off_c,0,61,127,
2,968, Note_on_c,0,61,127,
2,968, Note_off_c,0,58,127,
2,968, Note_off_c,0,70,127,
2,971, Note_on_c,0,70,127,
2,972, Note_off_c,0,70,127,
2,973, Note_on_c,0,59,127,
2,974, Note_off_c,0,59,127,
2,975, Note_on_c,0,36,127,
2,975, Note_off_c,0,40,127,
2,976, Note_on_c,0,64,127,
2,976, Note_on_c,0,40,127,
2,976, Note_off_c,0,36,127,
2,977, Note_off_c,0,64,127,
2,980, Note_on_c,0,70,127,
2,981, Note_off_c,0,70,127,
2,987, Note_on_c,0,58,127,
2,988, Note_off_c,0,58,127,
2,997, Note_on_c,0,70,127,
2,998, Note_off_c,0,70,127,
2,1002, Note_off_c,0,40,127,
2,1003, Note_on_c,0,64,127,
2,1003, Note_on_c,0,40,127,
2,1003, Note_off_c,0,61,127,
2,1004, Note_on_c,0,61,127,
2,1004, Note_off_c,0,64,127,
2,1007, Note_on_c,0,44,127,
2,1007, Note_off_c,0,40,127,
2,1008, Note_on_c,0,40,127,
2,1008, Note_off_c,0,44,127,
2,1013, Note_on_c,0,58,127,
2,1013, Note_off_c,0,61,127,
2,1014, Note_on_c,0,61,127,
2,1014, Note_off_c,0,58,127,
2,1016, Note_on_c,0,64,127,
2,1016, Note_off_c,0,61,127,
2,1017, Note_on_c,0,61,127,
2,1017, Note_off_c,0,64,127,
2,1021, Note_on_c,0,58,127,
2,1021, Note_off_c,0,61,127,
2,1022, Note_on_c,0,61,127,
2,1022, Note_off_c,0,58,127,
2,1027, Note_off_c,0,40,127,
2,1028, Note_on_c,0,40,127,
2,1043, Note_on_c,0,59,127,
2,1043, Note_off_c,0,61,127,
2,1044, Note_on_c,0,61,127,
2,1044, Note_off_c,0,59,127,
2,1049, Note_on_c,0,72,127,
2,1049, Note_off_c,0,40,127,
2,1050, Note_on_c,0,40,127,
2,1050, Note_off_c,0,72,127,
2,1051, Note_off_c,0,40,127,
2,1052, Note_on_c,0,40,127,
2,1074, Note_on_c,0,63,127,
2,1074, Note_off_c,0,61,127,
2,1075, Note_on_c,0,61,127,
2,1075, Note_off_c,0,63,127,
2,1076, Note_on_c,0,64,127,
2,1077, Note_off_c,0,64,127,
2,1080, Note_on_c,0,64,127,
2,1081, Note_off_c,0,64,127,
2,1083, Note_on_c,0,64,127,
2,1085, Note_off_c,0,64,127,
2,1088, Note_on_c,0,64,127,
2,1089, Note_off_c,0,64,127,
2,1092, Note_on_c,0,58,127,
2,1092, Note_off_c,0,61,127,
2,1093, Note_on_c,0,64,127,
2,1093, Note_off_c,0,58,127,
2,1094, Note_on_c,0,61,127,
2,1094, Note_off_c,0,64,127,
2,1095, Note_on_c,0,70,127,
2,1096, Note_on_c,0,64,127,
2,1096, Note_on_c,0,49,127,
2,1096, Note_off_c,0,40,127,
2,1096, Note_off_c,0,70,127,
2,1097, Note_on_c,0,40,127,
2,1097, Note_off_c,0,49,127,
2,1098, Note_off_c,0,64,127,
2,1101, Note_off_c,0,40,127,
2,1102, Note_on_c,0,40,127,
2,1115, Note_on_c,0,64,127,
2,1115, Note_off_c,0,61,127,
2,1116, Note_on_c,0,61,127,
2,1116, Note_off_c,0,64,127,
2,1123, Note_on_c,0,64,127,
2,1123, Note_off_c,0,61,127,
2,1124, Note_on_c,0,61,127,
2,1124, Note_off_c,0,64,127,
2,1127, Note_on_c,0,64,127,
2,1127, Note_off_c,0,61,127,
2,1128, Note_on_c,0,61,127,
2,1128, Note_on_c,0,39,127,
2,1128, Note_off_c,0,64,127,
2,1128, Note_off_c,0,40,127,
2,1129, Note_on_c,0,40,127,
2,1129, Note_off_c,0,39,127,
2,1135, Note_on_c,0,64,127,
2,1135, Note_off_c,0,61,127,
2,1136, Note_on_c,0,61,127,
2,1136, Note_off_c,0,64,127,
2,1139, Note_on_c,0,64,127,
2,1139, Note_off_c,0,61,127,
2,1140, Note_on_c,0,61,127,
2,1140, Note_off_c,0,64,127,
2,1143, Note_on_c,0,64,127,
2,1143, Note_off_c,0,61,127,
2,1144, Note_on_c,0,61,127,
2,1144, Note_off_c,0,64,127,
2,1159, Note_on_c,0,28,127,
2,1159, Note_off_c,0,40,127,
2,1160, Note_on_c,0,64,127,
2,1160, Note_on_c,0,40,127,
2,1160, Note_off_c,0,28,127,
2,1161, Note_off_c,0,64,127,
2,1162, Note_on_c,0,70,127,
2,1163, Note_off_c,0,70,127,
2,1165, Note_on_c,0,63,127,
2,1166, Note_off_c,0,63,127,
2,1170, Note_on_c,0,56,127,
2,1171, Note_off_c,0,56,127,
2,1176, Note_on_c,0,64,127,
2,1177, Note_off_c,0,64,127,
2,1179, Note_on_c,0,70,127,
2,1180, Note_on_c,0,64,127,
2,1180, Note_off_c,0,70,127,
2,1182, Note_off_c,0,64,127,
2,1183, Note_on_c,0,64,127,
2,1184, Note_on_c,0,43,127,
2,1184, Note_off_c,0,64,127,
2,1184, Note_off_c,0,40,127,
2,1185, Note_on_c,0,64,127,
2,1185, Note_on_c,0,40,127,
2,1185, Note_off_c,0,43,127,
2,1186, Note_off_c,0,64,127,
2,1193, Note_on_c,0,73,127,
2,1194, Note_off_c,0,73,127,
2,1196, Note_on_c,0,37,127,
2,1196, Note_off_c,0,40,127,
2,1197, Note_on_c,0,40,127,
2,1197, Note_off_c,0,37,127,
2,1199, Note_on_c,0,64,127,
2,1200, Note_off_c,0,64,127,
2,1202, Note_on_c,0,43,127,
2,1202, Note_off_c,0,40,127,
2,1203, Note_off_c,0,43,127,
2,1205, Note_on_c,0,40,127,
2,1218, Note_on_c,0,63,127,
2,1218, Note_on_c,0,39,127,
2,1218, Note_off_c,0,61,127,
2,1218, Note_off_c,0,40,127,
2,1219, Note_on_c,0,61,127,
2,1219, Note_on_c,0,40,127,
2,1219, Note_off_c,0,63,127,
2,1219, Note_off_c,0,39,127,
2,1231, Note_on_c,0,64,127,
2,1231, Note_off_c,0,61,127,
2,1232, Note_on_c,0,61,127,
2,1232, Note_on_c,0,39,127,
2,1232, Note_off_c,0,64,127,
2,1232, Note_off_c,0,40,127,
2,1233, Note_on_c,0,40,127,
2,1233, Note_off_c,0,39,127,
2,1234, Note_on_c,0,39,127,
2,1234, Note_off_c,0,40,127,
2,1235, Note_on_c,0,58,127,
2,1235, Note_on_c,0,40,127,
2,1235, Note_off_c,0,61,127,
2,1235, Note_off_c,0,39,127,
2,1236, Note_on_c,0,61,127,
2,1236, Note_off_c,0,58,127,
2,1242, Note_on_c,0,43,127,
2,1242, Note_off_c,0,40,127,
2,1243, Note_on_c,0,40,127,
2,1243, Note_off_c,0,43,127,
2,1245, Note_on_c,0,58,127,
2,1245, Note_off_c,0,61,127,
2,1246, Note_on_c,0,61,127,
2,1246, Note_off_c,0,58,127,
2,1253, Note_on_c,0,46,127,
2,1253, Note_off_c,0,61,127,
2,1254, Note_on_c,0,61,127,
2,1254, Note_off_c,0,46,127,
2,1256, Note_off_c,0,40,127,
2,1257, Note_on_c,0,40,127,
2,1258, Note_off_c,0,40,127,
2,1259, Note_on_c,0,40,127,
2,1271, Note_on_c,0,58,127,
2,1271, Note_off_c,0,61,127,
2,1272, Note_on_c,0,61,127,
2,1272, Note_off_c,0,58,127,
2,1299, Note_on_c,0,64,127,
2,1299, Note_off_c,0,61,127,
2,1300, Note_on_c,0,61,127,
2,1300, Note_off_c,0,64,127,
2,1301, Note_on_c,0,64,127,
2,1301, Note_off_c,0,61,127,
2,1302, Note_on_c,0,61,127,
2,1302, Note_off_c,0,64,127,
2,1325, Note_on_c,0,58,127,
2,1325, Note_off_c,0,61,127,
2,1326, Note_on_c,0,61,127,
2,1326, Note_off_c,0,58,127,
2,1333, Note_on_c,0,39,127,
2,1333, Note_off_c,0,40,127,
2,1334, Note_on_c,0,40,127,
2,1334, Note_off_c,0,39,127,
2,1340, Note_on_c,0,43,127,
2,1340, Note_off_c,0,40,127,
2,1341, Note_on_c,0,40,127,
2,1341, Note_off_c,0,43,127,
2,1343, Note_on_c,0,64,127,
2,1343, Note_off_c,0,61,127,
2,1344, Note_on_c,0,61,127,
2,1344, Note_off_c,0,64,127,
2,1347, Note_on_c,0,63,127,
2,1347, Note_off_c,0,61,127,
2,1348, Note_on_c,0,61,127,
2,1348, Note_off_c,0,63,127,
2,1354, Note_on_c,0,64,127,
2,1354, Note_off_c,0,61,127,
2,1355, Note_on_c,0,61,127,
2,1355, Note_off_c,0,64,127,
2,1357, Note_on_c,0,39,127,
2,1357, Note_off_c,0,40,127,
2,1358, Note_on_c,0,40,127,
2,1358, Note_off_c,0,39,127,
2,1364, Note_on_c,0,59,127,
2,1364, Note_off_c,0,61,127,
2,1365, Note_on_c,0,61,127,
2,1365, Note_off_c,0,59,127,
2,1376, Note_off_c,0,40,127,
2,1377, Note_on_c,0,40,127,
2,1378, Note_off_c,0,40,127,
2,1379, Note_on_c,0,40,127,
2,1387, Note_on_c,0,43,127,
2,1387, Note_off_c,0,40,127,
2,1388, Note_on_c,0,40,127,
2,1388, Note_off_c,0,43,127,
2,1399, Note_on_c,0,64,127,
2,1399, Note_off_c,0,61,127,
2,1400, Note_on_c,0,61,127,
2,1400, Note_off_c,0,64,127,
2,1406, Note_on_c,0,68,127,
2,1406, Note_off_c,0,61,127,
2,1407, Note_on_c,0,61,127,
2,1407, Note_off_c,0,68,127,
2,1408, Note_on_c,0,64,127,
2,1408, Note_off_c,0,61,127,
2,1409, Note_on_c,0,61,127,
2,1409, Note_off_c,0,64,127,
2,1410, Note_off_c,0,40,127,
2,1412, Note_on_c,0,40,127,
2,1412, Note_off_c,0,61,127,
2,1424, Note_on_c,0,68,127,
2,1424, Note_off_c,0,40,127,
2,1425, Note_on_c,0,61,127,
2,1425, Note_on_c,0,40,127,
2,1425, Note_off_c,0,68,127,
2,1430, Note_on_c,0,56,127,
2,1430, Note_off_c,0,40,127,
2,1431, Note_on_c,0,40,127,
2,1431, Note_off_c,0,56,127,
2,1441, Note_on_c,0,64,127,
2,1442, Note_off_c,0,64,127,
2,1444, Note_on_c,0,64,127,
2,1446, Note_off_c,0,64,127,
2,1447, Note_on_c,0,64,127,
2,1448, Note_on_c,0,58,127,
2,1448, Note_off_c,0,64,127,
2,1449, Note_off_c,0,58,127,
2,1453, Note_on_c,0,64,127,
2,1454, Note_off_c,0,64,127,
2,1456, Note_on_c,0,64,127,
2,1457, Note_on_c,0,39,127,
2,1457, Note_off_c,0,64,127,
2,1457, Note_off_c,0,40,127,
2,1458, Note_on_c,0,40,127,
2,1458, Note_off_c,0,39,127,
2,1459, Note_on_c,0,46,127,
2,1459, Note_off_c,0,40,127,
2,1460, Note_on_c,0,40,127,
2,1460, Note_off_c,0,46,127,
2,1461, Note_on_c,0,64,127,
2,1461, Note_off_c,0,61,127,
2,1463, Note_on_c,0,61,127,
2,1463, Note_off_c,0,64,127,
2,1471, Note_on_c,0,64,127,
2,1471, Note_on_c,0,39,127,
2,1471, Note_off_c,0,61,127,
2,1471, Note_off_c,0,40,127,
2,1472, Note_on_c,0,61,127,
2,1472, Note_on_c,0,40,127,
2,1472, Note_off_c,0,64,127,
2,1472, Note_off_c,0,39,127,
2,1474, Note_on_c,0,64,127,
2,1474, Note_off_c,0,61,127,
2,1475, Note_on_c,0,58,127,
2,1475, Note_off_c,0,64,127,
2,1476, Note_on_c,0,61,127,
2,1476, Note_on_c,0,64,127,
2,1476, Note_off_c,0,58,127,
2,1476, Note_off_c,0,40,127,
2,1477, Note_on_c,0,40,127,
2,1477, Note_off_c,0,64,127,
2,1482, Note_off_c,0,40,127,
2,1484, Note_on_c,0,40,127,
2,1493, Note_off_c,0,40,127,
2,1494, Note_on_c,0,40,127,
2,1495, Note_off_c,0,61,127,
2,1496, Note_on_c,0,61,127,
2,1496, Note_off_c,0,40,127,
2,1497, Note_on_c,0,40,127,
2,1497, Note_off_c,0,61,127,
2,1508, Note_on_c,0,70,127,
2,1509, Note_on_c,0,61,127,
2,1509, Note_off_c,0,70,127,
2,1512, Note_on_c,0,64,127,
2,1512, Note_off_c,0,61,127,
2,1513, Note_on_c,0,61,127,
2,1513, Note_off_c,0,64,127,
2,1515, Note_on_c,0,64,127,
2,1515, Note_off_c,0,61,127,
2,1516, Note_on_c,0,61,127,
2,1516, Note_off_c,0,64,127,
2,1519, Note_on_c,0,64,127,
2,1519, Note_off_c,0,61,127,
2,1520, Note_on_c,0,61,127,
2,1520, Note_off_c,0,64,127,
2,1531, Note_on_c,0,35,127,
2,1531, Note_off_c,0,40,127,
2,1532, Note_on_c,0,40,127,
2,1532, Note_off_c,0,35,127,
2,1537, Note_on_c,0,64,127,
2,1538, Note_off_c,0,64,127,
2,1540, Note_on_c,0,52,127,
2,1541, Note_off_c,0,52,127,
2,1544, Note_on_c,0,46,127,
2,1545, Note_off_c,0,46,127,
2,1546, Note_on_c,0,64,127,
2,1546, Note_off_c,0,61,127,
2,1547, Note_on_c,0,61,127,
2,1547, Note_off_c,0,64,127,
2,1548, Note_on_c,0,64,127,
2,1549, Note_off_c,0,64,127,
2,1550, Note_on_c,0,68,127,
2,1551, Note_off_c,0,68,127,
2,1553, Note_on_c,0,43,127,
2,1554, Note_on_c,0,58,127,
2,1554, Note_off_c,0,43,127,
2,1554, Note_off_c,0,61,127,
2,1555, Note_on_c,0,61,127,
2,1555, Note_off_c,0,58,127,
2,1556, Note_on_c,0,46,127,
2,1556, Note_off_c,0,40,127,
2,1557, Note_on_c,0,40,127,
2,1557, Note_off_c,0,46,127,
2,1560, Note_on_c,0,64,127,
2,1560, Note_off_c,0,61,127,
2,1562, Note_on_c,0,61,127,
2,1562, Note_off_c,0,64,127,
2,1569, Note_on_c,0,34,127,
2,1569, Note_off_c,0,40,127,
2,1570, Note_on_c,0,40,127,
2,1570, Note_off_c,0,34,127,
2,1572, Note_off_c,0,40,127,
2,1573, Note_on_c,0,46,127,
2,1574, Note_on_c,0,40,127,
2,1574, Note_off_c,0,46,127,
2,1589, Note_on_c,0,64,127,
2,1589, Note_off_c,0,61,127,
2,1590, Note_on_c,0,61,127,
2,1590, Note_off_c,0,64,127,
2,1593, Note_on_c,0,63,127,
2,1593, Note_off_c,0,61,127,
2,1594, Note_on_c,0,61,127,
2,1594, Note_off_c,0,63,127,
2,1595, Note_on_c,0,63,127,
2,1596, Note_off_c,0,63,127,
2,1597, Note_on_c,0,63,127,
2,1598, Note_off_c,0,63,127,
2,1607, Note_on_c,0,39,127,
2,1607, Note_off_c,0,40,127,
2,1608, Note_on_c,0,40,127,
2,1608, Note_off_c,0,39,127,
2,1616, Note_on_c,0,66,127,
2,1616, Note_off_c,0,61,127,
2,1617, Note_on_c,0,61,127,
2,1617, Note_off_c,0,66,127,
2,1619, Note_off_c,0,61,127,
2,1620, Note_on_c,0,61,127,
2,1621, Note_on_c,0,64,127,
2,1621, Note_off_c,0,61,127,
2,1622, Note_on_c,0,61,127,
2,1622, Note_off_c,0,64,127,
2,1630, Note_on_c,0,64,127,
2,1630, Note_off_c,0,61,127,
2,1631, Note_on_c,0,61,127,
2,1631, Note_on_c,0,39,127,
2,1631, Note_off_c,0,64,127,
2,1631, Note_off_c,0,40,127,
2,1632, Note_on_c,0,40,127,
2,1632, Note_off_c,0,39,127,
2,1647, Note_on_c,0,64,127,
2,1647, Note_off_c,0,61,127,
2,1648, Note_on_c,0,61,127,
2,1648, Note_off_c,0,64,127,
2,1654, Note_on_c,0,46,127,
2,1654, Note_off_c,0,40,127,
2,1655, Note_on_c,0,40,127,
2,1655, Note_off_c,0,46,127,
2,1659, Note_off_c,0,40,127,
2,1660, Note_on_c,0,40,127,
2,1661, Note_off_c,0,40,127,
2,1662, Note_on_c,0,40,127,
2,1679, Note_on_c,0,52,127,
2,1679, Note_off_c,0,61,127,
2,1680, Note_on_c,0,61,127,
2,1680, Note_off_c,0,52,127,
2,1694, Note_on_c,0,58,127,
2,1694, Note_off_c,0,61,127,
2,1695, Note_on_c,0,61,127,
2,1695, Note_off_c,0,58,127,
2,1722, Note_on_c,0,64,127,
2,1722, Note_off_c,0,61,127,
2,1723, Note_on_c,0,61,127,
2,1723, Note_off_c,0,64,127,
2,1726, Note_on_c,0,64,127,
2,1726, Note_off_c,0,61,127,
2,1727, Note_on_c,0,61,127,
2,1727, Note_off_c,0,64,127,
2,1731, Note_on_c,0,64,127,
2,1731, Note_off_c,0,61,127,
2,1732, Note_on_c,0,61,127,
2,1732, Note_off_c,0,64,127,
2,1750, Note_on_c,0,64,127,
2,1750, Note_off_c,0,61,127,
2,1751, Note_on_c,0,61,127,
2,1751, Note_off_c,0,64,127,
2,1765, Note_on_c,0,64,127,
2,1765, Note_off_c,0,61,127,
2,1766, Note_on_c,0,61,127,
2,1766, Note_off_c,0,64,127,
2,1770, Note_on_c,0,64,127,
2,1770, Note_off_c,0,61,127,
2,1771, Note_on_c,0,61,127,
2,1771, Note_off_c,0,64,127,
2,1780, Note_on_c,0,49,127,
2,1780, Note_on_c,0,34,127,
2,1780, Note_off_c,0,61,127,
2,1780, Note_off_c,0,40,127,
2,1781, Note_on_c,0,61,127,
2,1781, Note_on_c,0,40,127,
2,1781, Note_off_c,0,49,127,
2,1781, Note_off_c,0,34,127,
2,1785, Note_on_c,0,64,127,
2,1785, Note_off_c,0,61,127,
2,1786, Note_on_c,0,61,127,
2,1786, Note_off_c,0,64,127,
2,1790, Note_on_c,0,63,127,
2,1790, Note_off_c,0,61,127,
2,1791, Note_on_c,0,61,127,
2,1791, Note_off_c,0,63,127,
2,1792, Note_on_c,0,64,127,
2,1792, Note_off_c,0,61,127,
2,1793, Note_on_c,0,61,127,
2,1793, Note_off_c,0,64,127,
2,1796, Note_on_c,0,56,127,
2,1796, Note_off_c,0,61,127,
2,1797, Note_on_c,0,64,127,
2,1797, Note_on_c,0,39,127,
2,1797, Note_off_c,0,40,127,
2,1797, Note_off_c,0,56,127,
2,1798, Note_on_c,0,40,127,
2,1798, Note_on_c,0,56,127,
2,1798, Note_off_c,0,39,127,
2,1799, Note_on_c,0,61,127,
2,1799, Note_off_c,0,64,127,
2,1800, Note_off_c,0,56,127,
2,1801, Note_on_c,0,64,127,
2,1801, Note_on_c,0,39,127,
2,1801, Note_off_c,0,61,127,
2,1802, Note_on_c,0,61,127,
2,1802, Note_off_c,0,64,127,
2,1802, Note_off_c,0,39,127,
2,1803, Note_on_c,0,64,127,
2,1803, Note_off_c,0,61,127,
2,1804, Note_on_c,0,61,127,
2,1804, Note_off_c,0,64,127,
2,1808, Note_on_c,0,70,127,
2,1809, Note_off_c,0,70,127,
2,1810, Note_on_c,0,68,127,
2,1811, Note_off_c,0,68,127,
2,1813, Note_off_c,0,40,127,
2,1814, Note_on_c,0,40,127,
2,1822, Note_on_c,0,64,127,
2,1822, Note_off_c,0,61,127,
2,1823, Note_on_c,0,61,127,
2,1823, Note_off_c,0,64,127,
2,1845, Note_on_c,0,64,127,
2,1845, Note_off_c,0,61,127,
2,1846, Note_on_c,0,61,127,
2,1846, Note_off_c,0,64,127,
2,1857, Note_off_c,0,40,127,
2,1858, Note_on_c,0,40,127,
2,1859, Note_on_c,0,46,127,
2,1859, Note_off_c,0,40,127,
2,1860, Note_on_c,0,40,127,
2,1860, Note_off_c,0,46,127,
2,1863, Note_on_c,0,70,127,
2,1864, Note_on_c,0,39,127,
2,1864, Note_off_c,0,40,127,
2,1865, Note_on_c,0,40,127,
2,1865, Note_off_c,0,39,127,
2,1865, Note_off_c,0,70,127,
2,1866, Note_on_c,0,70,127,
2,1867, Note_off_c,0,70,127,
2,1870, Note_off_c,0,40,127,
2,1871, Note_on_c,0,40,127,
2,1873, Note_on_c,0,64,127,
2,1873, Note_off_c,0,61,127,
2,1874, Note_on_c,0,61,127,
2,1874, Note_off_c,0,64,127,
2,1904, Note_on_c,0,64,127,
2,1904, Note_off_c,0,61,127,
2,1905, Note_on_c,0,61,127,
2,1905, Note_off_c,0,64,127,
2,1931, Note_on_c,0,64,127,
2,1931, Note_off_c,0,61,127,
2,1932, Note_on_c,0,61,127,
2,1932, Note_off_c,0,64,127,
2,1942, Note_on_c,0,37,127,
2,1942, Note_off_c,0,40,127,
2,1943, Note_on_c,0,40,127,
2,1943, Note_off_c,0,37,127,
2,1946, Note_on_c,0,58,127,
2,1946, Note_off_c,0,61,127,
2,1947, Note_on_c,0,61,127,
2,1947, Note_off_c,0,58,127,
2,1951, Note_on_c,0,37,127,
2,1951, Note_off_c,0,40,127,
2,1952, Note_on_c,0,40,127,
2,1952, Note_off_c,0,37,127,
2,1961, Note_on_c,0,64,127,
2,1961, Note_off_c,0,40,127,
2,1962, Note_on_c,0,40,127,
2,1962, Note_off_c,0,64,127,
2,1964, Note_on_c,0,64,127,
2,1965, Note_off_c,0,64,127,
2,1967, Note_off_c,0,40,127,
2,1968, Note_on_c,0,40,127,
2,1969, Note_on_c,0,34,127,
2,1969, Note_off_c,0,40,127,
2,1970, Note_on_c,0,64,127,
2,1970, Note_on_c,0,40,127,
2,1970, Note_off_c,0,34,127,
2,1971, Note_off_c,0,64,127,
2,1972, Note_on_c,0,37,127,
2,1972, Note_off_c,0,40,127,
2,1973, Note_on_c,0,40,127,
2,1973, Note_off_c,0,37,127,
2,1975, Note_on_c,0,46,127,
2,1976, Note_off_c,0,46,127,
2,1977, Note_off_c,0,40,127,
2,1978, Note_on_c,0,40,127,
2,1978, Note_on_c,0,70,127,
2,1979, Note_off_c,0,70,127,
2,1981, Note_on_c,0,64,127,
2,1982, Note_off_c,0,64,127,
2,1987, Note_on_c,0,64,127,
2,1988, Note_off_c,0,64,127,
2,1989, Note_on_c,0,70,127,
2,1990, Note_on_c,0,64,127,
2,1990, Note_off_c,0,70,127,
2,1991, Note_on_c,0,58,127,
2,1991, Note_off_c,0,61,127,
2,1991, Note_off_c,0,64,127,
2,1992, Note_on_c,0,61,127,
2,1992, Note_on_c,0,64,127,
2,1992, Note_off_c,0,58,127,
2,1992, Note_off_c,0,40,127,
2,1993, Note_on_c,0,40,127,
2,1993, Note_off_c,0,64,127,
2,1994, Note_on_c,0,64,127,
2,1995, Note_off_c,0,64,127,
2,1997, Note_on_c,0,64,127,
2,1998, Note_off_c,0,64,127,
2,2000, Note_on_c,0,64,127,
2,2001, Note_off_c,0,64,127,
2,2003, Note_on_c,0,70,127,
2,2004, Note_off_c,0,70,127,
2,2008, Note_off_c,0,40,127,
2,2009, Note_on_c,0,40,127,
2,2014, Note_on_c,0,39,127,
2,2014, Note_off_c,0,40,127,
2,2015, Note_on_c,0,58,127,
2,2015, Note_on_c,0,40,127,
2,2015, Note_off_c,0,61,127,
2,2015, Note_off_c,0,39,127,
2,2016, Note_on_c,0,61,127,
2,2016, Note_off_c,0,58,127,
2,2030, Note_on_c,0,64,127,
2,2030, Note_off_c,0,61,127,
2,2031, Note_on_c,0,61,127,
2,2031, Note_off_c,0,64,127,
2,2036, Note_on_c,0,64,127,
2,2036, Note_off_c,0,61,127,
2,2037, Note_on_c,0,61,127,
2,2037, Note_off_c,0,64,127,
2,2059, Note_on_c,0,39,127,
2,2059, Note_off_c,0,40,127,
2,2060, Note_on_c,0,40,127,
2,2060, Note_off_c,0,39,127,
2,2065, Note_on_c,0,39,127,
2,2065, Note_off_c,0,40,127,
2,2066, Note_on_c,0,40,127,
2,2066, Note_off_c,0,39,127,
2,2069, Note_on_c,0,46,127,
2,2069, Note_off_c,0,40,127,
2,2070, Note_on_c,0,40,127,
2,2070, Note_off_c,0,46,127,
2,2087, Note_off_c,0,61,127,
2,2088, Note_on_c,0,61,127,
2,2091, Note_on_c,0,64,127,
2,2091, Note_off_c,0,61,127,
2,2092, Note_on_c,0,61,127,
2,2092, Note_off_c,0,64,127,
2,2097, Note_on_c,0,64,127,
2,2097, Note_off_c,0,61,127,
2,2098, Note_on_c,0,61,127,
2,2098, Note_off_c,0,64,127,
2,2108, Note_on_c,0,64,127,
2,2108, Note_off_c,0,61,127,
2,2109, Note_on_c,0,61,127,
2,2109, Note_off_c,0,64,127,
2,2124, Note_on_c,0,56,127,
2,2124, Note_off_c,0,61,127,
2,2125, Note_on_c,0,61,127,
2,2125, Note_off_c,0,56,127,
2,2129, Note_on_c,0,58,127,
2,2129, Note_off_c,0,61,127,
2,2130, Note_on_c,0,61,127,
2,2130, Note_off_c,0,58,127,
2,2132, Note_on_c,0,64,127,
2,2132, Note_off_c,0,61,127,
2,2133, Note_on_c,0,61,127,
2,2133, Note_off_c,0,64,127,
2,2136, Note_on_c,0,44,127,
2,2136, Note_on_c,0,58,127,
2,2136, Note_off_c,0,61,127,
2,2136, Note_off_c,0,40,127,
2,2137, Note_on_c,0,61,127,
2,2137, Note_on_c,0,40,127,
2,2137, Note_off_c,0,44,127,
2,2137, Note_off_c,0,58,127,
2,2141, Note_on_c,0,64,127,
2,2141, Note_off_c,0,61,127,
2,2142, Note_on_c,0,61,127,
2,2142, Note_off_c,0,64,127,
2,2143, Note_off_c,0,61,127,
2,2144, Note_on_c,0,64,127,
2,2144, Note_off_c,0,40,127,
2,2145, Note_on_c,0,61,127,
2,2145, Note_on_c,0,40,127,
2,2145, Note_off_c,0,64,127,
2,2147, Note_on_c,0,63,127,
2,2147, Note_off_c,0,61,127,
2,2148, Note_on_c,0,61,127,
2,2148, Note_off_c,0,63,127,
2,2164, Note_on_c,0,64,127,
2,2165, Note_on_c,0,59,127,
2,2165, Note_off_c,0,64,127,
2,2166, Note_off_c,0,59,127,
2,2172, Note_on_c,0,64,127,
2,2173, Note_off_c,0,64,127,
2,2177, Note_off_c,0,40,127,
2,2178, Note_on_c,0,37,127,
2,2179, Note_on_c,0,40,127,
2,2179, Note_off_c,0,37,127,
2,2193, Note_on_c,0,64,127,
2,2193, Note_on_c,0,58,127,
2,2193, Note_off_c,0,61,127,
2,2194, Note_on_c,0,61,127,
2,2194, Note_off_c,0,64,127,
2,2194, Note_off_c,0,58,127,
2,2195, Note_off_c,0,40,127,
2,2196, Note_on_c,0,40,127,
2,2197, Note_on_c,0,64,127,
2,2197, Note_off_c,0,61,127,
2,2198, Note_on_c,0,61,127,
2,2198, Note_off_c,0,64,127,
2,2208, Note_on_c,0,59,127,
2,2208, Note_off_c,0,40,127,
2,2209, Note_on_c,0,40,127,
2,2209, Note_off_c,0,59,127,
2,2214, Note_off_c,0,40,127,
2,2215, Note_on_c,0,40,127,
2,2218, Note_on_c,0,64,127,
2,2220, Note_on_c,0,58,127,
2,2220, Note_on_c,0,39,127,
2,2220, Note_off_c,0,64,127,
2,2220, Note_off_c,0,40,127,
2,2221, Note_on_c,0,46,127,
2,2221, Note_on_c,0,40,127,
2,2221, Note_off_c,0,58,127,
2,2221, Note_off_c,0,39,127,
2,2222, Note_on_c,0,70,127,
2,2222, Note_off_c,0,46,127,
2,2223, Note_on_c,0,64,127,
2,2223, Note_off_c,0,70,127,
2,2224, Note_off_c,0,64,127,
2,2226, Note_on_c,0,64,127,
2,2227, Note_off_c,0,64,127,
2,2228, Note_on_c,0,64,127,
2,2229, Note_on_c,0,46,127,
2,2229, Note_off_c,0,64,127,
2,2230, Note_off_c,0,46,127,
2,2231, Note_on_c,0,64,127,
2,2231, Note_off_c,0,61,127,
2,2232, Note_on_c,0,61,127,
2,2232, Note_on_c,0,70,127,
2,2232, Note_off_c,0,64,127,
2,2233, Note_off_c,0,70,127,
2,2234, Note_on_c,0,70,127,
2,2235, Note_off_c,0,70,127,
2,2237, Note_on_c,0,64,127,
2,2238, Note_off_c,0,64,127,
2,2240, Note_on_c,0,44,127,
2,2240, Note_off_c,0,40,127,
2,2241, Note_on_c,0,64,127,
2,2241, Note_on_c,0,40,127,
2,2241, Note_on_c,0,37,127,
2,2241, Note_off_c,0,44,127,
2,2241, Note_off_c,0,61,127,
2,2242, Note_on_c,0,61,127,
2,2242, Note_off_c,0,64,127,
2,2242, Note_off_c,0,37,127,
2,2243, Note_off_c,0,40,127,
2,2244, Note_on_c,0,40,127,
2,2249, Note_on_c,0,39,127,
2,2249, Note_off_c,0,40,127,
2,2250, Note_on_c,0,40,127,
2,2250, Note_off_c,0,39,127,
2,2255, Note_on_c,0,58,127,
2,2256, Note_on_c,0,64,127,
2,2256, Note_on_c,0,30,127,
2,2256, Note_off_c,0,58,127,
2,2256, Note_off_c,0,40,127,
2,2257, Note_on_c,0,40,127,
2,2257, Note_off_c,0,64,127,
2,2257, Note_off_c,0,30,127,
2,2258, Note_on_c,0,58,127,
2,2259, Note_off_c,0,58,127,
2,2260, Note_on_c,0,64,127,
2,2261, Note_off_c,0,64,127,
2,2264, Note_on_c,0,64,127,
2,2266, Note_off_c,0,64,127,
2,2268, Note_on_c,0,64,127,
2,2268, Note_off_c,0,61,127,
2,2269, Note_on_c,0,61,127,
2,2269, Note_off_c,0,64,127,
2,2291, Note_on_c,0,64,127,
2,2291, Note_off_c,0,61,127,
2,2292, Note_on_c,0,61,127,
2,2292, Note_off_c,0,64,127,
2,2294, Note_on_c,0,64,127,
2,2294, Note_off_c,0,61,127,
2,2295, Note_on_c,0,61,127,
2,2295, Note_on_c,0,46,127,
2,2295, Note_off_c,0,64,127,
2,2295, Note_off_c,0,40,127,
2,2296, Note_on_c,0,40,127,
2,2296, Note_off_c,0,46,127,
2,2301, Note_on_c,0,64,127,
2,2301, Note_off_c,0,61,127,
2,2302, Note_on_c,0,61,127,
2,2302, Note_off_c,0,64,127,
2,2309, Note_on_c,0,64,127,
2,2309, Note_off_c,0,61,127,
2,2311, Note_on_c,0,61,127,
2,2311, Note_off_c,0,64,127,
2,2312, Note_on_c,0,64,127,
2,2312, Note_off_c,0,61,127,
2,2313, Note_on_c,0,61,127,
2,2313, Note_off_c,0,64,127,
2,2314, Note_on_c,0,64,127,
2,2314, Note_off_c,0,61,127,
2,2315, Note_on_c,0,61,127,
2,2315, Note_off_c,0,64,127,
2,2316, Note_off_c,0,61,127,
2,2317, Note_on_c,0,61,127,
2,2317, Note_off_c,0,40,127,
2,2318, Note_on_c,0,40,127,
2,2323, Note_off_c,0,61,127,
2,2324, Note_on_c,0,61,127,
2,2325, Note_off_c,0,61,127,
2,2327, Note_on_c,0,61,127,
2,2329, Note_on_c,0,64,127,
2,2329, Note_off_c,0,61,127,
2,2332, Note_on_c,0,61,127,
2,2332, Note_off_c,0,64,127,
2,2349, Note_on_c,0,64,127,
2,2349, Note_off_c,0,61,127,
2,2350, Note_on_c,0,61,127,
2,2350, Note_off_c,0,64,127,
2,2351, Note_on_c,0,46,127,
2,2351, Note_off_c,0,61,127,
2,2352, Note_on_c,0,61,127,
2,2352, Note_off_c,0,46,127,
2,2354, Note_on_c,0,58,127,
2,2354, Note_off_c,0,61,127,
2,2355, Note_on_c,0,61,127,
2,2355, Note_off_c,0,58,127,
2,2363, Note_on_c,0,64,127,
2,2363, Note_off_c,0,61,127,
2,2364, Note_on_c,0,61,127,
2,2364, Note_off_c,0,64,127,
2,2370, Note_on_c,0,46,127,
2,2371, Note_off_c,0,46,127,
2,2375, Note_on_c,0,68,127,
2,2376, Note_off_c,0,68,127,
2,2378, Note_off_c,0,40,127,
2,2379, Note_on_c,0,40,127,
2,2393, Note_on_c,0,39,127,
2,2393, Note_off_c,0,40,127,
2,2394, Note_on_c,0,40,127,
2,2394, Note_off_c,0,39,127,
2,2398, Note_on_c,0,39,127,
2,2398, Note_off_c,0,40,127,
2,2399, Note_on_c,0,40,127,
2,2399, Note_off_c,0,39,127,
2,2403, Note_on_c,0,70,127,
2,2403, Note_off_c,0,61,127,
2,2404, Note_on_c,0,61,127,
2,2404, Note_off_c,0,70,127,
2,2406, Note_on_c,0,59,127,
2,2406, Note_off_c,0,61,127,
2,2407, Note_on_c,0,61,127,
2,2407, Note_off_c,0,59,127,
2,2409, Note_on_c,0,37,127,
2,2409, Note_off_c,0,40,127,
2,2410, Note_on_c,0,40,127,
2,2410, Note_off_c,0,37,127,
2,2414, Note_on_c,0,64,127,
2,2414, Note_off_c,0,61,127,
2,2415, Note_on_c,0,61,127,
2,2415, Note_off_c,0,64,127,
2,2421, Note_on_c,0,56,127,
2,2421, Note_off_c,0,61,127,
2,2422, Note_on_c,0,61,127,
2,2422, Note_off_c,0,56,127,
2,2430, Note_on_c,0,58,127,
2,2430, Note_off_c,0,61,127,
2,2431, Note_on_c,0,61,127,
2,2431, Note_off_c,0,58,127,
2,2433, Note_on_c,0,70,127,
2,2433, Note_off_c,0,61,127,
2,2434, Note_on_c,0,61,127,
2,2434, Note_off_c,0,70,127,
2,2437, Note_on_c,0,70,127,
2,2437, Note_off_c,0,61,127,
2,2438, Note_on_c,0,61,127,
2,2438, Note_off_c,0,70,127,
2,2439, Note_on_c,0,64,127,
2,2439, Note_off_c,0,61,127,
2,2440, Note_on_c,0,61,127,
2,2440, Note_off_c,0,64,127,
2,2444, Note_on_c,0,57,127,
2,2444, Note_off_c,0,40,127,
2,2445, Note_on_c,0,40,127,
2,2445, Note_off_c,0,57,127,
2,2447, Note_on_c,0,64,127,
2,2448, Note_off_c,0,64,127,
2,2449, Note_on_c,0,64,127,
2,2450, Note_off_c,0,64,127,
2,2451, Note_on_c,0,50,127,
2,2451, Note_off_c,0,40,127,
2,2452, Note_on_c,0,40,127,
2,2452, Note_off_c,0,50,127,
2,2454, Note_on_c,0,64,127,
2,2457, Note_off_c,0,64,127,
2,2458, Note_on_c,0,64,127,
2,2458, Note_off_c,0,61,127,
2,2459, Note_on_c,0,61,127,
2,2459, Note_off_c,0,40,127,
2,2460, Note_on_c,0,40,127,
2,2460, Note_off_c,0,64,127,
2,2461, Note_on_c,0,64,127,
2,2464, Note_off_c,0,61,127,
2,2465, Note_on_c,0,61,127,
2,2465, Note_off_c,0,64,127,
2,2466, Note_on_c,0,64,127,
2,2467, Note_on_c,0,30,127,
2,2467, Note_off_c,0,64,127,
2,2468, Note_off_c,0,30,127,
2,2468, Note_off_c,0,40,127,
2,2469, Note_on_c,0,64,127,
2,2469, Note_on_c,0,40,127,
2,2470, Note_off_c,0,64,127,
2,2471, Note_off_c,0,40,127,
2,2472, Note_on_c,0,40,127,
2,2479, Note_on_c,0,64,127,
2,2479, Note_off_c,0,61,127,
2,2480, Note_on_c,0,61,127,
2,2480, Note_off_c,0,64,127,
2,2482, Note_on_c,0,64,127,
2,2482, Note_on_c,0,49,127,
2,2482, Note_off_c,0,61,127,
2,2482, Note_off_c,0,40,127,
2,2483, Note_on_c,0,61,127,
2,2483, Note_on_c,0,40,127,
2,2483, Note_off_c,0,64,127,
2,2483, Note_off_c,0,49,127,
2,2484, Note_off_c,0,61,127,
2,2518, Note_on_c,0,37,127,
2,2518, Note_off_c,0,40,127,
2,2519, Note_on_c,0,40,127,
2,2519, Note_off_c,0,37,127,
2,2538, Note_on_c,0,39,127,
2,2538, Note_off_c,0,40,127,
2,2539, Note_on_c,0,40,127,
2,2539, Note_off_c,0,39,127,
2,2541, Note_on_c,0,37,127,
2,2541, Note_off_c,0,40,127,
2,2542, Note_on_c,0,40,127,
2,2542, Note_off_c,0,37,127,
2,2568, Note_on_c,0,39,127,
2,2568, Note_off_c,0,40,127,
2,2569, Note_on_c,0,40,127,
2,2569, Note_off_c,0,39,127,
2,2639, Note_on_c,0,39,127,
2,2639, Note_off_c,0,40,127,
2,2640, Note_on_c,0,40,127,
2,2640, Note_off_c,0,39,127,
2,2641, Note_on_c,0,37,127,
2,2641, Note_off_c,0,40,127,
2,2642, Note_on_c,0,40,127,
2,2642, Note_off_c,0,37,127,
2,2654, Note_on_c,0,67,127,
2,2654, Note_off_c,0,40,127,
2,2655, Note_on_c,0,61,127,
2,2655, Note_on_c,0,40,127,
2,2655, Note_off_c,0,67,127,
2,2658, Note_on_c,0,64,127,
2,2658, Note_off_c,0,61,127,
2,2659, Note_on_c,0,61,127,
2,2659, Note_off_c,0,64,127,
2,2661, Note_on_c,0,64,127,
2,2661, Note_off_c,0,61,127,
2,2662, Note_on_c,0,61,127,
2,2662, Note_off_c,0,64,127,
2,2669, Note_on_c,0,64,127,
2,2669, Note_off_c,0,61,127,
2,2670, Note_on_c,0,61,127,
2,2670, Note_off_c,0,64,127,
2,2674, Note_on_c,0,64,127,
2,2674, Note_off_c,0,61,127,
2,2675, Note_on_c,0,61,127,
2,2675, Note_off_c,0,64,127,
2,2677, Note_on_c,0,43,127,
2,2677, Note_off_c,0,61,127,
2,2678, Note_on_c,0,61,127,
2,2678, Note_off_c,0,43,127,
2,2679, Note_on_c,0,64,127,
2,2679, Note_off_c,0,61,127,
2,2680, Note_on_c,0,61,127,
2,2680, Note_off_c,0,64,127,
2,2693, Note_on_c,0,39,127,
2,2693, Note_off_c,0,40,127,
2,2694, Note_on_c,0,40,127,
2,2694, Note_off_c,0,39,127,
2,2707, Note_on_c,0,64,127,
2,2707, Note_off_c,0,61,127,
2,2709, Note_on_c,0,61,127,
2,2709, Note_off_c,0,64,127,
2,2709, Note_off_c,0,40,127,
2,2710, Note_on_c,0,40,127,
2,2718, Note_on_c,0,64,127,
2,2718, Note_off_c,0,61,127,
2,2720, Note_on_c,0,61,127,
2,2720, Note_off_c,0,64,127,
2,2728, Note_on_c,0,64,127,
2,2728, Note_off_c,0,61,127,
2,2729, Note_on_c,0,61,127,
2,2729, Note_off_c,0,64,127,
2,2731, Note_on_c,0,64,127,
2,2731, Note_off_c,0,61,127,
2,2732, Note_on_c,0,61,127,
2,2732, Note_off_c,0,64,127,
2,2737, Note_on_c,0,58,127,
2,2737, Note_off_c,0,61,127,
2,2738, Note_on_c,0,61,127,
2,2738, Note_off_c,0,58,127,
2,2744, Note_on_c,0,67,127,
2,2744, Note_off_c,0,61,127,
2,2745, Note_on_c,0,61,127,
2,2745, Note_off_c,0,67,127,
2,2761, Note_on_c,0,64,127,
2,2761, Note_off_c,0,61,127,
2,2762, Note_on_c,0,61,127,
2,2762, Note_off_c,0,64,127,
2,2774, Note_on_c,0,64,127,
2,2774, Note_off_c,0,61,127,
2,2775, Note_on_c,0,61,127,
2,2775, Note_off_c,0,64,127,
2,2788, Note_on_c,0,58,127,
2,2788, Note_off_c,0,61,127,
2,2789, Note_on_c,0,61,127,
2,2789, Note_off_c,0,58,127,
2,2794, Note_on_c,0,64,127,
2,2794, Note_off_c,0,61,127,
2,2795, Note_on_c,0,61,127,
2,2795, Note_on_c,0,47,127,
2,2795, Note_off_c,0,64,127,
2,2795, Note_off_c,0,40,127,
2,2796, Note_on_c,0,64,127,
2,2796, Note_on_c,0,40,127,
2,2796, Note_off_c,0,61,127,
2,2796, Note_off_c,0,47,127,
2,2797, Note_off_c,0,64,127,
2,2798, Note_on_c,0,61,127,
2,2805, Note_on_c,0,64,127,
2,2805, Note_off_c,0,61,127,
2,2806, Note_on_c,0,61,127,
2,2806, Note_off_c,0,64,127,
2,2830, Note_on_c,0,63,127,
2,2830, Note_off_c,0,61,127,
2,2831, Note_on_c,0,61,127,
2,2831, Note_off_c,0,63,127,
2,2840, Note_on_c,0,70,127,
2,2840, Note_off_c,0,61,127,
2,2841, Note_on_c,0,61,127,
2,2841, Note_off_c,0,70,127,
2,2851, Note_on_c,0,37,127,
2,2851, Note_off_c,0,40,127,
2,2852, Note_on_c,0,64,127,
2,2852, Note_on_c,0,40,127,
2,2852, Note_off_c,0,61,127,
2,2852, Note_off_c,0,37,127,
2,2853, Note_on_c,0,61,127,
2,2853, Note_off_c,0,64,127,
2,2855, Note_on_c,0,64,127,
2,2855, Note_on_c,0,39,127,
2,2855, Note_off_c,0,61,127,
2,2855, Note_off_c,0,40,127,
2,2856, Note_on_c,0,61,127,
2,2856, Note_on_c,0,40,127,
2,2856, Note_off_c,0,64,127,
2,2856, Note_off_c,0,39,127,
2,2865, Note_on_c,0,64,127,
2,2865, Note_off_c,0,61,127,
2,2866, Note_on_c,0,61,127,
2,2866, Note_off_c,0,64,127,
2,2879, Note_on_c,0,37,127,
2,2879, Note_off_c,0,40,127,
2,2880, Note_on_c,0,40,127,
2,2880, Note_off_c,0,37,127,
2,2884, Note_on_c,0,64,127,
2,2884, Note_off_c,0,61,127,
2,2885, Note_on_c,0,61,127,
2,2885, Note_off_c,0,64,127,
2,2888, Note_on_c,0,64,127,
2,2888, Note_off_c,0,61,127,
2,2889, Note_on_c,0,61,127,
2,2889, Note_off_c,0,64,127,
2,2900, Note_on_c,0,64,127,
2,2900, Note_off_c,0,61,127,
2,2901, Note_on_c,0,61,127,
2,2901, Note_off_c,0,64,127,
2,2905, Note_on_c,0,64,127,
2,2905, Note_off_c,0,61,127,
2,2906, Note_on_c,0,76,127,
2,2906, Note_on_c,0,61,127,
2,2906, Note_on_c,0,39,127,
2,2906, Note_off_c,0,64,127,
2,2906, Note_off_c,0,40,127,
2,2907, Note_on_c,0,40,127,
2,2907, Note_off_c,0,76,127,
2,2907, Note_off_c,0,39,127,
2,2913, Note_on_c,0,64,127,
2,2913, Note_off_c,0,61,127,
2,2914, Note_on_c,0,44,127,
2,2914, Note_on_c,0,61,127,
2,2914, Note_off_c,0,64,127,
2,2914, Note_off_c,0,40,127,
2,2915, Note_on_c,0,39,127,
2,2915, Note_off_c,0,44,127,
2,2916, Note_on_c,0,40,127,
2,2916, Note_off_c,0,39,127,
2,2920, Note_on_c,0,63,127,
2,2920, Note_on_c,0,83,127,
2,2920, Note_off_c,0,61,127,
2,2920, Note_off_c,0,40,127,
2,2921, Note_on_c,0,61,127,
2,2921, Note_on_c,0,40,127,
2,2921, Note_off_c,0,63,127,
2,2921, Note_off_c,0,83,127,
2,2924, Note_on_c,0,58,127,
2,2924, Note_on_c,0,39,127,
2,2924, Note_off_c,0,61,127,
2,2924, Note_off_c,0,40,127,
2,2925, Note_on_c,0,61,127,
2,2925, Note_on_c,0,40,127,
2,2925, Note_off_c,0,58,127,
2,2925, Note_off_c,0,39,127,
2,2933, Note_on_c,0,64,127,
2,2933, Note_off_c,0,61,127,
2,2935, Note_on_c,0,61,127,
2,2935, Note_off_c,0,64,127,
2,2948, Note_off_c,0,40,127,
2,2949, Note_on_c,0,40,127,
2,2950, Note_off_c,0,61,127,
2,2951, Note_on_c,0,61,127,
2,2951, Note_off_c,0,40,127,
2,2952, Note_on_c,0,40,127,
2,2952, Note_off_c,0,61,127,
2,2953, Note_on_c,0,61,127,
2,2953, Note_off_c,0,40,127,
2,2954, Note_on_c,0,40,127,
2,2981, Note_on_c,0,64,127,
2,2981, Note_off_c,0,61,127,
2,2982, Note_on_c,0,61,127,
2,2982, Note_off_c,0,64,127,
2,3012, Note_on_c,0,63,127,
2,3012, Note_off_c,0,61,127,
2,3013, Note_on_c,0,49,127,
2,3013, Note_off_c,0,63,127,
2,3014, Note_on_c,0,61,127,
2,3014, Note_off_c,0,49,127,
2,3015, Note_off_c,0,40,127,
2,3016, Note_on_c,0,40,127,
2,3025, Note_on_c,0,64,127,
2,3025, Note_off_c,0,61,127,
2,3026, Note_on_c,0,61,127,
2,3026, Note_off_c,0,64,127,
2,3026, Note_off_c,0,40,127,
2,3027, Note_on_c,0,40,127,
2,3029, Note_on_c,0,68,127,
2,3029, Note_off_c,0,61,127,
2,3030, Note_on_c,0,61,127,
2,3030, Note_off_c,0,68,127,
2,3043, Note_on_c,0,59,127,
2,3043, Note_off_c,0,61,127,
2,3044, Note_on_c,0,61,127,
2,3044, Note_off_c,0,59,127,
2,3072, Note_on_c,0,49,127,
2,3072, Note_off_c,0,61,127,
2,3073, Note_on_c,0,61,127,
2,3073, Note_off_c,0,49,127,
2,3075, Note_on_c,0,52,127,
2,3075, Note_off_c,0,61,127,
2,3076, Note_on_c,0,61,127,
2,3076, Note_off_c,0,52,127,
2,3078, Note_on_c,0,64,127,
2,3078, Note_off_c,0,61,127,
2,3079, Note_on_c,0,61,127,
2,3079, Note_off_c,0,64,127,
2,3083, Note_on_c,0,37,127,
2,3083, Note_off_c,0,40,127,
2,3084, Note_on_c,0,40,127,
2,3084, Note_off_c,0,37,127,
2,3093, Note_on_c,0,64,127,
2,3093, Note_off_c,0,61,127,
2,3094, Note_on_c,0,61,127,
2,3094, Note_off_c,0,64,127,
2,3105, Note_on_c,0,34,127,
2,3105, Note_on_c,0,56,127,
2,3105, Note_off_c,0,61,127,
2,3105, Note_off_c,0,40,127,
2,3106, Note_on_c,0,61,127,
2,3106, Note_on_c,0,40,127,
2,3106, Note_off_c,0,34,127,
2,3106, Note_off_c,0,56,127,
2,3112, Note_on_c,0,39,127,
2,3112, Note_off_c,0,40,127,
2,3113, Note_on_c,0,40,127,
2,3113, Note_off_c,0,39,127,
2,3127, Note_on_c,0,64,127,
2,3127, Note_off_c,0,61,127,
2,3129, Note_on_c,0,61,127,
2,3129, Note_off_c,0,64,127,
2,3133, Note_on_c,0,64,127,
2,3133, Note_off_c,0,61,127,
2,3134, Note_on_c,0,61,127,
2,3134, Note_off_c,0,64,127,
2,3139, Note_off_c,0,40,127,
2,3140, Note_on_c,0,40,127,
2,3141, Note_off_c,0,61,127,
2,3155, Note_on_c,0,37,127,
2,3155, Note_off_c,0,40,127,
2,3156, Note_on_c,0,40,127,
2,3156, Note_off_c,0,37,127,
2,3214, Note_on_c,0,49,127,
2,3214, Note_off_c,0,40,127,
2,3215, Note_on_c,0,40,127,
2,3215, Note_off_c,0,49,127,
2,3218, Note_on_c,0,37,127,
2,3218, Note_off_c,0,40,127,
2,3219, Note_on_c,0,40,127,
2,3219, Note_off_c,0,37,127,
2,3245, Note_on_c,0,75,127,
2,3246, Note_off_c,0,75,127,
2,3247, Note_on_c,0,56,127,
2,3247, Note_off_c,0,40,127,
2,3248, Note_on_c,0,40,127,
2,3248, Note_off_c,0,56,127,
2,3269, Note_on_c,0,39,127,
2,3269, Note_off_c,0,40,127,
2,3270, Note_on_c,0,40,127,
2,3270, Note_off_c,0,39,127,
2,3275, Note_on_c,0,71,127,
2,3276, Note_on_c,0,56,127,
2,3276, Note_off_c,0,71,127,
2,3277, Note_on_c,0,61,127,
2,3277, Note_off_c,0,56,127,
2,3278, Note_on_c,0,56,127,
2,3278, Note_off_c,0,61,127,
2,3279, Note_on_c,0,61,127,
2,3279, Note_off_c,0,56,127,
2,3280, Note_on_c,0,64,127,
2,3280, Note_off_c,0,61,127,
2,3281, Note_on_c,0,61,127,
2,3281, Note_on_c,0,56,127,
2,3281, Note_off_c,0,64,127,
2,3282, Note_on_c,0,52,127,
2,3282, Note_off_c,0,56,127,
2,3283, Note_on_c,0,64,127,
2,3283, Note_on_c,0,49,127,
2,3283, Note_off_c,0,61,127,
2,3283, Note_off_c,0,52,127,
2,3284, Note_on_c,0,61,127,
2,3284, Note_on_c,0,56,127,
2,3284, Note_off_c,0,64,127,
2,3284, Note_off_c,0,49,127,
2,3285, Note_on_c,0,49,127,
2,3285, Note_off_c,0,56,127,
2,3286, Note_on_c,0,50,127,
2,3286, Note_on_c,0,52,127,
2,3286, Note_off_c,0,49,127,
2,3286, Note_off_c,0,40,127,
2,3287, Note_on_c,0,40,127,
2,3287, Note_off_c,0,50,127,
2,3287, Note_off_c,0,52,127,
2,3289, Note_on_c,0,64,127,
2,3289, Note_on_c,0,49,127,
2,3289, Note_off_c,0,61,127,
2,3290, Note_on_c,0,51,127,
2,3290, Note_off_c,0,49,127,
2,3291, Note_on_c,0,49,127,
2,3291, Note_on_c,0,70,127,
2,3291, Note_off_c,0,64,127,
2,3291, Note_off_c,0,51,127,
2,3292, Note_on_c,0,61,127,
2,3292, Note_on_c,0,64,127,
2,3292, Note_off_c,0,49,127,
2,3292, Note_off_c,0,70,127,
2,3293, Note_on_c,0,70,127,
2,3293, Note_off_c,0,64,127,
2,3294, Note_off_c,0,70,127,
2,3319, Note_on_c,0,64,127,
2,3319, Note_off_c,0,61,127,
2,3320, Note_on_c,0,61,127,
2,3320, Note_off_c,0,64,127,
2,3328, Note_on_c,0,63,127,
2,3328, Note_off_c,0,61,127,
2,3329, Note_on_c,0,61,127,
2,3329, Note_off_c,0,63,127,
2,3335, Note_on_c,0,58,127,
2,3336, Note_on_c,0,64,127,
2,3336, Note_off_c,0,58,127,
2,3337, Note_off_c,0,64,127,
2,3338, Note_on_c,0,64,127,
2,3339, Note_off_c,0,64,127,
2,3340, Note_on_c,0,64,127,
2,3340, Note_on_c,0,58,127,
2,3340, Note_off_c,0,61,127,
2,3341, Note_on_c,0,61,127,
2,3341, Note_off_c,0,64,127,
2,3341, Note_off_c,0,58,127,
2,3345, Note_on_c,0,37,127,
2,3345, Note_off_c,0,40,127,
2,3346, Note_on_c,0,40,127,
2,3346, Note_on_c,0,70,127,
2,3346, Note_off_c,0,37,127,
2,3347, Note_off_c,0,70,127,
2,3349, Note_off_c,0,40,127,
2,3350, Note_on_c,0,58,127,
2,3350, Note_off_c,0,61,127,
2,3351, Note_on_c,0,40,127,
2,3351, Note_off_c,0,58,127,
2,3371, Note_on_c,0,39,127,
2,3371, Note_off_c,0,40,127,
2,3372, Note_on_c,0,40,127,
2,3372, Note_off_c,0,39,127,
2,3374, Note_on_c,0,49,127,
2,3374, Note_off_c,0,40,127,
2,3375, Note_on_c,0,40,127,
2,3375, Note_off_c,0,49,127,
2,3379, Note_on_c,0,39,127,
2,3379, Note_off_c,0,40,127,
2,3380, Note_on_c,0,40,127,
2,3380, Note_off_c,0,39,127,
2,3404, Note_on_c,0,34,127,
2,3404, Note_off_c,0,40,127,
2,3405, Note_on_c,0,40,127,
2,3405, Note_off_c,0,34,127,
2,3412, Note_on_c,0,61,127,
2,3417, Note_on_c,0,64,127,
2,3417, Note_off_c,0,61,127,
2,3418, Note_on_c,0,61,127,
2,3418, Note_off_c,0,64,127,
2,3419, Note_on_c,0,64,127,
2,3419, Note_off_c,0,40,127,
2,3420, Note_on_c,0,40,127,
2,3420, Note_off_c,0,64,127,
2,3422, Note_on_c,0,64,127,
2,3423, Note_on_c,0,39,127,
2,3423, Note_off_c,0,40,127,
2,3424, Note_on_c,0,40,127,
2,3424, Note_off_c,0,64,127,
2,3424, Note_off_c,0,39,127,
2,3426, Note_on_c,0,64,127,
2,3426, Note_off_c,0,40,127,
2,3427, Note_on_c,0,40,127,
2,3427, Note_off_c,0,64,127,
2,3433, Note_on_c,0,52,127,
2,3434, Note_on_c,0,64,127,
2,3434, Note_off_c,0,52,127,
2,3435, Note_off_c,0,64,127,
2,3438, Note_on_c,0,64,127,
2,3438, Note_off_c,0,61,127,
2,3438, Note_off_c,0,40,127,
2,3439, Note_on_c,0,40,127,
2,3441, Note_on_c,0,61,127,
2,3441, Note_off_c,0,64,127,
2,3450, Note_off_c,0,40,127,
2,3451, Note_on_c,0,40,127,
2,3453, Note_on_c,0,58,127,
2,3453, Note_off_c,0,61,127,
2,3454, Note_on_c,0,61,127,
2,3454, Note_off_c,0,58,127,
2,3474, Note_on_c,0,36,127,
2,3474, Note_off_c,0,40,127,
2,3475, Note_on_c,0,40,127,
2,3475, Note_off_c,0,36,127,
2,3488, Note_on_c,0,64,127,
2,3488, Note_off_c,0,61,127,
2,3489, Note_on_c,0,61,127,
2,3489, Note_off_c,0,64,127,
2,3493, Note_on_c,0,64,127,
2,3493, Note_off_c,0,61,127,
2,3494, Note_on_c,0,66,127,
2,3494, Note_off_c,0,64,127,
2,3495, Note_on_c,0,61,127,
2,3495, Note_off_c,0,66,127,
2,3500, Note_on_c,0,64,127,
2,3500, Note_off_c,0,61,127,
2,3501, Note_on_c,0,61,127,
2,3501, Note_off_c,0,64,127,
2,3503, Note_on_c,0,64,127,
2,3503, Note_off_c,0,61,127,
2,3504, Note_on_c,0,61,127,
2,3504, Note_off_c,0,64,127,
2,3505, Note_on_c,0,64,127,
2,3505, Note_off_c,0,61,127,
2,3506, Note_on_c,0,61,127,
2,3506, Note_off_c,0,64,127,
2,3511, Note_on_c,0,64,127,
2,3511, Note_off_c,0,61,127,
2,3512, Note_on_c,0,61,127,
2,3512, Note_off_c,0,64,127,
2,3527, Note_off_c,0,40,127,
2,3528, Note_on_c,0,40,127,
2,3529, Note_off_c,0,61,127,
2,3530, Note_on_c,0,61,127,
2,3530, Note_off_c,0,40,127,
2,3531, Note_on_c,0,40,127,
2,3531, Note_off_c,0,61,127,
2,3535, Note_on_c,0,46,127,
2,3535, Note_off_c,0,40,127,
2,3536, Note_on_c,0,40,127,
2,3536, Note_off_c,0,46,127,
2,3551, Note_on_c,0,28,127,
2,3551, Note_off_c,0,40,127,
2,3552, Note_on_c,0,61,127,
2,3552, Note_on_c,0,40,127,
2,3552, Note_off_c,0,28,127,
2,3555, Note_on_c,0,46,127,
2,3555, Note_off_c,0,61,127,
2,3556, Note_on_c,0,61,127,
2,3556, Note_off_c,0,46,127,
2,3560, Note_on_c,0,58,127,
2,3560, Note_off_c,0,61,127,
2,3561, Note_on_c,0,61,127,
2,3561, Note_off_c,0,58,127,
2,3564, Note_on_c,0,64,127,
2,3564, Note_off_c,0,61,127,
2,3565, Note_on_c,0,61,127,
2,3565, Note_off_c,0,64,127,
2,3571, Note_on_c,0,70,127,
2,3571, Note_off_c,0,61,127,
2,3572, Note_on_c,0,61,127,
2,3572, Note_off_c,0,70,127,
2,3584, Note_on_c,0,52,127,
2,3584, Note_off_c,0,40,127,
2,3585, Note_on_c,0,40,127,
2,3585, Note_off_c,0,52,127,
2,3612, Note_on_c,0,34,127,
2,3612, Note_off_c,0,40,127,
2,3613, Note_on_c,0,40,127,
2,3613, Note_off_c,0,34,127,
2,3614, Note_on_c,0,64,127,
2,3614, Note_off_c,0,61,127,
2,3615, Note_on_c,0,61,127,
2,3615, Note_off_c,0,64,127,
2,3624, Note_on_c,0,64,127,
2,3624, Note_off_c,0,61,127,
2,3625, Note_on_c,0,61,127,
2,3625, Note_off_c,0,64,127,
2,3634, Note_on_c,0,66,127,
2,3634, Note_off_c,0,61,127,
2,3635, Note_on_c,0,61,127,
2,3635, Note_off_c,0,66,127,
2,3651, Note_on_c,0,71,127,
2,3651, Note_on_c,0,58,127,
2,3651, Note_off_c,0,61,127,
2,3652, Note_on_c,0,61,127,
2,3652, Note_on_c,0,46,127,
2,3652, Note_off_c,0,71,127,
2,3652, Note_off_c,0,58,127,
2,3653, Note_off_c,0,46,127,
2,3656, Note_off_c,0,40,127,
2,3657, Note_on_c,0,40,127,
2,3677, Note_on_c,0,39,127,
2,3677, Note_off_c,0,40,127,
2,3678, Note_on_c,0,34,127,
2,3678, Note_off_c,0,39,127,
2,3679, Note_on_c,0,64,127,
2,3679, Note_on_c,0,40,127,
2,3679, Note_off_c,0,61,127,
2,3679, Note_off_c,0,34,127,
2,3680, Note_on_c,0,61,127,
2,3680, Note_off_c,0,64,127,
2,3685, Note_on_c,0,63,127,
2,3685, Note_off_c,0,61,127,
2,3686, Note_on_c,0,61,127,
2,3686, Note_off_c,0,63,127,
2,3693, Note_on_c,0,63,127,
2,3694, Note_on_c,0,64,127,
2,3694, Note_off_c,0,63,127,
2,3695, Note_on_c,0,59,127,
2,3695, Note_off_c,0,64,127,
2,3696, Note_off_c,0,59,127,
2,3697, Note_on_c,0,66,127,
2,3698, Note_off_c,0,66,127,
2,3700, Note_on_c,0,66,127,
2,3701, Note_off_c,0,66,127,
2,3703, Note_on_c,0,64,127,
2,3704, Note_off_c,0,64,127,
2,3706, Note_on_c,0,64,127,
2,3707, Note_off_c,0,64,127,
2,3708, Note_on_c,0,64,127,
2,3709, Note_off_c,0,64,127,
2,3712, Note_on_c,0,64,127,
2,3713, Note_off_c,0,64,127,
2,3717, Note_on_c,0,34,127,
2,3717, Note_off_c,0,40,127,
2,3718, Note_on_c,0,40,127,
2,3718, Note_off_c,0,34,127,
2,3721, Note_on_c,0,64,127,
2,3721, Note_off_c,0,61,127,
2,3722, Note_on_c,0,61,127,
2,3722, Note_on_c,0,46,127,
2,3722, Note_off_c,0,64,127,
2,3722, Note_off_c,0,40,127,
2,3723, Note_on_c,0,40,127,
2,3723, Note_off_c,0,46,127,
2,3743, Note_on_c,0,52,127,
2,3743, Note_off_c,0,61,127,
2,3744, Note_on_c,0,61,127,
2,3744, Note_off_c,0,52,127,
2,3755, Note_off_c,0,40,127,
2,3756, Note_on_c,0,40,127,
2,3760, Note_on_c,0,64,127,
2,3761, Note_off_c,0,64,127,
2,3764, Note_on_c,0,64,127,
2,3764, Note_off_c,0,61,127,
2,3765, Note_on_c,0,61,127,
2,3765, Note_off_c,0,64,127,
2,3772, Note_on_c,0,39,127,
2,3772, Note_off_c,0,40,127,
2,3773, Note_on_c,0,40,127,
2,3773, Note_off_c,0,39,127,
2,3776, Note_on_c,0,64,127,
2,3776, Note_off_c,0,61,127,
2,3777, Note_on_c,0,61,127,
2,3777, Note_off_c,0,64,127,
2,3779, Note_on_c,0,59,127,
2,3779, Note_off_c,0,61,127,
2,3780, Note_on_c,0,61,127,
2,3780, Note_off_c,0,59,127,
2,3784, Note_on_c,0,64,127,
2,3784, Note_off_c,0,61,127,
2,3785, Note_on_c,0,61,127,
2,3785, Note_off_c,0,64,127,
2,3795, Note_on_c,0,63,127,
2,3795, Note_off_c,0,61,127,
2,3797, Note_on_c,0,61,127,
2,3797, Note_off_c,0,63,127,
2,3799, Note_on_c,0,64,127,
2,3800, Note_off_c,0,64,127,
2,3812, Note_on_c,0,58,127,
2,3812, Note_off_c,0,61,127,
2,3813, Note_on_c,0,61,127,
2,3813, Note_off_c,0,58,127,
2,3815, Note_on_c,0,43,127,
2,3815, Note_off_c,0,40,127,
2,3816, Note_on_c,0,40,127,
2,3816, Note_off_c,0,43,127,
2,3839, Note_on_c,0,64,127,
2,3839, Note_off_c,0,61,127,
2,3840, Note_on_c,0,61,127,
2,3840, Note_off_c,0,64,127,
2,3853, Note_on_c,0,44,127,
2,3853, Note_off_c,0,40,127,
2,3854, Note_on_c,0,40,127,
2,3854, Note_off_c,0,44,127,
2,3855, Note_on_c,0,64,127,
2,3855, Note_off_c,0,61,127,
2,3856, Note_on_c,0,61,127,
2,3856, Note_off_c,0,64,127,
2,3874, Note_on_c,0,64,127,
2,3874, Note_off_c,0,61,127,
2,3875, Note_on_c,0,61,127,
2,3875, Note_off_c,0,64,127,
2,3880, Note_on_c,0,64,127,
2,3880, Note_off_c,0,61,127,
2,3881, Note_on_c,0,61,127,
2,3881, Note_off_c,0,64,127,
2,3903, Note_off_c,0,40,127,
2,3904, Note_on_c,0,40,127,
2,3905, Note_on_c,0,70,127,
2,3905, Note_off_c,0,61,127,
2,3906, Note_on_c,0,61,127,
2,3907, Note_off_c,0,70,127,
2,3908, Note_on_c,0,39,127,
2,3908, Note_off_c,0,40,127,
2,3909, Note_on_c,0,40,127,
2,3909, Note_off_c,0,39,127,
2,3910, Note_on_c,0,63,127,
2,3911, Note_on_c,0,70,127,
2,3911, Note_off_c,0,63,127,
2,3912, Note_off_c,0,70,127,
2,3913, Note_on_c,0,37,127,
2,3913, Note_off_c,0,40,127,
2,3914, Note_on_c,0,40,127,
2,3914, Note_off_c,0,37,127,
2,3915, Note_off_c,0,61,127,
2,3916, Note_on_c,0,61,127,
2,3916, Note_on_c,0,64,127,
2,3916, Note_off_c,0,40,127,
2,3917, Note_on_c,0,40,127,
2,3917, Note_off_c,0,64,127,
2,3923, Note_on_c,0,64,127,
2,3924, Note_on_c,0,56,127,
2,3924, Note_off_c,0,64,127,
2,3925, Note_off_c,0,56,127,
2,3931, Note_off_c,0,40,127,
2,3932, Note_on_c,0,40,127,
2,3943, Note_on_c,0,49,127,
2,3943, Note_off_c,0,40,127,
2,3944, Note_on_c,0,64,127,
2,3944, Note_on_c,0,40,127,
2,3944, Note_off_c,0,61,127,
2,3944, Note_off_c,0,49,127,
2,3946, Note_on_c,0,61,127,
2,3946, Note_off_c,0,64,127,
2,3949, Note_on_c,0,58,127,
2,3949, Note_off_c,0,61,127,
2,3950, Note_on_c,0,61,127,
2,3950, Note_off_c,0,58,127,
2,3951, Note_off_c,0,40,127,
2,3952, Note_on_c,0,40,127,
2,3970, Note_on_c,0,58,127,
2,3970, Note_off_c,0,61,127,
2,3971, Note_on_c,0,61,127,
2,3971, Note_off_c,0,58,127,
2,3977, Note_on_c,0,52,127,
2,3977, Note_off_c,0,61,127,
2,3978, Note_on_c,0,61,127,
2,3978, Note_off_c,0,52,127,
2,3985, Note_off_c,0,40,127,
2,3986, Note_on_c,0,40,127,
2,3992, Note_off_c,0,40,127,
2,3993, Note_on_c,0,40,127,
2,4008, Note_on_c,0,58,127,
2,4008, Note_off_c,0,61,127,
2,4009, Note_on_c,0,61,127,
2,4009, Note_off_c,0,58,127,
2,4013, Note_on_c,0,64,127,
2,4013, Note_off_c,0,61,127,
2,4014, Note_on_c,0,61,127,
2,4014, Note_off_c,0,64,127,
2,4017, Note_on_c,0,63,127,
2,4017, Note_off_c,0,61,127,
2,4018, Note_on_c,0,61,127,
2,4018, Note_off_c,0,63,127,
2,4019, Note_on_c,0,64,127,
2,4019, Note_off_c,0,61,127,
2,4020, Note_on_c,0,61,127,
2,4020, Note_off_c,0,64,127,
2,4027, Note_off_c,0,40,127,
2,4029, Note_on_c,0,40,127,
2,4041, Note_on_c,0,49,127,
2,4041, Note_off_c,0,40,127,
2,4042, Note_on_c,0,40,127,
2,4042, Note_off_c,0,49,127,
2,4047, Note_on_c,0,64,127,
2,4047, Note_off_c,0,61,127,
2,4048, Note_on_c,0,61,127,
2,4048, Note_off_c,0,64,127,
2,4049, Note_on_c,0,64,127,
2,4049, Note_off_c,0,61,127,
2,4050, Note_on_c,0,61,127,
2,4050, Note_off_c,0,64,127,
2,4053, Note_on_c,0,64,127,
2,4053, Note_off_c,0,61,127,
2,4054, Note_on_c,0,61,127,
2,4054, Note_off_c,0,64,127,
2,4055, Note_on_c,0,68,127,
2,4055, Note_off_c,0,61,127,
2,4056, Note_on_c,0,61,127,
2,4056, Note_off_c,0,68,127,
2,4080, Note_on_c,0,64,127,
2,4080, Note_off_c,0,61,127,
2,4081, Note_on_c,0,61,127,
2,4081, Note_off_c,0,64,127,
2,4084, Note_on_c,0,64,127,
2,4084, Note_off_c,0,61,127,
2,4085, Note_on_c,0,61,127,
2,4085, Note_off_c,0,64,127,
2,4088, Note_on_c,0,64,127,
2,4088, Note_off_c,0,61,127,
2,4089, Note_on_c,0,61,127,
2,4089, Note_off_c,0,64,127,
2,4098, Note_on_c,0,59,127,
2,4098, Note_off_c,0,61,127,
2,4099, Note_on_c,0,61,127,
2,4099, Note_off_c,0,59,127,
2,4102, Note_on_c,0,64,127,
2,4103, Note_off_c,0,64,127,
2,4105, Note_on_c,0,56,127,
2,4106, Note_off_c,0,56,127,
2,4108, Note_on_c,0,64,127,
2,4109, Note_off_c,0,64,127,
2,4115, Note_on_c,0,64,127,
2,4115, Note_on_c,0,58,127,
2,4115, Note_off_c,0,61,127,
2,4116, Note_off_c,0,58,127,
2,4117, Note_on_c,0,61,127,
2,4117, Note_off_c,0,64,127,
2,4118, Note_on_c,0,64,127,
2,4120, Note_off_c,0,64,127,
2,4121, Note_on_c,0,64,127,
2,4122, Note_off_c,0,64,127,
2,4123, Note_on_c,0,64,127,
2,4123, Note_off_c,0,61,127,
2,4124, Note_on_c,0,61,127,
2,4124, Note_off_c,0,64,127,
2,4125, Note_on_c,0,64,127,
2,4126, Note_off_c,0,64,127,
2,4129, Note_on_c,0,70,127,
2,4130, Note_off_c,0,70,127,
2,4135, Note_on_c,0,64,127,
2,4136, Note_off_c,0,64,127,
2,4137, Note_on_c,0,64,127,
2,4138, Note_off_c,0,64,127,
2,4140, Note_on_c,0,64,127,
2,4141, Note_off_c,0,64,127,
2,4142, Note_on_c,0,64,127,
2,4143, Note_off_c,0,64,127,
2,4148, Note_on_c,0,58,127,
2,4149, Note_off_c,0,58,127,
2,4150, Note_on_c,0,64,127,
2,4153, Note_on_c,0,56,127,
2,4153, Note_off_c,0,64,127,
2,4154, Note_off_c,0,56,127,
2,4157, Note_off_c,0,61,127,
2,4158, Note_on_c,0,61,127,
2,4158, Note_off_c,0,40,127,
2,4159, Note_on_c,0,64,127,
2,4159, Note_on_c,0,40,127,
2,4159, Note_off_c,0,61,127,
2,4160, Note_on_c,0,61,127,
2,4160, Note_off_c,0,64,127,
2,4172, Note_on_c,0,64,127,
2,4172, Note_off_c,0,61,127,
2,4173, Note_on_c,0,61,127,
2,4173, Note_off_c,0,64,127,
2,4184, Note_on_c,0,64,127,
2,4184, Note_off_c,0,61,127,
2,4185, Note_on_c,0,61,127,
2,4185, Note_off_c,0,64,127,
2,4211, Note_on_c,0,44,127,
2,4211, Note_off_c,0,40,127,
2,4212, Note_on_c,0,40,127,
2,4212, Note_off_c,0,44,127,
2,4220, Note_on_c,0,63,127,
2,4220, Note_off_c,0,61,127,
2,4221, Note_on_c,0,61,127,
2,4221, Note_off_c,0,63,127,
2,4222, Note_on_c,0,71,127,
2,4223, Note_off_c,0,71,127,
2,4224, Note_on_c,0,64,127,
2,4227, Note_off_c,0,64,127,
2,4228, Note_on_c,0,64,127,
2,4230, Note_off_c,0,64,127,
2,4231, Note_on_c,0,64,127,
2,4232, Note_off_c,0,64,127,
2,4238, Note_on_c,0,39,127,
2,4238, Note_off_c,0,40,127,
2,4239, Note_on_c,0,40,127,
2,4239, Note_off_c,0,39,127,
2,4243, Note_on_c,0,56,127,
2,4243, Note_off_c,0,40,127,
2,4244, Note_on_c,0,46,127,
2,4244, Note_off_c,0,56,127,
2,4245, Note_on_c,0,40,127,
2,4245, Note_off_c,0,46,127,
2,4247, Note_on_c,0,68,127,
2,4248, Note_off_c,0,68,127,
2,4250, Note_on_c,0,58,127,
2,4251, Note_off_c,0,58,127,
2,4252, Note_on_c,0,64,127,
2,4253, Note_off_c,0,64,127,
2,4255, Note_on_c,0,54,127,
2,4256, Note_on_c,0,64,127,
2,4256, Note_off_c,0,54,127,
2,4257, Note_off_c,0,64,127,
2,4258, Note_on_c,0,64,127,
2,4258, Note_off_c,0,61,127,
2,4258, Note_off_c,0,40,127,
2,4259, Note_on_c,0,40,127,
2,4261, Note_on_c,0,61,127,
2,4261, Note_off_c,0,64,127,
2,4262, Note_on_c,0,64,127,
2,4262, Note_off_c,0,61,127,
2,4263, Note_on_c,0,61,127,
2,4263, Note_off_c,0,64,127,
2,4265, Note_on_c,0,66,127,
2,4265, Note_off_c,0,61,127,
2,4266, Note_on_c,0,61,127,
2,4266, Note_off_c,0,66,127,
2,4271, Note_on_c,0,64,127,
2,4271, Note_off_c,0,61,127,
2,4272, Note_on_c,0,61,127,
2,4272, Note_off_c,0,64,127,
2,4277, Note_on_c,0,68,127,
2,4277, Note_off_c,0,61,127,
2,4278, Note_on_c,0,61,127,
2,4278, Note_off_c,0,68,127,
2,4279, Note_on_c,0,56,127,
2,4279, Note_off_c,0,61,127,
2,4280, Note_on_c,0,61,127,
2,4280, Note_off_c,0,56,127,
2,4289, Note_on_c,0,58,127,
2,4289, Note_off_c,0,61,127,
2,4290, Note_on_c,0,61,127,
2,4290, Note_off_c,0,58,127,
2,4308, Note_on_c,0,64,127,
2,4308, Note_off_c,0,61,127,
2,4309, Note_on_c,0,61,127,
2,4309, Note_off_c,0,64,127,
2,4321, Note_on_c,0,64,127,
2,4321, Note_off_c,0,61,127,
2,4322, Note_on_c,0,61,127,
2,4322, Note_off_c,0,64,127,
2,4323, Note_on_c,0,64,127,
2,4323, Note_off_c,0,61,127,
2,4325, Note_on_c,0,61,127,
2,4325, Note_off_c,0,64,127,
2,4327, Note_on_c,0,64,127,
2,4327, Note_off_c,0,61,127,
2,4328, Note_on_c,0,61,127,
2,4328, Note_off_c,0,64,127,
2,4330, Note_on_c,0,49,127,
2,4330, Note_off_c,0,61,127,
2,4331, Note_on_c,0,61,127,
2,4331, Note_off_c,0,49,127,
2,4332, Note_on_c,0,66,127,
2,4332, Note_off_c,0,61,127,
2,4333, Note_on_c,0,61,127,
2,4333, Note_off_c,0,66,127,
2,4337, Note_on_c,0,39,127,
2,4337, Note_off_c,0,40,127,
2,4338, Note_on_c,0,40,127,
2,4338, Note_off_c,0,39,127,
2,4348, Note_on_c,0,64,127,
2,4348, Note_off_c,0,61,127,
2,4349, Note_on_c,0,61,127,
2,4349, Note_off_c,0,64,127,
2,4353, Note_on_c,0,64,127,
2,4353, Note_off_c,0,61,127,
2,4355, Note_on_c,0,61,127,
2,4355, Note_off_c,0,64,127,
2,4356, Note_on_c,0,64,127,
2,4356, Note_off_c,0,61,127,
2,4357, Note_on_c,0,61,127,
2,4357, Note_off_c,0,64,127,
2,4369, Note_on_c,0,64,127,
2,4369, Note_off_c,0,61,127,
2,4370, Note_on_c,0,61,127,
2,4370, Note_off_c,0,64,127,
2,4375, Note_on_c,0,64,127,
2,4375, Note_off_c,0,61,127,
2,4376, Note_on_c,0,61,127,
2,4376, Note_off_c,0,64,127,
2,4405, Note_on_c,0,35,127,
2,4405, Note_off_c,0,40,127,
2,4406, Note_on_c,0,40,127,
2,4406, Note_off_c,0,35,127,
2,4411, Note_on_c,0,39,127,
2,4412, Note_off_c,0,39,127,
2,4420, Note_on_c,0,64,127,
2,4421, Note_off_c,0,64,127,
2,4429, Note_on_c,0,39,127,
2,4429, Note_off_c,0,40,127,
2,4430, Note_on_c,0,40,127,
2,4430, Note_off_c,0,39,127,
2,4436, Note_on_c,0,64,127,
2,4437, Note_off_c,0,64,127,
2,4437, Note_off_c,0,40,127,
2,4438, Note_on_c,0,40,127,
2,4439, Note_on_c,0,58,127,
2,4440, Note_off_c,0,58,127,
2,4442, Note_on_c,0,64,127,
2,4442, Note_on_c,0,58,127,
2,4442, Note_on_c,0,39,127,
2,4442, Note_off_c,0,61,127,
2,4442, Note_off_c,0,40,127,
2,4443, Note_on_c,0,61,127,
2,4443, Note_on_c,0,40,127,
2,4443, Note_off_c,0,64,127,
2,4443, Note_off_c,0,58,127,
2,4443, Note_off_c,0,39,127,
2,4444, Note_on_c,0,64,127,
2,4445, Note_off_c,0,64,127,
2,4446, Note_on_c,0,66,127,
2,4447, Note_on_c,0,63,127,
2,4447, Note_on_c,0,46,127,
2,4447, Note_off_c,0,66,127,
2,4448, Note_off_c,0,63,127,
2,4448, Note_off_c,0,46,127,
2,4449, Note_on_c,0,52,127,
2,4450, Note_off_c,0,52,127,
2,4453, Note_on_c,0,59,127,
2,4454, Note_on_c,0,46,127,
2,4454, Note_off_c,0,59,127,
2,4455, Note_on_c,0,63,127,
2,4455, Note_on_c,0,39,127,
2,4455, Note_off_c,0,61,127,
2,4455, Note_off_c,0,46,127,
2,4455, Note_off_c,0,40,127,
2,4456, Note_on_c,0,61,127,
2,4456, Note_on_c,0,40,127,
2,4456, Note_off_c,0,63,127,
2,4456, Note_off_c,0,39,127,
2,4461, Note_on_c,0,63,127,
2,4461, Note_off_c,0,61,127,
2,4462, Note_on_c,0,61,127,
2,4462, Note_off_c,0,63,127,
2,4466, Note_on_c,0,64,127,
2,4467, Note_off_c,0,64,127,
2,4470, Note_on_c,0,70,127,
2,4471, Note_off_c,0,70,127,
2,4473, Note_on_c,0,70,127,
2,4473, Note_off_c,0,61,127,
2,4473, Note_off_c,0,40,127,
2,4474, Note_on_c,0,61,127,
2,4474, Note_on_c,0,40,127,
2,4474, Note_off_c,0,70,127,
2,4475, Note_on_c,0,66,127,
2,4475, Note_off_c,0,61,127,
2,4476, Note_on_c,0,61,127,
2,4476, Note_off_c,0,66,127,
2,4489, Note_on_c,0,52,127,
2,4489, Note_off_c,0,40,127,
2,4490, Note_on_c,0,40,127,
2,4490, Note_off_c,0,52,127,
2,4515, Note_on_c,0,66,127,
2,4515, Note_off_c,0,61,127,
2,4515, Note_off_c,0,40,127,
2,4516, Note_on_c,0,61,127,
2,4516, Note_on_c,0,40,127,
2,4516, Note_off_c,0,66,127,
2,4534, Note_on_c,0,64,127,
2,4534, Note_off_c,0,61,127,
2,4535, Note_on_c,0,61,127,
2,4535, Note_off_c,0,64,127,
2,4551, Note_on_c,0,70,127,
2,4551, Note_off_c,0,61,127,
2,4552, Note_on_c,0,61,127,
2,4552, Note_off_c,0,70,127,
2,4566, Note_on_c,0,64,127,
2,4566, Note_off_c,0,61,127,
2,4567, Note_on_c,0,61,127,
2,4567, Note_off_c,0,64,127,
2,4571, Note_on_c,0,64,127,
2,4571, Note_off_c,0,61,127,
2,4572, Note_on_c,0,61,127,
2,4572, Note_off_c,0,64,127,
2,4573, Note_on_c,0,43,127,
2,4573, Note_off_c,0,40,127,
2,4574, Note_on_c,0,40,127,
2,4574, Note_off_c,0,43,127,
2,4578, Note_on_c,0,68,127,
2,4578, Note_off_c,0,61,127,
2,4579, Note_on_c,0,61,127,
2,4579, Note_off_c,0,68,127,
2,4584, Note_on_c,0,64,127,
2,4584, Note_off_c,0,61,127,
2,4585, Note_on_c,0,61,127,
2,4585, Note_off_c,0,64,127,
2,4594, Note_on_c,0,64,127,
2,4594, Note_off_c,0,61,127,
2,4595, Note_on_c,0,61,127,
2,4595, Note_off_c,0,64,127,
2,4609, Note_on_c,0,64,127,
2,4609, Note_off_c,0,61,127,
2,4610, Note_on_c,0,61,127,
2,4610, Note_off_c,0,64,127,
2,4626, Note_on_c,0,63,127,
2,4626, Note_off_c,0,40,127,
2,4627, Note_on_c,0,40,127,
2,4627, Note_off_c,0,63,127,
2,4638, Note_on_c,0,64,127,
2,4638, Note_off_c,0,61,127,
2,4639, Note_on_c,0,61,127,
2,4639, Note_off_c,0,64,127,
2,4642, Note_on_c,0,64,127,
2,4642, Note_off_c,0,61,127,
2,4643, Note_on_c,0,61,127,
2,4643, Note_off_c,0,64,127,
2,4645, Note_on_c,0,64,127,
2,4645, Note_off_c,0,61,127,
2,4646, Note_on_c,0,61,127,
2,4646, Note_off_c,0,64,127,
2,4659, Note_on_c,0,64,127,
2,4659, Note_off_c,0,61,127,
2,4660, Note_on_c,0,61,127,
2,4660, Note_off_c,0,64,127,
2,4671, Note_on_c,0,58,127,
2,4671, Note_off_c,0,61,127,
2,4672, Note_on_c,0,61,127,
2,4672, Note_off_c,0,58,127,
2,4679, Note_on_c,0,37,127,
2,4679, Note_off_c,0,40,127,
2,4680, Note_on_c,0,64,127,
2,4680, Note_off_c,0,37,127,
2,4681, Note_on_c,0,40,127,
2,4681, Note_off_c,0,64,127,
2,4682, Note_on_c,0,70,127,
2,4683, Note_off_c,0,70,127,
2,4688, Note_off_c,0,40,127,
2,4689, Note_on_c,0,40,127,
2,4690, Note_off_c,0,40,127,
2,4691, Note_on_c,0,40,127,
2,4701, Note_on_c,0,35,127,
2,4701, Note_off_c,0,40,127,
2,4702, Note_on_c,0,52,127,
2,4702, Note_off_c,0,35,127,
2,4703, Note_on_c,0,40,127,
2,4703, Note_off_c,0,52,127,
2,4738, Note_on_c,0,64,127,
2,4738, Note_off_c,0,61,127,
2,4739, Note_on_c,0,61,127,
2,4739, Note_on_c,0,39,127,
2,4739, Note_off_c,0,64,127,
2,4739, Note_off_c,0,40,127,
2,4740, Note_on_c,0,40,127,
2,4740, Note_off_c,0,39,127,
2,4743, Note_on_c,0,58,127,
2,4743, Note_off_c,0,61,127,
2,4744, Note_on_c,0,61,127,
2,4744, Note_off_c,0,58,127,
2,4749, Note_on_c,0,56,127,
2,4749, Note_off_c,0,61,127,
2,4750, Note_on_c,0,61,127,
2,4750, Note_off_c,0,56,127,
2,4751, Note_on_c,0,64,127,
2,4751, Note_off_c,0,61,127,
2,4752, Note_on_c,0,61,127,
2,4752, Note_off_c,0,64,127,
2,4754, Note_on_c,0,64,127,
2,4754, Note_off_c,0,61,127,
2,4755, Note_on_c,0,61,127,
2,4755, Note_off_c,0,64,127,
2,4763, Note_on_c,0,64,127,
2,4763, Note_off_c,0,61,127,
2,4764, Note_on_c,0,61,127,
2,4764, Note_off_c,0,64,127,
2,4768, Note_on_c,0,64,127,
2,4768, Note_on_c,0,67,127,
2,4768, Note_off_c,0,61,127,
2,4768, Note_off_c,0,40,127,
2,4769, Note_on_c,0,61,127,
2,4769, Note_on_c,0,39,127,
2,4769, Note_off_c,0,64,127,
2,4769, Note_off_c,0,67,127,
2,4770, Note_on_c,0,40,127,
2,4770, Note_off_c,0,39,127,
2,4776, Note_on_c,0,64,127,
2,4777, Note_off_c,0,64,127,
2,4778, Note_on_c,0,58,127,
2,4779, Note_off_c,0,58,127,
2,4781, Note_off_c,0,40,127,
2,4783, Note_on_c,0,40,127,
2,4784, Note_off_c,0,40,127,
2,4785, Note_on_c,0,40,127,
2,4790, Note_on_c,0,37,127,
2,4790, Note_off_c,0,40,127,
2,4791, Note_on_c,0,40,127,
2,4791, Note_off_c,0,37,127,
2,4797, Note_on_c,0,39,127,
2,4797, Note_off_c,0,40,127,
2,4798, Note_on_c,0,40,127,
2,4798, Note_off_c,0,39,127,
2,4816, Note_off_c,0,40,127,
2,4817, Note_on_c,0,40,127,
2,4818, Note_off_c,0,61,127,
2,4819, Note_on_c,0,64,127,
2,4819, Note_off_c,0,40,127,
2,4820, Note_on_c,0,61,127,
2,4820, Note_on_c,0,40,127,
2,4820, Note_off_c,0,64,127,
2,4827, Note_on_c,0,34,127,
2,4827, Note_off_c,0,40,127,
2,4828, Note_on_c,0,40,127,
2,4828, Note_off_c,0,34,127,
2,4829, Note_on_c,0,66,127,
2,4829, Note_off_c,0,61,127,
2,4830, Note_on_c,0,70,127,
2,4830, Note_off_c,0,66,127,
2,4831, Note_on_c,0,61,127,
2,4831, Note_on_c,0,66,127,
2,4831, Note_off_c,0,70,127,
2,4832, Note_off_c,0,66,127,
2,4834, Note_on_c,0,64,127,
2,4834, Note_on_c,0,39,127,
2,4834, Note_off_c,0,40,127,
2,4835, Note_on_c,0,40,127,
2,4835, Note_off_c,0,64,127,
2,4835, Note_off_c,0,39,127,
2,4837, Note_on_c,0,64,127,
2,4837, Note_off_c,0,40,127,
2,4838, Note_off_c,0,64,127,
2,4839, Note_on_c,0,40,127,
2,4839, Note_on_c,0,70,127,
2,4840, Note_off_c,0,70,127,
2,4843, Note_on_c,0,64,127,
2,4844, Note_on_c,0,46,127,
2,4844, Note_off_c,0,64,127,
2,4845, Note_on_c,0,64,127,
2,4845, Note_off_c,0,46,127,
2,4846, Note_off_c,0,64,127,
2,4850, Note_on_c,0,63,127,
2,4850, Note_off_c,0,61,127,
2,4851, Note_on_c,0,61,127,
2,4851, Note_off_c,0,63,127,
2,4859, Note_on_c,0,64,127,
2,4859, Note_off_c,0,61,127,
2,4860, Note_on_c,0,61,127,
2,4860, Note_off_c,0,64,127,
2,4861, Note_off_c,0,61,127,
2,4862, Note_on_c,0,64,127,
2,4862, Note_off_c,0,40,127,
2,4863, Note_on_c,0,40,127,
2,4864, Note_on_c,0,61,127,
2,4864, Note_off_c,0,64,127,
2,4909, Note_on_c,0,64,127,
2,4909, Note_off_c,0,61,127,
2,4910, Note_on_c,0,61,127,
2,4910, Note_off_c,0,64,127,
2,4912, Note_on_c,0,64,127,
2,4912, Note_off_c,0,61,127,
2,4913, Note_on_c,0,52,127,
2,4913, Note_off_c,0,64,127,
2,4914, Note_on_c,0,61,127,
2,4914, Note_off_c,0,52,127,
2,4915, Note_on_c,0,58,127,
2,4915, Note_off_c,0,61,127,
2,4916, Note_on_c,0,61,127,
2,4916, Note_off_c,0,58,127,
2,4917, Note_on_c,0,49,127,
2,4917, Note_off_c,0,40,127,
2,4918, Note_on_c,0,40,127,
2,4918, Note_off_c,0,49,127,
2,4920, Note_on_c,0,52,127,
2,4920, Note_off_c,0,40,127,
2,4921, Note_on_c,0,40,127,
2,4921, Note_off_c,0,52,127,
2,4922, Note_on_c,0,64,127,
2,4922, Note_off_c,0,61,127,
2,4923, Note_on_c,0,61,127,
2,4923, Note_off_c,0,64,127,
2,4927, Note_on_c,0,64,127,
2,4927, Note_off_c,0,61,127,
2,4928, Note_on_c,0,61,127,
2,4928, Note_off_c,0,64,127,
2,4929, Note_on_c,0,64,127,
2,4929, Note_off_c,0,61,127,
2,4930, Note_on_c,0,61,127,
2,4930, Note_off_c,0,64,127,
2,4933, Note_on_c,0,70,127,
2,4933, Note_off_c,0,61,127,
2,4934, Note_on_c,0,61,127,
2,4934, Note_off_c,0,70,127,
2,4955, Note_on_c,0,58,127,
2,4955, Note_off_c,0,61,127,
2,4956, Note_on_c,0,61,127,
2,4956, Note_off_c,0,58,127,
2,4960, Note_on_c,0,64,127,
2,4960, Note_off_c,0,61,127,
2,4961, Note_on_c,0,61,127,
2,4961, Note_off_c,0,64,127,
2,4987, Note_on_c,0,39,127,
2,4987, Note_off_c,0,40,127,
2,4988, Note_on_c,0,40,127,
2,4988, Note_off_c,0,39,127,
2,5007, Note_on_c,0,63,127,
2,5007, Note_off_c,0,61,127,
2,5008, Note_on_c,0,61,127,
2,5008, Note_off_c,0,63,127,
2,5013, Note_on_c,0,37,127,
2,5013, Note_off_c,0,40,127,
2,5014, Note_on_c,0,40,127,
2,5014, Note_off_c,0,37,127,
2,5020, Note_on_c,0,63,127,
2,5020, Note_off_c,0,61,127,
2,5021, Note_on_c,0,61,127,
2,5021, Note_off_c,0,63,127,
2,5022, Note_on_c,0,64,127,
2,5022, Note_off_c,0,61,127,
2,5023, Note_on_c,0,61,127,
2,5023, Note_off_c,0,64,127,
2,5025, Note_on_c,0,64,127,
2,5025, Note_off_c,0,61,127,
2,5026, Note_on_c,0,61,127,
2,5026, Note_off_c,0,64,127,
2,5027, Note_on_c,0,64,127,
2,5027, Note_off_c,0,61,127,
2,5028, Note_on_c,0,61,127,
2,5028, Note_off_c,0,64,127,
2,5037, Note_on_c,0,64,127,
2,5037, Note_off_c,0,61,127,
2,5038, Note_on_c,0,61,127,
2,5038, Note_off_c,0,64,127,
2,5042, Note_on_c,0,64,127,
2,5042, Note_off_c,0,61,127,
2,5043, Note_on_c,0,61,127,
2,5043, Note_off_c,0,64,127,
2,5051, Note_on_c,0,64,127,
2,5051, Note_off_c,0,61,127,
2,5052, Note_on_c,0,61,127,
2,5052, Note_off_c,0,64,127,
2,5054, Note_on_c,0,64,127,
2,5054, Note_off_c,0,61,127,
2,5055, Note_on_c,0,61,127,
2,5055, Note_off_c,0,64,127,
2,5070, Note_on_c,0,64,127,
2,5070, Note_off_c,0,61,127,
2,5071, Note_on_c,0,61,127,
2,5071, Note_off_c,0,64,127,
2,5091, Note_on_c,0,64,127,
2,5091, Note_off_c,0,61,127,
2,5092, Note_on_c,0,61,127,
2,5092, Note_off_c,0,64,127,
2,5106, Note_on_c,0,64,127,
2,5106, Note_off_c,0,61,127,
2,5107, Note_on_c,0,61,127,
2,5107, Note_off_c,0,64,127,
2,5123, Note_on_c,0,64,127,
2,5123, Note_off_c,0,61,127,
2,5124, Note_on_c,0,61,127,
2,5124, Note_off_c,0,64,127,
2,5139, Note_on_c,0,58,127,
2,5139, Note_off_c,0,61,127,
2,5140, Note_on_c,0,64,127,
2,5140, Note_off_c,0,58,127,
2,5141, Note_on_c,0,61,127,
2,5141, Note_off_c,0,64,127,
2,5143, Note_on_c,0,64,127,
2,5143, Note_off_c,0,61,127,
2,5144, Note_on_c,0,61,127,
2,5144, Note_off_c,0,64,127,
2,5148, Note_on_c,0,58,127,
2,5148, Note_off_c,0,61,127,
2,5149, Note_on_c,0,61,127,
2,5149, Note_off_c,0,58,127,
2,5151, Note_on_c,0,30,127,
2,5151, Note_off_c,0,40,127,
2,5152, Note_on_c,0,40,127,
2,5152, Note_off_c,0,30,127,
2,5171, Note_off_c,0,40,127,
2,5172, Note_on_c,0,40,127,
2,5173, Note_off_c,0,40,127,
2,5175, Note_on_c,0,40,127,
2,5176, Note_off_c,0,61,127,
2,5177, Note_on_c,0,64,127,
2,5177, Note_off_c,0,40,127,
2,5178, Note_on_c,0,61,127,
2,5178, Note_on_c,0,40,127,
2,5178, Note_off_c,0,64,127,
2,5179, Note_on_c,0,64,127,
2,5179, Note_off_c,0,61,127,
2,5180, Note_on_c,0,61,127,
2,5180, Note_off_c,0,64,127,
2,5180, Note_off_c,0,40,127,
2,5181, Note_on_c,0,40,127,
2,5205, Note_off_c,0,40,127,
2,5206, Note_on_c,0,40,127,
2,5218, Note_on_c,0,64,127,
2,5219, Note_off_c,0,64,127,
2,5225, Note_on_c,0,64,127,
2,5226, Note_off_c,0,64,127,
2,5227, Note_off_c,0,40,127,
2,5228, Note_on_c,0,40,127,
2,5234, Note_on_c,0,64,127,
2,5234, Note_off_c,0,61,127,
2,5235, Note_on_c,0,66,127,
2,5235, Note_off_c,0,64,127,
2,5236, Note_on_c,0,64,127,
2,5236, Note_off_c,0,66,127,
2,5237, Note_on_c,0,61,127,
2,5237, Note_off_c,0,64,127,
2,5238, Note_on_c,0,64,127,
2,5238, Note_off_c,0,61,127,
2,5239, Note_on_c,0,61,127,
2,5239, Note_off_c,0,64,127,
2,5243, Note_on_c,0,66,127,
2,5243, Note_off_c,0,61,127,
2,5244, Note_on_c,0,61,127,
2,5244, Note_off_c,0,66,127,
2,5253, Note_off_c,0,40,127,
2,5254, Note_on_c,0,40,127,
2,5261, Note_on_c,0,34,127,
2,5261, Note_off_c,0,40,127,
2,5262, Note_on_c,0,40,127,
2,5262, Note_off_c,0,34,127,
2,5263, Note_on_c,0,49,127,
2,5263, Note_off_c,0,40,127,
2,5264, Note_on_c,0,40,127,
2,5264, Note_off_c,0,49,127,
2,5265, Note_on_c,0,64,127,
2,5265, Note_off_c,0,61,127,
2,5266, Note_on_c,0,61,127,
2,5266, Note_on_c,0,39,127,
2,5266, Note_off_c,0,64,127,
2,5266, Note_off_c,0,40,127,
2,5267, Note_on_c,0,40,127,
2,5267, Note_off_c,0,39,127,
2,5268, Note_on_c,0,46,127,
2,5268, Note_off_c,0,61,127,
2,5269, Note_on_c,0,64,127,
2,5269, Note_off_c,0,46,127,
2,5270, Note_on_c,0,61,127,
2,5270, Note_off_c,0,64,127,
2,5275, Note_off_c,0,61,127,
2,5276, Note_on_c,0,61,127,
2,5278, Note_on_c,0,63,127,
2,5278, Note_off_c,0,61,127,
2,5279, Note_on_c,0,61,127,
2,5279, Note_off_c,0,63,127,
2,5293, Note_on_c,0,64,127,
2,5293, Note_off_c,0,61,127,
2,5294, Note_on_c,0,61,127,
2,5294, Note_off_c,0,64,127,
2,5301, Note_on_c,0,58,127,
2,5301, Note_off_c,0,61,127,
2,5302, Note_on_c,0,61,127,
2,5302, Note_off_c,0,58,127,
2,5313, Note_on_c,0,66,127,
2,5314, Note_off_c,0,66,127,
2,5315, Note_on_c,0,44,127,
2,5316, Note_on_c,0,63,127,
2,5316, Note_off_c,0,44,127,
2,5316, Note_off_c,0,61,127,
2,5317, Note_on_c,0,61,127,
2,5317, Note_off_c,0,63,127,
2,5321, Note_on_c,0,64,127,
2,5322, Note_off_c,0,64,127,
2,5323, Note_on_c,0,64,127,
2,5324, Note_on_c,0,58,127,
2,5324, Note_off_c,0,64,127,
2,5325, Note_on_c,0,64,127,
2,5325, Note_off_c,0,58,127,
2,5326, Note_on_c,0,46,127,
2,5326, Note_off_c,0,64,127,
2,5327, Note_on_c,0,59,127,
2,5327, Note_off_c,0,61,127,
2,5327, Note_off_c,0,46,127,
2,5328, Note_on_c,0,61,127,
2,5328, Note_off_c,0,59,127,
2,5333, Note_on_c,0,37,127,
2,5333, Note_off_c,0,40,127,
2,5334, Note_on_c,0,40,127,
2,5334, Note_off_c,0,37,127,
2,5338, Note_on_c,0,64,127,
2,5338, Note_off_c,0,61,127,
2,5339, Note_on_c,0,61,127,
2,5339, Note_off_c,0,64,127,
2,5346, Note_on_c,0,64,127,
2,5346, Note_off_c,0,61,127,
2,5347, Note_on_c,0,61,127,
2,5347, Note_off_c,0,64,127,
2,5349, Note_on_c,0,55,127,
2,5349, Note_off_c,0,61,127,
2,5350, Note_on_c,0,61,127,
2,5350, Note_off_c,0,55,127,
2,5362, Note_on_c,0,64,127,
2,5362, Note_off_c,0,61,127,
2,5363, Note_on_c,0,61,127,
2,5363, Note_off_c,0,64,127,
2,5366, Note_on_c,0,52,127,
2,5366, Note_off_c,0,40,127,
2,5367, Note_on_c,0,40,127,
2,5367, Note_off_c,0,52,127,
2,5394, Note_on_c,0,39,127,
2,5394, Note_off_c,0,40,127,
2,5395, Note_on_c,0,40,127,
2,5395, Note_off_c,0,39,127,
2,5415, Note_on_c,0,63,127,
2,5415, Note_off_c,0,61,127,
2,5416, Note_on_c,0,61,127,
2,5416, Note_off_c,0,63,127,
2,5417, Note_on_c,0,64,127,
2,5419, Note_off_c,0,64,127,
2,5420, Note_off_c,0,40,127,
2,5421, Note_on_c,0,64,127,
2,5421, Note_on_c,0,40,127,
2,5421, Note_off_c,0,61,127,
2,5422, Note_on_c,0,61,127,
2,5422, Note_off_c,0,64,127,
2,5425, Note_on_c,0,46,127,
2,5425, Note_off_c,0,61,127,
2,5426, Note_on_c,0,61,127,
2,5426, Note_off_c,0,46,127,
2,5427, Note_on_c,0,52,127,
2,5427, Note_off_c,0,61,127,
2,5428, Note_on_c,0,61,127,
2,5428, Note_off_c,0,52,127,
2,5429, Note_on_c,0,64,127,
2,5429, Note_off_c,0,61,127,
2,5430, Note_on_c,0,61,127,
2,5430, Note_off_c,0,64,127,
2,5445, Note_on_c,0,44,127,
2,5445, Note_off_c,0,40,127,
2,5446, Note_on_c,0,40,127,
2,5446, Note_off_c,0,44,127,
2,5452, Note_on_c,0,64,127,
2,5452, Note_off_c,0,61,127,
2,5453, Note_on_c,0,61,127,
2,5453, Note_off_c,0,64,127,
2,5461, Note_on_c,0,67,127,
2,5461, Note_off_c,0,40,127,
2,5462, Note_on_c,0,40,127,
2,5462, Note_off_c,0,67,127,
2,5464, Note_off_c,0,40,127,
2,5465, Note_on_c,0,40,127,
2,5471, Note_off_c,0,40,127,
2,5472, Note_on_c,0,40,127,
2,5492, Note_on_c,0,70,127,
2,5492, Note_off_c,0,61,127,
2,5493, Note_on_c,0,61,127,
2,5493, Note_off_c,0,70,127,
2,5506, Note_on_c,0,39,127,
2,5506, Note_off_c,0,40,127,
2,5507, Note_on_c,0,40,127,
2,5507, Note_off_c,0,39,127,
2,5508, Note_on_c,0,70,127,
2,5508, Note_off_c,0,61,127,
2,5509, Note_on_c,0,61,127,
2,5509, Note_off_c,0,70,127,
2,5510, Note_on_c,0,46,127,
2,5510, Note_off_c,0,40,127,
2,5511, Note_on_c,0,40,127,
2,5511, Note_off_c,0,46,127,
2,5514, Note_on_c,0,34,127,
2,5514, Note_off_c,0,40,127,
2,5515, Note_off_c,0,34,127,
2,5516, Note_on_c,0,40,127,
2,5535, Note_off_c,0,40,127,
2,5536, Note_on_c,0,40,127,
2,5539, Note_on_c,0,37,127,
2,5539, Note_off_c,0,40,127,
2,5540, Note_on_c,0,40,127,
2,5540, Note_off_c,0,37,127,
2,5544, Note_on_c,0,64,127,
2,5544, Note_off_c,0,61,127,
2,5545, Note_on_c,0,61,127,
2,5545, Note_off_c,0,64,127,
2,5549, Note_off_c,0,40,127,
2,5550, Note_on_c,0,40,127,
2,5553, Note_on_c,0,64,127,
2,5553, Note_off_c,0,61,127,
2,5554, Note_on_c,0,61,127,
2,5554, Note_off_c,0,64,127,
2,5554, Note_off_c,0,40,127,
2,5555, Note_on_c,0,59,127,
2,5555, Note_on_c,0,40,127,
2,5555, Note_off_c,0,61,127,
2,5556, Note_on_c,0,61,127,
2,5556, Note_off_c,0,59,127,
2,5557, Note_on_c,0,70,127,
2,5558, Note_off_c,0,70,127,
2,5559, Note_on_c,0,64,127,
2,5560, Note_off_c,0,64,127,
2,5562, Note_off_c,0,40,127,
2,5563, Note_on_c,0,40,127,
2,5579, Note_on_c,0,64,127,
2,5579, Note_off_c,0,61,127,
2,5580, Note_on_c,0,61,127,
2,5580, Note_off_c,0,64,127,
2,5581, Note_on_c,0,64,127,
2,5581, Note_off_c,0,61,127,
2,5582, Note_on_c,0,61,127,
2,5582, Note_off_c,0,64,127,
2,5603, Note_off_c,0,40,127,
2,5604, Note_on_c,0,40,127,
2,5605, Note_off_c,0,61,127,
2,5606, Note_on_c,0,61,127,
2,5606, Note_off_c,0,40,127,
2,5607, Note_on_c,0,40,127,
2,5607, Note_off_c,0,61,127,
2,5648, Note_on_c,0,49,127,
2,5648, Note_off_c,0,40,127,
2,5649, Note_on_c,0,40,127,
2,5649, Note_off_c,0,49,127,
2,5668, Note_on_c,0,39,127,
2,5668, Note_off_c,0,40,127,
2,5669, Note_on_c,0,40,127,
2,5669, Note_off_c,0,39,127,
2,5728, Note_on_c,0,71,127,
2,5729, Note_off_c,0,71,127,
2,5730, Note_on_c,0,64,127,
2,5731, Note_on_c,0,49,127,
2,5733, Note_on_c,0,61,127,
2,5733, Note_off_c,0,64,127,
2,5734, Note_on_c,0,64,127,
2,5734, Note_on_c,0,46,127,
2,5734, Note_off_c,0,61,127,
2,5734, Note_off_c,0,49,127,
2,5735, Note_on_c,0,61,127,
2,5735, Note_off_c,0,64,127,
2,5735, Note_off_c,0,46,127,
2,5737, Note_on_c,0,64,127,
2,5738, Note_off_c,0,64,127,
2,5743, Note_on_c,0,70,127,
2,5744, Note_off_c,0,70,127,
2,5749, Note_on_c,0,64,127,
2,5750, Note_on_c,0,39,127,
2,5750, Note_off_c,0,64,127,
2,5750, Note_off_c,0,40,127,
2,5751, Note_on_c,0,40,127,
2,5751, Note_off_c,0,39,127,
2,5754, Note_on_c,0,58,127,
2,5755, Note_off_c,0,58,127,
2,5758, Note_on_c,0,64,127,
2,5759, Note_off_c,0,64,127,
2,5760, Note_on_c,0,64,127,
2,5761, Note_off_c,0,64,127,
2,5762, Note_on_c,0,25,127,
2,5763, Note_on_c,0,64,127,
2,5763, Note_off_c,0,25,127,
2,5764, Note_off_c,0,64,127,
2,5766, Note_on_c,0,64,127,
2,5767, Note_on_c,0,59,127,
2,5767, Note_off_c,0,61,127,
2,5768, Note_on_c,0,61,127,
2,5768, Note_off_c,0,64,127,
2,5768, Note_off_c,0,59,127,
2,5769, Note_on_c,0,64,127,
2,5770, Note_off_c,0,64,127,
2,5774, Note_on_c,0,70,127,
2,5775, Note_off_c,0,70,127,
2,5781, Note_off_c,0,61,127,
2,5781, Note_off_c,0,40,127,
2,5782, Note_on_c,0,61,127,
2,5783, Note_on_c,0,64,127,
2,5783, Note_on_c,0,40,127,
2,5785, Note_off_c,0,64,127,
2,5787, Note_on_c,0,58,127,
2,5788, Note_off_c,0,58,127,
2,5791, Note_on_c,0,64,127,
2,5793, Note_off_c,0,64,127,
2,5798, Note_on_c,0,63,127,
2,5799, Note_off_c,0,63,127,
2,5800, Note_on_c,0,43,127,
2,5800, Note_on_c,0,64,127,
2,5800, Note_off_c,0,40,127,
2,5801, Note_on_c,0,40,127,
2,5801, Note_off_c,0,43,127,
2,5801, Note_off_c,0,64,127,
2,5805, Note_on_c,0,64,127,
2,5806, Note_on_c,0,46,127,
2,5806, Note_off_c,0,40,127,
2,5807, Note_on_c,0,40,127,
2,5807, Note_off_c,0,64,127,
2,5807, Note_off_c,0,46,127,
2,5810, Note_on_c,0,64,127,
2,5810, Note_on_c,0,39,127,
2,5810, Note_off_c,0,40,127,
2,5811, Note_on_c,0,40,127,
2,5811, Note_off_c,0,64,127,
2,5811, Note_off_c,0,39,127,
2,5812, Note_on_c,0,64,127,
2,5813, Note_off_c,0,64,127,
2,5814, Note_on_c,0,63,127,
2,5815, Note_off_c,0,63,127,
2,5819, Note_on_c,0,58,127,
2,5820, Note_off_c,0,58,127,
2,5823, Note_on_c,0,58,127,
2,5824, Note_on_c,0,46,127,
2,5824, Note_off_c,0,58,127,
2,5825, Note_on_c,0,37,127,
2,5825, Note_off_c,0,46,127,
2,5825, Note_off_c,0,40,127,
2,5826, Note_on_c,0,64,127,
2,5826, Note_on_c,0,40,127,
2,5826, Note_off_c,0,37,127,
2,5827, Note_on_c,0,43,127,
2,5827, Note_off_c,0,40,127,
2,5828, Note_on_c,0,40,127,
2,5828, Note_off_c,0,43,127,
2,5828, Note_off_c,0,64,127,
2,5831, Note_on_c,0,66,127,
2,5831, Note_off_c,0,40,127,
2,5832, Note_on_c,0,40,127,
2,5832, Note_off_c,0,66,127,
2,5834, Note_on_c,0,64,127,
2,5836, Note_on_c,0,63,127,
2,5836, Note_off_c,0,61,127,
2,5837, Note_on_c,0,61,127,
2,5837, Note_on_c,0,68,127,
2,5837, Note_off_c,0,63,127,
2,5837, Note_off_c,0,64,127,
2,5838, Note_on_c,0,64,127,
2,5838, Note_off_c,0,68,127,
2,5838, Note_off_c,0,40,127,
2,5839, Note_on_c,0,40,127,
2,5839, Note_off_c,0,64,127,
2,5845, Note_off_c,0,40,127,
2,5846, Note_on_c,0,64,127,
2,5846, Note_on_c,0,40,127,
2,5846, Note_off_c,0,61,127,
2,5847, Note_on_c,0,61,127,
2,5847, Note_on_c,0,83,127,
2,5847, Note_off_c,0,64,127,
2,5847, Note_off_c,0,40,127,
2,5848, Note_on_c,0,40,127,
2,5848, Note_off_c,0,83,127,
2,5849, Note_on_c,0,64,127,
2,5849, Note_off_c,0,61,127,
2,5850, Note_on_c,0,61,127,
2,5850, Note_off_c,0,64,127,
2,5851, Note_on_c,0,68,127,
2,5851, Note_off_c,0,61,127,
2,5851, Note_off_c,0,40,127,
2,5852, Note_on_c,0,64,127,
2,5852, Note_on_c,0,40,127,
2,5852, Note_off_c,0,68,127,
2,5853, Note_on_c,0,61,127,
2,5853, Note_off_c,0,64,127,
2,5857, Note_on_c,0,56,127,
2,5857, Note_off_c,0,61,127,
2,5858, Note_on_c,0,61,127,
2,5858, Note_off_c,0,56,127,
2,5862, Note_on_c,0,64,127,
2,5862, Note_off_c,0,61,127,
2,5863, Note_on_c,0,61,127,
2,5863, Note_off_c,0,64,127,
2,5865, Note_on_c,0,64,127,
2,5865, Note_off_c,0,61,127,
2,5866, Note_on_c,0,61,127,
2,5866, Note_off_c,0,64,127,
2,5872, Note_on_c,0,64,127,
2,5872, Note_off_c,0,61,127,
2,5873, Note_on_c,0,61,127,
2,5873, Note_off_c,0,64,127,
2,5880, Note_on_c,0,64,127,
2,5880, Note_off_c,0,61,127,
2,5881, Note_on_c,0,61,127,
2,5881, Note_off_c,0,64,127,
2,5889, Note_on_c,0,37,127,
2,5889, Note_off_c,0,40,127,
2,5890, Note_on_c,0,40,127,
2,5890, Note_off_c,0,37,127,
2,5898, Note_on_c,0,56,127,
2,5898, Note_off_c,0,61,127,
2,5899, Note_on_c,0,61,127,
2,5899, Note_off_c,0,56,127,
2,5900, Note_on_c,0,58,127,
2,5900, Note_on_c,0,68,127,
2,5900, Note_off_c,0,61,127,
2,5901, Note_on_c,0,61,127,
2,5901, Note_off_c,0,58,127,
2,5901, Note_off_c,0,68,127,
2,5902, Note_on_c,0,70,127,
2,5904, Note_off_c,0,40,127,
2,5904, Note_off_c,0,70,127,
2,5905, Note_on_c,0,58,127,
2,5905, Note_on_c,0,40,127,
2,5906, Note_off_c,0,58,127,
2,5907, Note_on_c,0,64,127,
2,5907, Note_on_c,0,46,127,
2,5907, Note_off_c,0,40,127,
2,5908, Note_on_c,0,40,127,
2,5908, Note_off_c,0,64,127,
2,5908, Note_off_c,0,46,127,
2,5910, Note_on_c,0,70,127,
2,5910, Note_off_c,0,40,127,
2,5911, Note_on_c,0,40,127,
2,5911, Note_off_c,0,70,127,
2,5913, Note_on_c,0,64,127,
2,5914, Note_off_c,0,64,127,
2,5917, Note_on_c,0,64,127,
2,5918, Note_on_c,0,70,127,
2,5918, Note_off_c,0,64,127,
2,5919, Note_on_c,0,30,127,
2,5919, Note_off_c,0,70,127,
2,5920, Note_on_c,0,46,127,
2,5920, Note_off_c,0,30,127,
2,5921, Note_off_c,0,46,127,
2,5933, Note_on_c,0,34,127,
2,5933, Note_off_c,0,40,127,
2,5934, Note_on_c,0,64,127,
2,5934, Note_off_c,0,34,127,
2,5935, Note_on_c,0,40,127,
2,5935, Note_off_c,0,64,127,
2,5936, Note_on_c,0,66,127,
2,5937, Note_on_c,0,59,127,
2,5937, Note_off_c,0,66,127,
2,5937, Note_off_c,0,40,127,
2,5938, Note_on_c,0,40,127,
2,5938, Note_off_c,0,59,127,
2,5941, Note_on_c,0,43,127,
2,5941, Note_off_c,0,40,127,
2,5942, Note_on_c,0,40,127,
2,5942, Note_off_c,0,43,127,
2,5943, Note_on_c,0,63,127,
2,5943, Note_off_c,0,61,127,
2,5944, Note_on_c,0,61,127,
2,5944, Note_off_c,0,63,127,
2,5950, Note_on_c,0,56,127,
2,5950, Note_off_c,0,61,127,
2,5951, Note_on_c,0,61,127,
2,5951, Note_off_c,0,56,127,
2,5958, Note_on_c,0,64,127,
2,5958, Note_off_c,0,61,127,
2,5959, Note_on_c,0,61,127,
2,5959, Note_on_c,0,52,127,
2,5959, Note_off_c,0,64,127,
2,5959, Note_off_c,0,40,127,
2,5960, Note_on_c,0,40,127,
2,5960, Note_off_c,0,52,127,
2,5982, Note_on_c,0,64,127,
2,5982, Note_off_c,0,61,127,
2,5983, Note_on_c,0,61,127,
2,5983, Note_off_c,0,64,127,
2,5987, Note_on_c,0,64,127,
2,5987, Note_off_c,0,61,127,
2,5988, Note_on_c,0,61,127,
2,5988, Note_off_c,0,64,127,
2,6000, Note_off_c,0,61,127,
2,6001, Note_on_c,0,61,127,
2,6001, Note_off_c,0,40,127,
2,6002, Note_on_c,0,40,127,
2,6002, Note_on_c,0,56,127,
2,6002, Note_off_c,0,61,127,
2,6003, Note_on_c,0,61,127,
2,6003, Note_off_c,0,56,127,
2,6012, Note_on_c,0,64,127,
2,6012, Note_off_c,0,61,127,
2,6013, Note_on_c,0,61,127,
2,6013, Note_off_c,0,64,127,
2,6016, Note_on_c,0,64,127,
2,6016, Note_off_c,0,61,127,
2,6017, Note_on_c,0,34,127,
2,6017, Note_off_c,0,40,127,
2,6018, Note_on_c,0,61,127,
2,6018, Note_on_c,0,40,127,
2,6018, Note_off_c,0,64,127,
2,6018, Note_off_c,0,34,127,
2,6027, Note_on_c,0,39,127,
2,6027, Note_off_c,0,40,127,
2,6028, Note_on_c,0,40,127,
2,6028, Note_off_c,0,39,127,
2,6030, Note_on_c,0,64,127,
2,6030, Note_off_c,0,61,127,
2,6031, Note_on_c,0,61,127,
2,6031, Note_off_c,0,64,127,
2,6042, Note_on_c,0,49,127,
2,6042, Note_off_c,0,40,127,
2,6043, Note_on_c,0,40,127,
2,6043, Note_off_c,0,49,127,
2,6045, Note_on_c,0,64,127,
2,6045, Note_off_c,0,61,127,
2,6046, Note_on_c,0,61,127,
2,6046, Note_off_c,0,64,127,
2,6048, Note_on_c,0,43,127,
2,6048, Note_off_c,0,40,127,
2,6049, Note_on_c,0,64,127,
2,6049, Note_on_c,0,40,127,
2,6049, Note_off_c,0,43,127,
2,6049, Note_off_c,0,61,127,
2,6050, Note_on_c,0,61,127,
2,6050, Note_off_c,0,64,127,
2,6068, Note_on_c,0,49,127,
2,6068, Note_off_c,0,40,127,
2,6069, Note_on_c,0,40,127,
2,6069, Note_off_c,0,49,127,
2,6071, Note_on_c,0,64,127,
2,6071, Note_off_c,0,61,127,
2,6073, Note_on_c,0,61,127,
2,6073, Note_off_c,0,64,127,
2,6077, Note_on_c,0,39,127,
2,6077, Note_off_c,0,40,127,
2,6078, Note_on_c,0,40,127,
2,6078, Note_off_c,0,39,127,
2,6081, Note_on_c,0,37,127,
2,6081, Note_off_c,0,40,127,
2,6082, Note_on_c,0,40,127,
2,6082, Note_off_c,0,37,127,
2,6084, Note_on_c,0,64,127,
2,6084, Note_off_c,0,61,127,
2,6085, Note_on_c,0,61,127,
2,6085, Note_off_c,0,64,127,
2,6087, Note_on_c,0,59,127,
2,6087, Note_off_c,0,61,127,
2,6088, Note_on_c,0,61,127,
2,6088, Note_off_c,0,59,127,
2,6092, Note_on_c,0,46,127,
2,6092, Note_off_c,0,61,127,
2,6093, Note_on_c,0,61,127,
2,6093, Note_off_c,0,46,127,
2,6096, Note_on_c,0,64,127,
2,6096, Note_off_c,0,61,127,
2,6097, Note_on_c,0,61,127,
2,6097, Note_off_c,0,64,127,
2,6106, Note_on_c,0,64,127,
2,6106, Note_off_c,0,61,127,
2,6107, Note_on_c,0,56,127,
2,6107, Note_off_c,0,64,127,
2,6108, Note_on_c,0,61,127,
2,6108, Note_off_c,0,56,127,
2,6109, Note_on_c,0,64,127,
2,6109, Note_off_c,0,61,127,
2,6110, Note_on_c,0,61,127,
2,6110, Note_off_c,0,64,127,
2,6111, Note_off_c,0,61,127,
2,6111, Note_off_c,0,40,127,
2,6112, Note_on_c,0,61,127,
2,6113, Note_on_c,0,40,127,
2,6114, Note_on_c,0,68,127,
2,6114, Note_off_c,0,61,127,
2,6115, Note_on_c,0,61,127,
2,6115, Note_off_c,0,68,127,
2,6118, Note_off_c,0,40,127,
2,6119, Note_on_c,0,40,127,
2,6131, Note_on_c,0,68,127,
2,6131, Note_on_c,0,70,127,
2,6132, Note_off_c,0,68,127,
2,6132, Note_off_c,0,70,127,
2,6140, Note_on_c,0,64,127,
2,6140, Note_off_c,0,61,127,
2,6141, Note_on_c,0,61,127,
2,6141, Note_off_c,0,64,127,
2,6147, Note_off_c,0,40,127,
2,6148, Note_on_c,0,40,127,
2,6148, Note_on_c,0,70,127,
2,6149, Note_off_c,0,70,127,
2,6165, Note_on_c,0,33,127,
2,6165, Note_off_c,0,40,127,
2,6166, Note_on_c,0,40,127,
2,6166, Note_off_c,0,33,127,
2,6183, Note_on_c,0,64,127,
2,6183, Note_off_c,0,61,127,
2,6184, Note_on_c,0,61,127,
2,6184, Note_off_c,0,64,127,
2,6190, Note_on_c,0,39,127,
2,6190, Note_off_c,0,40,127,
2,6191, Note_on_c,0,40,127,
2,6191, Note_off_c,0,39,127,
2,6202, Note_on_c,0,64,127,
2,6202, Note_off_c,0,61,127,
2,6203, Note_on_c,0,61,127,
2,6203, Note_off_c,0,64,127,
2,6206, Note_on_c,0,65,127,
2,6206, Note_off_c,0,40,127,
2,6207, Note_on_c,0,40,127,
2,6207, Note_off_c,0,65,127,
2,6209, Note_on_c,0,64,127,
2,6210, Note_off_c,0,64,127,
2,6215, Note_on_c,0,58,127,
2,6216, Note_off_c,0,58,127,
2,6235, Note_on_c,0,63,127,
2,6235, Note_off_c,0,61,127,
2,6236, Note_on_c,0,61,127,
2,6236, Note_off_c,0,63,127,
2,6237, Note_on_c,0,49,127,
2,6237, Note_on_c,0,70,127,
2,6237, Note_off_c,0,40,127,
2,6238, Note_on_c,0,64,127,
2,6238, Note_on_c,0,40,127,
2,6238, Note_off_c,0,49,127,
2,6238, Note_off_c,0,70,127,
2,6240, Note_off_c,0,64,127,
2,6243, Note_on_c,0,64,127,
2,6243, Note_off_c,0,61,127,
2,6244, Note_on_c,0,61,127,
2,6244, Note_off_c,0,64,127,
2,6245, Note_on_c,0,37,127,
2,6245, Note_off_c,0,40,127,
2,6246, Note_on_c,0,40,127,
2,6246, Note_off_c,0,37,127,
2,6269, Note_on_c,0,64,127,
2,6269, Note_off_c,0,61,127,
2,6270, Note_on_c,0,61,127,
2,6270, Note_off_c,0,64,127,
2,6290, Note_on_c,0,70,127,
2,6290, Note_off_c,0,61,127,
2,6291, Note_on_c,0,61,127,
2,6291, Note_off_c,0,70,127,
2,6298, Note_on_c,0,64,127,
2,6298, Note_off_c,0,61,127,
2,6299, Note_on_c,0,61,127,
2,6299, Note_off_c,0,64,127,
2,6306, Note_on_c,0,64,127,
2,6306, Note_off_c,0,61,127,
2,6307, Note_on_c,0,61,127,
2,6307, Note_off_c,0,64,127,
2,6328, Note_on_c,0,64,127,
2,6328, Note_off_c,0,61,127,
2,6329, Note_on_c,0,61,127,
2,6329, Note_off_c,0,64,127,
2,6337, Note_on_c,0,37,127,
2,6337, Note_off_c,0,40,127,
2,6338, Note_on_c,0,40,127,
2,6338, Note_off_c,0,37,127,
2,6341, Note_on_c,0,39,127,
2,6341, Note_off_c,0,40,127,
2,6342, Note_on_c,0,40,127,
2,6342, Note_off_c,0,39,127,
2,6345, Note_off_c,0,40,127,
2,6346, Note_on_c,0,40,127,
2,6354, Note_on_c,0,64,127,
2,6354, Note_off_c,0,61,127,
2,6355, Note_on_c,0,61,127,
2,6355, Note_off_c,0,64,127,
2,6357, Note_on_c,0,64,127,
2,6357, Note_off_c,0,61,127,
2,6358, Note_on_c,0,61,127,
2,6358, Note_off_c,0,64,127,
2,6359, Note_on_c,0,70,127,
2,6359, Note_off_c,0,61,127,
2,6360, Note_on_c,0,61,127,
2,6360, Note_off_c,0,70,127,
2,6365, Note_off_c,0,40,127,
2,6366, Note_on_c,0,40,127,
2,6367, Note_on_c,0,64,127,
2,6367, Note_off_c,0,61,127,
2,6368, Note_on_c,0,61,127,
2,6368, Note_off_c,0,64,127,
2,6370, Note_off_c,0,40,127,
2,6371, Note_on_c,0,40,127,
2,6372, Note_off_c,0,61,127,
2,6374, Note_on_c,0,39,127,
2,6374, Note_off_c,0,40,127,
2,6375, Note_on_c,0,40,127,
2,6375, Note_off_c,0,39,127,
2,6431, Note_on_c,0,37,127,
2,6431, Note_off_c,0,40,127,
2,6432, Note_on_c,0,40,127,
2,6432, Note_off_c,0,37,127,
2,6436, Note_on_c,0,37,127,
2,6436, Note_off_c,0,40,127,
2,6437, Note_on_c,0,40,127,
2,6437, Note_off_c,0,37,127,
2,6445, Note_on_c,0,49,127,
2,6445, Note_off_c,0,40,127,
2,6446, Note_on_c,0,40,127,
2,6446, Note_off_c,0,49,127,
2,6454, Note_on_c,0,39,127,
2,6454, Note_off_c,0,40,127,
2,6455, Note_on_c,0,40,127,
2,6455, Note_off_c,0,39,127,
2,6456, Note_off_c,0,40,127,
2,6457, Note_on_c,0,56,127,
2,6458, Note_on_c,0,40,127,
2,6458, Note_off_c,0,56,127,
2,6480, Note_on_c,0,37,127,
2,6480, Note_off_c,0,40,127,
2,6481, Note_on_c,0,49,127,
2,6481, Note_off_c,0,37,127,
2,6482, Note_on_c,0,40,127,
2,6482, Note_off_c,0,49,127,
2,6512, Note_on_c,0,49,127,
2,6512, Note_off_c,0,40,127,
2,6513, Note_on_c,0,61,127,
2,6513, Note_on_c,0,40,127,
2,6513, Note_off_c,0,49,127,
2,6514, Note_off_c,0,61,127,
2,6515, Note_on_c,0,61,127,
2,6516, Note_on_c,0,30,127,
2,6517, Note_on_c,0,56,127,
2,6517, Note_off_c,0,30,127,
2,6518, Note_on_c,0,49,127,
2,6518, Note_off_c,0,56,127,
2,6519, Note_on_c,0,46,127,
2,6519, Note_off_c,0,49,127,
2,6520, Note_on_c,0,63,127,
2,6520, Note_off_c,0,46,127,
2,6521, Note_on_c,0,55,127,
2,6521, Note_off_c,0,63,127,
2,6522, Note_off_c,0,55,127,
2,6523, Note_off_c,0,61,127,
2,6524, Note_on_c,0,61,127,
2,6524, Note_off_c,0,40,127,
2,6525, Note_on_c,0,40,127,
2,6533, Note_on_c,0,64,127,
2,6533, Note_off_c,0,61,127,
2,6535, Note_on_c,0,61,127,
2,6535, Note_off_c,0,64,127,
2,6537, Note_on_c,0,64,127,
2,6537, Note_off_c,0,40,127,
2,6538, Note_on_c,0,40,127,
2,6538, Note_off_c,0,61,127,
2,6539, Note_on_c,0,61,127,
2,6539, Note_off_c,0,64,127,
2,6548, Note_on_c,0,64,127,
2,6548, Note_on_c,0,59,127,
2,6548, Note_off_c,0,61,127,
2,6549, Note_on_c,0,61,127,
2,6549, Note_off_c,0,64,127,
2,6549, Note_off_c,0,59,127,
2,6550, Note_on_c,0,70,127,
2,6551, Note_on_c,0,58,127,
2,6551, Note_off_c,0,70,127,
2,6552, Note_off_c,0,58,127,
2,6553, Note_on_c,0,64,127,
2,6554, Note_off_c,0,64,127,
2,6555, Note_on_c,0,58,127,
2,6556, Note_on_c,0,64,127,
2,6556, Note_off_c,0,58,127,
2,6557, Note_on_c,0,58,127,
2,6557, Note_off_c,0,61,127,
2,6558, Note_on_c,0,61,127,
2,6558, Note_off_c,0,64,127,
2,6558, Note_off_c,0,58,127,
2,6561, Note_on_c,0,49,127,
2,6562, Note_off_c,0,49,127,
2,6577, Note_on_c,0,37,127,
2,6577, Note_off_c,0,61,127,
2,6578, Note_on_c,0,61,127,
2,6578, Note_off_c,0,37,127,
2,6581, Note_on_c,0,64,127,
2,6581, Note_off_c,0,61,127,
2,6582, Note_on_c,0,61,127,
2,6582, Note_off_c,0,64,127,
2,6596, Note_on_c,0,64,127,
2,6596, Note_on_c,0,46,127,
2,6596, Note_off_c,0,61,127,
2,6596, Note_off_c,0,40,127,
2,6597, Note_on_c,0,61,127,
2,6597, Note_on_c,0,40,127,
2,6597, Note_off_c,0,64,127,
2,6597, Note_off_c,0,46,127,
2,6612, Note_on_c,0,64,127,
2,6612, Note_off_c,0,61,127,
2,6613, Note_on_c,0,61,127,
2,6613, Note_off_c,0,64,127,
2,6624, Note_on_c,0,44,127,
2,6624, Note_off_c,0,40,127,
2,6625, Note_on_c,0,40,127,
2,6625, Note_off_c,0,44,127,
2,6636, Note_off_c,0,40,127,
2,6637, Note_on_c,0,46,127,
2,6638, Note_on_c,0,40,127,
2,6638, Note_off_c,0,46,127,
2,6650, Note_on_c,0,63,127,
2,6650, Note_off_c,0,61,127,
2,6651, Note_on_c,0,61,127,
2,6651, Note_off_c,0,63,127,
2,6655, Note_on_c,0,63,127,
2,6656, Note_off_c,0,63,127,
2,6657, Note_off_c,0,40,127,
2,6659, Note_on_c,0,64,127,
2,6659, Note_on_c,0,40,127,
2,6659, Note_off_c,0,61,127,
2,6660, Note_on_c,0,61,127,
2,6660, Note_off_c,0,64,127,
2,6665, Note_on_c,0,64,127,
2,6665, Note_off_c,0,61,127,
2,6666, Note_on_c,0,61,127,
2,6666, Note_on_c,0,46,127,
2,6666, Note_off_c,0,64,127,
2,6666, Note_off_c,0,40,127,
2,6667, Note_off_c,0,46,127,
2,6669, Note_on_c,0,40,127,
2,6675, Note_on_c,0,64,127,
2,6675, Note_on_c,0,39,127,
2,6675, Note_off_c,0,61,127,
2,6675, Note_off_c,0,40,127,
2,6676, Note_on_c,0,61,127,
2,6676, Note_on_c,0,40,127,
2,6676, Note_off_c,0,64,127,
2,6676, Note_off_c,0,39,127,
2,6688, Note_on_c,0,39,127,
2,6688, Note_off_c,0,40,127,
2,6689, Note_on_c,0,40,127,
2,6689, Note_off_c,0,39,127,
2,6697, Note_on_c,0,46,127,
2,6697, Note_off_c,0,61,127,
2,6698, Note_on_c,0,61,127,
2,6698, Note_off_c,0,46,127,
2,6732, Note_on_c,0,64,127,
2,6732, Note_off_c,0,61,127,
2,6735, Note_on_c,0,61,127,
2,6735, Note_off_c,0,64,127,
2,6736, Note_off_c,0,40,127,
2,6737, Note_on_c,0,40,127,
2,6746, Note_on_c,0,66,127,
2,6747, Note_off_c,0,66,127,
2,6749, Note_on_c,0,46,127,
2,6750, Note_off_c,0,46,127,
2,6757, Note_on_c,0,44,127,
2,6757, Note_on_c,0,64,127,
2,6757, Note_off_c,0,61,127,
2,6758, Note_on_c,0,61,127,
2,6758, Note_off_c,0,44,127,
2,6758, Note_off_c,0,64,127,
2,6762, Note_on_c,0,64,127,
2,6762, Note_off_c,0,61,127,
2,6763, Note_on_c,0,61,127,
2,6763, Note_off_c,0,64,127,
2,6763, Note_off_c,0,40,127,
2,6764, Note_on_c,0,40,127,
2,6767, Note_on_c,0,64,127,
2,6768, Note_on_c,0,43,127,
2,6768, Note_off_c,0,40,127,
2,6769, Note_on_c,0,40,127,
2,6769, Note_off_c,0,43,127,
2,6770, Note_on_c,0,58,127,
2,6770, Note_off_c,0,64,127,
2,6771, Note_on_c,0,64,127,
2,6771, Note_on_c,0,39,127,
2,6771, Note_on_c,0,70,127,
2,6771, Note_off_c,0,61,127,
2,6771, Note_off_c,0,58,127,
2,6771, Note_off_c,0,40,127,
2,6772, Note_on_c,0,61,127,
2,6772, Note_on_c,0,40,127,
2,6772, Note_off_c,0,64,127,
2,6772, Note_off_c,0,39,127,
2,6772, Note_off_c,0,70,127,
2,6775, Note_on_c,0,49,127,
2,6775, Note_off_c,0,61,127,
2,6776, Note_on_c,0,61,127,
2,6776, Note_off_c,0,49,127,
2,6778, Note_on_c,0,64,127,
2,6778, Note_off_c,0,61,127,
2,6779, Note_on_c,0,61,127,
2,6779, Note_off_c,0,64,127,
2,6783, Note_on_c,0,37,127,
2,6783, Note_off_c,0,40,127,
2,6784, Note_on_c,0,40,127,
2,6784, Note_off_c,0,37,127,
2,6800, Note_on_c,0,71,127,
2,6800, Note_off_c,0,40,127,
2,6801, Note_on_c,0,40,127,
2,6801, Note_off_c,0,71,127,
2,6815, Note_on_c,0,58,127,
2,6815, Note_off_c,0,61,127,
2,6816, Note_on_c,0,61,127,
2,6816, Note_off_c,0,58,127,
2,6825, Note_on_c,0,64,127,
2,6825, Note_off_c,0,61,127,
2,6826, Note_on_c,0,61,127,
2,6826, Note_off_c,0,64,127,
2,6827, Note_on_c,0,70,127,
2,6827, Note_off_c,0,61,127,
2,6828, Note_on_c,0,61,127,
2,6828, Note_off_c,0,70,127,
2,6831, Note_on_c,0,64,127,
2,6831, Note_off_c,0,61,127,
2,6832, Note_on_c,0,61,127,
2,6832, Note_off_c,0,64,127,
2,6846, Note_off_c,0,40,127,
2,6847, Note_on_c,0,40,127,
2,6851, Note_on_c,0,46,127,
2,6852, Note_off_c,0,46,127,
2,6855, Note_on_c,0,66,127,
2,6855, Note_off_c,0,61,127,
2,6856, Note_on_c,0,61,127,
2,6856, Note_off_c,0,66,127,
2,6856, Note_off_c,0,40,127,
2,6857, Note_on_c,0,40,127,
2,6858, Note_off_c,0,61,127,
2,6859, Note_on_c,0,66,127,
2,6859, Note_off_c,0,40,127,
2,6860, Note_on_c,0,40,127,
2,6860, Note_off_c,0,66,127,
2,6861, Note_on_c,0,61,127,
2,6861, Note_off_c,0,40,127,
2,6862, Note_on_c,0,40,127,
2,6862, Note_off_c,0,61,127,
2,6883, Note_on_c,0,39,127,
2,6883, Note_off_c,0,40,127,
2,6884, Note_on_c,0,40,127,
2,6884, Note_off_c,0,39,127,
2,6895, Note_on_c,0,61,127,
2,6896, Note_off_c,0,61,127,
2,6897, Note_on_c,0,64,127,
2,6900, Note_on_c,0,56,127,
2,6900, Note_off_c,0,64,127,
2,6901, Note_on_c,0,61,127,
2,6901, Note_off_c,0,56,127,
2,6911, Note_on_c,0,37,127,
2,6911, Note_off_c,0,40,127,
2,6912, Note_on_c,0,40,127,
2,6912, Note_off_c,0,37,127,
2,6915, Note_on_c,0,64,127,
2,6915, Note_off_c,0,61,127,
2,6916, Note_on_c,0,61,127,
2,6916, Note_off_c,0,64,127,
2,6926, Note_on_c,0,37,127,
2,6926, Note_off_c,0,40,127,
2,6927, Note_on_c,0,40,127,
2,6927, Note_off_c,0,37,127,
2,6954, Note_on_c,0,70,127,
2,6954, Note_off_c,0,61,127,
2,6955, Note_on_c,0,61,127,
2,6955, Note_off_c,0,70,127,
2,6958, Note_on_c,0,64,127,
2,6958, Note_off_c,0,61,127,
2,6959, Note_on_c,0,61,127,
2,6959, Note_off_c,0,64,127,
2,6964, Note_on_c,0,64,127,
2,6964, Note_off_c,0,61,127,
2,6965, Note_on_c,0,61,127,
2,6965, Note_off_c,0,64,127,
2,6966, Note_on_c,0,64,127,
2,6966, Note_off_c,0,61,127,
2,6967, Note_on_c,0,61,127,
2,6967, Note_off_c,0,64,127,
2,6969, Note_on_c,0,37,127,
2,6969, Note_off_c,0,40,127,
2,6970, Note_on_c,0,40,127,
2,6970, Note_off_c,0,37,127,
2,6973, Note_on_c,0,39,127,
2,6973, Note_off_c,0,40,127,
2,6974, Note_on_c,0,40,127,
2,6974, Note_off_c,0,39,127,
2,6983, Note_off_c,0,40,127,
2,6984, Note_on_c,0,40,127,
2,6985, Note_off_c,0,61,127,
2,6985, Note_off_c,0,40,127,
2,6986, Note_on_c,0,61,127,
2,6987, Note_on_c,0,40,127,
2,6993, Note_on_c,0,37,127,
2,6993, Note_off_c,0,40,127,
2,6994, Note_on_c,0,40,127,
2,6994, Note_off_c,0,37,127,
2,7000, Note_on_c,0,64,127,
2,7000, Note_off_c,0,61,127,
2,7002, Note_on_c,0,61,127,
2,7002, Note_off_c,0,64,127,
2,7009, Note_on_c,0,58,127,
2,7009, Note_off_c,0,61,127,
2,7010, Note_on_c,0,61,127,
2,7010, Note_off_c,0,58,127,
2,7017, Note_off_c,0,61,127,
2,7018, Note_on_c,0,61,127,
2,7018, Note_off_c,0,40,127,
2,7019, Note_on_c,0,40,127,
2,7026, Note_on_c,0,46,127,
2,7026, Note_off_c,0,61,127,
2,7027, Note_on_c,0,61,127,
2,7027, Note_off_c,0,46,127,
2,7029, Note_on_c,0,52,127,
2,7029, Note_off_c,0,61,127,
2,7030, Note_on_c,0,61,127,
2,7030, Note_off_c,0,52,127,
2,7035, Note_on_c,0,64,127,
2,7035, Note_off_c,0,61,127,
2,7036, Note_on_c,0,61,127,
2,7036, Note_off_c,0,64,127,
2,7038, Note_on_c,0,39,127,
2,7038, Note_off_c,0,40,127,
2,7039, Note_on_c,0,40,127,
2,7039, Note_off_c,0,39,127,
2,7040, Note_on_c,0,37,127,
2,7040, Note_off_c,0,40,127,
2,7041, Note_on_c,0,40,127,
2,7041, Note_off_c,0,37,127,
2,7047, Note_on_c,0,39,127,
2,7047, Note_off_c,0,40,127,
2,7048, Note_on_c,0,34,127,
2,7048, Note_off_c,0,39,127,
2,7049, Note_on_c,0,40,127,
2,7049, Note_off_c,0,34,127,
2,7068, Note_off_c,0,40,127,
2,7069, Note_on_c,0,40,127,
2,7072, Note_off_c,0,40,127,
2,7073, Note_on_c,0,40,127,
2,7076, Note_on_c,0,59,127,
2,7076, Note_off_c,0,61,127,
2,7077, Note_on_c,0,61,127,
2,7077, Note_off_c,0,59,127,
2,7083, Note_on_c,0,30,127,
2,7083, Note_off_c,0,40,127,
2,7084, Note_on_c,0,40,127,
2,7084, Note_off_c,0,30,127,
2,7085, Note_off_c,0,61,127,
2,7086, Note_on_c,0,61,127,
2,7086, Note_off_c,0,40,127,
2,7087, Note_on_c,0,40,127,
2,7087, Note_off_c,0,61,127,
2,7113, Note_on_c,0,44,127,
2,7113, Note_off_c,0,40,127,
2,7114, Note_on_c,0,40,127,
2,7114, Note_off_c,0,44,127,
2,7169, Note_on_c,0,37,127,
2,7169, Note_off_c,0,40,127,
2,7170, Note_on_c,0,40,127,
2,7170, Note_off_c,0,37,127,
2,7179, Note_on_c,0,56,127,
2,7179, Note_off_c,0,40,127,
2,7180, Note_on_c,0,40,127,
2,7180, Note_off_c,0,56,127,
2,7274, Note_on_c,0,39,127,
2,7274, Note_off_c,0,40,127,
2,7275, Note_on_c,0,40,127,
2,7275, Note_off_c,0,39,127,
2,7277, Note_on_c,0,49,127,
2,7277, Note_off_c,0,40,127,
2,7278, Note_on_c,0,40,127,
2,7278, Note_off_c,0,49,127,
2,7330, Note_on_c,0,37,127,
2,7330, Note_off_c,0,40,127,
2,7331, Note_on_c,0,40,127,
2,7331, Note_off_c,0,37,127,
2,7351, Note_on_c,0,39,127,
2,7351, Note_off_c,0,40,127,
2,7352, Note_on_c,0,40,127,
2,7352, Note_off_c,0,39,127,
2,7365, Note_on_c,0,56,127,
2,7365, Note_off_c,0,40,127,
2,7366, Note_on_c,0,40,127,
2,7366, Note_off_c,0,56,127,
2,7383, Note_on_c,0,37,127,
2,7383, Note_off_c,0,40,127,
2,7384, Note_on_c,0,40,127,
2,7384, Note_off_c,0,37,127,
2,7468, Note_on_c,0,44,127,
2,7468, Note_off_c,0,40,127,
2,7469, Note_on_c,0,40,127,
2,7469, Note_off_c,0,44,127,
2,7482, Note_on_c,0,67,127,
2,7482, Note_off_c,0,40,127,
2,7483, Note_on_c,0,61,127,
2,7483, Note_on_c,0,40,127,
2,7483, Note_off_c,0,67,127,
2,7496, Note_on_c,0,70,127,
2,7496, Note_off_c,0,61,127,
2,7497, Note_on_c,0,61,127,
2,7497, Note_off_c,0,70,127,
2,7498, Note_on_c,0,64,127,
2,7498, Note_off_c,0,61,127,
2,7498, Note_off_c,0,40,127,
2,7499, Note_on_c,0,61,127,
2,7499, Note_on_c,0,40,127,
2,7499, Note_off_c,0,64,127,
2,7514, Note_on_c,0,64,127,
2,7514, Note_off_c,0,61,127,
2,7515, Note_on_c,0,61,127,
2,7515, Note_off_c,0,64,127,
2,7519, Note_on_c,0,64,127,
2,7519, Note_off_c,0,61,127,
2,7520, Note_on_c,0,61,127,
2,7520, Note_off_c,0,64,127,
2,7521, Note_off_c,0,40,127,
2,7522, Note_on_c,0,40,127,
2,7523, Note_on_c,0,67,127,
2,7523, Note_off_c,0,61,127,
2,7523, Note_off_c,0,40,127,
2,7524, Note_on_c,0,43,127,
2,7524, Note_on_c,0,61,127,
2,7524, Note_off_c,0,67,127,
2,7525, Note_on_c,0,40,127,
2,7525, Note_off_c,0,43,127,
2,7530, Note_on_c,0,58,127,
2,7530, Note_off_c,0,61,127,
2,7531, Note_on_c,0,61,127,
2,7531, Note_off_c,0,58,127,
2,7531, Note_off_c,0,40,127,
2,7532, Note_on_c,0,40,127,
2,7540, Note_on_c,0,64,127,
2,7541, Note_off_c,0,64,127,
2,7547, Note_on_c,0,46,127,
2,7548, Note_off_c,0,46,127,
2,7552, Note_on_c,0,64,127,
2,7553, Note_off_c,0,64,127,
2,7554, Note_on_c,0,64,127,
2,7555, Note_off_c,0,64,127,
2,7556, Note_on_c,0,70,127,
2,7557, Note_off_c,0,70,127,
2,7558, Note_on_c,0,64,127,
2,7558, Note_off_c,0,61,127,
2,7559, Note_on_c,0,61,127,
2,7559, Note_off_c,0,64,127,
2,7569, Note_on_c,0,66,127,
2,7569, Note_off_c,0,61,127,
2,7570, Note_on_c,0,61,127,
2,7570, Note_off_c,0,66,127,
2,7577, Note_on_c,0,46,127,
2,7577, Note_off_c,0,40,127,
2,7578, Note_on_c,0,40,127,
2,7578, Note_off_c,0,46,127,
2,7584, Note_off_c,0,61,127,
2,7584, Note_off_c,0,40,127,
2,7585, Note_on_c,0,61,127,
2,7586, Note_on_c,0,40,127,
2,7589, Note_on_c,0,64,127,
2,7589, Note_on_c,0,39,127,
2,7589, Note_off_c,0,61,127,
2,7589, Note_off_c,0,40,127,
2,7590, Note_on_c,0,61,127,
2,7590, Note_on_c,0,40,127,
2,7590, Note_off_c,0,64,127,
2,7590, Note_off_c,0,39,127,
2,7599, Note_off_c,0,40,127,
2,7600, Note_on_c,0,40,127,
2,7601, Note_on_c,0,64,127,
2,7601, Note_off_c,0,61,127,
2,7602, Note_on_c,0,61,127,
2,7602, Note_off_c,0,64,127,
2,7603, Note_on_c,0,39,127,
2,7603, Note_off_c,0,40,127,
2,7604, Note_on_c,0,40,127,
2,7604, Note_off_c,0,39,127,
2,7606, Note_on_c,0,46,127,
2,7606, Note_off_c,0,61,127,
2,7607, Note_on_c,0,61,127,
2,7607, Note_off_c,0,46,127,
2,7615, Note_on_c,0,39,127,
2,7615, Note_off_c,0,40,127,
2,7616, Note_on_c,0,40,127,
2,7616, Note_off_c,0,39,127,
2,7628, Note_on_c,0,30,127,
2,7628, Note_off_c,0,40,127,
2,7629, Note_on_c,0,40,127,
2,7629, Note_off_c,0,30,127,
2,7638, Note_on_c,0,64,127,
2,7638, Note_off_c,0,61,127,
2,7639, Note_on_c,0,61,127,
2,7639, Note_off_c,0,64,127,
2,7651, Note_on_c,0,63,127,
2,7651, Note_off_c,0,61,127,
2,7652, Note_on_c,0,61,127,
2,7652, Note_off_c,0,63,127,
2,7662, Note_on_c,0,39,127,
2,7662, Note_off_c,0,40,127,
2,7663, Note_on_c,0,40,127,
2,7663, Note_off_c,0,39,127,
2,7675, Note_on_c,0,64,127,
2,7675, Note_off_c,0,61,127,
2,7676, Note_on_c,0,61,127,
2,7676, Note_off_c,0,64,127,
2,7688, Note_on_c,0,39,127,
2,7688, Note_off_c,0,40,127,
2,7689, Note_on_c,0,40,127,
2,7689, Note_off_c,0,39,127,
2,7695, Note_on_c,0,39,127,
2,7695, Note_off_c,0,40,127,
2,7696, Note_on_c,0,40,127,
2,7696, Note_off_c,0,39,127,
2,7713, Note_on_c,0,64,127,
2,7713, Note_off_c,0,61,127,
2,7714, Note_on_c,0,61,127,
2,7714, Note_off_c,0,64,127,
2,7759, Note_on_c,0,64,127,
2,7759, Note_off_c,0,61,127,
2,7761, Note_on_c,0,61,127,
2,7761, Note_off_c,0,64,127,
2,7775, Note_on_c,0,64,127,
2,7775, Note_off_c,0,61,127,
2,7776, Note_on_c,0,61,127,
2,7776, Note_off_c,0,64,127,
2,7780, Note_on_c,0,39,127,
2,7780, Note_off_c,0,40,127,
2,7781, Note_on_c,0,40,127,
2,7781, Note_off_c,0,39,127,
2,7787, Note_on_c,0,64,127,
2,7787, Note_off_c,0,61,127,
2,7788, Note_on_c,0,61,127,
2,7788, Note_off_c,0,64,127,
2,7791, Note_on_c,0,73,127,
2,7791, Note_off_c,0,61,127,
2,7792, Note_on_c,0,61,127,
2,7792, Note_off_c,0,73,127,
2,7795, Note_on_c,0,64,127,
2,7795, Note_off_c,0,61,127,
2,7796, Note_on_c,0,44,127,
2,7796, Note_on_c,0,61,127,
2,7796, Note_off_c,0,64,127,
2,7796, Note_off_c,0,40,127,
2,7797, Note_on_c,0,40,127,
2,7797, Note_off_c,0,44,127,
2,7798, Note_on_c,0,58,127,
2,7798, Note_off_c,0,61,127,
2,7799, Note_on_c,0,69,127,
2,7799, Note_off_c,0,58,127,
2,7800, Note_on_c,0,61,127,
2,7800, Note_off_c,0,69,127,
2,7800, Note_off_c,0,40,127,
2,7801, Note_on_c,0,58,127,
2,7801, Note_on_c,0,40,127,
2,7801, Note_off_c,0,61,127,
2,7802, Note_on_c,0,61,127,
2,7802, Note_off_c,0,58,127,
2,7803, Note_off_c,0,40,127,
2,7804, Note_on_c,0,64,127,
2,7804, Note_on_c,0,40,127,
2,7805, Note_on_c,0,52,127,
2,7805, Note_off_c,0,64,127,
2,7806, Note_off_c,0,52,127,
2,7811, Note_on_c,0,64,127,
2,7811, Note_off_c,0,61,127,
2,7812, Note_on_c,0,61,127,
2,7812, Note_off_c,0,64,127,
2,7818, Note_on_c,0,58,127,
2,7818, Note_off_c,0,61,127,
2,7819, Note_on_c,0,64,127,
2,7819, Note_off_c,0,58,127,
2,7820, Note_on_c,0,61,127,
2,7820, Note_off_c,0,64,127,
2,7820, Note_off_c,0,40,127,
2,7821, Note_on_c,0,40,127,
2,7822, Note_off_c,0,40,127,
2,7823, Note_on_c,0,40,127,
2,7839, Note_on_c,0,64,127,
2,7839, Note_off_c,0,61,127,
2,7840, Note_on_c,0,61,127,
2,7840, Note_off_c,0,64,127,
2,7899, Note_off_c,0,61,127,
2,7900, Note_on_c,0,61,127,
2,7900, Note_off_c,0,40,127,
2,7901, Note_on_c,0,56,127,
2,7901, Note_off_c,0,61,127,
2,7902, Note_on_c,0,40,127,
2,7902, Note_off_c,0,56,127,
2,7946, Note_on_c,0,64,127,
2,7947, Note_on_c,0,56,127,
2,7947, Note_off_c,0,64,127,
2,7951, Note_on_c,0,39,127,
2,7951, Note_off_c,0,40,127,
2,7952, Note_on_c,0,40,127,
2,7952, Note_off_c,0,39,127,
2,7953, Note_on_c,0,47,127,
2,7953, Note_off_c,0,56,127,
2,7954, Note_on_c,0,56,127,
2,7954, Note_off_c,0,47,127,
2,7955, Note_off_c,0,56,127,
2,7956, Note_on_c,0,56,127,
2,7957, Note_on_c,0,49,127,
2,7957, Note_off_c,0,56,127,
2,7958, Note_on_c,0,56,127,
2,7958, Note_off_c,0,49,127,
2,7959, Note_off_c,0,40,127,
2,7960, Note_on_c,0,47,127,
2,7960, Note_on_c,0,40,127,
2,7960, Note_off_c,0,56,127,
2,7961, Note_on_c,0,37,127,
2,7961, Note_off_c,0,47,127,
2,7962, Note_on_c,0,56,127,
2,7962, Note_off_c,0,37,127,
2,7963, Note_off_c,0,56,127,
2,7964, Note_on_c,0,63,127,
2,7964, Note_on_c,0,49,127,
2,7964, Note_off_c,0,40,127,
2,7965, Note_on_c,0,46,127,
2,7965, Note_on_c,0,40,127,
2,7965, Note_off_c,0,63,127,
2,7965, Note_off_c,0,49,127,
2,7966, Note_on_c,0,47,127,
2,7966, Note_off_c,0,46,127,
2,7967, Note_off_c,0,47,127,
2,7968, Note_on_c,0,56,127,
2,7968, Note_off_c,0,40,127,
2,7969, Note_on_c,0,40,127,
2,7969, Note_off_c,0,56,127,
2,7974, Note_on_c,0,37,127,
2,7974, Note_off_c,0,40,127,
2,7975, Note_on_c,0,40,127,
2,7975, Note_off_c,0,37,127,
2,7981, Note_on_c,0,39,127,
2,7981, Note_off_c,0,40,127,
2,7982, Note_on_c,0,64,127,
2,7982, Note_off_c,0,39,127,
2,7983, Note_on_c,0,61,127,
2,7983, Note_on_c,0,40,127,
2,7983, Note_off_c,0,64,127,
2,7985, Note_on_c,0,28,127,
2,7985, Note_off_c,0,40,127,
2,7986, Note_on_c,0,40,127,
2,7986, Note_off_c,0,28,127,
2,7988, Note_on_c,0,39,127,
2,7988, Note_off_c,0,40,127,
2,7989, Note_on_c,0,40,127,
2,7989, Note_off_c,0,39,127,
2,7993, Note_on_c,0,64,127,
2,7993, Note_off_c,0,61,127,
2,7994, Note_on_c,0,61,127,
2,7994, Note_off_c,0,64,127,
2,8022, Note_on_c,0,49,127,
2,8022, Note_off_c,0,61,127,
2,8023, Note_on_c,0,64,127,
2,8023, Note_off_c,0,49,127,
2,8024, Note_on_c,0,61,127,
2,8024, Note_off_c,0,64,127,
2,8033, Note_on_c,0,64,127,
2,8033, Note_off_c,0,61,127,
2,8035, Note_on_c,0,61,127,
2,8035, Note_off_c,0,64,127,
2,8036, Note_on_c,0,64,127,
2,8036, Note_off_c,0,61,127,
2,8037, Note_on_c,0,61,127,
2,8037, Note_on_c,0,69,127,
2,8037, Note_off_c,0,64,127,
2,8037, Note_off_c,0,40,127,
2,8038, Note_on_c,0,64,127,
2,8038, Note_on_c,0,40,127,
2,8038, Note_off_c,0,69,127,
2,8040, Note_off_c,0,64,127,
2,8046, Note_on_c,0,64,127,
2,8047, Note_off_c,0,64,127,
2,8049, Note_on_c,0,70,127,
2,8050, Note_off_c,0,70,127,
2,8051, Note_on_c,0,64,127,
2,8053, Note_off_c,0,64,127,
2,8054, Note_on_c,0,58,127,
2,8055, Note_off_c,0,58,127,
2,8058, Note_on_c,0,64,127,
2,8059, Note_off_c,0,64,127,
2,8065, Note_on_c,0,46,127,
2,8066, Note_off_c,0,46,127,
2,8073, Note_off_c,0,40,127,
2,8074, Note_on_c,0,40,127,
2,8080, Note_on_c,0,64,127,
2,8081, Note_off_c,0,64,127,
2,8081, Note_off_c,0,40,127,
2,8082, Note_on_c,0,64,127,
2,8082, Note_on_c,0,40,127,
2,8083, Note_on_c,0,58,127,
2,8083, Note_off_c,0,64,127,
2,8084, Note_off_c,0,58,127,
2,8086, Note_off_c,0,40,127,
2,8088, Note_on_c,0,40,127,
2,8089, Note_off_c,0,40,127,
2,8090, Note_on_c,0,64,127,
2,8091, Note_on_c,0,40,127,
2,8091, Note_off_c,0,64,127,
2,8096, Note_on_c,0,64,127,
2,8096, Note_off_c,0,61,127,
2,8097, Note_on_c,0,61,127,
2,8097, Note_off_c,0,64,127,
2,8103, Note_on_c,0,35,127,
2,8103, Note_off_c,0,40,127,
2,8104, Note_on_c,0,40,127,
2,8104, Note_off_c,0,35,127,
2,8111, Note_on_c,0,64,127,
2,8111, Note_off_c,0,61,127,
2,8112, Note_on_c,0,61,127,
2,8112, Note_off_c,0,64,127,
2,8113, Note_on_c,0,63,127,
2,8113, Note_off_c,0,61,127,
2,8114, Note_on_c,0,61,127,
2,8114, Note_off_c,0,63,127,
2,8115, Note_on_c,0,63,127,
2,8116, Note_off_c,0,63,127,
2,8120, Note_on_c,0,73,127,
2,8121, Note_off_c,0,73,127,
2,8124, Note_on_c,0,64,127,
2,8124, Note_off_c,0,61,127,
2,8125, Note_on_c,0,61,127,
2,8125, Note_off_c,0,64,127,
2,8138, Note_on_c,0,52,127,
2,8138, Note_off_c,0,61,127,
2,8139, Note_on_c,0,61,127,
2,8139, Note_off_c,0,52,127,
2,8141, Note_on_c,0,64,127,
2,8141, Note_off_c,0,61,127,
2,8142, Note_on_c,0,61,127,
2,8142, Note_off_c,0,64,127,
2,8146, Note_on_c,0,56,127,
2,8146, Note_off_c,0,61,127,
2,8147, Note_on_c,0,61,127,
2,8147, Note_off_c,0,56,127,
2,8163, Note_on_c,0,64,127,
2,8163, Note_off_c,0,61,127,
2,8164, Note_on_c,0,61,127,
2,8164, Note_off_c,0,64,127,
2,8216, Note_on_c,0,39,127,
2,8216, Note_off_c,0,40,127,
2,8217, Note_on_c,0,40,127,
2,8217, Note_off_c,0,39,127,
2,8226, Note_on_c,0,50,127,
2,8226, Note_off_c,0,40,127,
2,8227, Note_on_c,0,40,127,
2,8227, Note_off_c,0,50,127,
2,8229, Note_on_c,0,63,127,
2,8229, Note_off_c,0,61,127,
2,8230, Note_on_c,0,61,127,
2,8230, Note_off_c,0,63,127,
2,8232, Note_on_c,0,66,127,
2,8233, Note_off_c,0,66,127,
2,8234, Note_on_c,0,59,127,
2,8234, Note_off_c,0,61,127,
2,8235, Note_on_c,0,61,127,
2,8235, Note_off_c,0,59,127,
2,8236, Note_on_c,0,64,127,
2,8236, Note_off_c,0,61,127,
2,8237, Note_on_c,0,61,127,
2,8237, Note_off_c,0,64,127,
2,8240, Note_on_c,0,64,127,
2,8240, Note_off_c,0,61,127,
2,8241, Note_on_c,0,61,127,
2,8241, Note_off_c,0,64,127,
2,8253, Note_on_c,0,64,127,
2,8253, Note_off_c,0,61,127,
2,8254, Note_on_c,0,61,127,
2,8254, Note_off_c,0,64,127,
2,8255, Note_on_c,0,39,127,
2,8255, Note_off_c,0,40,127,
2,8256, Note_on_c,0,40,127,
2,8256, Note_off_c,0,39,127,
2,8265, Note_on_c,0,39,127,
2,8265, Note_off_c,0,40,127,
2,8266, Note_on_c,0,40,127,
2,8266, Note_off_c,0,39,127,
2,8281, Note_on_c,0,37,127,
2,8281, Note_off_c,0,40,127,
2,8282, Note_on_c,0,40,127,
2,8282, Note_off_c,0,37,127,
2,8288, Note_on_c,0,64,127,
2,8288, Note_off_c,0,61,127,
2,8289, Note_on_c,0,61,127,
2,8289, Note_off_c,0,64,127,
2,8292, Note_on_c,0,44,127,
2,8292, Note_off_c,0,40,127,
2,8293, Note_on_c,0,64,127,
2,8293, Note_on_c,0,40,127,
2,8293, Note_off_c,0,44,127,
2,8293, Note_off_c,0,61,127,
2,8294, Note_on_c,0,61,127,
2,8294, Note_off_c,0,64,127,
2,8315, Note_on_c,0,56,127,
2,8315, Note_off_c,0,61,127,
2,8316, Note_on_c,0,61,127,
2,8316, Note_off_c,0,56,127,
2,8324, Note_on_c,0,35,127,
2,8324, Note_off_c,0,40,127,
2,8325, Note_on_c,0,40,127,
2,8325, Note_off_c,0,35,127,
2,8327, Note_on_c,0,39,127,
2,8327, Note_off_c,0,40,127,
2,8328, Note_on_c,0,64,127,
2,8328, Note_on_c,0,40,127,
2,8328, Note_off_c,0,61,127,
2,8328, Note_off_c,0,39,127,
2,8329, Note_on_c,0,61,127,
2,8329, Note_off_c,0,64,127,
2,8348, Note_on_c,0,55,127,
2,8348, Note_off_c,0,61,127,
2,8349, Note_on_c,0,61,127,
2,8349, Note_on_c,0,46,127,
2,8349, Note_off_c,0,40,127,
2,8349, Note_off_c,0,55,127,
2,8350, Note_on_c,0,40,127,
2,8350, Note_off_c,0,46,127,
2,8356, Note_on_c,0,58,127,
2,8357, Note_off_c,0,58,127,
2,8362, Note_on_c,0,70,127,
2,8363, Note_on_c,0,52,127,
2,8363, Note_off_c,0,70,127,
2,8364, Note_off_c,0,52,127,
2,8369, Note_on_c,0,64,127,
2,8369, Note_on_c,0,39,127,
2,8369, Note_off_c,0,40,127,
2,8370, Note_on_c,0,40,127,
2,8370, Note_off_c,0,64,127,
2,8370, Note_off_c,0,39,127,
2,8372, Note_on_c,0,64,127,
2,8373, Note_off_c,0,64,127,
2,8375, Note_on_c,0,64,127,
2,8376, Note_off_c,0,64,127,
2,8379, Note_off_c,0,40,127,
2,8380, Note_on_c,0,40,127,
2,8381, Note_on_c,0,39,127,
2,8381, Note_off_c,0,40,127,
2,8382, Note_on_c,0,40,127,
2,8382, Note_off_c,0,39,127,
2,8396, Note_on_c,0,63,127,
2,8396, Note_off_c,0,61,127,
2,8397, Note_off_c,0,63,127,
2,8398, Note_on_c,0,61,127,
2,8398, Note_off_c,0,40,127,
2,8399, Note_on_c,0,40,127,
2,8412, Note_on_c,0,64,127,
2,8412, Note_off_c,0,61,127,
2,8413, Note_on_c,0,61,127,
2,8413, Note_off_c,0,64,127,
2,8417, Note_on_c,0,64,127,
2,8417, Note_on_c,0,46,127,
2,8417, Note_off_c,0,61,127,
2,8417, Note_off_c,0,40,127,
2,8418, Note_on_c,0,61,127,
2,8418, Note_on_c,0,40,127,
2,8418, Note_off_c,0,64,127,
2,8418, Note_off_c,0,46,127,
2,8429, Note_on_c,0,68,127,
2,8429, Note_off_c,0,61,127,
2,8430, Note_on_c,0,61,127,
2,8430, Note_off_c,0,68,127,
2,8448, Note_on_c,0,64,127,
2,8448, Note_off_c,0,61,127,
2,8449, Note_on_c,0,61,127,
2,8449, Note_off_c,0,64,127,
2,8460, Note_on_c,0,64,127,
2,8460, Note_off_c,0,61,127,
2,8461, Note_on_c,0,61,127,
2,8461, Note_off_c,0,64,127,
2,8463, Note_on_c,0,49,127,
2,8463, Note_off_c,0,61,127,
2,8464, Note_on_c,0,61,127,
2,8464, Note_off_c,0,49,127,
2,8465, Note_on_c,0,64,127,
2,8465, Note_off_c,0,61,127,
2,8466, Note_on_c,0,61,127,
2,8466, Note_off_c,0,64,127,
2,8476, Note_on_c,0,47,127,
2,8476, Note_off_c,0,40,127,
2,8477, Note_on_c,0,40,127,
2,8477, Note_off_c,0,47,127,
2,8485, Note_on_c,0,64,127,
2,8485, Note_off_c,0,61,127,
2,8486, Note_on_c,0,61,127,
2,8486, Note_off_c,0,64,127,
2,8488, Note_on_c,0,37,127,
2,8488, Note_off_c,0,40,127,
2,8489, Note_on_c,0,40,127,
2,8489, Note_off_c,0,37,127,
2,8490, Note_on_c,0,43,127,
2,8490, Note_off_c,0,40,127,
2,8491, Note_on_c,0,40,127,
2,8491, Note_off_c,0,43,127,
2,8507, Note_on_c,0,58,127,
2,8507, Note_off_c,0,61,127,
2,8508, Note_on_c,0,61,127,
2,8508, Note_off_c,0,58,127,
2,8518, Note_on_c,0,34,127,
2,8518, Note_off_c,0,40,127,
2,8519, Note_on_c,0,40,127,
2,8519, Note_off_c,0,34,127,
2,8529, Note_off_c,0,61,127,
2,8530, Note_on_c,0,67,127,
2,8530, Note_off_c,0,40,127,
2,8531, Note_on_c,0,61,127,
2,8531, Note_on_c,0,40,127,
2,8531, Note_off_c,0,67,127,
2,8532, Note_on_c,0,64,127,
2,8532, Note_off_c,0,61,127,
2,8533, Note_on_c,0,61,127,
2,8533, Note_off_c,0,64,127,
2,8538, Note_on_c,0,39,127,
2,8538, Note_off_c,0,40,127,
2,8539, Note_on_c,0,40,127,
2,8539, Note_off_c,0,39,127,
2,8542, Note_on_c,0,64,127,
2,8542, Note_off_c,0,61,127,
2,8543, Note_on_c,0,61,127,
2,8543, Note_off_c,0,64,127,
2,8550, Note_on_c,0,49,127,
2,8550, Note_off_c,0,61,127,
2,8551, Note_on_c,0,61,127,
2,8551, Note_off_c,0,49,127,
2,8555, Note_on_c,0,63,127,
2,8555, Note_off_c,0,61,127,
2,8556, Note_off_c,0,63,127,
2,8557, Note_on_c,0,61,127,
2,8557, Note_on_c,0,66,127,
2,8557, Note_off_c,0,40,127,
2,8558, Note_on_c,0,40,127,
2,8558, Note_off_c,0,66,127,
2,8559, Note_off_c,0,40,127,
2,8560, Note_on_c,0,40,127,
2,8562, Note_off_c,0,40,127,
2,8563, Note_on_c,0,40,127,
2,8564, Note_off_c,0,61,127,
2,8567, Note_on_c,0,39,127,
2,8567, Note_off_c,0,40,127,
2,8568, Note_on_c,0,66,127,
2,8568, Note_on_c,0,40,127,
2,8568, Note_off_c,0,39,127,
2,8569, Note_on_c,0,56,127,
2,8569, Note_off_c,0,66,127,
2,8570, Note_on_c,0,61,127,
2,8570, Note_off_c,0,56,127,
2,8577, Note_on_c,0,64,127,
2,8577, Note_off_c,0,61,127,
2,8578, Note_on_c,0,61,127,
2,8578, Note_off_c,0,64,127,
2,8604, Note_on_c,0,64,127,
2,8604, Note_off_c,0,40,127,
2,8605, Note_on_c,0,40,127,
2,8605, Note_off_c,0,64,127,
2,8606, Note_off_c,0,40,127,
2,8607, Note_on_c,0,40,127,
2,8611, Note_on_c,0,64,127,
2,8611, Note_off_c,0,61,127,
2,8612, Note_on_c,0,61,127,
2,8612, Note_off_c,0,64,127,
2,8613, Note_on_c,0,64,127,
2,8613, Note_off_c,0,61,127,
2,8614, Note_on_c,0,61,127,
2,8614, Note_off_c,0,64,127,
2,8615, Note_on_c,0,46,127,
2,8615, Note_off_c,0,40,127,
2,8616, Note_on_c,0,40,127,
2,8616, Note_off_c,0,46,127,
2,8621, Note_on_c,0,58,127,
2,8621, Note_off_c,0,61,127,
2,8622, Note_on_c,0,61,127,
2,8622, Note_off_c,0,58,127,
2,8625, Note_on_c,0,64,127,
2,8625, Note_on_c,0,35,127,
2,8625, Note_off_c,0,61,127,
2,8625, Note_off_c,0,40,127,
2,8626, Note_on_c,0,61,127,
2,8626, Note_on_c,0,40,127,
2,8626, Note_off_c,0,64,127,
2,8626, Note_off_c,0,35,127,
2,8627, Note_on_c,0,64,127,
2,8628, Note_on_c,0,58,127,
2,8628, Note_off_c,0,64,127,
2,8629, Note_on_c,0,64,127,
2,8629, Note_off_c,0,58,127,
2,8630, Note_off_c,0,64,127,
2,8631, Note_on_c,0,64,127,
2,8632, Note_off_c,0,64,127,
2,8635, Note_on_c,0,64,127,
2,8636, Note_off_c,0,64,127,
2,8642, Note_on_c,0,58,127,
2,8643, Note_off_c,0,58,127,
2,8647, Note_on_c,0,49,127,
2,8648, Note_off_c,0,49,127,
2,8657, Note_on_c,0,64,127,
2,8657, Note_off_c,0,61,127,
2,8658, Note_on_c,0,61,127,
2,8658, Note_off_c,0,64,127,
2,8678, Note_on_c,0,39,127,
2,8678, Note_off_c,0,40,127,
2,8679, Note_on_c,0,40,127,
2,8679, Note_off_c,0,39,127,
2,8686, Note_on_c,0,64,127,
2,8686, Note_off_c,0,61,127,
2,8687, Note_on_c,0,61,127,
2,8687, Note_off_c,0,64,127,
2,8696, Note_on_c,0,64,127,
2,8696, Note_off_c,0,61,127,
2,8697, Note_on_c,0,61,127,
2,8697, Note_off_c,0,64,127,
2,8700, Note_on_c,0,67,127,
2,8700, Note_off_c,0,61,127,
2,8701, Note_on_c,0,61,127,
2,8701, Note_off_c,0,67,127,
2,8705, Note_on_c,0,47,127,
2,8705, Note_off_c,0,40,127,
2,8706, Note_on_c,0,40,127,
2,8706, Note_off_c,0,47,127,
2,8709, Note_on_c,0,64,127,
2,8709, Note_off_c,0,61,127,
2,8710, Note_on_c,0,61,127,
2,8710, Note_off_c,0,64,127,
2,8712, Note_on_c,0,56,127,
2,8712, Note_off_c,0,61,127,
2,8713, Note_on_c,0,61,127,
2,8713, Note_off_c,0,56,127,
2,8723, Note_on_c,0,64,127,
2,8723, Note_off_c,0,61,127,
2,8724, Note_on_c,0,61,127,
2,8724, Note_off_c,0,64,127,
2,8732, Note_on_c,0,44,127,
2,8732, Note_off_c,0,40,127,
2,8733, Note_on_c,0,40,127,
2,8733, Note_off_c,0,44,127,
2,8742, Note_on_c,0,64,127,
2,8742, Note_off_c,0,61,127,
2,8743, Note_on_c,0,61,127,
2,8743, Note_off_c,0,64,127,
2,8751, Note_on_c,0,64,127,
2,8751, Note_off_c,0,61,127,
2,8752, Note_on_c,0,61,127,
2,8752, Note_off_c,0,64,127,
2,8753, Note_on_c,0,64,127,
2,8753, Note_off_c,0,61,127,
2,8755, Note_on_c,0,61,127,
2,8755, Note_off_c,0,64,127,
2,8756, Note_on_c,0,64,127,
2,8756, Note_on_c,0,52,127,
2,8756, Note_off_c,0,61,127,
2,8756, Note_off_c,0,40,127,
2,8757, Note_on_c,0,61,127,
2,8757, Note_on_c,0,40,127,
2,8757, Note_off_c,0,64,127,
2,8757, Note_off_c,0,52,127,
2,8759, Note_on_c,0,64,127,
2,8759, Note_off_c,0,61,127,
2,8759, Note_off_c,0,40,127,
2,8760, Note_on_c,0,61,127,
2,8760, Note_on_c,0,40,127,
2,8760, Note_off_c,0,64,127,
2,8761, Note_off_c,0,40,127,
2,8762, Note_on_c,0,40,127,
2,8763, Note_on_c,0,67,127,
2,8763, Note_off_c,0,61,127,
2,8763, Note_off_c,0,40,127,
2,8764, Note_on_c,0,61,127,
2,8764, Note_on_c,0,40,127,
2,8764, Note_off_c,0,67,127,
2,8765, Note_off_c,0,61,127,
2,8766, Note_on_c,0,61,127,
2,8766, Note_off_c,0,40,127,
2,8767, Note_on_c,0,37,127,
2,8767, Note_off_c,0,61,127,
2,8768, Note_on_c,0,40,127,
2,8768, Note_off_c,0,37,127,
2,8778, Note_on_c,0,37,127,
2,8778, Note_off_c,0,40,127,
2,8779, Note_on_c,0,40,127,
2,8779, Note_off_c,0,37,127,
2,8802, Note_on_c,0,39,127,
2,8802, Note_off_c,0,40,127,
2,8803, Note_on_c,0,40,127,
2,8803, Note_off_c,0,39,127,
2,8841, Note_on_c,0,61,127,
2,8842, Note_off_c,0,61,127,
2,8847, Note_on_c,0,47,127,
2,8847, Note_off_c,0,40,127,
2,8848, Note_on_c,0,40,127,
2,8848, Note_off_c,0,47,127,
2,8855, Note_on_c,0,46,127,
2,8855, Note_off_c,0,40,127,
2,8856, Note_on_c,0,40,127,
2,8856, Note_off_c,0,46,127,
2,8868, Note_on_c,0,67,127,
2,8868, Note_off_c,0,40,127,
2,8869, Note_on_c,0,61,127,
2,8869, Note_on_c,0,40,127,
2,8869, Note_off_c,0,67,127,
2,8871, Note_on_c,0,64,127,
2,8871, Note_off_c,0,61,127,
2,8873, Note_on_c,0,61,127,
2,8873, Note_off_c,0,64,127,
2,8874, Note_on_c,0,39,127,
2,8874, Note_off_c,0,40,127,
2,8875, Note_on_c,0,40,127,
2,8875, Note_off_c,0,39,127,
2,8876, Note_on_c,0,76,127,
2,8876, Note_off_c,0,40,127,
2,8877, Note_on_c,0,40,127,
2,8877, Note_off_c,0,76,127,
2,8878, Note_on_c,0,68,127,
2,8879, Note_off_c,0,68,127,
2,8880, Note_on_c,0,64,127,
2,8880, Note_off_c,0,61,127,
2,8881, Note_on_c,0,61,127,
2,8881, Note_off_c,0,64,127,
2,8888, Note_on_c,0,56,127,
2,8888, Note_off_c,0,61,127,
2,8889, Note_on_c,0,61,127,
2,8889, Note_off_c,0,56,127,
2,8890, Note_on_c,0,37,127,
2,8891, Note_off_c,0,37,127,
2,8900, Note_on_c,0,64,127,
2,8900, Note_off_c,0,61,127,
2,8901, Note_on_c,0,61,127,
2,8901, Note_off_c,0,64,127,
2,8911, Note_on_c,0,64,127,
2,8911, Note_off_c,0,61,127,
2,8913, Note_on_c,0,61,127,
2,8913, Note_off_c,0,64,127,
2,8920, Note_on_c,0,64,127,
2,8920, Note_off_c,0,61,127,
2,8921, Note_on_c,0,61,127,
2,8921, Note_off_c,0,64,127,
2,8922, Note_on_c,0,56,127,
2,8922, Note_off_c,0,61,127,
2,8922, Note_off_c,0,40,127,
2,8923, Note_on_c,0,61,127,
2,8923, Note_off_c,0,56,127,
2,8924, Note_on_c,0,68,127,
2,8924, Note_on_c,0,40,127,
2,8924, Note_off_c,0,61,127,
2,8925, Note_on_c,0,64,127,
2,8925, Note_off_c,0,68,127,
2,8926, Note_on_c,0,61,127,
2,8926, Note_off_c,0,64,127,
2,8927, Note_on_c,0,64,127,
2,8927, Note_off_c,0,61,127,
2,8928, Note_on_c,0,61,127,
2,8928, Note_off_c,0,64,127,
2,8933, Note_on_c,0,64,127,
2,8933, Note_off_c,0,61,127,
2,8934, Note_on_c,0,61,127,
2,8934, Note_off_c,0,64,127,
2,8935, Note_on_c,0,64,127,
2,8935, Note_off_c,0,61,127,
2,8936, Note_on_c,0,61,127,
2,8936, Note_off_c,0,64,127,
2,8937, Note_on_c,0,64,127,
2,8937, Note_off_c,0,61,127,
2,8939, Note_on_c,0,61,127,
2,8939, Note_off_c,0,64,127,
2,8945, Note_on_c,0,64,127,
2,8945, Note_off_c,0,61,127,
2,8946, Note_on_c,0,61,127,
2,8946, Note_off_c,0,64,127,
2,8947, Note_on_c,0,64,127,
2,8947, Note_off_c,0,61,127,
2,8948, Note_on_c,0,61,127,
2,8948, Note_off_c,0,64,127,
2,8949, Note_on_c,0,64,127,
2,8949, Note_off_c,0,61,127,
2,8950, Note_on_c,0,44,127,
2,8950, Note_on_c,0,61,127,
2,8950, Note_off_c,0,64,127,
2,8950, Note_off_c,0,40,127,
2,8951, Note_on_c,0,64,127,
2,8951, Note_on_c,0,40,127,
2,8951, Note_off_c,0,44,127,
2,8951, Note_off_c,0,61,127,
2,8952, Note_on_c,0,61,127,
2,8952, Note_off_c,0,64,127,
2,8954, Note_on_c,0,39,127,
2,8954, Note_off_c,0,40,127,
2,8955, Note_on_c,0,64,127,
2,8955, Note_on_c,0,40,127,
2,8955, Note_off_c,0,61,127,
2,8955, Note_off_c,0,39,127,
2,8956, Note_on_c,0,61,127,
2,8956, Note_off_c,0,64,127,
2,8958, Note_on_c,0,64,127,
2,8958, Note_off_c,0,61,127,
2,8959, Note_on_c,0,61,127,
2,8959, Note_off_c,0,64,127,
2,8960, Note_on_c,0,56,127,
2,8960, Note_off_c,0,61,127,
2,8961, Note_on_c,0,61,127,
2,8961, Note_off_c,0,56,127,
2,8962, Note_on_c,0,68,127,
2,8963, Note_off_c,0,68,127,
2,8965, Note_on_c,0,64,127,
2,8965, Note_off_c,0,61,127,
2,8966, Note_on_c,0,61,127,
2,8966, Note_off_c,0,64,127,
2,8973, Note_on_c,0,64,127,
2,8973, Note_off_c,0,61,127,
2,8974, Note_on_c,0,61,127,
2,8974, Note_off_c,0,64,127,
2,8978, Note_on_c,0,66,127,
2,8978, Note_off_c,0,61,127,
2,8979, Note_on_c,0,61,127,
2,8979, Note_off_c,0,66,127,
2,8991, Note_on_c,0,39,127,
2,8991, Note_off_c,0,40,127,
2,8992, Note_on_c,0,58,127,
2,8992, Note_on_c,0,40,127,
2,8992, Note_off_c,0,61,127,
2,8992, Note_off_c,0,39,127,
2,8993, Note_on_c,0,61,127,
2,8993, Note_off_c,0,58,127,
2,8994, Note_on_c,0,34,127,
2,8994, Note_off_c,0,40,127,
2,8995, Note_on_c,0,40,127,
2,8995, Note_off_c,0,34,127,
2,8996, Note_on_c,0,64,127,
2,8996, Note_off_c,0,61,127,
2,8997, Note_on_c,0,61,127,
2,8997, Note_off_c,0,64,127,
2,9002, Note_on_c,0,64,127,
2,9002, Note_off_c,0,61,127,
2,9003, Note_on_c,0,61,127,
2,9003, Note_off_c,0,64,127,
2,9009, Note_on_c,0,63,127,
2,9009, Note_off_c,0,61,127,
2,9010, Note_on_c,0,61,127,
2,9010, Note_off_c,0,63,127,
2,9011, Note_on_c,0,39,127,
2,9011, Note_off_c,0,40,127,
2,9012, Note_on_c,0,40,127,
2,9012, Note_off_c,0,39,127,
2,9013, Note_on_c,0,70,127,
2,9014, Note_off_c,0,70,127,
2,9017, Note_on_c,0,64,127,
2,9019, Note_on_c,0,68,127,
2,9019, Note_off_c,0,64,127,
2,9020, Note_on_c,0,64,127,
2,9020, Note_off_c,0,68,127,
2,9022, Note_off_c,0,64,127,
2,9023, Note_on_c,0,56,127,
2,9024, Note_off_c,0,56,127,
2,9025, Note_on_c,0,64,127,
2,9027, Note_off_c,0,64,127,
2,9028, Note_on_c,0,52,127,
2,9029, Note_off_c,0,52,127,
2,9030, Note_on_c,0,28,127,
2,9031, Note_on_c,0,70,127,
2,9031, Note_off_c,0,28,127,
2,9032, Note_off_c,0,70,127,
2,9035, Note_on_c,0,58,127,
2,9035, Note_off_c,0,61,127,
2,9036, Note_on_c,0,61,127,
2,9036, Note_off_c,0,58,127,
2,9046, Note_on_c,0,46,127,
2,9046, Note_off_c,0,40,127,
2,9047, Note_on_c,0,40,127,
2,9047, Note_off_c,0,46,127,
2,9061, Note_on_c,0,39,127,
2,9061, Note_off_c,0,40,127,
2,9062, Note_on_c,0,40,127,
2,9062, Note_off_c,0,39,127,
2,9072, Note_on_c,0,39,127,
2,9072, Note_off_c,0,40,127,
2,9073, Note_on_c,0,40,127,
2,9073, Note_off_c,0,39,127,
2,9074, Note_on_c,0,37,127,
2,9074, Note_off_c,0,40,127,
2,9075, Note_on_c,0,40,127,
2,9075, Note_off_c,0,37,127,
2,9079, Note_on_c,0,37,127,
2,9079, Note_off_c,0,40,127,
2,9080, Note_on_c,0,46,127,
2,9080, Note_off_c,0,37,127,
2,9081, Note_on_c,0,40,127,
2,9081, Note_off_c,0,46,127,
2,9093, Note_on_c,0,64,127,
2,9093, Note_off_c,0,61,127,
2,9094, Note_on_c,0,61,127,
2,9094, Note_off_c,0,64,127,
2,9115, Note_on_c,0,46,127,
2,9115, Note_off_c,0,61,127,
2,9116, Note_on_c,0,64,127,
2,9116, Note_off_c,0,46,127,
2,9117, Note_on_c,0,61,127,
2,9117, Note_off_c,0,64,127,
2,9137, Note_on_c,0,56,127,
2,9137, Note_off_c,0,61,127,
2,9138, Note_on_c,0,61,127,
2,9138, Note_off_c,0,56,127,
2,9143, Note_on_c,0,56,127,
2,9143, Note_off_c,0,40,127,
2,9144, Note_on_c,0,40,127,
2,9144, Note_off_c,0,56,127,
2,9147, Note_on_c,0,37,127,
2,9148, Note_off_c,0,37,127,
2,9161, Note_on_c,0,64,127,
2,9161, Note_off_c,0,61,127,
2,9162, Note_on_c,0,68,127,
2,9162, Note_off_c,0,64,127,
2,9163, Note_on_c,0,61,127,
2,9163, Note_off_c,0,68,127,
2,9164, Note_on_c,0,44,127,
2,9164, Note_off_c,0,40,127,
2,9165, Note_on_c,0,40,127,
2,9165, Note_off_c,0,44,127,
2,9171, Note_on_c,0,58,127,
2,9171, Note_on_c,0,37,127,
2,9171, Note_off_c,0,61,127,
2,9171, Note_off_c,0,40,127,
2,9172, Note_on_c,0,61,127,
2,9172, Note_on_c,0,40,127,
2,9172, Note_off_c,0,58,127,
2,9172, Note_off_c,0,37,127,
2,9183, Note_on_c,0,64,127,
2,9183, Note_off_c,0,61,127,
2,9184, Note_on_c,0,61,127,
2,9184, Note_off_c,0,64,127,
2,9205, Note_on_c,0,64,127,
2,9205, Note_off_c,0,61,127,
2,9208, Note_on_c,0,61,127,
2,9208, Note_off_c,0,64,127,
2,9212, Note_on_c,0,70,127,
2,9212, Note_off_c,0,61,127,
2,9213, Note_on_c,0,61,127,
2,9213, Note_off_c,0,70,127,
2,9218, Note_on_c,0,58,127,
2,9218, Note_off_c,0,61,127,
2,9219, Note_on_c,0,61,127,
2,9219, Note_on_c,0,46,127,
2,9219, Note_off_c,0,58,127,
2,9219, Note_off_c,0,40,127,
2,9220, Note_on_c,0,64,127,
2,9220, Note_on_c,0,40,127,
2,9220, Note_off_c,0,61,127,
2,9220, Note_off_c,0,46,127,
2,9222, Note_on_c,0,61,127,
2,9222, Note_off_c,0,64,127,
2,9230, Note_on_c,0,64,127,
2,9230, Note_off_c,0,61,127,
2,9231, Note_on_c,0,61,127,
2,9231, Note_off_c,0,64,127,
2,9240, Note_on_c,0,68,127,
2,9240, Note_off_c,0,61,127,
2,9241, Note_on_c,0,61,127,
2,9241, Note_off_c,0,68,127,
2,9244, Note_on_c,0,68,127,
2,9244, Note_off_c,0,61,127,
2,9245, Note_on_c,0,61,127,
2,9245, Note_off_c,0,68,127,
2,9246, Note_on_c,0,64,127,
2,9246, Note_off_c,0,61,127,
2,9248, Note_on_c,0,61,127,
2,9248, Note_off_c,0,64,127,
2,9249, Note_on_c,0,39,127,
2,9249, Note_off_c,0,40,127,
2,9250, Note_on_c,0,67,127,
2,9250, Note_off_c,0,39,127,
2,9251, Note_on_c,0,40,127,
2,9251, Note_off_c,0,67,127,
2,9252, Note_on_c,0,70,127,
2,9253, Note_on_c,0,64,127,
2,9253, Note_on_c,0,37,127,
2,9253, Note_off_c,0,40,127,
2,9253, Note_off_c,0,70,127,
2,9254, Note_on_c,0,40,127,
2,9254, Note_off_c,0,64,127,
2,9254, Note_off_c,0,37,127,
2,9263, Note_on_c,0,63,127,
2,9263, Note_off_c,0,61,127,
2,9264, Note_off_c,0,63,127,
2,9265, Note_on_c,0,76,127,
2,9266, Note_on_c,0,61,127,
2,9266, Note_off_c,0,76,127,
2,9271, Note_on_c,0,37,127,
2,9271, Note_off_c,0,40,127,
2,9272, Note_on_c,0,40,127,
2,9272, Note_off_c,0,37,127,
2,9283, Note_on_c,0,70,127,
2,9283, Note_off_c,0,61,127,
2,9284, Note_on_c,0,61,127,
2,9284, Note_off_c,0,70,127,
2,9298, Note_on_c,0,58,127,
2,9298, Note_off_c,0,61,127,
2,9299, Note_on_c,0,61,127,
2,9299, Note_off_c,0,58,127,
2,9305, Note_on_c,0,64,127,
2,9305, Note_off_c,0,61,127,
2,9306, Note_on_c,0,61,127,
2,9306, Note_off_c,0,64,127,
2,9315, Note_on_c,0,64,127,
2,9315, Note_off_c,0,61,127,
2,9316, Note_on_c,0,61,127,
2,9316, Note_off_c,0,64,127,
2,9334, Note_on_c,0,64,127,
2,9334, Note_off_c,0,61,127,
2,9335, Note_on_c,0,70,127,
2,9335, Note_off_c,0,64,127,
2,9336, Note_on_c,0,61,127,
2,9336, Note_off_c,0,70,127,
2,9344, Note_on_c,0,39,127,
2,9344, Note_off_c,0,40,127,
2,9345, Note_on_c,0,40,127,
2,9345, Note_off_c,0,39,127,
2,9362, Note_on_c,0,64,127,
2,9362, Note_off_c,0,61,127,
2,9363, Note_on_c,0,61,127,
2,9363, Note_on_c,0,37,127,
2,9363, Note_off_c,0,64,127,
2,9363, Note_off_c,0,40,127,
2,9364, Note_on_c,0,40,127,
2,9364, Note_off_c,0,37,127,
2,9366, Note_on_c,0,64,127,
2,9367, Note_off_c,0,64,127,
2,9368, Note_on_c,0,44,127,
2,9368, Note_off_c,0,40,127,
2,9369, Note_on_c,0,64,127,
2,9369, Note_off_c,0,44,127,
2,9369, Note_off_c,0,61,127,
2,9370, Note_on_c,0,61,127,
2,9370, Note_on_c,0,40,127,
2,9370, Note_off_c,0,64,127,
2,9385, Note_on_c,0,64,127,
2,9385, Note_off_c,0,61,127,
2,9386, Note_on_c,0,56,127,
2,9386, Note_off_c,0,64,127,
2,9387, Note_on_c,0,61,127,
2,9387, Note_off_c,0,56,127,
2,9389, Note_on_c,0,64,127,
2,9389, Note_off_c,0,61,127,
2,9390, Note_on_c,0,61,127,
2,9390, Note_off_c,0,64,127,
2,9394, Note_on_c,0,64,127,
2,9394, Note_off_c,0,61,127,
2,9395, Note_on_c,0,61,127,
2,9395, Note_off_c,0,64,127,
2,9402, Note_off_c,0,40,127,
2,9403, Note_on_c,0,40,127,
2,9411, Note_on_c,0,64,127,
2,9412, Note_off_c,0,64,127,
2,9416, Note_on_c,0,64,127,
2,9417, Note_off_c,0,64,127,
2,9419, Note_on_c,0,64,127,
2,9420, Note_off_c,0,64,127,
2,9423, Note_on_c,0,58,127,
2,9424, Note_off_c,0,58,127,
2,9425, Note_on_c,0,64,127,
2,9426, Note_off_c,0,64,127,
2,9428, Note_on_c,0,46,127,
2,9429, Note_off_c,0,46,127,
2,9431, Note_on_c,0,48,127,
2,9431, Note_off_c,0,40,127,
2,9432, Note_on_c,0,64,127,
2,9432, Note_on_c,0,40,127,
2,9432, Note_off_c,0,61,127,
2,9432, Note_off_c,0,48,127,
2,9433, Note_on_c,0,61,127,
2,9433, Note_off_c,0,64,127,
2,9440, Note_on_c,0,66,127,
2,9440, Note_off_c,0,61,127,
2,9441, Note_on_c,0,61,127,
2,9441, Note_off_c,0,66,127,
2,9447, Note_on_c,0,64,127,
2,9447, Note_on_c,0,39,127,
2,9447, Note_off_c,0,61,127,
2,9447, Note_off_c,0,40,127,
2,9448, Note_on_c,0,61,127,
2,9448, Note_on_c,0,40,127,
2,9448, Note_off_c,0,64,127,
2,9448, Note_off_c,0,39,127,
2,9455, Note_on_c,0,66,127,
2,9455, Note_off_c,0,61,127,
2,9456, Note_on_c,0,61,127,
2,9456, Note_off_c,0,66,127,
2,9474, Note_on_c,0,39,127,
2,9474, Note_off_c,0,40,127,
2,9475, Note_on_c,0,40,127,
2,9475, Note_off_c,0,39,127,
2,9487, Note_on_c,0,63,127,
2,9487, Note_off_c,0,40,127,
2,9488, Note_on_c,0,40,127,
2,9488, Note_off_c,0,63,127,
2,9492, Note_off_c,0,40,127,
2,9493, Note_on_c,0,40,127,
2,9507, Note_on_c,0,64,127,
2,9507, Note_off_c,0,61,127,
2,9508, Note_on_c,0,61,127,
2,9508, Note_off_c,0,64,127,
2,9527, Note_on_c,0,64,127,
2,9527, Note_off_c,0,61,127,
2,9528, Note_on_c,0,61,127,
2,9528, Note_off_c,0,64,127,
2,9545, Note_on_c,0,64,127,
2,9545, Note_off_c,0,61,127,
2,9546, Note_on_c,0,61,127,
2,9546, Note_off_c,0,64,127,
2,9548, Note_on_c,0,58,127,
2,9548, Note_off_c,0,61,127,
2,9549, Note_on_c,0,61,127,
2,9549, Note_off_c,0,58,127,
2,9572, Note_on_c,0,58,127,
2,9572, Note_off_c,0,61,127,
2,9573, Note_on_c,0,61,127,
2,9573, Note_off_c,0,58,127,
2,9579, Note_on_c,0,37,127,
2,9579, Note_off_c,0,40,127,
2,9580, Note_on_c,0,40,127,
2,9580, Note_off_c,0,37,127,
2,9581, Note_on_c,0,39,127,
2,9581, Note_off_c,0,40,127,
2,9582, Note_on_c,0,40,127,
2,9582, Note_off_c,0,39,127,
2,9599, Note_on_c,0,34,127,
2,9599, Note_off_c,0,40,127,
2,9600, Note_on_c,0,40,127,
2,9600, Note_off_c,0,34,127,
2,9603, Note_on_c,0,64,127,
2,9603, Note_off_c,0,61,127,
2,9604, Note_on_c,0,61,127,
2,9604, Note_off_c,0,64,127,
2,9607, Note_on_c,0,64,127,
2,9607, Note_off_c,0,61,127,
2,9608, Note_on_c,0,61,127,
2,9608, Note_off_c,0,64,127,
2,9617, Note_on_c,0,64,127,
2,9617, Note_off_c,0,61,127,
2,9618, Note_on_c,0,61,127,
2,9618, Note_off_c,0,64,127,
2,9621, Note_on_c,0,64,127,
2,9621, Note_off_c,0,61,127,
2,9622, Note_on_c,0,61,127,
2,9622, Note_off_c,0,64,127,
2,9623, Note_on_c,0,67,127,
2,9623, Note_off_c,0,61,127,
2,9624, Note_on_c,0,61,127,
2,9624, Note_off_c,0,67,127,
2,9625, Note_on_c,0,64,127,
2,9625, Note_off_c,0,61,127,
2,9626, Note_on_c,0,61,127,
2,9626, Note_off_c,0,64,127,
2,9628, Note_on_c,0,58,127,
2,9628, Note_off_c,0,61,127,
2,9629, Note_on_c,0,61,127,
2,9629, Note_off_c,0,58,127,
2,9656, Note_on_c,0,46,127,
2,9656, Note_off_c,0,40,127,
2,9657, Note_on_c,0,40,127,
2,9657, Note_off_c,0,46,127,
2,9671, Note_on_c,0,34,127,
2,9671, Note_off_c,0,40,127,
2,9672, Note_on_c,0,40,127,
2,9672, Note_on_c,0,70,127,
2,9672, Note_off_c,0,34,127,
2,9673, Note_on_c,0,64,127,
2,9673, Note_off_c,0,70,127,
2,9674, Note_off_c,0,64,127,
2,9675, Note_off_c,0,40,127,
2,9676, Note_on_c,0,64,127,
2,9676, Note_on_c,0,40,127,
2,9676, Note_off_c,0,61,127,
2,9677, Note_on_c,0,70,127,
2,9677, Note_off_c,0,64,127,
2,9678, Note_on_c,0,61,127,
2,9678, Note_off_c,0,70,127,
2,9712, Note_on_c,0,64,127,
2,9712, Note_off_c,0,61,127,
2,9713, Note_on_c,0,61,127,
2,9713, Note_off_c,0,64,127,
2,9715, Note_on_c,0,64,127,
2,9715, Note_off_c,0,61,127,
2,9716, Note_on_c,0,61,127,
2,9716, Note_off_c,0,64,127,
2,9717, Note_on_c,0,64,127,
2,9717, Note_off_c,0,61,127,
2,9718, Note_on_c,0,61,127,
2,9718, Note_off_c,0,64,127,
2,9719, Note_on_c,0,68,127,
2,9719, Note_off_c,0,61,127,
2,9720, Note_on_c,0,61,127,
2,9720, Note_off_c,0,68,127,
2,9721, Note_on_c,0,64,127,
2,9721, Note_off_c,0,61,127,
2,9722, Note_on_c,0,61,127,
2,9722, Note_on_c,0,69,127,
2,9722, Note_off_c,0,64,127,
2,9723, Note_off_c,0,69,127,
2,9724, Note_on_c,0,64,127,
2,9724, Note_on_c,0,70,127,
2,9724, Note_off_c,0,61,127,
2,9725, Note_on_c,0,61,127,
2,9725, Note_off_c,0,64,127,
2,9725, Note_off_c,0,70,127,
2,9728, Note_on_c,0,58,127,
2,9729, Note_off_c,0,58,127,
2,9730, Note_on_c,0,43,127,
2,9730, Note_off_c,0,40,127,
2,9731, Note_on_c,0,40,127,
2,9731, Note_off_c,0,43,127,
2,9734, Note_on_c,0,46,127,
2,9735, Note_off_c,0,46,127,
2,9737, Note_on_c,0,46,127,
2,9737, Note_on_c,0,70,127,
2,9737, Note_off_c,0,61,127,
2,9737, Note_off_c,0,40,127,
2,9738, Note_on_c,0,61,127,
2,9738, Note_off_c,0,46,127,
2,9738, Note_off_c,0,70,127,
2,9739, Note_on_c,0,40,127,
2,9740, Note_off_c,0,40,127,
2,9742, Note_on_c,0,40,127,
2,9743, Note_off_c,0,40,127,
2,9745, Note_on_c,0,64,127,
2,9745, Note_on_c,0,40,127,
2,9745, Note_off_c,0,61,127,
2,9746, Note_on_c,0,61,127,
2,9746, Note_off_c,0,64,127,
2,9753, Note_on_c,0,64,127,
2,9753, Note_off_c,0,61,127,
2,9754, Note_on_c,0,61,127,
2,9754, Note_off_c,0,64,127,
2,9760, Note_on_c,0,56,127,
2,9760, Note_off_c,0,61,127,
2,9761, Note_on_c,0,61,127,
2,9761, Note_off_c,0,56,127,
2,9768, Note_on_c,0,64,127,
2,9768, Note_off_c,0,61,127,
2,9769, Note_on_c,0,61,127,
2,9769, Note_off_c,0,64,127,
2,9771, Note_off_c,0,40,127,
2,9772, Note_on_c,0,40,127,
2,9773, Note_off_c,0,40,127,
2,9774, Note_on_c,0,37,127,
2,9775, Note_on_c,0,40,127,
2,9775, Note_off_c,0,37,127,
2,9793, Note_on_c,0,64,127,
2,9793, Note_off_c,0,61,127,
2,9794, Note_on_c,0,61,127,
2,9794, Note_off_c,0,64,127,
2,9820, Note_on_c,0,64,127,
2,9820, Note_off_c,0,61,127,
2,9821, Note_on_c,0,61,127,
2,9821, Note_off_c,0,64,127,
2,9828, Note_on_c,0,56,127,
2,9828, Note_off_c,0,61,127,
2,9829, Note_on_c,0,61,127,
2,9829, Note_off_c,0,56,127,
2,9844, Note_on_c,0,56,127,
2,9844, Note_off_c,0,61,127,
2,9845, Note_on_c,0,61,127,
2,9845, Note_off_c,0,56,127,
2,9854, Note_on_c,0,64,127,
2,9854, Note_off_c,0,61,127,
2,9855, Note_on_c,0,61,127,
2,9855, Note_off_c,0,64,127,
2,9865, Note_on_c,0,64,127,
2,9865, Note_off_c,0,61,127,
2,9866, Note_on_c,0,61,127,
2,9866, Note_off_c,0,64,127,
2,9869, Note_on_c,0,44,127,
2,9869, Note_off_c,0,40,127,
2,9870, Note_on_c,0,40,127,
2,9870, Note_off_c,0,44,127,
2,9873, Note_off_c,0,40,127,
2,9874, Note_on_c,0,40,127,
2,9878, Note_on_c,0,64,127,
2,9878, Note_off_c,0,61,127,
2,9879, Note_on_c,0,61,127,
2,9879, Note_off_c,0,64,127,
2,9884, Note_on_c,0,64,127,
2,9884, Note_off_c,0,61,127,
2,9885, Note_on_c,0,61,127,
2,9885, Note_off_c,0,64,127,
2,9887, Note_on_c,0,39,127,
2,9887, Note_off_c,0,40,127,
2,9888, Note_on_c,0,40,127,
2,9888, Note_off_c,0,39,127,
2,9889, Note_on_c,0,37,127,
2,9889, Note_off_c,0,61,127,
2,9890, Note_on_c,0,61,127,
2,9890, Note_off_c,0,37,127,
2,9896, Note_on_c,0,64,127,
2,9896, Note_off_c,0,61,127,
2,9897, Note_on_c,0,61,127,
2,9897, Note_off_c,0,64,127,
2,9898, Note_on_c,0,64,127,
2,9898, Note_off_c,0,61,127,
2,9899, Note_on_c,0,61,127,
2,9899, Note_off_c,0,64,127,
2,9901, Note_on_c,0,37,127,
2,9901, Note_off_c,0,61,127,
2,9902, Note_on_c,0,61,127,
2,9902, Note_off_c,0,37,127,
2,9904, Note_on_c,0,70,127,
2,9904, Note_off_c,0,61,127,
2,9905, Note_on_c,0,61,127,
2,9905, Note_on_c,0,39,127,
2,9905, Note_off_c,0,40,127,
2,9905, Note_off_c,0,70,127,
2,9906, Note_on_c,0,40,127,
2,9906, Note_off_c,0,39,127,
2,9929, Note_on_c,0,66,127,
2,9929, Note_off_c,0,61,127,
2,9930, Note_on_c,0,61,127,
2,9930, Note_off_c,0,66,127,
2,9931, Note_on_c,0,39,127,
2,9931, Note_off_c,0,40,127,
2,9932, Note_off_c,0,39,127,
2,9933, Note_on_c,0,40,127,
2,9934, Note_on_c,0,63,127,
2,9934, Note_off_c,0,61,127,
2,9935, Note_on_c,0,61,127,
2,9935, Note_off_c,0,63,127,
2,9942, Note_on_c,0,56,127,
2,9942, Note_off_c,0,61,127,
2,9943, Note_on_c,0,61,127,
2,9943, Note_off_c,0,56,127,
2,9949, Note_on_c,0,64,127,
2,9949, Note_off_c,0,61,127,
2,9950, Note_on_c,0,61,127,
2,9950, Note_off_c,0,64,127,
2,9954, Note_on_c,0,36,127,
2,9954, Note_off_c,0,40,127,
2,9955, Note_on_c,0,40,127,
2,9955, Note_off_c,0,36,127,
2,9969, Note_on_c,0,64,127,
2,9969, Note_off_c,0,61,127,
2,9970, Note_on_c,0,61,127,
2,9970, Note_off_c,0,64,127,
2,9974, Note_on_c,0,58,127,
2,9974, Note_off_c,0,61,127,
2,9975, Note_on_c,0,61,127,
2,9975, Note_off_c,0,58,127,
2,9999, Note_on_c,0,64,127,
2,9999, Note_off_c,0,61,127,
2,10000, Note_on_c,0,61,127,
2,10000, Note_off_c,0,64,127,
2,10002, Note_on_c,0,64,127,
2,10002, Note_off_c,0,61,127,
2,10003, Note_on_c,0,61,127,
2,10003, Note_off_c,0,64,127,
2,10011, Note_on_c,0,64,127,
2,10011, Note_off_c,0,61,127,
2,10012, Note_on_c,0,61,127,
2,10012, Note_off_c,0,64,127,
2,10026, Note_off_c,0,40,127,
2,10027, Note_on_c,0,66,127,
2,10027, Note_on_c,0,40,127,
2,10028, Note_on_c,0,64,127,
2,10028, Note_off_c,0,66,127,
2,10029, Note_off_c,0,64,127,
2,10033, Note_off_c,0,40,127,
2,10034, Note_on_c,0,40,127,
2,10037, Note_on_c,0,64,127,
2,10037, Note_off_c,0,61,127,
2,10038, Note_on_c,0,61,127,
2,10038, Note_off_c,0,64,127,
2,10045, Note_on_c,0,64,127,
2,10045, Note_off_c,0,61,127,
2,10046, Note_on_c,0,61,127,
2,10046, Note_off_c,0,64,127,
2,10053, Note_on_c,0,37,127,
2,10053, Note_off_c,0,40,127,
2,10054, Note_on_c,0,40,127,
2,10054, Note_off_c,0,37,127,
2,10057, Note_on_c,0,63,127,
2,10057, Note_off_c,0,61,127,
2,10058, Note_on_c,0,61,127,
2,10058, Note_off_c,0,63,127,
2,10059, Note_on_c,0,52,127,
2,10059, Note_off_c,0,40,127,
2,10060, Note_on_c,0,40,127,
2,10060, Note_off_c,0,52,127,
2,10067, Note_off_c,0,40,127,
2,10068, Note_on_c,0,40,127,
2,10069, Note_on_c,0,67,127,
2,10069, Note_off_c,0,61,127,
2,10069, Note_off_c,0,40,127,
2,10070, Note_on_c,0,64,127,
2,10070, Note_on_c,0,40,127,
2,10070, Note_off_c,0,67,127,
2,10071, Note_on_c,0,61,127,
2,10071, Note_off_c,0,64,127,
2,10100, Note_on_c,0,64,127,
2,10100, Note_off_c,0,61,127,
2,10101, Note_on_c,0,61,127,
2,10101, Note_off_c,0,64,127,
2,10103, Note_on_c,0,67,127,
2,10103, Note_off_c,0,40,127,
2,10104, Note_on_c,0,64,127,
2,10104, Note_on_c,0,40,127,
2,10104, Note_off_c,0,67,127,
2,10105, Note_off_c,0,64,127,
2,10106, Note_on_c,0,64,127,
2,10106, Note_on_c,0,56,127,
2,10106, Note_off_c,0,61,127,
2,10107, Note_on_c,0,61,127,
2,10107, Note_off_c,0,56,127,
2,10108, Note_on_c,0,37,127,
2,10108, Note_off_c,0,64,127,
2,10108, Note_off_c,0,40,127,
2,10109, Note_on_c,0,43,127,
2,10109, Note_on_c,0,34,127,
2,10109, Note_off_c,0,37,127,
2,10110, Note_on_c,0,58,127,
2,10110, Note_on_c,0,40,127,
2,10110, Note_off_c,0,43,127,
2,10110, Note_off_c,0,34,127,
2,10111, Note_on_c,0,56,127,
2,10111, Note_off_c,0,58,127,
2,10112, Note_off_c,0,56,127,
2,10113, Note_on_c,0,64,127,
2,10113, Note_on_c,0,34,127,
2,10113, Note_off_c,0,40,127,
2,10114, Note_on_c,0,40,127,
2,10114, Note_off_c,0,64,127,
2,10114, Note_off_c,0,34,127,
2,10115, Note_on_c,0,67,127,
2,10116, Note_off_c,0,67,127,
2,10117, Note_on_c,0,64,127,
2,10118, Note_off_c,0,64,127,
2,10120, Note_on_c,0,64,127,
2,10121, Note_off_c,0,64,127,
2,10124, Note_on_c,0,64,127,
2,10126, Note_on_c,0,67,127,
2,10126, Note_off_c,0,61,127,
2,10127, Note_on_c,0,61,127,
2,10127, Note_off_c,0,64,127,
2,10127, Note_off_c,0,67,127,
2,10128, Note_on_c,0,76,127,
2,10129, Note_off_c,0,76,127,
2,10137, Note_on_c,0,33,127,
2,10137, Note_off_c,0,40,127,
2,10138, Note_on_c,0,40,127,
2,10138, Note_off_c,0,33,127,
2,10143, Note_on_c,0,64,127,
2,10143, Note_off_c,0,61,127,
2,10144, Note_on_c,0,61,127,
2,10144, Note_off_c,0,64,127,
2,10145, Note_on_c,0,64,127,
2,10145, Note_off_c,0,61,127,
2,10146, Note_on_c,0,61,127,
2,10146, Note_off_c,0,64,127,
2,10162, Note_on_c,0,63,127,
2,10162, Note_off_c,0,61,127,
2,10163, Note_on_c,0,61,127,
2,10163, Note_off_c,0,63,127,
2,10163, Note_off_c,0,40,127,
2,10165, Note_on_c,0,40,127,
2,10173, Note_on_c,0,37,127,
2,10173, Note_off_c,0,40,127,
2,10174, Note_on_c,0,40,127,
2,10174, Note_off_c,0,37,127,
2,10193, Note_on_c,0,76,127,
2,10193, Note_on_c,0,64,127,
2,10193, Note_off_c,0,61,127,
2,10193, Note_off_c,0,40,127,
2,10194, Note_on_c,0,46,127,
2,10194, Note_off_c,0,76,127,
2,10195, Note_on_c,0,61,127,
2,10195, Note_on_c,0,40,127,
2,10195, Note_off_c,0,64,127,
2,10195, Note_off_c,0,46,127,
2,10197, Note_on_c,0,64,127,
2,10198, Note_off_c,0,64,127,
2,10199, Note_on_c,0,64,127,
2,10199, Note_off_c,0,61,127,
2,10200, Note_on_c,0,61,127,
2,10200, Note_off_c,0,64,127,
2,10201, Note_on_c,0,39,127,
2,10201, Note_off_c,0,40,127,
2,10202, Note_on_c,0,40,127,
2,10202, Note_off_c,0,39,127,
2,10206, Note_on_c,0,58,127,
2,10206, Note_off_c,0,61,127,
2,10208, Note_on_c,0,61,127,
2,10208, Note_off_c,0,58,127,
2,10218, Note_on_c,0,43,127,
2,10218, Note_off_c,0,40,127,
2,10219, Note_on_c,0,40,127,
2,10219, Note_off_c,0,43,127,
2,10220, Note_on_c,0,64,127,
2,10220, Note_off_c,0,61,127,
2,10221, Note_on_c,0,61,127,
2,10221, Note_off_c,0,64,127,
2,10225, Note_on_c,0,64,127,
2,10225, Note_off_c,0,61,127,
2,10226, Note_on_c,0,61,127,
2,10226, Note_off_c,0,64,127,
2,10246, Note_on_c,0,37,127,
2,10246, Note_off_c,0,40,127,
2,10247, Note_on_c,0,40,127,
2,10247, Note_off_c,0,37,127,
2,10251, Note_off_c,0,40,127,
2,10252, Note_on_c,0,35,127,
2,10253, Note_on_c,0,40,127,
2,10253, Note_off_c,0,35,127,
2,10280, Note_on_c,0,39,127,
2,10280, Note_off_c,0,40,127,
2,10281, Note_on_c,0,40,127,
2,10281, Note_off_c,0,39,127,
2,10282, Note_on_c,0,64,127,
2,10282, Note_on_c,0,70,127,
2,10282, Note_off_c,0,61,127,
2,10282, Note_off_c,0,40,127,
2,10283, Note_on_c,0,61,127,
2,10283, Note_on_c,0,40,127,
2,10283, Note_off_c,0,64,127,
2,10283, Note_off_c,0,70,127,
2,10285, Note_off_c,0,40,127,
2,10287, Note_on_c,0,40,127,
2,10288, Note_off_c,0,40,127,
2,10289, Note_on_c,0,40,127,
2,10290, Note_off_c,0,40,127,
2,10291, Note_on_c,0,40,127,
2,10307, Note_off_c,0,40,127,
2,10308, Note_on_c,0,40,127,
2,10310, Note_on_c,0,37,127,
2,10310, Note_off_c,0,40,127,
2,10311, Note_on_c,0,40,127,
2,10311, Note_off_c,0,37,127,
2,10338, Note_on_c,0,64,127,
2,10338, Note_off_c,0,61,127,
2,10339, Note_on_c,0,61,127,
2,10339, Note_off_c,0,64,127,
2,10375, Note_on_c,0,59,127,
2,10375, Note_off_c,0,61,127,
2,10376, Note_on_c,0,70,127,
2,10376, Note_off_c,0,59,127,
2,10376, Note_off_c,0,40,127,
2,10377, Note_on_c,0,61,127,
2,10377, Note_on_c,0,40,127,
2,10377, Note_off_c,0,70,127,
2,10378, Note_off_c,0,61,127,
2,10379, Note_on_c,0,61,127,
2,10379, Note_off_c,0,40,127,
2,10380, Note_on_c,0,40,127,
2,10380, Note_off_c,0,61,127,
2,10381, Note_on_c,0,61,127,
2,10381, Note_off_c,0,40,127,
2,10382, Note_on_c,0,40,127,
2,10382, Note_off_c,0,61,127,
2,10395, Note_on_c,0,39,127,
2,10395, Note_off_c,0,40,127,
2,10396, Note_on_c,0,40,127,
2,10396, Note_off_c,0,39,127,
2,10430, Note_on_c,0,46,127,
2,10430, Note_off_c,0,40,127,
2,10431, Note_on_c,0,40,127,
2,10431, Note_off_c,0,46,127,
2,10560, Note_on_c,0,63,127,
2,10561, Note_on_c,0,39,127,
2,10561, Note_off_c,0,63,127,
2,10562, Note_on_c,0,61,127,
2,10562, Note_off_c,0,39,127,
2,10563, Note_on_c,0,49,127,
2,10563, Note_off_c,0,61,127,
2,10564, Note_on_c,0,61,127,
2,10564, Note_off_c,0,49,127,
2,10569, Note_off_c,0,61,127,
2,10570, Note_on_c,0,61,127,
2,10571, Note_on_c,0,46,127,
2,10571, Note_off_c,0,61,127,
2,10572, Note_on_c,0,61,127,
2,10572, Note_off_c,0,46,127,
2,10573, Note_on_c,0,68,127,
2,10573, Note_off_c,0,40,127,
2,10574, Note_on_c,0,40,127,
2,10574, Note_off_c,0,68,127,
2,10575, Note_on_c,0,64,127,
2,10576, Note_off_c,0,64,127,
2,10581, Note_on_c,0,39,127,
2,10581, Note_off_c,0,40,127,
2,10582, Note_on_c,0,40,127,
2,10582, Note_off_c,0,39,127,
2,10591, Note_on_c,0,63,127,
2,10591, Note_off_c,0,61,127,
2,10592, Note_on_c,0,61,127,
2,10592, Note_off_c,0,63,127,
2,10596, Note_off_c,0,40,127,
2,10597, Note_on_c,0,40,127,
2,10599, Note_off_c,0,40,127,
2,10600, Note_on_c,0,40,127,
2,10601, Note_on_c,0,64,127,
2,10602, Note_off_c,0,64,127,
2,10604, Note_on_c,0,64,127,
2,10605, Note_off_c,0,64,127,
2,10621, Note_on_c,0,64,127,
2,10621, Note_off_c,0,61,127,
2,10622, Note_on_c,0,61,127,
2,10622, Note_off_c,0,64,127,
2,10626, Note_on_c,0,64,127,
2,10626, Note_off_c,0,61,127,
2,10627, Note_on_c,0,61,127,
2,10627, Note_off_c,0,64,127,
2,10637, Note_on_c,0,64,127,
2,10637, Note_off_c,0,61,127,
2,10638, Note_on_c,0,61,127,
2,10638, Note_off_c,0,64,127,
2,10643, Note_on_c,0,47,127,
2,10643, Note_off_c,0,61,127,
2,10644, Note_on_c,0,61,127,
2,10644, Note_off_c,0,47,127,
2,10687, Note_on_c,0,37,127,
2,10687, Note_off_c,0,40,127,
2,10688, Note_on_c,0,40,127,
2,10688, Note_off_c,0,37,127,
2,10695, Note_on_c,0,34,127,
2,10695, Note_off_c,0,40,127,
2,10696, Note_on_c,0,40,127,
2,10696, Note_off_c,0,34,127,
2,10704, Note_on_c,0,64,127,
2,10704, Note_off_c,0,61,127,
2,10705, Note_on_c,0,58,127,
2,10705, Note_off_c,0,64,127,
2,10706, Note_on_c,0,61,127,
2,10706, Note_on_c,0,39,127,
2,10706, Note_off_c,0,58,127,
2,10706, Note_off_c,0,40,127,
2,10707, Note_on_c,0,40,127,
2,10707, Note_off_c,0,39,127,
2,10725, Note_off_c,0,40,127,
2,10726, Note_on_c,0,40,127,
2,10734, Note_on_c,0,37,127,
2,10734, Note_off_c,0,40,127,
2,10735, Note_on_c,0,40,127,
2,10735, Note_off_c,0,37,127,
2,10739, Note_on_c,0,64,127,
2,10739, Note_off_c,0,61,127,
2,10740, Note_on_c,0,61,127,
2,10740, Note_off_c,0,64,127,
2,10743, Note_on_c,0,37,127,
2,10743, Note_off_c,0,40,127,
2,10744, Note_on_c,0,40,127,
2,10744, Note_off_c,0,37,127,
2,10750, Note_on_c,0,64,127,
2,10750, Note_off_c,0,61,127,
2,10751, Note_on_c,0,70,127,
2,10751, Note_off_c,0,64,127,
2,10752, Note_on_c,0,61,127,
2,10752, Note_off_c,0,70,127,
2,10754, Note_on_c,0,39,127,
2,10754, Note_off_c,0,40,127,
2,10755, Note_on_c,0,40,127,
2,10755, Note_off_c,0,39,127,
2,10767, Note_on_c,0,64,127,
2,10767, Note_off_c,0,61,127,
2,10768, Note_on_c,0,61,127,
2,10768, Note_off_c,0,64,127,
2,10773, Note_on_c,0,64,127,
2,10773, Note_off_c,0,61,127,
2,10774, Note_on_c,0,61,127,
2,10774, Note_off_c,0,64,127,
2,10776, Note_on_c,0,58,127,
2,10776, Note_off_c,0,61,127,
2,10777, Note_on_c,0,64,127,
2,10777, Note_off_c,0,58,127,
2,10778, Note_on_c,0,61,127,
2,10778, Note_off_c,0,64,127,
2,10784, Note_off_c,0,40,127,
2,10785, Note_on_c,0,40,127,
2,10786, Note_on_c,0,37,127,
2,10786, Note_off_c,0,40,127,
2,10787, Note_on_c,0,40,127,
2,10787, Note_off_c,0,37,127,
2,10796, Note_on_c,0,37,127,
2,10796, Note_off_c,0,40,127,
2,10797, Note_on_c,0,40,127,
2,10797, Note_off_c,0,37,127,
2,10798, Note_on_c,0,64,127,
2,10798, Note_off_c,0,61,127,
2,10799, Note_on_c,0,61,127,
2,10799, Note_off_c,0,64,127,
2,10809, Note_off_c,0,40,127,
2,10810, Note_on_c,0,40,127,
2,10816, Note_on_c,0,58,127,
2,10817, Note_off_c,0,58,127,
2,10823, Note_on_c,0,58,127,
2,10823, Note_on_c,0,35,127,
2,10823, Note_off_c,0,61,127,
2,10823, Note_off_c,0,40,127,
2,10824, Note_on_c,0,61,127,
2,10824, Note_on_c,0,40,127,
2,10824, Note_off_c,0,58,127,
2,10824, Note_off_c,0,35,127,
2,10835, Note_on_c,0,59,127,
2,10836, Note_off_c,0,59,127,
2,10837, Note_off_c,0,40,127,
2,10838, Note_on_c,0,40,127,
2,10840, Note_off_c,0,40,127,
2,10841, Note_on_c,0,40,127,
2,10841, Note_off_c,0,61,127,
2,10842, Note_on_c,0,61,127,
2,10842, Note_off_c,0,40,127,
2,10843, Note_on_c,0,40,127,
2,10876, Note_on_c,0,64,127,
2,10876, Note_off_c,0,61,127,
2,10877, Note_on_c,0,61,127,
2,10877, Note_off_c,0,64,127,
2,10882, Note_on_c,0,39,127,
2,10882, Note_off_c,0,40,127,
2,10883, Note_on_c,0,40,127,
2,10883, Note_off_c,0,39,127,
2,10899, Note_on_c,0,64,127,
2,10899, Note_off_c,0,61,127,
2,10900, Note_on_c,0,61,127,
2,10900, Note_off_c,0,64,127,
2,10905, Note_on_c,0,44,127,
2,10905, Note_off_c,0,40,127,
2,10906, Note_on_c,0,40,127,
2,10906, Note_off_c,0,44,127,
2,10920, Note_on_c,0,39,127,
2,10920, Note_off_c,0,40,127,
2,10921, Note_on_c,0,40,127,
2,10921, Note_off_c,0,39,127,
2,10925, Note_on_c,0,64,127,
2,10925, Note_off_c,0,61,127,
2,10929, Note_on_c,0,61,127,
2,10929, Note_off_c,0,64,127,
2,10960, Note_on_c,0,56,127,
2,10960, Note_off_c,0,61,127,
2,10961, Note_on_c,0,61,127,
2,10961, Note_off_c,0,56,127,
2,10962, Note_on_c,0,43,127,
2,10962, Note_off_c,0,40,127,
2,10963, Note_on_c,0,40,127,
2,10963, Note_off_c,0,43,127,
2,10965, Note_on_c,0,64,127,
2,10965, Note_off_c,0,61,127,
2,10966, Note_on_c,0,61,127,
2,10966, Note_off_c,0,64,127,
2,10968, Note_on_c,0,64,127,
2,10968, Note_off_c,0,61,127,
2,10969, Note_on_c,0,61,127,
2,10969, Note_off_c,0,64,127,
2,10971, Note_on_c,0,64,127,
2,10971, Note_off_c,0,61,127,
2,10972, Note_on_c,0,61,127,
2,10972, Note_off_c,0,64,127,
2,10978, Note_on_c,0,64,127,
2,10978, Note_off_c,0,61,127,
2,10979, Note_on_c,0,61,127,
2,10979, Note_off_c,0,64,127,
2,11009, Note_on_c,0,34,127,
2,11009, Note_off_c,0,40,127,
2,11010, Note_on_c,0,64,127,
2,11010, Note_on_c,0,40,127,
2,11010, Note_off_c,0,61,127,
2,11010, Note_off_c,0,34,127,
2,11011, Note_on_c,0,61,127,
2,11011, Note_off_c,0,64,127,
2,11031, Note_on_c,0,64,127,
2,11031, Note_off_c,0,61,127,
2,11032, Note_on_c,0,61,127,
2,11032, Note_off_c,0,64,127,
2,11038, Note_on_c,0,64,127,
2,11038, Note_off_c,0,61,127,
2,11039, Note_on_c,0,61,127,
2,11039, Note_off_c,0,64,127,
2,11045, Note_on_c,0,59,127,
2,11045, Note_off_c,0,61,127,
2,11046, Note_on_c,0,61,127,
2,11046, Note_off_c,0,59,127,
2,11048, Note_on_c,0,64,127,
2,11048, Note_off_c,0,61,127,
2,11050, Note_on_c,0,43,127,
2,11050, Note_on_c,0,61,127,
2,11050, Note_off_c,0,64,127,
2,11050, Note_off_c,0,40,127,
2,11051, Note_on_c,0,40,127,
2,11051, Note_off_c,0,43,127,
2,11063, Note_on_c,0,67,127,
2,11063, Note_off_c,0,40,127,
2,11064, Note_on_c,0,40,127,
2,11064, Note_off_c,0,67,127,
2,11069, Note_off_c,0,40,127,
2,11070, Note_on_c,0,40,127,
2,11075, Note_on_c,0,64,127,
2,11076, Note_off_c,0,64,127,
2,11078, Note_on_c,0,39,127,
2,11078, Note_off_c,0,40,127,
2,11079, Note_on_c,0,40,127,
2,11079, Note_off_c,0,39,127,
2,11082, Note_on_c,0,68,127,
2,11083, Note_off_c,0,68,127,
2,11084, Note_on_c,0,68,127,
2,11085, Note_off_c,0,68,127,
2,11090, Note_on_c,0,70,127,
2,11091, Note_off_c,0,70,127,
2,11101, Note_on_c,0,63,127,
2,11102, Note_off_c,0,63,127,
2,11108, Note_on_c,0,64,127,
2,11109, Note_on_c,0,58,127,
2,11109, Note_off_c,0,64,127,
2,11110, Note_on_c,0,64,127,
2,11110, Note_off_c,0,58,127,
2,11111, Note_off_c,0,64,127,
2,11120, Note_off_c,0,40,127,
2,11121, Note_on_c,0,40,127,
2,11137, Note_on_c,0,46,127,
2,11137, Note_off_c,0,40,127,
2,11138, Note_on_c,0,40,127,
2,11138, Note_off_c,0,46,127,
2,11139, Note_on_c,0,64,127,
2,11139, Note_off_c,0,61,127,
2,11140, Note_on_c,0,61,127,
2,11140, Note_off_c,0,64,127,
2,11140, Note_off_c,0,40,127,
2,11141, Note_on_c,0,40,127,
2,11142, Note_on_c,0,64,127,
2,11142, Note_off_c,0,61,127,
2,11143, Note_on_c,0,61,127,
2,11143, Note_off_c,0,64,127,
2,11146, Note_on_c,0,64,127,
2,11146, Note_off_c,0,61,127,
2,11147, Note_on_c,0,61,127,
2,11147, Note_off_c,0,64,127,
2,11153, Note_on_c,0,64,127,
2,11153, Note_off_c,0,61,127,
2,11155, Note_on_c,0,61,127,
2,11155, Note_off_c,0,64,127,
2,11157, Note_on_c,0,46,127,
2,11157, Note_off_c,0,40,127,
2,11158, Note_on_c,0,40,127,
2,11158, Note_off_c,0,46,127,
2,11160, Note_on_c,0,58,127,
2,11160, Note_off_c,0,61,127,
2,11161, Note_on_c,0,61,127,
2,11161, Note_off_c,0,58,127,
2,11176, Note_on_c,0,70,127,
2,11176, Note_off_c,0,61,127,
2,11177, Note_on_c,0,64,127,
2,11177, Note_off_c,0,70,127,
2,11178, Note_on_c,0,61,127,
2,11178, Note_off_c,0,64,127,
2,11197, Note_on_c,0,58,127,
2,11197, Note_off_c,0,61,127,
2,11198, Note_on_c,0,61,127,
2,11198, Note_off_c,0,58,127,
2,11224, Note_on_c,0,64,127,
2,11224, Note_off_c,0,61,127,
2,11225, Note_on_c,0,70,127,
2,11225, Note_off_c,0,64,127,
2,11226, Note_on_c,0,61,127,
2,11226, Note_off_c,0,70,127,
2,11233, Note_on_c,0,64,127,
2,11233, Note_off_c,0,61,127,
2,11234, Note_on_c,0,61,127,
2,11234, Note_off_c,0,64,127,
2,11235, Note_on_c,0,64,127,
2,11235, Note_off_c,0,61,127,
2,11236, Note_on_c,0,61,127,
2,11236, Note_off_c,0,64,127,
2,11245, Note_on_c,0,70,127,
2,11245, Note_off_c,0,61,127,
2,11246, Note_on_c,0,61,127,
2,11246, Note_off_c,0,70,127,
2,11254, Note_off_c,0,40,127,
2,11255, Note_on_c,0,40,127,
2,11258, Note_on_c,0,64,127,
2,11258, Note_off_c,0,61,127,
2,11258, Note_off_c,0,40,127,
2,11259, Note_on_c,0,61,127,
2,11259, Note_on_c,0,66,127,
2,11259, Note_off_c,0,64,127,
2,11260, Note_on_c,0,40,127,
2,11260, Note_off_c,0,66,127,
2,11261, Note_off_c,0,40,127,
2,11263, Note_on_c,0,40,127,
2,11264, Note_on_c,0,64,127,
2,11264, Note_off_c,0,61,127,
2,11265, Note_on_c,0,61,127,
2,11265, Note_off_c,0,64,127,
2,11271, Note_off_c,0,61,127,
2,11271, Note_off_c,0,40,127,
2,11272, Note_on_c,0,61,127,
2,11273, Note_on_c,0,40,127,
2,11282, Note_on_c,0,56,127,
2,11282, Note_off_c,0,61,127,
2,11283, Note_on_c,0,61,127,
2,11283, Note_on_c,0,39,127,
2,11283, Note_off_c,0,40,127,
2,11283, Note_off_c,0,56,127,
2,11284, Note_on_c,0,40,127,
2,11284, Note_off_c,0,39,127,
2,11289, Note_on_c,0,68,127,
2,11289, Note_off_c,0,61,127,
2,11290, Note_on_c,0,61,127,
2,11290, Note_on_c,0,56,127,
2,11290, Note_off_c,0,68,127,
2,11290, Note_off_c,0,40,127,
2,11291, Note_on_c,0,64,127,
2,11291, Note_on_c,0,40,127,
2,11291, Note_off_c,0,56,127,
2,11292, Note_on_c,0,56,127,
2,11292, Note_off_c,0,61,127,
2,11294, Note_on_c,0,61,127,
2,11294, Note_off_c,0,64,127,
2,11294, Note_off_c,0,56,127,
2,11295, Note_on_c,0,64,127,
2,11297, Note_off_c,0,64,127,
2,11297, Note_off_c,0,61,127,
2,11298, Note_on_c,0,61,127,
2,11298, Note_off_c,0,40,127,
2,11299, Note_on_c,0,49,127,
2,11299, Note_on_c,0,40,127,
2,11300, Note_on_c,0,64,127,
2,11300, Note_on_c,0,52,127,
2,11300, Note_off_c,0,61,127,
2,11300, Note_off_c,0,49,127,
2,11301, Note_on_c,0,44,127,
2,11301, Note_on_c,0,61,127,
2,11301, Note_off_c,0,64,127,
2,11301, Note_off_c,0,52,127,
2,11302, Note_on_c,0,63,127,
2,11302, Note_off_c,0,44,127,
2,11303, Note_off_c,0,63,127,
2,11304, Note_on_c,0,64,127,
2,11305, Note_off_c,0,64,127,
2,11308, Note_on_c,0,64,127,
2,11309, Note_off_c,0,64,127,
2,11317, Note_on_c,0,58,127,
2,11317, Note_off_c,0,61,127,
2,11318, Note_on_c,0,61,127,
2,11318, Note_off_c,0,58,127,
2,11318, Note_off_c,0,40,127,
2,11319, Note_on_c,0,64,127,
2,11319, Note_on_c,0,39,127,
2,11320, Note_on_c,0,40,127,
2,11320, Note_off_c,0,64,127,
2,11320, Note_off_c,0,39,127,
2,11322, Note_on_c,0,64,127,
2,11322, Note_off_c,0,61,127,
2,11323, Note_on_c,0,61,127,
2,11323, Note_off_c,0,64,127,
2,11329, Note_on_c,0,59,127,
2,11329, Note_off_c,0,61,127,
2,11330, Note_on_c,0,68,127,
2,11330, Note_off_c,0,59,127,
2,11331, Note_on_c,0,61,127,
2,11331, Note_off_c,0,68,127,
2,11333, Note_on_c,0,64,127,
2,11335, Note_off_c,0,64,127,
2,11341, Note_on_c,0,59,127,
2,11341, Note_off_c,0,61,127,
2,11342, Note_on_c,0,61,127,
2,11342, Note_off_c,0,59,127,
2,11359, Note_on_c,0,63,127,
2,11359, Note_off_c,0,61,127,
2,11360, Note_on_c,0,61,127,
2,11360, Note_off_c,0,63,127,
2,11362, Note_on_c,0,64,127,
2,11363, Note_off_c,0,64,127,
2,11364, Note_on_c,0,64,127,
2,11365, Note_on_c,0,56,127,
2,11365, Note_off_c,0,61,127,
2,11366, Note_on_c,0,61,127,
2,11366, Note_off_c,0,64,127,
2,11366, Note_off_c,0,56,127,
2,11368, Note_on_c,0,64,127,
2,11368, Note_off_c,0,61,127,
2,11368, Note_off_c,0,40,127,
2,11369, Note_on_c,0,61,127,
2,11369, Note_on_c,0,40,127,
2,11369, Note_off_c,0,64,127,
2,11381, Note_on_c,0,46,127,
2,11381, Note_off_c,0,40,127,
2,11382, Note_on_c,0,40,127,
2,11382, Note_off_c,0,46,127,
2,11387, Note_on_c,0,64,127,
2,11387, Note_off_c,0,61,127,
2,11388, Note_on_c,0,61,127,
2,11388, Note_off_c,0,64,127,
2,11390, Note_on_c,0,64,127,
2,11390, Note_off_c,0,61,127,
2,11391, Note_on_c,0,61,127,
2,11391, Note_off_c,0,64,127,
2,11403, Note_on_c,0,64,127,
2,11403, Note_off_c,0,61,127,
2,11404, Note_on_c,0,61,127,
2,11404, Note_off_c,0,64,127,
2,11416, Note_on_c,0,64,127,
2,11416, Note_off_c,0,61,127,
2,11417, Note_on_c,0,61,127,
2,11417, Note_off_c,0,64,127,
2,11418, Note_on_c,0,34,127,
2,11418, Note_off_c,0,40,127,
2,11419, Note_on_c,0,40,127,
2,11419, Note_off_c,0,34,127,
2,11425, Note_off_c,0,40,127,
2,11426, Note_on_c,0,40,127,
2,11429, Note_on_c,0,64,127,
2,11429, Note_off_c,0,61,127,
2,11430, Note_on_c,0,61,127,
2,11430, Note_off_c,0,64,127,
2,11433, Note_on_c,0,64,127,
2,11433, Note_off_c,0,61,127,
2,11434, Note_on_c,0,61,127,
2,11434, Note_off_c,0,64,127,
2,11441, Note_on_c,0,64,127,
2,11441, Note_off_c,0,61,127,
2,11442, Note_on_c,0,61,127,
2,11442, Note_off_c,0,64,127,
2,11461, Note_on_c,0,64,127,
2,11461, Note_off_c,0,61,127,
2,11462, Note_on_c,0,61,127,
2,11462, Note_off_c,0,64,127,
2,11463, Note_on_c,0,58,127,
2,11463, Note_off_c,0,61,127,
2,11464, Note_on_c,0,61,127,
2,11464, Note_off_c,0,58,127,
2,11482, Note_on_c,0,44,127,
2,11482, Note_off_c,0,40,127,
2,11483, Note_on_c,0,73,127,
2,11483, Note_on_c,0,40,127,
2,11483, Note_off_c,0,44,127,
2,11483, Note_off_c,0,61,127,
2,11484, Note_on_c,0,61,127,
2,11484, Note_off_c,0,73,127,
2,11485, Note_off_c,0,61,127,
2,11485, Note_off_c,0,40,127,
2,11486, Note_on_c,0,61,127,
2,11487, Note_on_c,0,40,127,
2,11487, Note_on_c,0,56,127,
2,11487, Note_off_c,0,61,127,
2,11488, Note_on_c,0,61,127,
2,11488, Note_off_c,0,56,127,
2,11490, Note_on_c,0,64,127,
2,11490, Note_off_c,0,61,127,
2,11491, Note_on_c,0,61,127,
2,11491, Note_off_c,0,64,127,
2,11505, Note_on_c,0,64,127,
2,11505, Note_on_c,0,56,127,
2,11505, Note_off_c,0,61,127,
2,11505, Note_off_c,0,40,127,
2,11506, Note_on_c,0,61,127,
2,11506, Note_on_c,0,40,127,
2,11506, Note_off_c,0,64,127,
2,11506, Note_off_c,0,56,127,
2,11508, Note_on_c,0,64,127,
2,11509, Note_off_c,0,64,127,
2,11513, Note_off_c,0,40,127,
2,11514, Note_on_c,0,40,127,
2,11519, Note_on_c,0,66,127,
2,11519, Note_off_c,0,61,127,
2,11520, Note_on_c,0,64,127,
2,11520, Note_off_c,0,66,127,
2,11521, Note_on_c,0,61,127,
2,11521, Note_on_c,0,39,127,
2,11521, Note_off_c,0,64,127,
2,11521, Note_off_c,0,40,127,
2,11522, Note_on_c,0,40,127,
2,11522, Note_off_c,0,39,127,
2,11524, Note_off_c,0,61,127,
2,11525, Note_on_c,0,61,127,
2,11541, Note_on_c,0,64,127,
2,11541, Note_off_c,0,61,127,
2,11542, Note_on_c,0,61,127,
2,11542, Note_off_c,0,64,127,
2,11542, Note_off_c,0,40,127,
2,11543, Note_on_c,0,40,127,
2,11544, Note_off_c,0,61,127,
2,11545, Note_on_c,0,61,127,
2,11545, Note_off_c,0,40,127,
2,11546, Note_on_c,0,40,127,
2,11546, Note_off_c,0,61,127,
2,11559, Note_on_c,0,68,127,
2,11560, Note_off_c,0,68,127,
2,11561, Note_on_c,0,68,127,
2,11562, Note_on_c,0,61,127,
2,11562, Note_on_c,0,49,127,
2,11562, Note_off_c,0,68,127,
2,11563, Note_on_c,0,64,127,
2,11563, Note_on_c,0,56,127,
2,11563, Note_off_c,0,61,127,
2,11563, Note_off_c,0,49,127,
2,11564, Note_off_c,0,56,127,
2,11565, Note_on_c,0,61,127,
2,11565, Note_off_c,0,64,127,
2,11566, Note_on_c,0,56,127,
2,11567, Note_on_c,0,64,127,
2,11567, Note_off_c,0,56,127,
2,11568, Note_on_c,0,56,127,
2,11568, Note_off_c,0,64,127,
2,11569, Note_off_c,0,56,127,
2,11570, Note_on_c,0,64,127,
2,11570, Note_on_c,0,56,127,
2,11570, Note_off_c,0,61,127,
2,11571, Note_on_c,0,61,127,
2,11571, Note_off_c,0,64,127,
2,11571, Note_off_c,0,56,127,
2,11573, Note_on_c,0,64,127,
2,11573, Note_off_c,0,61,127,
2,11574, Note_on_c,0,61,127,
2,11574, Note_off_c,0,64,127,
2,11597, Note_on_c,0,58,127,
2,11597, Note_off_c,0,61,127,
2,11598, Note_on_c,0,61,127,
2,11598, Note_off_c,0,58,127,
2,11604, Note_on_c,0,37,127,
2,11604, Note_off_c,0,40,127,
2,11605, Note_on_c,0,40,127,
2,11605, Note_off_c,0,37,127,
2,11606, Note_off_c,0,61,127,
2,11607, Note_on_c,0,61,127,
2,11607, Note_off_c,0,40,127,
2,11608, Note_on_c,0,40,127,
2,11608, Note_off_c,0,61,127,
2,11652, Note_on_c,0,64,127,
2,11652, Note_off_c,0,40,127,
2,11653, Note_on_c,0,71,127,
2,11653, Note_on_c,0,40,127,
2,11653, Note_off_c,0,64,127,
2,11654, Note_on_c,0,61,127,
2,11654, Note_off_c,0,71,127,
2,11658, Note_on_c,0,64,127,
2,11658, Note_off_c,0,61,127,
2,11660, Note_on_c,0,61,127,
2,11660, Note_off_c,0,64,127,
2,11681, Note_on_c,0,70,127,
2,11681, Note_off_c,0,61,127,
2,11682, Note_on_c,0,61,127,
2,11682, Note_off_c,0,70,127,
2,11689, Note_on_c,0,46,127,
2,11689, Note_off_c,0,40,127,
2,11690, Note_on_c,0,40,127,
2,11690, Note_off_c,0,46,127,
2,11692, Note_on_c,0,43,127,
2,11692, Note_off_c,0,40,127,
2,11693, Note_on_c,0,40,127,
2,11693, Note_off_c,0,43,127,
2,11697, Note_on_c,0,39,127,
2,11697, Note_off_c,0,40,127,
2,11698, Note_on_c,0,40,127,
2,11698, Note_off_c,0,39,127,
2,11710, Note_on_c,0,64,127,
2,11710, Note_off_c,0,61,127,
2,11712, Note_on_c,0,61,127,
2,11712, Note_off_c,0,64,127,
2,11712, Note_off_c,0,40,127,
2,11713, Note_on_c,0,40,127,
2,11714, Note_on_c,0,76,127,
2,11715, Note_off_c,0,76,127,
2,11716, Note_on_c,0,64,127,
2,11717, Note_off_c,0,64,127,
2,11719, Note_off_c,0,40,127,
2,11720, Note_on_c,0,40,127,
2,11721, Note_on_c,0,64,127,
2,11722, Note_off_c,0,64,127,
2,11725, Note_on_c,0,58,127,
2,11726, Note_on_c,0,64,127,
2,11726, Note_off_c,0,58,127,
2,11727, Note_on_c,0,58,127,
2,11727, Note_off_c,0,61,127,
2,11728, Note_on_c,0,61,127,
2,11728, Note_off_c,0,58,127,
2,11729, Note_off_c,0,64,127,
2,11731, Note_on_c,0,64,127,
2,11731, Note_on_c,0,58,127,
2,11731, Note_off_c,0,61,127,
2,11732, Note_on_c,0,61,127,
2,11732, Note_on_c,0,49,127,
2,11732, Note_off_c,0,64,127,
2,11732, Note_off_c,0,58,127,
2,11733, Note_off_c,0,49,127,
2,11734, Note_on_c,0,58,127,
2,11734, Note_off_c,0,61,127,
2,11735, Note_on_c,0,64,127,
2,11735, Note_off_c,0,58,127,
2,11737, Note_on_c,0,61,127,
2,11737, Note_off_c,0,64,127,
2,11744, Note_on_c,0,49,127,
2,11744, Note_off_c,0,40,127,
2,11745, Note_on_c,0,40,127,
2,11745, Note_off_c,0,49,127,
2,11749, Note_on_c,0,63,127,
2,11749, Note_off_c,0,61,127,
2,11750, Note_on_c,0,61,127,
2,11750, Note_off_c,0,63,127,
2,11752, Note_off_c,0,40,127,
2,11753, Note_on_c,0,37,127,
2,11754, Note_on_c,0,40,127,
2,11754, Note_off_c,0,37,127,
2,11761, Note_on_c,0,56,127,
2,11761, Note_off_c,0,40,127,
2,11762, Note_on_c,0,40,127,
2,11762, Note_off_c,0,56,127,
2,11763, Note_on_c,0,64,127,
2,11765, Note_off_c,0,64,127,
2,11771, Note_on_c,0,56,127,
2,11772, Note_off_c,0,56,127,
2,11776, Note_on_c,0,63,127,
2,11776, Note_off_c,0,61,127,
2,11777, Note_off_c,0,63,127,
2,11778, Note_on_c,0,61,127,
2,11778, Note_off_c,0,40,127,
2,11779, Note_on_c,0,40,127,
2,11783, Note_on_c,0,71,127,
2,11784, Note_on_c,0,64,127,
2,11784, Note_off_c,0,71,127,
2,11786, Note_on_c,0,46,127,
2,11786, Note_on_c,0,68,127,
2,11786, Note_off_c,0,61,127,
2,11786, Note_off_c,0,40,127,
2,11787, Note_on_c,0,61,127,
2,11787, Note_on_c,0,40,127,
2,11787, Note_off_c,0,64,127,
2,11787, Note_off_c,0,68,127,
2,11788, Note_off_c,0,46,127,
2,11797, Note_on_c,0,58,127,
2,11797, Note_off_c,0,61,127,
2,11798, Note_on_c,0,61,127,
2,11798, Note_off_c,0,58,127,
2,11800, Note_on_c,0,43,127,
2,11800, Note_off_c,0,40,127,
2,11801, Note_on_c,0,40,127,
2,11801, Note_off_c,0,43,127,
2,11805, Note_on_c,0,49,127,
2,11805, Note_off_c,0,40,127,
2,11806, Note_on_c,0,46,127,
2,11806, Note_off_c,0,49,127,
2,11807, Note_on_c,0,40,127,
2,11807, Note_off_c,0,46,127,
2,11841, Note_on_c,0,39,127,
2,11841, Note_off_c,0,40,127,
2,11842, Note_on_c,0,40,127,
2,11842, Note_off_c,0,39,127,
2,11848, Note_on_c,0,64,127,
2,11848, Note_off_c,0,61,127,
2,11849, Note_on_c,0,61,127,
2,11849, Note_off_c,0,64,127,
2,11857, Note_on_c,0,70,127,
2,11857, Note_off_c,0,40,127,
2,11858, Note_on_c,0,40,127,
2,11858, Note_off_c,0,70,127,
2,11861, Note_on_c,0,64,127,
2,11862, Note_off_c,0,64,127,
2,11863, Note_on_c,0,58,127,
2,11863, Note_on_c,0,70,127,
2,11863, Note_off_c,0,61,127,
2,11864, Note_on_c,0,61,127,
2,11864, Note_off_c,0,58,127,
2,11864, Note_off_c,0,70,127,
2,11912, Note_on_c,0,58,127,
2,11912, Note_off_c,0,61,127,
2,11913, Note_on_c,0,61,127,
2,11913, Note_off_c,0,58,127,
2,11916, Note_on_c,0,64,127,
2,11916, Note_off_c,0,61,127,
2,11917, Note_on_c,0,61,127,
2,11917, Note_off_c,0,64,127,
2,11918, Note_on_c,0,64,127,
2,11918, Note_off_c,0,61,127,
2,11919, Note_on_c,0,61,127,
2,11919, Note_off_c,0,64,127,
2,11920, Note_on_c,0,39,127,
2,11920, Note_off_c,0,40,127,
2,11921, Note_on_c,0,40,127,
2,11921, Note_off_c,0,39,127,
2,11926, Note_on_c,0,64,127,
2,11926, Note_off_c,0,61,127,
2,11927, Note_on_c,0,61,127,
2,11927, Note_off_c,0,64,127,
2,11941, Note_on_c,0,64,127,
2,11941, Note_off_c,0,61,127,
2,11942, Note_on_c,0,61,127,
2,11942, Note_off_c,0,64,127,
2,11943, Note_on_c,0,64,127,
2,11943, Note_off_c,0,61,127,
2,11945, Note_on_c,0,61,127,
2,11945, Note_off_c,0,64,127,
2,11955, Note_on_c,0,58,127,
2,11955, Note_off_c,0,61,127,
2,11956, Note_on_c,0,61,127,
2,11956, Note_off_c,0,58,127,
2,11959, Note_on_c,0,39,127,
2,11959, Note_off_c,0,40,127,
2,11960, Note_on_c,0,40,127,
2,11960, Note_off_c,0,39,127,
2,11969, Note_on_c,0,67,127,
2,11969, Note_off_c,0,61,127,
2,11970, Note_on_c,0,61,127,
2,11970, Note_off_c,0,67,127,
2,11972, Note_on_c,0,64,127,
2,11973, Note_on_c,0,46,127,
2,11973, Note_off_c,0,64,127,
2,11974, Note_off_c,0,46,127,
2,11975, Note_on_c,0,64,127,
2,11975, Note_off_c,0,61,127,
2,11976, Note_on_c,0,61,127,
2,11976, Note_off_c,0,64,127,
2,12002, Note_on_c,0,64,127,
2,12002, Note_off_c,0,61,127,
2,12003, Note_on_c,0,61,127,
2,12003, Note_off_c,0,64,127,
2,12008, Note_on_c,0,37,127,
2,12008, Note_off_c,0,40,127,
2,12009, Note_on_c,0,40,127,
2,12009, Note_off_c,0,37,127,
2,12015, Note_on_c,0,46,127,
2,12015, Note_off_c,0,40,127,
2,12016, Note_on_c,0,40,127,
2,12016, Note_off_c,0,46,127,
2,12018, Note_on_c,0,70,127,
2,12018, Note_off_c,0,61,127,
2,12019, Note_on_c,0,64,127,
2,12019, Note_off_c,0,70,127,
2,12020, Note_on_c,0,61,127,
2,12020, Note_on_c,0,39,127,
2,12020, Note_off_c,0,64,127,
2,12020, Note_off_c,0,40,127,
2,12021, Note_on_c,0,40,127,
2,12021, Note_off_c,0,39,127,
2,12034, Note_off_c,0,40,127,
2,12035, Note_on_c,0,64,127,
2,12035, Note_on_c,0,40,127,
2,12035, Note_off_c,0,61,127,
2,12036, Note_on_c,0,61,127,
2,12036, Note_off_c,0,64,127,
2,12039, Note_on_c,0,64,127,
2,12039, Note_off_c,0,61,127,
2,12040, Note_on_c,0,61,127,
2,12040, Note_off_c,0,64,127,
2,12042, Note_on_c,0,58,127,
2,12042, Note_off_c,0,61,127,
2,12043, Note_on_c,0,61,127,
2,12043, Note_off_c,0,58,127,
2,12057, Note_on_c,0,58,127,
2,12057, Note_off_c,0,61,127,
2,12058, Note_on_c,0,61,127,
2,12058, Note_off_c,0,58,127,
2,12060, Note_on_c,0,43,127,
2,12060, Note_off_c,0,40,127,
2,12061, Note_on_c,0,64,127,
2,12061, Note_on_c,0,40,127,
2,12061, Note_off_c,0,43,127,
2,12061, Note_off_c,0,61,127,
2,12062, Note_on_c,0,61,127,
2,12062, Note_off_c,0,64,127,
2,12065, Note_on_c,0,47,127,
2,12065, Note_off_c,0,61,127,
2,12066, Note_on_c,0,61,127,
2,12066, Note_off_c,0,47,127,
2,12078, Note_on_c,0,64,127,
2,12078, Note_off_c,0,61,127,
2,12079, Note_on_c,0,61,127,
2,12079, Note_off_c,0,64,127,
2,12084, Note_on_c,0,64,127,
2,12084, Note_off_c,0,61,127,
2,12085, Note_on_c,0,61,127,
2,12085, Note_off_c,0,64,127,
2,12086, Note_on_c,0,64,127,
2,12086, Note_off_c,0,61,127,
2,12087, Note_on_c,0,61,127,
2,12087, Note_off_c,0,64,127,
2,12093, Note_on_c,0,64,127,
2,12093, Note_off_c,0,61,127,
2,12095, Note_on_c,0,61,127,
2,12095, Note_off_c,0,64,127,
2,12103, Note_on_c,0,63,127,
2,12103, Note_off_c,0,61,127,
2,12104, Note_on_c,0,61,127,
2,12104, Note_off_c,0,63,127,
2,12105, Note_on_c,0,64,127,
2,12105, Note_off_c,0,61,127,
2,12108, Note_on_c,0,61,127,
2,12108, Note_off_c,0,64,127,
2,12124, Note_on_c,0,63,127,
2,12124, Note_off_c,0,61,127,
2,12125, Note_on_c,0,76,127,
2,12125, Note_off_c,0,63,127,
2,12125, Note_off_c,0,40,127,
2,12126, Note_on_c,0,61,127,
2,12126, Note_on_c,0,40,127,
2,12126, Note_off_c,0,76,127,
2,12132, Note_on_c,0,52,127,
2,12132, Note_off_c,0,61,127,
2,12133, Note_on_c,0,58,127,
2,12133, Note_off_c,0,52,127,
2,12134, Note_on_c,0,61,127,
2,12134, Note_off_c,0,58,127,
2,12135, Note_off_c,0,40,127,
2,12136, Note_on_c,0,40,127,
2,12137, Note_on_c,0,64,127,
2,12137, Note_on_c,0,66,127,
2,12137, Note_off_c,0,61,127,
2,12138, Note_on_c,0,61,127,
2,12138, Note_off_c,0,64,127,
2,12138, Note_off_c,0,66,127,
2,12139, Note_on_c,0,64,127,
2,12139, Note_on_c,0,46,127,
2,12139, Note_off_c,0,61,127,
2,12140, Note_on_c,0,61,127,
2,12140, Note_off_c,0,64,127,
2,12140, Note_off_c,0,46,127,
2,12143, Note_on_c,0,52,127,
2,12144, Note_off_c,0,52,127,
2,12151, Note_on_c,0,64,127,
2,12152, Note_off_c,0,64,127,
2,12153, Note_off_c,0,40,127,
2,12155, Note_on_c,0,40,127,
2,12156, Note_on_c,0,66,127,
2,12156, Note_off_c,0,61,127,
2,12156, Note_off_c,0,40,127,
2,12157, Note_on_c,0,61,127,
2,12157, Note_on_c,0,40,127,
2,12157, Note_off_c,0,66,127,
2,12158, Note_on_c,0,64,127,
2,12158, Note_off_c,0,40,127,
2,12159, Note_on_c,0,37,127,
2,12159, Note_off_c,0,64,127,
2,12160, Note_on_c,0,40,127,
2,12160, Note_off_c,0,37,127,
2,12164, Note_off_c,0,40,127,
2,12165, Note_on_c,0,40,127,
2,12167, Note_on_c,0,64,127,
2,12167, Note_off_c,0,61,127,
2,12168, Note_on_c,0,61,127,
2,12168, Note_off_c,0,64,127,
2,12171, Note_on_c,0,58,127,
2,12171, Note_off_c,0,61,127,
2,12172, Note_on_c,0,61,127,
2,12172, Note_off_c,0,58,127,
2,12186, Note_on_c,0,58,127,
2,12186, Note_off_c,0,61,127,
2,12187, Note_on_c,0,61,127,
2,12187, Note_off_c,0,58,127,
2,12188, Note_on_c,0,64,127,
2,12188, Note_off_c,0,61,127,
2,12189, Note_on_c,0,61,127,
2,12189, Note_on_c,0,46,127,
2,12189, Note_off_c,0,64,127,
2,12189, Note_off_c,0,40,127,
2,12190, Note_on_c,0,40,127,
2,12190, Note_off_c,0,46,127,
2,12213, Note_off_c,0,40,127,
2,12214, Note_on_c,0,40,127,
2,12221, Note_on_c,0,52,127,
2,12221, Note_off_c,0,40,127,
2,12222, Note_on_c,0,40,127,
2,12222, Note_off_c,0,52,127,
2,12227, Note_on_c,0,64,127,
2,12227, Note_off_c,0,61,127,
2,12228, Note_on_c,0,61,127,
2,12228, Note_off_c,0,64,127,
2,12243, Note_on_c,0,59,127,
2,12243, Note_off_c,0,61,127,
2,12244, Note_on_c,0,61,127,
2,12244, Note_off_c,0,59,127,
2,12252, Note_on_c,0,39,127,
2,12252, Note_off_c,0,40,127,
2,12253, Note_on_c,0,40,127,
2,12253, Note_off_c,0,39,127,
2,12254, Note_on_c,0,56,127,
2,12254, Note_off_c,0,61,127,
2,12255, Note_off_c,0,56,127,
2,12256, Note_on_c,0,61,127,
2,12260, Note_on_c,0,64,127,
2,12260, Note_off_c,0,61,127,
2,12261, Note_on_c,0,61,127,
2,12261, Note_off_c,0,64,127,
2,12268, Note_on_c,0,46,127,
2,12268, Note_off_c,0,40,127,
2,12269, Note_on_c,0,40,127,
2,12269, Note_off_c,0,46,127,
2,12275, Note_on_c,0,64,127,
2,12275, Note_on_c,0,39,127,
2,12275, Note_off_c,0,61,127,
2,12275, Note_off_c,0,40,127,
2,12276, Note_on_c,0,61,127,
2,12276, Note_on_c,0,40,127,
2,12276, Note_off_c,0,64,127,
2,12276, Note_off_c,0,39,127,
2,12279, Note_on_c,0,64,127,
2,12279, Note_off_c,0,61,127,
2,12280, Note_on_c,0,61,127,
2,12280, Note_off_c,0,64,127,
2,12282, Note_on_c,0,58,127,
2,12282, Note_off_c,0,61,127,
2,12283, Note_on_c,0,61,127,
2,12283, Note_off_c,0,58,127,
2,12286, Note_on_c,0,64,127,
2,12286, Note_off_c,0,61,127,
2,12287, Note_on_c,0,61,127,
2,12287, Note_off_c,0,64,127,
2,12289, Note_on_c,0,46,127,
2,12289, Note_off_c,0,40,127,
2,12290, Note_on_c,0,40,127,
2,12290, Note_off_c,0,46,127,
2,12292, Note_on_c,0,58,127,
2,12292, Note_off_c,0,61,127,
2,12293, Note_on_c,0,61,127,
2,12293, Note_off_c,0,58,127,
2,12296, Note_on_c,0,70,127,
2,12296, Note_off_c,0,61,127,
2,12297, Note_on_c,0,61,127,
2,12297, Note_off_c,0,70,127,
2,12306, Note_off_c,0,40,127,
2,12307, Note_on_c,0,64,127,
2,12307, Note_on_c,0,40,127,
2,12307, Note_off_c,0,61,127,
2,12308, Note_on_c,0,61,127,
2,12308, Note_off_c,0,64,127,
2,12314, Note_on_c,0,58,127,
2,12314, Note_off_c,0,61,127,
2,12315, Note_on_c,0,61,127,
2,12315, Note_off_c,0,58,127,
2,12317, Note_on_c,0,64,127,
2,12317, Note_off_c,0,40,127,
2,12318, Note_on_c,0,40,127,
2,12318, Note_off_c,0,64,127,
2,12319, Note_on_c,0,70,127,
2,12320, Note_off_c,0,70,127,
2,12323, Note_on_c,0,64,127,
2,12324, Note_off_c,0,64,127,
2,12328, Note_on_c,0,64,127,
2,12329, Note_off_c,0,64,127,
2,12330, Note_on_c,0,64,127,
2,12331, Note_off_c,0,64,127,
2,12332, Note_on_c,0,70,127,
2,12333, Note_off_c,0,70,127,
2,12335, Note_on_c,0,64,127,
2,12335, Note_off_c,0,61,127,
2,12336, Note_on_c,0,61,127,
2,12336, Note_off_c,0,64,127,
2,12339, Note_on_c,0,70,127,
2,12340, Note_off_c,0,70,127,
2,12341, Note_on_c,0,46,127,
2,12341, Note_off_c,0,40,127,
2,12342, Note_on_c,0,40,127,
2,12342, Note_off_c,0,46,127,
2,12344, Note_on_c,0,63,127,
2,12345, Note_off_c,0,63,127,
2,12349, Note_off_c,0,40,127,
2,12350, Note_on_c,0,40,127,
2,12356, Note_on_c,0,63,127,
2,12357, Note_off_c,0,63,127,
2,12358, Note_on_c,0,58,127,
2,12359, Note_off_c,0,58,127,
2,12364, Note_on_c,0,52,127,
2,12365, Note_off_c,0,52,127,
2,12368, Note_on_c,0,43,127,
2,12369, Note_off_c,0,43,127,
2,12373, Note_on_c,0,39,127,
2,12373, Note_off_c,0,40,127,
2,12374, Note_on_c,0,40,127,
2,12374, Note_off_c,0,39,127,
2,12377, Note_on_c,0,39,127,
2,12377, Note_off_c,0,40,127,
2,12378, Note_on_c,0,40,127,
2,12378, Note_off_c,0,39,127,
2,12410, Note_on_c,0,34,127,
2,12410, Note_off_c,0,40,127,
2,12411, Note_on_c,0,40,127,
2,12411, Note_off_c,0,34,127,
2,12425, Note_on_c,0,63,127,
2,12425, Note_off_c,0,61,127,
2,12426, Note_on_c,0,61,127,
2,12426, Note_off_c,0,63,127,
2,12429, Note_on_c,0,64,127,
2,12429, Note_on_c,0,39,127,
2,12429, Note_off_c,0,40,127,
2,12430, Note_on_c,0,40,127,
2,12430, Note_off_c,0,64,127,
2,12430, Note_off_c,0,39,127,
2,12457, Note_on_c,0,64,127,
2,12457, Note_off_c,0,61,127,
2,12458, Note_on_c,0,61,127,
2,12458, Note_off_c,0,64,127,
2,12472, Note_on_c,0,63,127,
2,12472, Note_off_c,0,61,127,
2,12473, Note_on_c,0,61,127,
2,12473, Note_off_c,0,63,127,
2,12478, Note_on_c,0,64,127,
2,12479, Note_off_c,0,64,127,
2,12480, Note_on_c,0,64,127,
2,12481, Note_off_c,0,64,127,
2,12487, Note_on_c,0,64,127,
2,12488, Note_off_c,0,64,127,
2,12489, Note_on_c,0,38,127,
2,12489, Note_off_c,0,40,127,
2,12490, Note_on_c,0,40,127,
2,12490, Note_off_c,0,38,127,
2,12491, Note_on_c,0,64,127,
2,12493, Note_off_c,0,64,127,
2,12494, Note_on_c,0,64,127,
2,12495, Note_off_c,0,64,127,
2,12497, Note_on_c,0,64,127,
2,12498, Note_off_c,0,64,127,
2,12500, Note_on_c,0,49,127,
2,12501, Note_on_c,0,64,127,
2,12501, Note_on_c,0,58,127,
2,12501, Note_off_c,0,61,127,
2,12501, Note_off_c,0,49,127,
2,12502, Note_on_c,0,61,127,
2,12502, Note_off_c,0,64,127,
2,12502, Note_off_c,0,58,127,
2,12529, Note_on_c,0,44,127,
2,12529, Note_off_c,0,40,127,
2,12530, Note_on_c,0,40,127,
2,12530, Note_off_c,0,44,127,
2,12539, Note_on_c,0,64,127,
2,12539, Note_off_c,0,61,127,
2,12541, Note_on_c,0,70,127,
2,12541, Note_off_c,0,64,127,
2,12542, Note_on_c,0,61,127,
2,12542, Note_off_c,0,70,127,
2,12543, Note_off_c,0,40,127,
2,12544, Note_on_c,0,40,127,
2,12545, Note_off_c,0,61,127,
2,12546, Note_on_c,0,61,127,
2,12546, Note_off_c,0,40,127,
2,12547, Note_on_c,0,40,127,
2,12547, Note_off_c,0,61,127,
2,12584, Note_on_c,0,47,127,
2,12584, Note_off_c,0,40,127,
2,12585, Note_on_c,0,40,127,
2,12585, Note_off_c,0,47,127,
2,12607, Note_on_c,0,75,127,
2,12608, Note_off_c,0,75,127,
2,12609, Note_on_c,0,61,127,
2,12610, Note_off_c,0,61,127,
2,12611, Note_on_c,0,61,127,
2,12612, Note_off_c,0,61,127,
2,12613, Note_on_c,0,61,127,
2,12615, Note_on_c,0,56,127,
2,12615, Note_off_c,0,61,127,
2,12616, Note_on_c,0,61,127,
2,12616, Note_off_c,0,56,127,
2,12617, Note_on_c,0,64,127,
2,12617, Note_off_c,0,61,127,
2,12618, Note_on_c,0,61,127,
2,12618, Note_off_c,0,64,127,
2,12622, Note_on_c,0,64,127,
2,12622, Note_off_c,0,61,127,
2,12623, Note_on_c,0,61,127,
2,12623, Note_off_c,0,64,127,
2,12636, Note_on_c,0,39,127,
2,12636, Note_off_c,0,40,127,
2,12637, Note_on_c,0,40,127,
2,12637, Note_off_c,0,39,127,
2,12649, Note_on_c,0,56,127,
2,12649, Note_off_c,0,40,127,
2,12650, Note_on_c,0,40,127,
2,12650, Note_off_c,0,56,127,
2,12653, Note_on_c,0,56,127,
2,12653, Note_off_c,0,61,127,
2,12654, Note_on_c,0,61,127,
2,12654, Note_off_c,0,40,127,
2,12654, Note_off_c,0,56,127,
2,12655, Note_on_c,0,40,127,
2,12657, Note_on_c,0,64,127,
2,12657, Note_off_c,0,61,127,
2,12658, Note_on_c,0,61,127,
2,12658, Note_off_c,0,64,127,
2,12666, Note_off_c,0,61,127,
2,12667, Note_on_c,0,61,127,
2,12689, Note_on_c,0,64,127,
2,12689, Note_off_c,0,61,127,
2,12690, Note_on_c,0,61,127,
2,12690, Note_off_c,0,64,127,
2,12695, Note_on_c,0,64,127,
2,12695, Note_off_c,0,61,127,
2,12696, Note_on_c,0,61,127,
2,12696, Note_off_c,0,64,127,
2,12703, Note_on_c,0,47,127,
2,12703, Note_off_c,0,61,127,
2,12704, Note_on_c,0,61,127,
2,12704, Note_off_c,0,47,127,
2,12715, Note_on_c,0,64,127,
2,12715, Note_off_c,0,61,127,
2,12716, Note_on_c,0,61,127,
2,12716, Note_off_c,0,64,127,
2,12726, Note_on_c,0,64,127,
2,12726, Note_off_c,0,61,127,
2,12727, Note_on_c,0,61,127,
2,12727, Note_off_c,0,64,127,
2,12735, Note_off_c,0,40,127,
2,12736, Note_on_c,0,40,127,
2,12738, Note_on_c,0,64,127,
2,12739, Note_off_c,0,64,127,
2,12743, Note_on_c,0,64,127,
2,12744, Note_off_c,0,64,127,
2,12748, Note_on_c,0,64,127,
2,12749, Note_off_c,0,64,127,
2,12762, Note_on_c,0,64,127,
2,12763, Note_on_c,0,69,127,
2,12763, Note_on_c,0,70,127,
2,12763, Note_off_c,0,61,127,
2,12763, Note_off_c,0,64,127,
2,12764, Note_on_c,0,61,127,
2,12764, Note_off_c,0,69,127,
2,12764, Note_off_c,0,70,127,
2,12766, Note_on_c,0,46,127,
2,12766, Note_off_c,0,40,127,
2,12767, Note_on_c,0,40,127,
2,12767, Note_off_c,0,46,127,
2,12773, Note_on_c,0,52,127,
2,12774, Note_off_c,0,52,127,
2,12775, Note_on_c,0,64,127,
2,12776, Note_off_c,0,64,127,
2,12777, Note_on_c,0,39,127,
2,12777, Note_off_c,0,40,127,
2,12778, Note_off_c,0,39,127,
2,12779, Note_on_c,0,40,127,
2,12786, Note_off_c,0,61,127,
2,12787, Note_on_c,0,64,127,
2,12787, Note_on_c,0,70,127,
2,12787, Note_off_c,0,40,127,
2,12788, Note_on_c,0,61,127,
2,12788, Note_on_c,0,40,127,
2,12788, Note_off_c,0,64,127,
2,12788, Note_off_c,0,70,127,
2,12790, Note_off_c,0,40,127,
2,12791, Note_on_c,0,40,127,
2,12797, Note_on_c,0,37,127,
2,12797, Note_off_c,0,40,127,
2,12798, Note_on_c,0,40,127,
2,12798, Note_off_c,0,37,127,
2,12803, Note_on_c,0,64,127,
2,12803, Note_off_c,0,61,127,
2,12804, Note_on_c,0,61,127,
2,12804, Note_off_c,0,64,127,
2,12830, Note_on_c,0,37,127,
2,12830, Note_off_c,0,40,127,
2,12831, Note_on_c,0,40,127,
2,12831, Note_off_c,0,37,127,
2,12835, Note_on_c,0,64,127,
2,12835, Note_off_c,0,61,127,
2,12836, Note_on_c,0,61,127,
2,12836, Note_off_c,0,64,127,
2,12839, Note_off_c,0,61,127,
2,12839, Note_off_c,0,40,127,
2,12840, Note_on_c,0,61,127,
2,12840, Note_on_c,0,64,127,
2,12841, Note_on_c,0,40,127,
2,12841, Note_off_c,0,64,127,
2,12846, Note_on_c,0,64,127,
2,12846, Note_off_c,0,61,127,
2,12847, Note_on_c,0,61,127,
2,12847, Note_off_c,0,64,127,
2,12848, Note_on_c,0,64,127,
2,12848, Note_off_c,0,61,127,
2,12849, Note_on_c,0,61,127,
2,12849, Note_off_c,0,64,127,
2,12852, Note_on_c,0,46,127,
2,12852, Note_off_c,0,40,127,
2,12853, Note_on_c,0,40,127,
2,12853, Note_off_c,0,46,127,
2,12866, Note_on_c,0,64,127,
2,12866, Note_off_c,0,61,127,
2,12867, Note_on_c,0,61,127,
2,12867, Note_on_c,0,39,127,
2,12867, Note_off_c,0,64,127,
2,12867, Note_off_c,0,40,127,
2,12868, Note_on_c,0,40,127,
2,12868, Note_off_c,0,39,127,
2,12869, Note_on_c,0,70,127,
2,12869, Note_off_c,0,61,127,
2,12870, Note_on_c,0,68,127,
2,12870, Note_off_c,0,70,127,
2,12871, Note_on_c,0,61,127,
2,12871, Note_off_c,0,68,127,
2,12887, Note_on_c,0,35,127,
2,12887, Note_off_c,0,40,127,
2,12888, Note_on_c,0,40,127,
2,12888, Note_off_c,0,35,127,
2,12891, Note_on_c,0,64,127,
2,12891, Note_off_c,0,61,127,
2,12892, Note_on_c,0,61,127,
2,12892, Note_off_c,0,64,127,
2,12903, Note_on_c,0,64,127,
2,12903, Note_off_c,0,61,127,
2,12904, Note_on_c,0,61,127,
2,12904, Note_off_c,0,64,127,
2,12907, Note_on_c,0,64,127,
2,12907, Note_off_c,0,61,127,
2,12908, Note_on_c,0,61,127,
2,12908, Note_off_c,0,64,127,
2,12911, Note_on_c,0,64,127,
2,12911, Note_off_c,0,61,127,
2,12912, Note_on_c,0,61,127,
2,12912, Note_off_c,0,64,127,
2,12925, Note_on_c,0,64,127,
2,12925, Note_off_c,0,61,127,
2,12926, Note_on_c,0,61,127,
2,12926, Note_off_c,0,64,127,
2,12928, Note_on_c,0,39,127,
2,12928, Note_off_c,0,40,127,
2,12929, Note_on_c,0,64,127,
2,12929, Note_on_c,0,40,127,
2,12929, Note_off_c,0,61,127,
2,12929, Note_off_c,0,39,127,
2,12930, Note_on_c,0,59,127,
2,12930, Note_off_c,0,64,127,
2,12931, Note_on_c,0,67,127,
2,12931, Note_off_c,0,59,127,
2,12932, Note_on_c,0,61,127,
2,12932, Note_on_c,0,63,127,
2,12932, Note_off_c,0,67,127,
2,12933, Note_off_c,0,63,127,
2,12939, Note_on_c,0,63,127,
2,12939, Note_off_c,0,61,127,
2,12939, Note_off_c,0,40,127,
2,12940, Note_on_c,0,61,127,
2,12940, Note_on_c,0,40,127,
2,12940, Note_off_c,0,63,127,
2,12942, Note_on_c,0,46,127,
2,12942, Note_off_c,0,40,127,
2,12943, Note_on_c,0,40,127,
2,12943, Note_off_c,0,46,127,
2,12946, Note_on_c,0,37,127,
2,12946, Note_off_c,0,40,127,
2,12947, Note_on_c,0,40,127,
2,12947, Note_off_c,0,37,127,
2,12955, Note_on_c,0,39,127,
2,12955, Note_off_c,0,40,127,
2,12956, Note_on_c,0,40,127,
2,12956, Note_off_c,0,39,127,
2,12957, Note_on_c,0,58,127,
2,12957, Note_off_c,0,61,127,
2,12958, Note_on_c,0,61,127,
2,12958, Note_off_c,0,58,127,
2,12963, Note_off_c,0,40,127,
2,12964, Note_on_c,0,40,127,
2,12967, Note_on_c,0,64,127,
2,12969, Note_off_c,0,61,127,
2,12970, Note_on_c,0,61,127,
2,12970, Note_off_c,0,64,127,
2,12972, Note_on_c,0,64,127,
2,12974, Note_off_c,0,64,127,
2,12977, Note_on_c,0,64,127,
2,12977, Note_off_c,0,61,127,
2,12977, Note_off_c,0,40,127,
2,12978, Note_on_c,0,61,127,
2,12978, Note_on_c,0,40,127,
2,12978, Note_off_c,0,64,127,
2,12987, Note_on_c,0,64,127,
2,12987, Note_off_c,0,61,127,
2,12988, Note_on_c,0,61,127,
2,12988, Note_off_c,0,64,127,
2,13008, Note_on_c,0,64,127,
2,13008, Note_off_c,0,61,127,
2,13009, Note_on_c,0,61,127,
2,13009, Note_off_c,0,64,127,
2,13010, Note_on_c,0,64,127,
2,13010, Note_off_c,0,61,127,
2,13011, Note_on_c,0,61,127,
2,13011, Note_off_c,0,64,127,
2,13013, Note_on_c,0,39,127,
2,13013, Note_off_c,0,40,127,
2,13015, Note_on_c,0,40,127,
2,13015, Note_off_c,0,39,127,
2,13016, Note_on_c,0,58,127,
2,13016, Note_off_c,0,61,127,
2,13017, Note_on_c,0,61,127,
2,13017, Note_off_c,0,58,127,
2,13025, Note_on_c,0,64,127,
2,13025, Note_off_c,0,61,127,
2,13026, Note_on_c,0,61,127,
2,13026, Note_off_c,0,64,127,
2,13027, Note_on_c,0,37,127,
2,13027, Note_off_c,0,40,127,
2,13028, Note_on_c,0,40,127,
2,13028, Note_off_c,0,37,127,
2,13036, Note_on_c,0,64,127,
2,13036, Note_off_c,0,61,127,
2,13037, Note_on_c,0,61,127,
2,13037, Note_off_c,0,64,127,
2,13042, Note_on_c,0,64,127,
2,13042, Note_off_c,0,61,127,
2,13043, Note_on_c,0,61,127,
2,13043, Note_off_c,0,64,127,
2,13050, Note_on_c,0,58,127,
2,13050, Note_off_c,0,61,127,
2,13051, Note_on_c,0,61,127,
2,13051, Note_off_c,0,58,127,
2,13054, Note_on_c,0,59,127,
2,13054, Note_off_c,0,61,127,
2,13055, Note_on_c,0,61,127,
2,13055, Note_off_c,0,59,127,
2,13059, Note_on_c,0,46,127,
2,13059, Note_off_c,0,40,127,
2,13060, Note_off_c,0,46,127,
2,13061, Note_on_c,0,40,127,
2,13070, Note_on_c,0,39,127,
2,13070, Note_off_c,0,40,127,
2,13071, Note_on_c,0,40,127,
2,13071, Note_off_c,0,39,127,
2,13074, Note_on_c,0,37,127,
2,13074, Note_off_c,0,40,127,
2,13075, Note_on_c,0,40,127,
2,13075, Note_on_c,0,56,127,
2,13075, Note_off_c,0,61,127,
2,13075, Note_off_c,0,37,127,
2,13076, Note_on_c,0,61,127,
2,13076, Note_off_c,0,56,127,
2,13078, Note_on_c,0,64,127,
2,13078, Note_off_c,0,61,127,
2,13079, Note_on_c,0,61,127,
2,13079, Note_off_c,0,64,127,
2,13088, Note_on_c,0,64,127,
2,13088, Note_off_c,0,61,127,
2,13089, Note_on_c,0,61,127,
2,13089, Note_off_c,0,64,127,
2,13090, Note_on_c,0,64,127,
2,13090, Note_off_c,0,61,127,
2,13091, Note_on_c,0,61,127,
2,13091, Note_off_c,0,64,127,
2,13092, Note_on_c,0,64,127,
2,13092, Note_off_c,0,61,127,
2,13093, Note_on_c,0,61,127,
2,13093, Note_off_c,0,64,127,
2,13094, Note_off_c,0,61,127,
2,13094, Note_off_c,0,40,127,
2,13095, Note_on_c,0,61,127,
2,13096, Note_on_c,0,40,127,
2,13113, Note_on_c,0,64,127,
2,13113, Note_off_c,0,61,127,
2,13114, Note_on_c,0,61,127,
2,13114, Note_off_c,0,64,127,
2,13130, Note_on_c,0,46,127,
2,13130, Note_off_c,0,61,127,
2,13131, Note_on_c,0,61,127,
2,13131, Note_off_c,0,46,127,
2,13145, Note_off_c,0,61,127,
2,13146, Note_on_c,0,61,127,
2,13151, Note_on_c,0,39,127,
2,13151, Note_off_c,0,61,127,
2,13152, Note_on_c,0,61,127,
2,13152, Note_off_c,0,39,127,
2,13161, Note_on_c,0,68,127,
2,13161, Note_off_c,0,61,127,
2,13161, Note_off_c,0,40,127,
2,13162, Note_on_c,0,61,127,
2,13162, Note_off_c,0,68,127,
2,13163, Note_on_c,0,40,127,
2,13174, Note_on_c,0,63,127,
2,13174, Note_off_c,0,61,127,
2,13175, Note_on_c,0,61,127,
2,13175, Note_off_c,0,63,127,
2,13178, Note_on_c,0,64,127,
2,13179, Note_off_c,0,64,127,
2,13180, Note_on_c,0,64,127,
2,13181, Note_off_c,0,61,127,
2,13182, Note_on_c,0,61,127,
2,13182, Note_off_c,0,64,127,
2,13183, Note_on_c,0,64,127,
2,13184, Note_off_c,0,64,127,
2,13190, Note_on_c,0,70,127,
2,13191, Note_off_c,0,70,127,
2,13194, Note_on_c,0,64,127,
2,13195, Note_off_c,0,64,127,
2,13197, Note_on_c,0,58,127,
2,13198, Note_off_c,0,58,127,
2,13199, Note_on_c,0,64,127,
2,13200, Note_off_c,0,64,127,
2,13201, Note_on_c,0,66,127,
2,13201, Note_off_c,0,61,127,
2,13202, Note_on_c,0,61,127,
2,13202, Note_off_c,0,66,127,
2,13204, Note_on_c,0,46,127,
2,13204, Note_off_c,0,61,127,
2,13205, Note_on_c,0,61,127,
2,13205, Note_off_c,0,46,127,
2,13206, Note_on_c,0,64,127,
2,13206, Note_off_c,0,61,127,
2,13207, Note_on_c,0,61,127,
2,13207, Note_off_c,0,64,127,
2,13212, Note_on_c,0,70,127,
2,13212, Note_off_c,0,61,127,
2,13213, Note_on_c,0,61,127,
2,13213, Note_off_c,0,70,127,
2,13216, Note_on_c,0,67,127,
2,13216, Note_on_c,0,70,127,
2,13216, Note_off_c,0,61,127,
2,13216, Note_off_c,0,40,127,
2,13217, Note_on_c,0,61,127,
2,13217, Note_on_c,0,40,127,
2,13217, Note_off_c,0,67,127,
2,13217, Note_off_c,0,70,127,
2,13219, Note_off_c,0,40,127,
2,13221, Note_on_c,0,40,127,
2,13221, Note_off_c,0,61,127,
2,13248, Note_on_c,0,71,127,
2,13249, Note_off_c,0,71,127,
2,13250, Note_on_c,0,37,127,
2,13251, Note_on_c,0,61,127,
2,13251, Note_off_c,0,37,127,
2,13259, Note_on_c,0,70,127,
2,13259, Note_off_c,0,61,127,
2,13260, Note_on_c,0,61,127,
2,13260, Note_off_c,0,70,127,
2,13265, Note_off_c,0,40,127,
2,13266, Note_on_c,0,68,127,
2,13266, Note_on_c,0,40,127,
2,13267, Note_off_c,0,68,127,
2,13267, Note_off_c,0,40,127,
2,13268, Note_on_c,0,64,127,
2,13269, Note_off_c,0,64,127,
2,13270, Note_on_c,0,64,127,
2,13270, Note_on_c,0,40,127,
2,13270, Note_off_c,0,61,127,
2,13271, Note_on_c,0,61,127,
2,13271, Note_on_c,0,37,127,
2,13271, Note_off_c,0,64,127,
2,13271, Note_off_c,0,40,127,
2,13272, Note_on_c,0,40,127,
2,13272, Note_off_c,0,37,127,
2,13273, Note_on_c,0,56,127,
2,13273, Note_off_c,0,61,127,
2,13274, Note_on_c,0,64,127,
2,13274, Note_off_c,0,56,127,
2,13275, Note_on_c,0,61,127,
2,13275, Note_off_c,0,64,127,
2,13280, Note_on_c,0,63,127,
2,13280, Note_off_c,0,61,127,
2,13281, Note_on_c,0,61,127,
2,13281, Note_off_c,0,63,127,
2,13285, Note_on_c,0,56,127,
2,13286, Note_off_c,0,56,127,
2,13288, Note_off_c,0,40,127,
2,13289, Note_on_c,0,40,127,
2,13290, Note_on_c,0,49,127,
2,13290, Note_off_c,0,40,127,
2,13291, Note_on_c,0,40,127,
2,13291, Note_on_c,0,70,127,
2,13291, Note_off_c,0,49,127,
2,13292, Note_off_c,0,70,127,
2,13296, Note_off_c,0,40,127,
2,13297, Note_on_c,0,40,127,
2,13308, Note_on_c,0,64,127,
2,13308, Note_off_c,0,61,127,
2,13309, Note_on_c,0,61,127,
2,13309, Note_on_c,0,28,127,
2,13309, Note_off_c,0,64,127,
2,13309, Note_off_c,0,40,127,
2,13310, Note_on_c,0,64,127,
2,13310, Note_on_c,0,40,127,
2,13310, Note_off_c,0,61,127,
2,13310, Note_off_c,0,28,127,
2,13311, Note_on_c,0,61,127,
2,13311, Note_off_c,0,64,127,
2,13313, Note_on_c,0,64,127,
2,13313, Note_off_c,0,61,127,
2,13314, Note_on_c,0,61,127,
2,13314, Note_off_c,0,64,127,
2,13321, Note_on_c,0,68,127,
2,13321, Note_off_c,0,61,127,
2,13322, Note_on_c,0,61,127,
2,13322, Note_off_c,0,68,127,
2,13344, Note_on_c,0,47,127,
2,13344, Note_off_c,0,40,127,
2,13345, Note_on_c,0,40,127,
2,13345, Note_off_c,0,47,127,
2,13346, Note_off_c,0,40,127,
2,13347, Note_on_c,0,40,127,
2,13389, Note_on_c,0,64,127,
2,13389, Note_off_c,0,61,127,
2,13390, Note_on_c,0,61,127,
2,13390, Note_off_c,0,64,127,
2,13397, Note_off_c,0,61,127,
2,13398, Note_on_c,0,61,127,
2,13398, Note_off_c,0,40,127,
2,13399, Note_on_c,0,40,127,
2,13425, Note_on_c,0,37,127,
2,13425, Note_off_c,0,40,127,
2,13426, Note_on_c,0,40,127,
2,13426, Note_off_c,0,37,127,
2,13427, Note_on_c,0,64,127,
2,13427, Note_off_c,0,61,127,
2,13428, Note_on_c,0,61,127,
2,13428, Note_off_c,0,64,127,
2,13433, Note_on_c,0,52,127,
2,13433, Note_off_c,0,61,127,
2,13434, Note_on_c,0,61,127,
2,13434, Note_off_c,0,52,127,
2,13436, Note_on_c,0,63,127,
2,13436, Note_off_c,0,61,127,
2,13437, Note_on_c,0,61,127,
2,13437, Note_off_c,0,63,127,
2,13439, Note_on_c,0,64,127,
2,13439, Note_off_c,0,61,127,
2,13440, Note_on_c,0,61,127,
2,13440, Note_off_c,0,64,127,
2,13454, Note_on_c,0,67,127,
2,13454, Note_off_c,0,61,127,
2,13455, Note_on_c,0,61,127,
2,13455, Note_off_c,0,67,127,
2,13461, Note_on_c,0,34,127,
2,13461, Note_off_c,0,40,127,
2,13462, Note_on_c,0,46,127,
2,13462, Note_off_c,0,34,127,
2,13463, Note_on_c,0,40,127,
2,13463, Note_off_c,0,46,127,
2,13470, Note_on_c,0,39,127,
2,13470, Note_off_c,0,40,127,
2,13471, Note_on_c,0,64,127,
2,13471, Note_on_c,0,40,127,
2,13471, Note_off_c,0,61,127,
2,13471, Note_off_c,0,39,127,
2,13472, Note_on_c,0,61,127,
2,13472, Note_off_c,0,64,127,
2,13476, Note_on_c,0,66,127,
2,13476, Note_off_c,0,61,127,
2,13477, Note_on_c,0,61,127,
2,13477, Note_off_c,0,66,127,
2,13501, Note_on_c,0,49,127,
2,13501, Note_off_c,0,40,127,
2,13502, Note_on_c,0,40,127,
2,13502, Note_off_c,0,49,127,
2,13519, Note_on_c,0,64,127,
2,13519, Note_off_c,0,61,127,
2,13520, Note_on_c,0,59,127,
2,13520, Note_off_c,0,64,127,
2,13521, Note_on_c,0,61,127,
2,13521, Note_off_c,0,59,127,
2,13524, Note_on_c,0,55,127,
2,13525, Note_off_c,0,55,127,
2,13526, Note_on_c,0,64,127,
2,13526, Note_on_c,0,66,127,
2,13526, Note_off_c,0,61,127,
2,13527, Note_on_c,0,61,127,
2,13527, Note_on_c,0,73,127,
2,13527, Note_off_c,0,64,127,
2,13527, Note_off_c,0,66,127,
2,13528, Note_off_c,0,73,127,
2,13529, Note_on_c,0,64,127,
2,13530, Note_off_c,0,64,127,
2,13535, Note_on_c,0,64,127,
2,13536, Note_off_c,0,64,127,
2,13537, Note_on_c,0,64,127,
2,13538, Note_off_c,0,64,127,
2,13542, Note_on_c,0,52,127,
2,13543, Note_off_c,0,52,127,
2,13549, Note_on_c,0,64,127,
2,13550, Note_on_c,0,71,127,
2,13550, Note_off_c,0,64,127,
2,13550, Note_off_c,0,40,127,
2,13551, Note_off_c,0,71,127,
2,13553, Note_on_c,0,40,127,
2,13586, Note_off_c,0,40,127,
2,13587, Note_on_c,0,40,127,
2,13593, Note_on_c,0,37,127,
2,13593, Note_off_c,0,61,127,
2,13594, Note_on_c,0,61,127,
2,13594, Note_off_c,0,40,127,
2,13594, Note_off_c,0,37,127,
2,13595, Note_on_c,0,40,127,
2,13596, Note_off_c,0,40,127,
2,13597, Note_on_c,0,40,127,
2,13602, Note_on_c,0,58,127,
2,13603, Note_off_c,0,58,127,
2,13607, Note_on_c,0,64,127,
2,13608, Note_off_c,0,64,127,
2,13609, Note_on_c,0,46,127,
2,13610, Note_off_c,0,46,127,
2,13611, Note_on_c,0,69,127,
2,13612, Note_off_c,0,69,127,
2,13613, Note_on_c,0,64,127,
2,13615, Note_off_c,0,64,127,
2,13618, Note_on_c,0,64,127,
2,13619, Note_on_c,0,58,127,
2,13619, Note_off_c,0,61,127,
2,13620, Note_on_c,0,61,127,
2,13620, Note_on_c,0,63,127,
2,13620, Note_off_c,0,64,127,
2,13620, Note_off_c,0,58,127,
2,13621, Note_off_c,0,63,127,
2,13622, Note_on_c,0,39,127,
2,13622, Note_off_c,0,40,127,
2,13623, Note_on_c,0,64,127,
2,13623, Note_on_c,0,40,127,
2,13623, Note_off_c,0,61,127,
2,13623, Note_off_c,0,39,127,
2,13624, Note_on_c,0,44,127,
2,13624, Note_on_c,0,61,127,
2,13624, Note_off_c,0,64,127,
2,13624, Note_off_c,0,40,127,
2,13625, Note_on_c,0,40,127,
2,13625, Note_off_c,0,44,127,
2,13633, Note_on_c,0,64,127,
2,13633, Note_off_c,0,61,127,
2,13634, Note_on_c,0,61,127,
2,13634, Note_off_c,0,64,127,
2,13635, Note_on_c,0,64,127,
2,13635, Note_off_c,0,61,127,
2,13637, Note_on_c,0,61,127,
2,13637, Note_off_c,0,64,127,
2,13681, Note_on_c,0,64,127,
2,13681, Note_off_c,0,61,127,
2,13682, Note_on_c,0,61,127,
2,13682, Note_on_c,0,56,127,
2,13682, Note_off_c,0,64,127,
2,13682, Note_off_c,0,40,127,
2,13683, Note_on_c,0,40,127,
2,13683, Note_off_c,0,56,127,
2,13684, Note_on_c,0,64,127,
2,13686, Note_off_c,0,64,127,
2,13687, Note_on_c,0,64,127,
2,13687, Note_on_c,0,39,127,
2,13687, Note_off_c,0,40,127,
2,13688, Note_on_c,0,63,127,
2,13688, Note_on_c,0,40,127,
2,13688, Note_off_c,0,61,127,
2,13688, Note_off_c,0,39,127,
2,13689, Note_on_c,0,61,127,
2,13689, Note_off_c,0,63,127,
2,13690, Note_off_c,0,64,127,
2,13692, Note_on_c,0,64,127,
2,13692, Note_on_c,0,68,127,
2,13692, Note_off_c,0,61,127,
2,13693, Note_on_c,0,61,127,
2,13693, Note_off_c,0,64,127,
2,13693, Note_off_c,0,68,127,
2,13694, Note_on_c,0,64,127,
2,13695, Note_off_c,0,64,127,
2,13705, Note_on_c,0,68,127,
2,13705, Note_off_c,0,61,127,
2,13706, Note_on_c,0,61,127,
2,13706, Note_off_c,0,68,127,
2,13714, Note_on_c,0,64,127,
2,13714, Note_off_c,0,61,127,
2,13716, Note_on_c,0,61,127,
2,13716, Note_off_c,0,64,127,
2,13732, Note_on_c,0,64,127,
2,13732, Note_off_c,0,61,127,
2,13733, Note_on_c,0,61,127,
2,13733, Note_off_c,0,64,127,
2,13749, Note_on_c,0,35,127,
2,13749, Note_off_c,0,40,127,
2,13750, Note_on_c,0,40,127,
2,13750, Note_off_c,0,35,127,
2,13751, Note_on_c,0,64,127,
2,13752, Note_off_c,0,64,127,
2,13754, Note_on_c,0,68,127,
2,13755, Note_off_c,0,68,127,
2,13756, Note_on_c,0,70,127,
2,13757, Note_on_c,0,64,127,
2,13757, Note_on_c,0,46,127,
2,13757, Note_off_c,0,61,127,
2,13757, Note_off_c,0,70,127,
2,13758, Note_on_c,0,61,127,
2,13758, Note_off_c,0,64,127,
2,13758, Note_off_c,0,46,127,
2,13759, Note_off_c,0,40,127,
2,13760, Note_on_c,0,40,127,
2,13761, Note_on_c,0,64,127,
2,13762, Note_off_c,0,64,127,
2,13763, Note_on_c,0,59,127,
2,13764, Note_on_c,0,52,127,
2,13764, Note_off_c,0,59,127,
2,13765, Note_off_c,0,52,127,
2,13767, Note_on_c,0,64,127,
2,13768, Note_on_c,0,58,127,
2,13768, Note_off_c,0,64,127,
2,13769, Note_on_c,0,36,127,
2,13769, Note_off_c,0,58,127,
2,13769, Note_off_c,0,40,127,
2,13770, Note_on_c,0,40,127,
2,13770, Note_off_c,0,36,127,
2,13773, Note_on_c,0,64,127,
2,13774, Note_off_c,0,64,127,
2,13776, Note_on_c,0,70,127,
2,13777, Note_off_c,0,70,127,
2,13781, Note_on_c,0,64,127,
2,13783, Note_off_c,0,64,127,
2,13784, Note_on_c,0,53,127,
2,13785, Note_on_c,0,64,127,
2,13785, Note_on_c,0,52,127,
2,13785, Note_off_c,0,53,127,
2,13785, Note_off_c,0,40,127,
2,13786, Note_on_c,0,40,127,
2,13786, Note_off_c,0,64,127,
2,13786, Note_off_c,0,52,127,
2,13789, Note_on_c,0,64,127,
2,13790, Note_off_c,0,64,127,
2,13811, Note_on_c,0,68,127,
2,13811, Note_off_c,0,61,127,
2,13812, Note_on_c,0,61,127,
2,13812, Note_off_c,0,68,127,
2,13835, Note_off_c,0,40,127,
2,13836, Note_on_c,0,40,127,
2,13839, Note_off_c,0,40,127,
2,13840, Note_on_c,0,40,127,
2,13844, Note_on_c,0,70,127,
2,13845, Note_on_c,0,66,127,
2,13845, Note_off_c,0,70,127,
2,13846, Note_off_c,0,66,127,
2,13851, Note_on_c,0,64,127,
2,13851, Note_off_c,0,61,127,
2,13852, Note_on_c,0,61,127,
2,13852, Note_off_c,0,64,127,
2,13853, Note_on_c,0,34,127,
2,13853, Note_off_c,0,40,127,
2,13854, Note_on_c,0,40,127,
2,13854, Note_off_c,0,34,127,
2,13857, Note_on_c,0,64,127,
2,13857, Note_on_c,0,58,127,
2,13857, Note_off_c,0,61,127,
2,13858, Note_on_c,0,61,127,
2,13858, Note_off_c,0,64,127,
2,13858, Note_off_c,0,58,127,
2,13859, Note_on_c,0,63,127,
2,13859, Note_off_c,0,61,127,
2,13860, Note_off_c,0,63,127,
2,13861, Note_on_c,0,61,127,
2,13876, Note_on_c,0,64,127,
2,13876, Note_off_c,0,61,127,
2,13877, Note_on_c,0,61,127,
2,13877, Note_off_c,0,64,127,
2,13884, Note_on_c,0,64,127,
2,13884, Note_off_c,0,61,127,
2,13885, Note_on_c,0,61,127,
2,13885, Note_off_c,0,64,127,
2,13898, Note_on_c,0,63,127,
2,13898, Note_off_c,0,61,127,
2,13899, Note_off_c,0,63,127,
2,13900, Note_on_c,0,61,127,
2,13906, Note_on_c,0,68,127,
2,13906, Note_off_c,0,61,127,
2,13907, Note_on_c,0,64,127,
2,13907, Note_off_c,0,68,127,
2,13908, Note_on_c,0,61,127,
2,13908, Note_on_c,0,37,127,
2,13908, Note_off_c,0,64,127,
2,13908, Note_off_c,0,40,127,
2,13909, Note_on_c,0,40,127,
2,13909, Note_off_c,0,37,127,
2,13917, Note_on_c,0,39,127,
2,13917, Note_off_c,0,40,127,
2,13918, Note_on_c,0,40,127,
2,13918, Note_off_c,0,39,127,
2,13919, Note_on_c,0,64,127,
2,13919, Note_off_c,0,61,127,
2,13920, Note_on_c,0,61,127,
2,13920, Note_off_c,0,64,127,
2,13928, Note_on_c,0,64,127,
2,13928, Note_off_c,0,61,127,
2,13929, Note_on_c,0,61,127,
2,13929, Note_off_c,0,64,127,
2,13937, Note_on_c,0,64,127,
2,13937, Note_off_c,0,61,127,
2,13938, Note_on_c,0,61,127,
2,13938, Note_off_c,0,64,127,
2,13945, Note_on_c,0,64,127,
2,13945, Note_off_c,0,61,127,
2,13946, Note_on_c,0,61,127,
2,13946, Note_off_c,0,64,127,
2,13955, Note_on_c,0,37,127,
2,13955, Note_off_c,0,40,127,
2,13956, Note_on_c,0,40,127,
2,13956, Note_off_c,0,37,127,
2,13978, Note_on_c,0,43,127,
2,13978, Note_off_c,0,40,127,
2,13979, Note_on_c,0,64,127,
2,13979, Note_on_c,0,40,127,
2,13979, Note_off_c,0,43,127,
2,13979, Note_off_c,0,61,127,
2,13980, Note_on_c,0,61,127,
2,13980, Note_off_c,0,64,127,
2,13985, Note_on_c,0,64,127,
2,13985, Note_off_c,0,61,127,
2,13986, Note_on_c,0,61,127,
2,13986, Note_off_c,0,64,127,
2,13990, Note_on_c,0,64,127,
2,13990, Note_off_c,0,61,127,
2,13991, Note_on_c,0,61,127,
2,13991, Note_off_c,0,64,127,
2,13993, Note_on_c,0,34,127,
2,13993, Note_off_c,0,40,127,
2,13994, Note_on_c,0,40,127,
2,13994, Note_off_c,0,34,127,
2,14002, Note_on_c,0,46,127,
2,14002, Note_off_c,0,40,127,
2,14003, Note_on_c,0,40,127,
2,14003, Note_off_c,0,46,127,
2,14014, Note_on_c,0,70,127,
2,14014, Note_off_c,0,61,127,
2,14015, Note_on_c,0,61,127,
2,14015, Note_off_c,0,70,127,
2,14022, Note_on_c,0,34,127,
2,14022, Note_off_c,0,40,127,
2,14023, Note_on_c,0,40,127,
2,14023, Note_off_c,0,34,127,
2,14034, Note_on_c,0,64,127,
2,14034, Note_off_c,0,61,127,
2,14035, Note_on_c,0,61,127,
2,14035, Note_off_c,0,64,127,
2,14042, Note_on_c,0,70,127,
2,14042, Note_off_c,0,61,127,
2,14043, Note_on_c,0,61,127,
2,14043, Note_off_c,0,70,127,
2,14044, Note_on_c,0,64,127,
2,14044, Note_off_c,0,61,127,
2,14045, Note_on_c,0,61,127,
2,14045, Note_off_c,0,64,127,
2,14046, Note_on_c,0,43,127,
2,14046, Note_off_c,0,40,127,
2,14047, Note_on_c,0,40,127,
2,14047, Note_off_c,0,43,127,
2,14062, Note_on_c,0,64,127,
2,14062, Note_off_c,0,61,127,
2,14063, Note_on_c,0,61,127,
2,14063, Note_on_c,0,46,127,
2,14063, Note_off_c,0,64,127,
2,14063, Note_off_c,0,40,127,
2,14064, Note_on_c,0,40,127,
2,14064, Note_off_c,0,46,127,
2,14080, Note_off_c,0,40,127,
2,14081, Note_on_c,0,40,127,
2,14093, Note_on_c,0,64,127,
2,14093, Note_off_c,0,40,127,
2,14094, Note_off_c,0,64,127,
2,14095, Note_on_c,0,40,127,
2,14096, Note_on_c,0,64,127,
2,14096, Note_off_c,0,61,127,
2,14097, Note_on_c,0,61,127,
2,14097, Note_off_c,0,64,127,
2,14114, Note_off_c,0,61,127,
2,14115, Note_on_c,0,64,127,
2,14116, Note_on_c,0,61,127,
2,14116, Note_off_c,0,64,127,
2,14121, Note_on_c,0,64,127,
2,14121, Note_off_c,0,61,127,
2,14122, Note_on_c,0,61,127,
2,14122, Note_off_c,0,64,127,
2,14138, Note_on_c,0,64,127,
2,14138, Note_off_c,0,61,127,
2,14139, Note_on_c,0,61,127,
2,14139, Note_off_c,0,64,127,
2,14141, Note_off_c,0,40,127,
2,14142, Note_on_c,0,40,127,
2,14151, Note_on_c,0,35,127,
2,14151, Note_off_c,0,40,127,
2,14152, Note_on_c,0,40,127,
2,14152, Note_off_c,0,35,127,
2,14156, Note_on_c,0,64,127,
2,14156, Note_off_c,0,61,127,
2,14157, Note_on_c,0,61,127,
2,14157, Note_off_c,0,64,127,
2,14167, Note_on_c,0,63,127,
2,14167, Note_off_c,0,61,127,
2,14168, Note_on_c,0,61,127,
2,14168, Note_off_c,0,63,127,
2,14184, Note_on_c,0,70,127,
2,14184, Note_off_c,0,61,127,
2,14185, Note_on_c,0,61,127,
2,14185, Note_off_c,0,70,127,
2,14188, Note_on_c,0,64,127,
2,14188, Note_off_c,0,61,127,
2,14190, Note_on_c,0,61,127,
2,14190, Note_off_c,0,64,127,
2,14193, Note_on_c,0,64,127,
2,14193, Note_off_c,0,61,127,
2,14194, Note_on_c,0,61,127,
2,14194, Note_on_c,0,39,127,
2,14194, Note_off_c,0,64,127,
2,14194, Note_off_c,0,40,127,
2,14195, Note_on_c,0,40,127,
2,14195, Note_off_c,0,39,127,
2,14205, Note_on_c,0,64,127,
2,14205, Note_off_c,0,61,127,
2,14206, Note_on_c,0,61,127,
2,14206, Note_off_c,0,64,127,
2,14213, Note_on_c,0,64,127,
2,14213, Note_off_c,0,61,127,
2,14214, Note_on_c,0,61,127,
2,14214, Note_off_c,0,64,127,
2,14215, Note_on_c,0,64,127,
2,14215, Note_off_c,0,61,127,
2,14216, Note_on_c,0,61,127,
2,14216, Note_off_c,0,64,127,
2,14218, Note_on_c,0,64,127,
2,14218, Note_off_c,0,61,127,
2,14219, Note_on_c,0,61,127,
2,14219, Note_off_c,0,64,127,
2,14220, Note_on_c,0,64,127,
2,14220, Note_off_c,0,61,127,
2,14221, Note_on_c,0,61,127,
2,14221, Note_on_c,0,56,127,
2,14221, Note_off_c,0,64,127,
2,14221, Note_off_c,0,40,127,
2,14222, Note_on_c,0,40,127,
2,14222, Note_off_c,0,56,127,
2,14227, Note_on_c,0,64,127,
2,14228, Note_off_c,0,64,127,
2,14231, Note_on_c,0,64,127,
2,14232, Note_off_c,0,64,127,
2,14233, Note_on_c,0,58,127,
2,14233, Note_off_c,0,61,127,
2,14234, Note_on_c,0,61,127,
2,14234, Note_off_c,0,58,127,
2,14240, Note_off_c,0,40,127,
2,14241, Note_on_c,0,40,127,
2,14249, Note_on_c,0,64,127,
2,14249, Note_off_c,0,61,127,
2,14250, Note_on_c,0,61,127,
2,14250, Note_off_c,0,64,127,
2,14252, Note_on_c,0,64,127,
2,14252, Note_off_c,0,61,127,
2,14253, Note_on_c,0,61,127,
2,14253, Note_off_c,0,64,127,
2,14259, Note_on_c,0,39,127,
2,14259, Note_off_c,0,40,127,
2,14260, Note_on_c,0,40,127,
2,14260, Note_off_c,0,39,127,
2,14274, Note_on_c,0,64,127,
2,14274, Note_off_c,0,61,127,
2,14275, Note_on_c,0,61,127,
2,14275, Note_off_c,0,64,127,
2,14282, Note_on_c,0,64,127,
2,14282, Note_off_c,0,61,127,
2,14283, Note_on_c,0,61,127,
2,14283, Note_off_c,0,64,127,
2,14290, Note_on_c,0,56,127,
2,14290, Note_off_c,0,61,127,
2,14291, Note_on_c,0,61,127,
2,14291, Note_off_c,0,56,127,
2,14298, Note_on_c,0,34,127,
2,14298, Note_off_c,0,40,127,
2,14299, Note_on_c,0,46,127,
2,14299, Note_off_c,0,34,127,
2,14300, Note_on_c,0,40,127,
2,14300, Note_off_c,0,46,127,
2,14305, Note_on_c,0,64,127,
2,14305, Note_off_c,0,61,127,
2,14306, Note_on_c,0,61,127,
2,14306, Note_off_c,0,64,127,
2,14312, Note_on_c,0,64,127,
2,14312, Note_off_c,0,61,127,
2,14313, Note_on_c,0,61,127,
2,14313, Note_off_c,0,64,127,
2,14327, Note_on_c,0,37,127,
2,14327, Note_off_c,0,40,127,
2,14328, Note_on_c,0,40,127,
2,14328, Note_off_c,0,37,127,
2,14333, Note_off_c,0,61,127,
2,14334, Note_on_c,0,61,127,
2,14334, Note_off_c,0,40,127,
2,14335, Note_on_c,0,40,127,
2,14335, Note_off_c,0,61,127,
2,14376, Note_on_c,0,66,127,
2,14376, Note_off_c,0,40,127,
2,14377, Note_on_c,0,40,127,
2,14377, Note_off_c,0,66,127,
2,14401, Note_on_c,0,37,127,
2,14401, Note_off_c,0,40,127,
2,14402, Note_on_c,0,40,127,
2,14402, Note_off_c,0,37,127,
2,14416, Note_on_c,0,37,127,
2,14416, Note_off_c,0,40,127,
2,14417, Note_on_c,0,40,127,
2,14417, Note_off_c,0,37,127,
2,14452, Note_on_c,0,37,127,
2,14452, Note_off_c,0,40,127,
2,14453, Note_on_c,0,40,127,
2,14453, Note_off_c,0,37,127,
2,14457, Note_on_c,0,61,127,
2,14459, Note_off_c,0,61,127,
2,14460, Note_on_c,0,56,127,
2,14462, Note_off_c,0,56,127,
2,14463, Note_on_c,0,61,127,
2,14464, Note_on_c,0,56,127,
2,14464, Note_off_c,0,61,127,
2,14465, Note_on_c,0,68,127,
2,14465, Note_off_c,0,56,127,
2,14466, Note_on_c,0,64,127,
2,14466, Note_off_c,0,68,127,
2,14467, Note_on_c,0,61,127,
2,14467, Note_off_c,0,64,127,
2,14468, Note_on_c,0,64,127,
2,14468, Note_off_c,0,61,127,
2,14469, Note_on_c,0,61,127,
2,14469, Note_on_c,0,47,127,
2,14469, Note_off_c,0,64,127,
2,14470, Note_on_c,0,34,127,
2,14470, Note_off_c,0,47,127,
2,14471, Note_on_c,0,64,127,
2,14471, Note_off_c,0,61,127,
2,14471, Note_off_c,0,34,127,
2,14472, Note_on_c,0,61,127,
2,14473, Note_off_c,0,64,127,
2,14475, Note_on_c,0,56,127,
2,14476, Note_on_c,0,64,127,
2,14476, Note_off_c,0,56,127,
2,14479, Note_off_c,0,64,127,
2,14480, Note_on_c,0,58,127,
2,14480, Note_on_c,0,68,127,
2,14480, Note_off_c,0,61,127,
2,14481, Note_on_c,0,61,127,
2,14481, Note_on_c,0,64,127,
2,14481, Note_off_c,0,58,127,
2,14481, Note_off_c,0,68,127,
2,14482, Note_on_c,0,56,127,
2,14482, Note_off_c,0,64,127,
2,14484, Note_off_c,0,56,127,
2,14485, Note_on_c,0,64,127,
2,14486, Note_on_c,0,49,127,
2,14486, Note_off_c,0,64,127,
2,14487, Note_on_c,0,58,127,
2,14487, Note_off_c,0,61,127,
2,14487, Note_off_c,0,49,127,
2,14488, Note_on_c,0,61,127,
2,14488, Note_off_c,0,58,127,
2,14490, Note_on_c,0,64,127,
2,14490, Note_off_c,0,61,127,
2,14491, Note_on_c,0,61,127,
2,14491, Note_off_c,0,64,127,
2,14509, Note_on_c,0,44,127,
2,14509, Note_off_c,0,40,127,
2,14510, Note_on_c,0,40,127,
2,14510, Note_off_c,0,44,127,
2,14526, Note_on_c,0,37,127,
2,14526, Note_off_c,0,40,127,
2,14527, Note_on_c,0,40,127,
2,14527, Note_off_c,0,37,127,
2,14528, Note_on_c,0,34,127,
2,14528, Note_off_c,0,40,127,
2,14529, Note_on_c,0,40,127,
2,14529, Note_off_c,0,34,127,
2,14532, Note_off_c,0,40,127,
2,14533, Note_on_c,0,40,127,
2,14534, Note_off_c,0,61,127,
2,14535, Note_on_c,0,61,127,
2,14535, Note_off_c,0,40,127,
2,14536, Note_on_c,0,40,127,
2,14536, Note_off_c,0,61,127,
2,14537, Note_on_c,0,61,127,
2,14537, Note_off_c,0,40,127,
2,14538, Note_on_c,0,40,127,
2,14538, Note_off_c,0,61,127,
2,14575, Note_on_c,0,37,127,
2,14575, Note_off_c,0,40,127,
2,14576, Note_on_c,0,40,127,
2,14576, Note_off_c,0,37,127,
2,14605, Note_on_c,0,44,127,
2,14605, Note_off_c,0,40,127,
2,14606, Note_on_c,0,40,127,
2,14606, Note_off_c,0,44,127,
2,14663, Note_on_c,0,71,127,
2,14664, Note_off_c,0,71,127,
2,14665, Note_on_c,0,61,127,
2,14666, Note_on_c,0,56,127,
2,14666, Note_off_c,0,61,127,
2,14667, Note_on_c,0,61,127,
2,14667, Note_off_c,0,56,127,
2,14668, Note_off_c,0,61,127,
2,14669, Note_on_c,0,61,127,
2,14669, Note_off_c,0,40,127,
2,14670, Note_on_c,0,37,127,
2,14671, Note_on_c,0,40,127,
2,14671, Note_on_c,0,56,127,
2,14671, Note_off_c,0,61,127,
2,14671, Note_off_c,0,37,127,
2,14672, Note_on_c,0,61,127,
2,14672, Note_off_c,0,56,127,
2,14673, Note_on_c,0,56,127,
2,14673, Note_off_c,0,61,127,
2,14674, Note_on_c,0,61,127,
2,14674, Note_off_c,0,56,127,
2,14675, Note_on_c,0,64,127,
2,14675, Note_off_c,0,61,127,
2,14676, Note_on_c,0,61,127,
2,14676, Note_off_c,0,64,127,
2,14684, Note_on_c,0,58,127,
2,14684, Note_off_c,0,61,127,
2,14685, Note_on_c,0,61,127,
2,14685, Note_off_c,0,58,127,
2,14699, Note_on_c,0,39,127,
2,14699, Note_off_c,0,40,127,
2,14700, Note_on_c,0,40,127,
2,14700, Note_off_c,0,39,127,
2,14704, Note_on_c,0,64,127,
2,14704, Note_off_c,0,61,127,
2,14706, Note_on_c,0,61,127,
2,14706, Note_off_c,0,64,127,
2,14713, Note_on_c,0,58,127,
2,14713, Note_off_c,0,61,127,
2,14714, Note_on_c,0,61,127,
2,14714, Note_off_c,0,58,127,
2,14740, Note_on_c,0,56,127,
2,14740, Note_off_c,0,40,127,
2,14741, Note_on_c,0,64,127,
2,14741, Note_on_c,0,40,127,
2,14741, Note_off_c,0,56,127,
2,14742, Note_off_c,0,64,127,
2,14749, Note_off_c,0,40,127,
2,14750, Note_on_c,0,40,127,
2,14755, Note_off_c,0,40,127,
2,14756, Note_on_c,0,40,127,
2,14757, Note_off_c,0,40,127,
2,14758, Note_on_c,0,64,127,
2,14758, Note_on_c,0,40,127,
2,14758, Note_off_c,0,61,127,
2,14759, Note_on_c,0,61,127,
2,14759, Note_off_c,0,64,127,
2,14764, Note_on_c,0,76,127,
2,14764, Note_off_c,0,61,127,
2,14765, Note_on_c,0,61,127,
2,14765, Note_off_c,0,76,127,
2,14779, Note_on_c,0,59,127,
2,14779, Note_off_c,0,61,127,
2,14780, Note_on_c,0,61,127,
2,14780, Note_off_c,0,59,127,
2,14784, Note_on_c,0,64,127,
2,14784, Note_off_c,0,61,127,
2,14785, Note_off_c,0,64,127,
2,14786, Note_on_c,0,64,127,
2,14786, Note_off_c,0,40,127,
2,14787, Note_on_c,0,61,127,
2,14787, Note_on_c,0,40,127,
2,14787, Note_off_c,0,64,127,
2,14789, Note_on_c,0,56,127,
2,14789, Note_off_c,0,61,127,
2,14790, Note_on_c,0,61,127,
2,14790, Note_off_c,0,56,127,
2,14791, Note_on_c,0,56,127,
2,14791, Note_off_c,0,61,127,
2,14792, Note_off_c,0,56,127,
2,14793, Note_on_c,0,56,127,
2,14793, Note_off_c,0,40,127,
2,14794, Note_on_c,0,40,127,
2,14794, Note_off_c,0,56,127,
2,14796, Note_on_c,0,47,127,
2,14796, Note_off_c,0,40,127,
2,14797, Note_on_c,0,40,127,
2,14797, Note_off_c,0,47,127,
2,14800, Note_on_c,0,59,127,
2,14800, Note_off_c,0,40,127,
2,14801, Note_on_c,0,40,127,
2,14801, Note_off_c,0,59,127,
2,14814, Note_on_c,0,37,127,
2,14814, Note_off_c,0,40,127,
2,14815, Note_on_c,0,40,127,
2,14815, Note_off_c,0,37,127,
2,14825, Note_on_c,0,61,127,
2,14825, Note_off_c,0,40,127,
2,14826, Note_on_c,0,40,127,
2,14830, Note_on_c,0,64,127,
2,14830, Note_off_c,0,61,127,
2,14831, Note_on_c,0,61,127,
2,14831, Note_off_c,0,64,127,
2,14869, Note_on_c,0,59,127,
2,14869, Note_off_c,0,61,127,
2,14870, Note_on_c,0,61,127,
2,14870, Note_off_c,0,59,127,
2,14875, Note_on_c,0,58,127,
2,14876, Note_off_c,0,58,127,
2,14878, Note_on_c,0,56,127,
2,14879, Note_on_c,0,63,127,
2,14879, Note_off_c,0,56,127,
2,14880, Note_off_c,0,63,127,
2,14884, Note_on_c,0,46,127,
2,14885, Note_off_c,0,46,127,
2,14888, Note_off_c,0,40,127,
2,14889, Note_on_c,0,40,127,
2,14898, Note_on_c,0,64,127,
2,14898, Note_off_c,0,61,127,
2,14899, Note_on_c,0,61,127,
2,14899, Note_off_c,0,64,127,
2,14901, Note_on_c,0,64,127,
2,14901, Note_off_c,0,61,127,
2,14902, Note_on_c,0,61,127,
2,14902, Note_off_c,0,64,127,
2,14918, Note_on_c,0,35,127,
2,14918, Note_off_c,0,40,127,
2,14919, Note_on_c,0,40,127,
2,14919, Note_off_c,0,35,127,
2,14935, Note_on_c,0,56,127,
2,14935, Note_off_c,0,61,127,
2,14936, Note_on_c,0,61,127,
2,14936, Note_off_c,0,56,127,
2,14939, Note_on_c,0,56,127,
2,14939, Note_off_c,0,61,127,
2,14940, Note_on_c,0,61,127,
2,14940, Note_off_c,0,56,127,
2,14942, Note_on_c,0,68,127,
2,14942, Note_off_c,0,61,127,
2,14943, Note_on_c,0,61,127,
2,14943, Note_on_c,0,67,127,
2,14943, Note_off_c,0,68,127,
2,14944, Note_off_c,0,67,127,
2,14946, Note_on_c,0,64,127,
2,14947, Note_on_c,0,58,127,
2,14947, Note_off_c,0,64,127,
2,14948, Note_on_c,0,66,127,
2,14948, Note_off_c,0,58,127,
2,14949, Note_off_c,0,66,127,
2,14954, Note_on_c,0,39,127,
2,14954, Note_off_c,0,40,127,
2,14955, Note_on_c,0,40,127,
2,14955, Note_off_c,0,39,127,
2,14957, Note_on_c,0,46,127,
2,14957, Note_off_c,0,40,127,
2,14958, Note_on_c,0,40,127,
2,14958, Note_off_c,0,46,127,
2,14959, Note_on_c,0,64,127,
2,14960, Note_off_c,0,64,127,
2,14961, Note_off_c,0,40,127,
2,14962, Note_on_c,0,40,127,
2,14963, Note_on_c,0,64,127,
2,14964, Note_on_c,0,70,127,
2,14964, Note_off_c,0,64,127,
2,14965, Note_off_c,0,70,127,
2,14970, Note_on_c,0,64,127,
2,14971, Note_off_c,0,64,127,
2,14973, Note_on_c,0,46,127,
2,14974, Note_off_c,0,46,127,
2,14978, Note_on_c,0,64,127,
2,14985, Note_off_c,0,64,127,
2,14988, Note_on_c,0,64,127,
2,14990, Note_off_c,0,64,127,
2,14993, Note_on_c,0,36,127,
2,14993, Note_off_c,0,40,127,
2,14994, Note_on_c,0,63,127,
2,14994, Note_on_c,0,40,127,
2,14994, Note_off_c,0,36,127,
2,14995, Note_off_c,0,63,127,
2,15000, Note_on_c,0,64,127,
2,15000, Note_off_c,0,61,127,
2,15001, Note_on_c,0,61,127,
2,15001, Note_off_c,0,64,127,
2,15010, Note_on_c,0,46,127,
2,15010, Note_off_c,0,40,127,
2,15011, Note_off_c,0,46,127,
2,15012, Note_on_c,0,40,127,
2,15014, Note_on_c,0,64,127,
2,15014, Note_off_c,0,61,127,
2,15015, Note_on_c,0,61,127,
2,15015, Note_off_c,0,64,127,
2,15022, Note_on_c,0,64,127,
2,15022, Note_on_c,0,34,127,
2,15022, Note_off_c,0,61,127,
2,15022, Note_off_c,0,40,127,
2,15023, Note_on_c,0,61,127,
2,15023, Note_on_c,0,40,127,
2,15023, Note_off_c,0,64,127,
2,15023, Note_off_c,0,34,127,
2,15024, Note_off_c,0,40,127,
2,15025, Note_on_c,0,40,127,
2,15026, Note_off_c,0,61,127,
2,15027, Note_off_c,0,40,127,
2,15028, Note_on_c,0,64,127,
2,15029, Note_on_c,0,40,127,
2,15029, Note_off_c,0,64,127,
2,15031, Note_on_c,0,39,127,
2,15031, Note_off_c,0,40,127,
2,15032, Note_on_c,0,40,127,
2,15032, Note_off_c,0,39,127,
2,15065, Note_on_c,0,56,127,
2,15065, Note_off_c,0,40,127,
2,15066, Note_on_c,0,40,127,
2,15066, Note_off_c,0,56,127,
2,15107, Note_on_c,0,37,127,
2,15107, Note_off_c,0,40,127,
2,15108, Note_on_c,0,40,127,
2,15108, Note_off_c,0,37,127,
2,15156, Note_on_c,0,37,127,
2,15156, Note_off_c,0,40,127,
2,15157, Note_on_c,0,40,127,
2,15157, Note_off_c,0,37,127,
2,15161, Note_on_c,0,56,127,
2,15161, Note_off_c,0,40,127,
2,15162, Note_on_c,0,40,127,
2,15162, Note_off_c,0,56,127,
2,15182, Note_on_c,0,71,127,
2,15183, Note_on_c,0,43,127,
2,15183, Note_off_c,0,71,127,
2,15184, Note_off_c,0,43,127,
2,15186, Note_on_c,0,68,127,
2,15188, Note_on_c,0,61,127,
2,15188, Note_off_c,0,68,127,
2,15189, Note_on_c,0,64,127,
2,15189, Note_off_c,0,61,127,
2,15190, Note_on_c,0,61,127,
2,15190, Note_off_c,0,64,127,
2,15191, Note_on_c,0,37,127,
2,15191, Note_off_c,0,40,127,
2,15192, Note_on_c,0,40,127,
2,15192, Note_off_c,0,37,127,
2,15207, Note_on_c,0,64,127,
2,15207, Note_off_c,0,61,127,
2,15208, Note_on_c,0,61,127,
2,15208, Note_off_c,0,64,127,
2,15209, Note_on_c,0,67,127,
2,15209, Note_off_c,0,61,127,
2,15209, Note_off_c,0,40,127,
2,15210, Note_on_c,0,64,127,
2,15210, Note_on_c,0,40,127,
2,15210, Note_off_c,0,67,127,
2,15212, Note_on_c,0,61,127,
2,15212, Note_off_c,0,64,127,
2,15234, Note_on_c,0,64,127,
2,15234, Note_off_c,0,61,127,
2,15235, Note_on_c,0,61,127,
2,15235, Note_off_c,0,64,127,
2,15237, Note_on_c,0,56,127,
2,15237, Note_off_c,0,40,127,
2,15238, Note_on_c,0,40,127,
2,15238, Note_off_c,0,56,127,
2,15242, Note_on_c,0,43,127,
2,15242, Note_on_c,0,56,127,
2,15242, Note_off_c,0,61,127,
2,15242, Note_off_c,0,40,127,
2,15243, Note_on_c,0,61,127,
2,15243, Note_on_c,0,40,127,
2,15243, Note_off_c,0,43,127,
2,15243, Note_off_c,0,56,127,
2,15250, Note_on_c,0,70,127,
2,15250, Note_off_c,0,61,127,
2,15251, Note_on_c,0,61,127,
2,15251, Note_off_c,0,70,127,
2,15256, Note_off_c,0,40,127,
2,15257, Note_on_c,0,40,127,
2,15268, Note_on_c,0,64,127,
2,15269, Note_off_c,0,64,127,
2,15271, Note_off_c,0,40,127,
2,15272, Note_on_c,0,40,127,
2,15273, Note_on_c,0,64,127,
2,15275, Note_on_c,0,52,127,
2,15275, Note_off_c,0,64,127,
2,15276, Note_off_c,0,52,127,
2,15277, Note_on_c,0,66,127,
2,15278, Note_off_c,0,66,127,
2,15279, Note_on_c,0,58,127,
2,15279, Note_off_c,0,40,127,
2,15280, Note_off_c,0,58,127,
2,15281, Note_on_c,0,40,127,
2,15283, Note_on_c,0,39,127,
2,15283, Note_off_c,0,40,127,
2,15284, Note_on_c,0,40,127,
2,15284, Note_off_c,0,39,127,
2,15291, Note_on_c,0,68,127,
2,15291, Note_off_c,0,61,127,
2,15292, Note_on_c,0,61,127,
2,15292, Note_off_c,0,68,127,
2,15294, Note_on_c,0,58,127,
2,15294, Note_off_c,0,61,127,
2,15295, Note_on_c,0,61,127,
2,15295, Note_off_c,0,58,127,
2,15299, Note_on_c,0,64,127,
2,15299, Note_off_c,0,61,127,
2,15300, Note_on_c,0,61,127,
2,15300, Note_off_c,0,64,127,
2,15305, Note_on_c,0,58,127,
2,15305, Note_off_c,0,61,127,
2,15306, Note_on_c,0,64,127,
2,15306, Note_off_c,0,58,127,
2,15307, Note_on_c,0,58,127,
2,15307, Note_off_c,0,64,127,
2,15308, Note_on_c,0,61,127,
2,15308, Note_off_c,0,58,127,
2,15325, Note_on_c,0,63,127,
2,15325, Note_on_c,0,49,127,
2,15325, Note_off_c,0,61,127,
2,15325, Note_off_c,0,40,127,
2,15326, Note_on_c,0,61,127,
2,15326, Note_on_c,0,40,127,
2,15326, Note_off_c,0,63,127,
2,15326, Note_off_c,0,49,127,
2,15329, Note_on_c,0,64,127,
2,15329, Note_off_c,0,61,127,
2,15330, Note_on_c,0,61,127,
2,15330, Note_off_c,0,64,127,
2,15351, Note_on_c,0,63,127,
2,15351, Note_off_c,0,61,127,
2,15352, Note_on_c,0,61,127,
2,15352, Note_off_c,0,63,127,
2,15368, Note_off_c,0,61,127,
2,15369, Note_on_c,0,61,127,
2,15380, Note_on_c,0,64,127,
2,15380, Note_off_c,0,61,127,
2,15381, Note_on_c,0,61,127,
2,15381, Note_off_c,0,64,127,
2,15387, Note_on_c,0,76,127,
2,15387, Note_off_c,0,61,127,
2,15387, Note_off_c,0,40,127,
2,15388, Note_on_c,0,61,127,
2,15388, Note_on_c,0,68,127,
2,15388, Note_off_c,0,76,127,
2,15389, Note_on_c,0,64,127,
2,15389, Note_on_c,0,40,127,
2,15389, Note_on_c,0,70,127,
2,15389, Note_off_c,0,61,127,
2,15389, Note_off_c,0,68,127,
2,15390, Note_on_c,0,61,127,
2,15390, Note_off_c,0,64,127,
2,15390, Note_off_c,0,70,127,
2,15391, Note_on_c,0,64,127,
2,15392, Note_on_c,0,39,127,
2,15392, Note_off_c,0,64,127,
2,15392, Note_off_c,0,40,127,
2,15393, Note_on_c,0,64,127,
2,15393, Note_on_c,0,40,127,
2,15393, Note_off_c,0,39,127,
2,15394, Note_off_c,0,64,127,
2,15398, Note_on_c,0,64,127,
2,15398, Note_on_c,0,37,127,
2,15398, Note_off_c,0,40,127,
2,15399, Note_on_c,0,40,127,
2,15399, Note_off_c,0,64,127,
2,15399, Note_off_c,0,37,127,
2,15400, Note_on_c,0,64,127,
2,15401, Note_off_c,0,64,127,
2,15403, Note_on_c,0,43,127,
2,15403, Note_off_c,0,40,127,
2,15404, Note_on_c,0,40,127,
2,15404, Note_off_c,0,43,127,
2,15405, Note_on_c,0,58,127,
2,15406, Note_on_c,0,64,127,
2,15406, Note_off_c,0,58,127,
2,15407, Note_off_c,0,64,127,
2,15410, Note_on_c,0,64,127,
2,15411, Note_off_c,0,64,127,
2,15414, Note_off_c,0,40,127,
2,15415, Note_on_c,0,40,127,
2,15418, Note_on_c,0,64,127,
2,15418, Note_off_c,0,61,127,
2,15419, Note_on_c,0,61,127,
2,15419, Note_off_c,0,64,127,
2,15427, Note_on_c,0,43,127,
2,15427, Note_off_c,0,40,127,
2,15428, Note_on_c,0,40,127,
2,15428, Note_off_c,0,43,127,
2,15459, Note_on_c,0,46,127,
2,15459, Note_off_c,0,40,127,
2,15460, Note_on_c,0,40,127,
2,15460, Note_off_c,0,46,127,
2,15462, Note_on_c,0,64,127,
2,15462, Note_off_c,0,61,127,
2,15463, Note_on_c,0,61,127,
2,15463, Note_off_c,0,64,127,
2,15463, Note_off_c,0,40,127,
2,15464, Note_on_c,0,40,127,
2,15471, Note_on_c,0,64,127,
2,15471, Note_off_c,0,61,127,
2,15472, Note_on_c,0,61,127,
2,15472, Note_off_c,0,64,127,
2,15476, Note_on_c,0,34,127,
2,15476, Note_off_c,0,40,127,
2,15477, Note_on_c,0,40,127,
2,15477, Note_off_c,0,34,127,
2,15484, Note_on_c,0,76,127,
2,15484, Note_off_c,0,61,127,
2,15485, Note_on_c,0,61,127,
2,15485, Note_off_c,0,76,127,
2,15486, Note_on_c,0,44,127,
2,15486, Note_off_c,0,40,127,
2,15487, Note_on_c,0,40,127,
2,15487, Note_off_c,0,44,127,
2,15489, Note_on_c,0,63,127,
2,15489, Note_off_c,0,61,127,
2,15490, Note_on_c,0,61,127,
2,15490, Note_off_c,0,63,127,
2,15500, Note_on_c,0,37,127,
2,15500, Note_off_c,0,40,127,
2,15501, Note_on_c,0,40,127,
2,15501, Note_off_c,0,37,127,
2,15504, Note_on_c,0,64,127,
2,15504, Note_off_c,0,61,127,
2,15505, Note_on_c,0,61,127,
2,15505, Note_off_c,0,64,127,
2,15508, Note_on_c,0,37,127,
2,15508, Note_off_c,0,40,127,
2,15509, Note_off_c,0,37,127,
2,15510, Note_on_c,0,58,127,
2,15510, Note_on_c,0,40,127,
2,15510, Note_off_c,0,61,127,
2,15511, Note_on_c,0,61,127,
2,15511, Note_off_c,0,58,127,
2,15520, Note_on_c,0,37,127,
2,15520, Note_off_c,0,40,127,
2,15521, Note_on_c,0,40,127,
2,15521, Note_off_c,0,37,127,
2,15532, Note_on_c,0,64,127,
2,15532, Note_off_c,0,61,127,
2,15533, Note_on_c,0,61,127,
2,15533, Note_off_c,0,64,127,
2,15567, Note_on_c,0,64,127,
2,15567, Note_off_c,0,61,127,
2,15568, Note_on_c,0,61,127,
2,15568, Note_off_c,0,64,127,
2,15570, Note_off_c,0,61,127,
2,15571, Note_on_c,0,61,127,
2,15589, Note_on_c,0,68,127,
2,15589, Note_off_c,0,61,127,
2,15590, Note_on_c,0,61,127,
2,15590, Note_on_c,0,37,127,
2,15590, Note_off_c,0,68,127,
2,15590, Note_off_c,0,40,127,
2,15591, Note_on_c,0,64,127,
2,15591, Note_on_c,0,40,127,
2,15591, Note_off_c,0,61,127,
2,15591, Note_off_c,0,37,127,
2,15592, Note_on_c,0,61,127,
2,15592, Note_off_c,0,64,127,
2,15601, Note_on_c,0,37,127,
2,15601, Note_off_c,0,40,127,
2,15602, Note_on_c,0,40,127,
2,15602, Note_off_c,0,37,127,
2,15608, Note_on_c,0,64,127,
2,15608, Note_off_c,0,61,127,
2,15609, Note_on_c,0,61,127,
2,15609, Note_off_c,0,64,127,
2,15610, Note_on_c,0,73,127,
2,15610, Note_off_c,0,61,127,
2,15611, Note_on_c,0,61,127,
2,15611, Note_off_c,0,73,127,
2,15612, Note_on_c,0,64,127,
2,15613, Note_off_c,0,64,127,
2,15616, Note_on_c,0,64,127,
2,15616, Note_off_c,0,61,127,
2,15617, Note_on_c,0,61,127,
2,15617, Note_off_c,0,64,127,
2,15617, Note_off_c,0,40,127,
2,15618, Note_on_c,0,40,127,
2,15622, Note_on_c,0,64,127,
2,15622, Note_off_c,0,61,127,
2,15623, Note_on_c,0,61,127,
2,15623, Note_off_c,0,64,127,
2,15629, Note_on_c,0,64,127,
2,15629, Note_off_c,0,61,127,
2,15630, Note_on_c,0,61,127,
2,15630, Note_off_c,0,64,127,
2,15631, Note_on_c,0,39,127,
2,15631, Note_off_c,0,40,127,
2,15632, Note_on_c,0,40,127,
2,15632, Note_off_c,0,39,127,
2,15636, Note_on_c,0,64,127,
2,15636, Note_off_c,0,61,127,
2,15637, Note_on_c,0,61,127,
2,15637, Note_off_c,0,64,127,
2,15638, Note_off_c,0,61,127,
2,15639, Note_on_c,0,61,127,
2,15639, Note_off_c,0,40,127,
2,15640, Note_on_c,0,40,127,
2,15641, Note_on_c,0,58,127,
2,15641, Note_off_c,0,61,127,
2,15642, Note_on_c,0,61,127,
2,15642, Note_off_c,0,58,127,
2,15652, Note_on_c,0,64,127,
2,15652, Note_off_c,0,61,127,
2,15653, Note_on_c,0,61,127,
2,15653, Note_off_c,0,64,127,
2,15663, Note_off_c,0,40,127,
2,15664, Note_on_c,0,40,127,
2,15665, Note_on_c,0,46,127,
2,15666, Note_off_c,0,46,127,
2,15675, Note_on_c,0,39,127,
2,15675, Note_off_c,0,40,127,
2,15676, Note_on_c,0,40,127,
2,15676, Note_off_c,0,39,127,
2,15682, Note_on_c,0,64,127,
2,15682, Note_off_c,0,61,127,
2,15683, Note_on_c,0,61,127,
2,15683, Note_off_c,0,64,127,
2,15684, Note_on_c,0,56,127,
2,15684, Note_off_c,0,61,127,
2,15685, Note_on_c,0,61,127,
2,15685, Note_off_c,0,56,127,
2,15690, Note_on_c,0,58,127,
2,15690, Note_off_c,0,61,127,
2,15691, Note_on_c,0,61,127,
2,15691, Note_off_c,0,58,127,
2,15698, Note_on_c,0,64,127,
2,15698, Note_off_c,0,61,127,
2,15699, Note_on_c,0,61,127,
2,15699, Note_off_c,0,64,127,
2,15704, Note_off_c,0,61,127,
2,15705, Note_on_c,0,61,127,
2,15709, Note_on_c,0,64,127,
2,15709, Note_off_c,0,61,127,
2,15710, Note_on_c,0,61,127,
2,15710, Note_off_c,0,64,127,
2,15722, Note_off_c,0,40,127,
2,15723, Note_on_c,0,71,127,
2,15723, Note_on_c,0,40,127,
2,15724, Note_on_c,0,64,127,
2,15724, Note_off_c,0,71,127,
2,15725, Note_off_c,0,64,127,
2,15726, Note_off_c,0,40,127,
2,15727, Note_on_c,0,40,127,
2,15739, Note_on_c,0,64,127,
2,15739, Note_off_c,0,61,127,
2,15740, Note_on_c,0,59,127,
2,15740, Note_off_c,0,64,127,
2,15741, Note_on_c,0,64,127,
2,15741, Note_off_c,0,59,127,
2,15742, Note_on_c,0,61,127,
2,15742, Note_on_c,0,56,127,
2,15742, Note_off_c,0,64,127,
2,15744, Note_off_c,0,56,127,
2,15745, Note_on_c,0,56,127,
2,15747, Note_off_c,0,56,127,
2,15748, Note_on_c,0,56,127,
2,15749, Note_off_c,0,56,127,
2,15750, Note_off_c,0,40,127,
2,15751, Note_on_c,0,40,127,
2,15752, Note_on_c,0,56,127,
2,15753, Note_on_c,0,64,127,
2,15753, Note_off_c,0,56,127,
2,15754, Note_off_c,0,64,127,
2,15757, Note_on_c,0,64,127,
2,15757, Note_off_c,0,61,127,
2,15757, Note_off_c,0,40,127,
2,15758, Note_on_c,0,61,127,
2,15758, Note_on_c,0,40,127,
2,15758, Note_off_c,0,64,127,
2,15759, Note_on_c,0,37,127,
2,15759, Note_off_c,0,40,127,
2,15760, Note_on_c,0,40,127,
2,15760, Note_off_c,0,37,127,
2,15763, Note_on_c,0,64,127,
2,15763, Note_off_c,0,61,127,
2,15764, Note_on_c,0,61,127,
2,15764, Note_off_c,0,64,127,
2,15774, Note_off_c,0,61,127,
2,15775, Note_on_c,0,61,127,
2,15787, Note_on_c,0,63,127,
2,15787, Note_off_c,0,61,127,
2,15788, Note_on_c,0,61,127,
2,15788, Note_off_c,0,63,127,
2,15789, Note_on_c,0,66,127,
2,15790, Note_off_c,0,61,127,
2,15790, Note_off_c,0,66,127,
2,15791, Note_on_c,0,61,127,
2,15791, Note_off_c,0,40,127,
2,15792, Note_on_c,0,40,127,
2,15795, Note_on_c,0,70,127,
2,15795, Note_off_c,0,61,127,
2,15796, Note_on_c,0,61,127,
2,15796, Note_on_c,0,46,127,
2,15796, Note_off_c,0,40,127,
2,15796, Note_off_c,0,70,127,
2,15797, Note_on_c,0,40,127,
2,15797, Note_off_c,0,46,127,
2,15798, Note_on_c,0,58,127,
2,15798, Note_off_c,0,61,127,
2,15799, Note_on_c,0,61,127,
2,15799, Note_off_c,0,58,127,
2,15814, Note_on_c,0,64,127,
2,15814, Note_off_c,0,61,127,
2,15815, Note_on_c,0,61,127,
2,15815, Note_off_c,0,64,127,
2,15819, Note_on_c,0,64,127,
2,15819, Note_off_c,0,61,127,
2,15820, Note_on_c,0,61,127,
2,15820, Note_off_c,0,64,127,
2,15835, Note_on_c,0,56,127,
2,15835, Note_off_c,0,61,127,
2,15836, Note_on_c,0,61,127,
2,15836, Note_off_c,0,56,127,
2,15860, Note_on_c,0,64,127,
2,15860, Note_off_c,0,61,127,
2,15861, Note_on_c,0,61,127,
2,15861, Note_off_c,0,64,127,
2,15864, Note_on_c,0,56,127,
2,15864, Note_off_c,0,61,127,
2,15865, Note_on_c,0,61,127,
2,15865, Note_off_c,0,56,127,
2,15883, Note_on_c,0,64,127,
2,15883, Note_off_c,0,61,127,
2,15885, Note_on_c,0,61,127,
2,15885, Note_off_c,0,64,127,
2,15888, Note_on_c,0,64,127,
2,15888, Note_off_c,0,61,127,
2,15889, Note_on_c,0,61,127,
2,15889, Note_off_c,0,64,127,
2,15913, Note_on_c,0,56,127,
2,15913, Note_off_c,0,61,127,
2,15914, Note_on_c,0,61,127,
2,15914, Note_on_c,0,39,127,
2,15914, Note_off_c,0,40,127,
2,15914, Note_off_c,0,56,127,
2,15915, Note_on_c,0,40,127,
2,15915, Note_off_c,0,39,127,
2,15930, Note_on_c,0,39,127,
2,15930, Note_off_c,0,40,127,
2,15931, Note_on_c,0,40,127,
2,15931, Note_off_c,0,39,127,
2,15939, Note_on_c,0,37,127,
2,15939, Note_off_c,0,40,127,
2,15940, Note_on_c,0,40,127,
2,15940, Note_off_c,0,37,127,
2,15959, Note_on_c,0,56,127,
2,15959, Note_off_c,0,61,127,
2,15960, Note_on_c,0,61,127,
2,15960, Note_off_c,0,56,127,
2,15962, Note_on_c,0,49,127,
2,15963, Note_on_c,0,64,127,
2,15963, Note_off_c,0,61,127,
2,15963, Note_off_c,0,49,127,
2,15964, Note_on_c,0,61,127,
2,15964, Note_off_c,0,64,127,
2,15972, Note_on_c,0,64,127,
2,15972, Note_off_c,0,61,127,
2,15973, Note_on_c,0,61,127,
2,15973, Note_off_c,0,64,127,
2,15976, Note_on_c,0,64,127,
2,15976, Note_off_c,0,61,127,
2,15977, Note_on_c,0,61,127,
2,15977, Note_off_c,0,40,127,
2,15978, Note_on_c,0,40,127,
2,15978, Note_off_c,0,64,127,
2,15980, Note_on_c,0,64,127,
2,15981, Note_off_c,0,64,127,
2,15982, Note_on_c,0,70,127,
2,15983, Note_on_c,0,64,127,
2,15983, Note_off_c,0,70,127,
2,15984, Note_off_c,0,64,127,
2,15989, Note_on_c,0,64,127,
2,15991, Note_on_c,0,58,127,
2,15991, Note_off_c,0,64,127,
2,15992, Note_on_c,0,56,127,
2,15992, Note_off_c,0,58,127,
2,15993, Note_off_c,0,56,127,
2,16004, Note_on_c,0,58,127,
2,16005, Note_off_c,0,58,127,
2,16009, Note_off_c,0,40,127,
2,16011, Note_on_c,0,40,127,
2,16012, Note_on_c,0,64,127,
2,16012, Note_off_c,0,61,127,
2,16013, Note_on_c,0,61,127,
2,16013, Note_off_c,0,64,127,
2,16014, Note_off_c,0,40,127,
2,16015, Note_on_c,0,40,127,
2,16016, Note_off_c,0,61,127,
2,16017, Note_on_c,0,61,127,
2,16017, Note_off_c,0,40,127,
2,16018, Note_on_c,0,40,127,
2,16018, Note_off_c,0,61,127,
2,16044, Note_on_c,0,71,127,
2,16045, Note_off_c,0,71,127,
2,16046, Note_on_c,0,64,127,
2,16047, Note_on_c,0,61,127,
2,16047, Note_on_c,0,46,127,
2,16047, Note_off_c,0,64,127,
2,16048, Note_off_c,0,46,127,
2,16050, Note_on_c,0,49,127,
2,16051, Note_on_c,0,64,127,
2,16051, Note_on_c,0,56,127,
2,16051, Note_off_c,0,61,127,
2,16051, Note_off_c,0,49,127,
2,16052, Note_on_c,0,71,127,
2,16052, Note_on_c,0,61,127,
2,16052, Note_off_c,0,64,127,
2,16052, Note_off_c,0,56,127,
2,16053, Note_on_c,0,64,127,
2,16053, Note_off_c,0,71,127,
2,16053, Note_off_c,0,61,127,
2,16055, Note_on_c,0,61,127,
2,16055, Note_off_c,0,64,127,
2,16058, Note_off_c,0,61,127,
2,16059, Note_on_c,0,61,127,
2,16060, Note_on_c,0,56,127,
2,16060, Note_off_c,0,61,127,
2,16061, Note_on_c,0,46,127,
2,16061, Note_off_c,0,56,127,
2,16062, Note_on_c,0,56,127,
2,16062, Note_off_c,0,46,127,
2,16063, Note_on_c,0,39,127,
2,16063, Note_off_c,0,56,127,
2,16064, Note_off_c,0,39,127,
2,16066, Note_on_c,0,63,127,
2,16067, Note_on_c,0,61,127,
2,16067, Note_on_c,0,49,127,
2,16067, Note_off_c,0,63,127,
2,16069, Note_off_c,0,49,127,
2,16071, Note_on_c,0,64,127,
2,16071, Note_off_c,0,61,127,
2,16073, Note_on_c,0,59,127,
2,16073, Note_off_c,0,64,127,
2,16074, Note_on_c,0,61,127,
2,16074, Note_off_c,0,59,127,
2,16075, Note_on_c,0,64,127,
2,16076, Note_on_c,0,56,127,
2,16076, Note_off_c,0,64,127,
2,16077, Note_on_c,0,64,127,
2,16077, Note_off_c,0,61,127,
2,16077, Note_off_c,0,56,127,
2,16078, Note_on_c,0,61,127,
2,16078, Note_off_c,0,64,127,
2,16079, Note_on_c,0,52,127,
2,16079, Note_off_c,0,61,127,
2,16080, Note_on_c,0,68,127,
2,16080, Note_off_c,0,52,127,
2,16081, Note_on_c,0,58,127,
2,16081, Note_off_c,0,68,127,
2,16082, Note_on_c,0,61,127,
2,16082, Note_off_c,0,58,127,
2,16089, Note_on_c,0,59,127,
2,16089, Note_off_c,0,61,127,
2,16090, Note_on_c,0,61,127,
2,16090, Note_off_c,0,59,127,
2,16092, Note_on_c,0,63,127,
2,16092, Note_off_c,0,61,127,
2,16093, Note_off_c,0,63,127,
2,16094, Note_on_c,0,61,127,
2,16097, Note_on_c,0,68,127,
2,16097, Note_off_c,0,61,127,
2,16098, Note_on_c,0,61,127,
2,16098, Note_off_c,0,68,127,
2,16099, Note_on_c,0,70,127,
2,16099, Note_off_c,0,61,127,
2,16100, Note_on_c,0,61,127,
2,16100, Note_off_c,0,70,127,
2,16118, Note_off_c,0,40,127,
2,16119, Note_on_c,0,40,127,
2,16120, Note_on_c,0,39,127,
2,16120, Note_off_c,0,40,127,
2,16121, Note_on_c,0,40,127,
2,16121, Note_off_c,0,39,127,
2,16122, Note_on_c,0,70,127,
2,16122, Note_off_c,0,61,127,
2,16122, Note_off_c,0,40,127,
2,16123, Note_on_c,0,61,127,
2,16123, Note_on_c,0,40,127,
2,16123, Note_off_c,0,70,127,
2,16140, Note_on_c,0,64,127,
2,16140, Note_off_c,0,61,127,
2,16141, Note_on_c,0,61,127,
2,16141, Note_off_c,0,64,127,
2,16148, Note_on_c,0,64,127,
2,16148, Note_off_c,0,61,127,
2,16150, Note_on_c,0,61,127,
2,16150, Note_off_c,0,64,127,
2,16152, Note_on_c,0,64,127,
2,16152, Note_off_c,0,61,127,
2,16153, Note_on_c,0,61,127,
2,16153, Note_off_c,0,64,127,
2,16160, Note_on_c,0,64,127,
2,16160, Note_off_c,0,61,127,
2,16161, Note_on_c,0,61,127,
2,16161, Note_off_c,0,64,127,
2,16162, Note_on_c,0,58,127,
2,16162, Note_off_c,0,61,127,
2,16163, Note_on_c,0,67,127,
2,16163, Note_off_c,0,58,127,
2,16164, Note_on_c,0,58,127,
2,16164, Note_off_c,0,67,127,
2,16165, Note_on_c,0,61,127,
2,16165, Note_off_c,0,58,127,
2,16167, Note_on_c,0,64,127,
2,16167, Note_off_c,0,61,127,
2,16168, Note_on_c,0,61,127,
2,16168, Note_off_c,0,64,127,
2,16171, Note_on_c,0,64,127,
2,16171, Note_off_c,0,61,127,
2,16172, Note_on_c,0,61,127,
2,16172, Note_off_c,0,64,127,
2,16173, Note_on_c,0,64,127,
2,16173, Note_off_c,0,61,127,
2,16174, Note_on_c,0,61,127,
2,16174, Note_off_c,0,64,127,
2,16184, Note_on_c,0,46,127,
2,16184, Note_off_c,0,61,127,
2,16185, Note_on_c,0,61,127,
2,16185, Note_off_c,0,46,127,
2,16192, Note_on_c,0,68,127,
2,16192, Note_off_c,0,61,127,
2,16193, Note_on_c,0,61,127,
2,16193, Note_off_c,0,68,127,
2,16195, Note_on_c,0,64,127,
2,16195, Note_off_c,0,61,127,
2,16196, Note_on_c,0,61,127,
2,16196, Note_off_c,0,64,127,
2,16203, Note_on_c,0,64,127,
2,16203, Note_off_c,0,61,127,
2,16204, Note_on_c,0,61,127,
2,16204, Note_off_c,0,64,127,
2,16206, Note_on_c,0,64,127,
2,16206, Note_off_c,0,61,127,
2,16207, Note_on_c,0,49,127,
2,16207, Note_off_c,0,64,127,
2,16208, Note_on_c,0,61,127,
2,16208, Note_off_c,0,49,127,
2,16214, Note_on_c,0,63,127,
2,16214, Note_off_c,0,61,127,
2,16215, Note_off_c,0,63,127,
2,16216, Note_on_c,0,61,127,
2,16221, Note_on_c,0,44,127,
2,16221, Note_off_c,0,61,127,
2,16222, Note_off_c,0,44,127,
2,16226, Note_on_c,0,43,127,
2,16226, Note_off_c,0,40,127,
2,16227, Note_on_c,0,40,127,
2,16227, Note_off_c,0,43,127,
2,16245, Note_on_c,0,37,127,
2,16245, Note_off_c,0,40,127,
2,16246, Note_on_c,0,40,127,
2,16246, Note_off_c,0,37,127,
2,16275, Note_on_c,0,61,127,
2,16275, Note_off_c,0,40,127,
2,16276, Note_on_c,0,40,127,
2,16277, Note_off_c,0,61,127,
2,16284, Note_on_c,0,43,127,
2,16284, Note_off_c,0,40,127,
2,16285, Note_on_c,0,40,127,
2,16285, Note_off_c,0,43,127,
2,16291, Note_on_c,0,37,127,
2,16291, Note_off_c,0,40,127,
2,16292, Note_on_c,0,40,127,
2,16292, Note_off_c,0,37,127,
2,16296, Note_on_c,0,71,127,
2,16297, Note_off_c,0,71,127,
2,16298, Note_on_c,0,56,127,
2,16300, Note_on_c,0,64,127,
2,16300, Note_off_c,0,56,127,
2,16301, Note_on_c,0,47,127,
2,16301, Note_off_c,0,64,127,
2,16302, Note_on_c,0,61,127,
2,16302, Note_off_c,0,47,127,
2,16303, Note_on_c,0,64,127,
2,16303, Note_off_c,0,61,127,
2,16304, Note_on_c,0,56,127,
2,16304, Note_off_c,0,64,127,
2,16305, Note_on_c,0,64,127,
2,16305, Note_off_c,0,56,127,
2,16306, Note_on_c,0,61,127,
2,16306, Note_on_c,0,56,127,
2,16306, Note_off_c,0,64,127,
2,16307, Note_on_c,0,64,127,
2,16307, Note_on_c,0,59,127,
2,16307, Note_off_c,0,61,127,
2,16307, Note_off_c,0,56,127,
2,16308, Note_on_c,0,61,127,
2,16308, Note_on_c,0,56,127,
2,16308, Note_off_c,0,64,127,
2,16308, Note_off_c,0,59,127,
2,16309, Note_on_c,0,64,127,
2,16309, Note_off_c,0,61,127,
2,16309, Note_off_c,0,56,127,
2,16310, Note_on_c,0,61,127,
2,16311, Note_on_c,0,49,127,
2,16311, Note_off_c,0,64,127,
2,16312, Note_on_c,0,64,127,
2,16312, Note_off_c,0,61,127,
2,16312, Note_off_c,0,49,127,
2,16313, Note_on_c,0,55,127,
2,16313, Note_off_c,0,64,127,
2,16314, Note_on_c,0,61,127,
2,16314, Note_off_c,0,55,127,
2,16315, Note_on_c,0,64,127,
2,16315, Note_off_c,0,61,127,
2,16316, Note_on_c,0,61,127,
2,16316, Note_off_c,0,64,127,
2,16318, Note_off_c,0,61,127,
2,16320, Note_on_c,0,61,127,
2,16320, Note_off_c,0,40,127,
2,16321, Note_on_c,0,40,127,
2,16322, Note_on_c,0,37,127,
2,16322, Note_off_c,0,61,127,
2,16323, Note_on_c,0,61,127,
2,16323, Note_off_c,0,37,127,
2,16329, Note_on_c,0,70,127,
2,16329, Note_off_c,0,61,127,
2,16330, Note_on_c,0,61,127,
2,16330, Note_off_c,0,70,127,
2,16337, Note_off_c,0,40,127,
2,16338, Note_on_c,0,40,127,
2,16345, Note_on_c,0,37,127,
2,16345, Note_off_c,0,40,127,
2,16346, Note_on_c,0,40,127,
2,16346, Note_off_c,0,37,127,
2,16353, Note_on_c,0,64,127,
2,16354, Note_off_c,0,64,127,
2,16355, Note_on_c,0,70,127,
2,16356, Note_off_c,0,70,127,
2,16362, Note_on_c,0,70,127,
2,16363, Note_off_c,0,70,127,
2,16365, Note_on_c,0,58,127,
2,16365, Note_off_c,0,61,127,
2,16365, Note_off_c,0,40,127,
2,16366, Note_on_c,0,61,127,
2,16366, Note_on_c,0,40,127,
2,16366, Note_off_c,0,58,127,
2,16370, Note_on_c,0,39,127,
2,16370, Note_off_c,0,40,127,
2,16371, Note_on_c,0,40,127,
2,16371, Note_off_c,0,39,127,
2,16380, Note_on_c,0,64,127,
2,16380, Note_off_c,0,61,127,
2,16381, Note_on_c,0,61,127,
2,16381, Note_off_c,0,64,127,
2,16387, Note_on_c,0,63,127,
2,16387, Note_off_c,0,61,127,
2,16389, Note_on_c,0,61,127,
2,16389, Note_off_c,0,63,127,
2,16390, Note_on_c,0,63,127,
2,16390, Note_off_c,0,61,127,
2,16391, Note_on_c,0,64,127,
2,16391, Note_off_c,0,63,127,
2,16392, Note_on_c,0,71,127,
2,16392, Note_on_c,0,61,127,
2,16392, Note_off_c,0,64,127,
2,16393, Note_off_c,0,61,127,
2,16394, Note_on_c,0,39,127,
2,16394, Note_on_c,0,56,127,
2,16394, Note_off_c,0,71,127,
2,16394, Note_off_c,0,40,127,
2,16395, Note_on_c,0,61,127,
2,16395, Note_on_c,0,40,127,
2,16395, Note_off_c,0,39,127,
2,16395, Note_off_c,0,56,127,
2,16402, Note_on_c,0,56,127,
2,16402, Note_off_c,0,61,127,
2,16403, Note_on_c,0,61,127,
2,16403, Note_off_c,0,56,127,
2,16405, Note_on_c,0,56,127,
2,16405, Note_off_c,0,61,127,
2,16406, Note_off_c,0,56,127,
2,16407, Note_on_c,0,61,127,
2,16407, Note_off_c,0,40,127,
2,16408, Note_on_c,0,40,127,
2,16409, Note_off_c,0,61,127,
2,16410, Note_on_c,0,61,127,
2,16430, Note_on_c,0,64,127,
2,16430, Note_off_c,0,61,127,
2,16431, Note_on_c,0,61,127,
2,16431, Note_off_c,0,64,127,
2,16449, Note_on_c,0,64,127,
2,16449, Note_off_c,0,61,127,
2,16450, Note_on_c,0,61,127,
2,16450, Note_off_c,0,64,127,
2,16458, Note_on_c,0,39,127,
2,16458, Note_off_c,0,40,127,
2,16459, Note_on_c,0,40,127,
2,16459, Note_off_c,0,39,127,
2,16470, Note_on_c,0,64,127,
2,16470, Note_off_c,0,61,127,
2,16471, Note_on_c,0,61,127,
2,16471, Note_off_c,0,64,127,
2,16472, Note_on_c,0,64,127,
2,16472, Note_off_c,0,61,127,
2,16473, Note_on_c,0,61,127,
2,16473, Note_off_c,0,64,127,
2,16485, Note_on_c,0,64,127,
2,16485, Note_off_c,0,61,127,
2,16486, Note_on_c,0,61,127,
2,16486, Note_off_c,0,64,127,
2,16490, Note_on_c,0,44,127,
2,16490, Note_off_c,0,40,127,
2,16491, Note_on_c,0,40,127,
2,16491, Note_off_c,0,44,127,
2,16494, Note_on_c,0,34,127,
2,16494, Note_off_c,0,40,127,
2,16496, Note_on_c,0,64,127,
2,16496, Note_on_c,0,37,127,
2,16496, Note_off_c,0,61,127,
2,16496, Note_off_c,0,34,127,
2,16497, Note_on_c,0,61,127,
2,16497, Note_on_c,0,40,127,
2,16497, Note_off_c,0,64,127,
2,16497, Note_off_c,0,37,127,
2,16499, Note_off_c,0,40,127,
2,16501, Note_on_c,0,40,127,
2,16501, Note_off_c,0,61,127,
2,16502, Note_on_c,0,64,127,
2,16502, Note_off_c,0,40,127,
2,16503, Note_on_c,0,61,127,
2,16503, Note_on_c,0,40,127,
2,16503, Note_off_c,0,64,127,
2,16505, Note_on_c,0,64,127,
2,16505, Note_on_c,0,49,127,
2,16505, Note_off_c,0,61,127,
2,16505, Note_off_c,0,40,127,
2,16506, Note_on_c,0,71,127,
2,16506, Note_on_c,0,61,127,
2,16506, Note_on_c,0,40,127,
2,16506, Note_off_c,0,64,127,
2,16506, Note_off_c,0,49,127,
2,16507, Note_off_c,0,71,127,
2,16508, Note_on_c,0,64,127,
2,16508, Note_off_c,0,61,127,
2,16509, Note_on_c,0,56,127,
2,16509, Note_off_c,0,64,127,
2,16510, Note_on_c,0,61,127,
2,16510, Note_off_c,0,56,127,
2,16514, Note_on_c,0,66,127,
2,16514, Note_off_c,0,61,127,
2,16515, Note_on_c,0,61,127,
2,16515, Note_off_c,0,66,127,
2,16519, Note_on_c,0,46,127,
2,16519, Note_off_c,0,40,127,
2,16520, Note_on_c,0,40,127,
2,16520, Note_off_c,0,46,127,
2,16521, Note_on_c,0,39,127,
2,16521, Note_off_c,0,40,127,
2,16522, Note_on_c,0,44,127,
2,16522, Note_on_c,0,37,127,
2,16522, Note_off_c,0,39,127,
2,16523, Note_on_c,0,64,127,
2,16523, Note_on_c,0,40,127,
2,16523, Note_off_c,0,44,127,
2,16523, Note_off_c,0,37,127,
2,16524, Note_off_c,0,64,127,
2,16527, Note_on_c,0,58,127,
2,16528, Note_on_c,0,64,127,
2,16528, Note_off_c,0,58,127,
2,16529, Note_off_c,0,64,127,
2,16531, Note_on_c,0,56,127,
2,16532, Note_off_c,0,56,127,
2,16535, Note_on_c,0,59,127,
2,16536, Note_off_c,0,59,127,
2,16547, Note_on_c,0,58,127,
2,16548, Note_off_c,0,58,127,
2,16549, Note_on_c,0,64,127,
2,16550, Note_on_c,0,39,127,
2,16550, Note_on_c,0,56,127,
2,16550, Note_off_c,0,61,127,
2,16550, Note_off_c,0,40,127,
2,16551, Note_on_c,0,61,127,
2,16551, Note_on_c,0,58,127,
2,16551, Note_on_c,0,40,127,
2,16551, Note_off_c,0,64,127,
2,16551, Note_off_c,0,39,127,
2,16551, Note_off_c,0,56,127,
2,16552, Note_on_c,0,52,127,
2,16552, Note_off_c,0,58,127,
2,16553, Note_off_c,0,52,127,
2,16559, Note_on_c,0,70,127,
2,16560, Note_on_c,0,64,127,
2,16560, Note_off_c,0,70,127,
2,16561, Note_off_c,0,64,127,
2,16562, Note_on_c,0,64,127,
2,16564, Note_off_c,0,64,127,
2,16565, Note_on_c,0,64,127,
2,16566, Note_off_c,0,64,127,
2,16567, Note_on_c,0,64,127,
2,16567, Note_on_c,0,35,127,
2,16567, Note_off_c,0,61,127,
2,16567, Note_off_c,0,40,127,
2,16568, Note_on_c,0,61,127,
2,16568, Note_on_c,0,40,127,
2,16568, Note_off_c,0,64,127,
2,16568, Note_off_c,0,35,127,
2,16591, Note_on_c,0,70,127,
2,16591, Note_off_c,0,61,127,
2,16592, Note_on_c,0,61,127,
2,16592, Note_off_c,0,70,127,
2,16624, Note_on_c,0,70,127,
2,16624, Note_off_c,0,61,127,
2,16625, Note_on_c,0,61,127,
2,16625, Note_off_c,0,70,127,
2,16633, Note_off_c,0,40,127,
2,16634, Note_on_c,0,58,127,
2,16634, Note_on_c,0,40,127,
2,16634, Note_off_c,0,61,127,
2,16635, Note_on_c,0,61,127,
2,16635, Note_off_c,0,58,127,
2,16637, Note_on_c,0,64,127,
2,16637, Note_off_c,0,61,127,
2,16638, Note_on_c,0,61,127,
2,16638, Note_off_c,0,64,127,
2,16656, Note_on_c,0,64,127,
2,16656, Note_off_c,0,61,127,
2,16657, Note_on_c,0,61,127,
2,16657, Note_off_c,0,64,127,
2,16660, Note_on_c,0,39,127,
2,16660, Note_off_c,0,40,127,
2,16661, Note_on_c,0,40,127,
2,16661, Note_off_c,0,39,127,
2,16671, Note_on_c,0,58,127,
2,16671, Note_off_c,0,61,127,
2,16672, Note_on_c,0,61,127,
2,16672, Note_off_c,0,58,127,
2,16676, Note_on_c,0,64,127,
2,16676, Note_off_c,0,61,127,
2,16677, Note_on_c,0,61,127,
2,16677, Note_off_c,0,64,127,
2,16683, Note_on_c,0,63,127,
2,16683, Note_off_c,0,61,127,
2,16684, Note_on_c,0,61,127,
2,16684, Note_off_c,0,63,127,
2,16690, Note_on_c,0,64,127,
2,16690, Note_off_c,0,61,127,
2,16691, Note_on_c,0,61,127,
2,16691, Note_off_c,0,64,127,
2,16700, Note_on_c,0,49,127,
2,16700, Note_off_c,0,61,127,
2,16701, Note_on_c,0,61,127,
2,16701, Note_off_c,0,49,127,
2,16715, Note_on_c,0,64,127,
2,16715, Note_off_c,0,61,127,
2,16716, Note_on_c,0,61,127,
2,16716, Note_off_c,0,64,127,
2,16739, Note_on_c,0,64,127,
2,16739, Note_off_c,0,61,127,
2,16740, Note_on_c,0,61,127,
2,16740, Note_off_c,0,64,127,
2,16743, Note_on_c,0,64,127,
2,16743, Note_off_c,0,61,127,
2,16744, Note_on_c,0,61,127,
2,16744, Note_off_c,0,64,127,
2,16767, Note_on_c,0,59,127,
2,16767, Note_off_c,0,61,127,
2,16768, Note_on_c,0,66,127,
2,16768, Note_off_c,0,59,127,
2,16769, Note_on_c,0,61,127,
2,16769, Note_off_c,0,66,127,
2,16771, Note_on_c,0,66,127,
2,16771, Note_off_c,0,61,127,
2,16772, Note_on_c,0,61,127,
2,16772, Note_off_c,0,66,127,
2,16776, Note_on_c,0,64,127,
2,16776, Note_off_c,0,61,127,
2,16777, Note_on_c,0,61,127,
2,16777, Note_off_c,0,64,127,
2,16778, Note_on_c,0,39,127,
2,16778, Note_off_c,0,40,127,
2,16779, Note_on_c,0,40,127,
2,16779, Note_off_c,0,39,127,
2,16789, Note_off_c,0,40,127,
2,16790, Note_on_c,0,40,127,
2,16793, Note_on_c,0,70,127,
2,16794, Note_off_c,0,70,127,
2,16798, Note_on_c,0,58,127,
2,16799, Note_off_c,0,58,127,
2,16801, Note_on_c,0,70,127,
2,16802, Note_on_c,0,58,127,
2,16802, Note_off_c,0,70,127,
2,16803, Note_off_c,0,58,127,
2,16815, Note_on_c,0,34,127,
2,16815, Note_off_c,0,40,127,
2,16816, Note_on_c,0,40,127,
2,16816, Note_off_c,0,34,127,
2,16818, Note_on_c,0,58,127,
2,16819, Note_off_c,0,58,127,
2,16820, Note_on_c,0,64,127,
2,16821, Note_off_c,0,64,127,
2,16829, Note_on_c,0,64,127,
2,16830, Note_off_c,0,64,127,
2,16831, Note_on_c,0,64,127,
2,16832, Note_on_c,0,39,127,
2,16832, Note_off_c,0,64,127,
2,16832, Note_off_c,0,40,127,
2,16833, Note_on_c,0,64,127,
2,16833, Note_on_c,0,40,127,
2,16833, Note_off_c,0,39,127,
2,16835, Note_on_c,0,46,127,
2,16835, Note_off_c,0,40,127,
2,16836, Note_on_c,0,40,127,
2,16836, Note_off_c,0,64,127,
2,16836, Note_off_c,0,46,127,
2,16841, Note_on_c,0,64,127,
2,16842, Note_off_c,0,64,127,
2,16845, Note_on_c,0,64,127,
2,16846, Note_off_c,0,64,127,
2,16847, Note_on_c,0,70,127,
2,16848, Note_off_c,0,70,127,
2,16852, Note_on_c,0,64,127,
2,16853, Note_off_c,0,64,127,
2,16854, Note_on_c,0,64,127,
2,16855, Note_off_c,0,64,127,
2,16861, Note_off_c,0,40,127,
2,16862, Note_on_c,0,40,127,
2,16865, Note_on_c,0,43,127,
2,16865, Note_off_c,0,40,127,
2,16866, Note_on_c,0,40,127,
2,16866, Note_off_c,0,43,127,
2,16877, Note_on_c,0,64,127,
2,16877, Note_off_c,0,61,127,
2,16878, Note_on_c,0,61,127,
2,16878, Note_off_c,0,64,127,
2,16882, Note_on_c,0,68,127,
2,16882, Note_off_c,0,61,127,
2,16883, Note_on_c,0,64,127,
2,16883, Note_off_c,0,68,127,
2,16884, Note_on_c,0,61,127,
2,16884, Note_off_c,0,64,127,
2,16888, Note_on_c,0,64,127,
2,16888, Note_off_c,0,61,127,
2,16890, Note_on_c,0,61,127,
2,16890, Note_off_c,0,64,127,
2,16891, Note_on_c,0,64,127,
2,16891, Note_off_c,0,61,127,
2,16892, Note_on_c,0,61,127,
2,16892, Note_off_c,0,64,127,
2,16896, Note_on_c,0,64,127,
2,16896, Note_off_c,0,61,127,
2,16897, Note_on_c,0,61,127,
2,16897, Note_on_c,0,46,127,
2,16897, Note_off_c,0,64,127,
2,16897, Note_off_c,0,40,127,
2,16898, Note_on_c,0,40,127,
2,16898, Note_off_c,0,46,127,
2,16900, Note_off_c,0,40,127,
2,16901, Note_on_c,0,40,127,
2,16902, Note_off_c,0,61,127,
2,16925, Note_on_c,0,43,127,
2,16925, Note_off_c,0,40,127,
2,16926, Note_on_c,0,40,127,
2,16926, Note_off_c,0,43,127,
2,16930, Note_on_c,0,56,127,
2,16930, Note_off_c,0,40,127,
2,16931, Note_on_c,0,40,127,
2,16931, Note_off_c,0,56,127,
2,16936, Note_on_c,0,61,127,
2,16937, Note_on_c,0,56,127,
2,16937, Note_off_c,0,61,127,
2,16938, Note_on_c,0,61,127,
2,16938, Note_off_c,0,56,127,
2,16940, Note_on_c,0,64,127,
2,16940, Note_off_c,0,61,127,
2,16941, Note_on_c,0,61,127,
2,16941, Note_off_c,0,64,127,
2,16942, Note_on_c,0,64,127,
2,16942, Note_off_c,0,61,127,
2,16943, Note_on_c,0,61,127,
2,16943, Note_off_c,0,64,127,
2,16945, Note_on_c,0,37,127,
2,16945, Note_off_c,0,40,127,
2,16946, Note_on_c,0,35,127,
2,16946, Note_off_c,0,37,127,
2,16947, Note_on_c,0,40,127,
2,16947, Note_off_c,0,35,127,
2,16988, Note_on_c,0,37,127,
2,16988, Note_off_c,0,40,127,
2,16989, Note_on_c,0,40,127,
2,16989, Note_off_c,0,37,127,
2,16991, Note_on_c,0,39,127,
2,16991, Note_off_c,0,40,127,
2,16992, Note_on_c,0,40,127,
2,16992, Note_off_c,0,39,127,
2,17028, Note_off_c,0,40,127,
2,17029, Note_on_c,0,64,127,
2,17029, Note_on_c,0,40,127,
2,17029, Note_off_c,0,61,127,
2,17030, Note_on_c,0,61,127,
2,17030, Note_off_c,0,64,127,
2,17033, Note_on_c,0,37,127,
2,17033, Note_off_c,0,40,127,
2,17034, Note_on_c,0,40,127,
2,17034, Note_off_c,0,37,127,
2,17037, Note_on_c,0,39,127,
2,17037, Note_off_c,0,40,127,
2,17038, Note_on_c,0,40,127,
2,17038, Note_off_c,0,39,127,
2,17039, Note_on_c,0,46,127,
2,17039, Note_off_c,0,40,127,
2,17040, Note_on_c,0,40,127,
2,17040, Note_off_c,0,46,127,
2,17042, Note_on_c,0,39,127,
2,17042, Note_off_c,0,40,127,
2,17043, Note_on_c,0,40,127,
2,17043, Note_off_c,0,39,127,
2,17045, Note_on_c,0,46,127,
2,17045, Note_off_c,0,40,127,
2,17046, Note_on_c,0,40,127,
2,17046, Note_off_c,0,46,127,
2,17048, Note_on_c,0,39,127,
2,17048, Note_off_c,0,40,127,
2,17049, Note_on_c,0,40,127,
2,17049, Note_off_c,0,39,127,
2,17054, Note_off_c,0,40,127,
2,17055, Note_on_c,0,46,127,
2,17056, Note_on_c,0,63,127,
2,17056, Note_off_c,0,61,127,
2,17056, Note_off_c,0,46,127,
2,17057, Note_on_c,0,40,127,
2,17057, Note_off_c,0,63,127,
2,17058, Note_on_c,0,61,127,
2,17058, Note_off_c,0,40,127,
2,17059, Note_on_c,0,40,127,
2,17059, Note_off_c,0,61,127,
2,17084, Note_on_c,0,44,127,
2,17084, Note_off_c,0,40,127,
2,17085, Note_on_c,0,40,127,
2,17085, Note_off_c,0,44,127,
2,17089, Note_on_c,0,46,127,
2,17089, Note_off_c,0,40,127,
2,17090, Note_on_c,0,40,127,
2,17090, Note_off_c,0,46,127,
2,17126, Note_on_c,0,64,127,
2,17127, Note_on_c,0,61,127,
2,17127, Note_off_c,0,64,127,
2,17131, Note_on_c,0,39,127,
2,17131, Note_off_c,0,40,127,
2,17132, Note_on_c,0,40,127,
2,17132, Note_off_c,0,39,127,
2,17138, Note_on_c,0,64,127,
2,17138, Note_off_c,0,61,127,
2,17140, Note_on_c,0,61,127,
2,17140, Note_off_c,0,64,127,
2,17141, Note_off_c,0,61,127,
2,17142, Note_on_c,0,61,127,
2,17142, Note_off_c,0,40,127,
2,17143, Note_on_c,0,40,127,
2,17156, Note_on_c,0,64,127,
2,17156, Note_off_c,0,61,127,
2,17157, Note_on_c,0,61,127,
2,17157, Note_off_c,0,64,127,
2,17164, Note_on_c,0,58,127,
2,17164, Note_off_c,0,61,127,
2,17165, Note_on_c,0,61,127,
2,17165, Note_off_c,0,58,127,
2,17166, Note_on_c,0,64,127,
2,17166, Note_off_c,0,61,127,
2,17167, Note_on_c,0,61,127,
2,17167, Note_off_c,0,64,127,
2,17176, Note_on_c,0,64,127,
2,17176, Note_off_c,0,61,127,
2,17177, Note_on_c,0,61,127,
2,17177, Note_off_c,0,64,127,
2,17181, Note_on_c,0,67,127,
2,17181, Note_off_c,0,40,127,
2,17182, Note_on_c,0,40,127,
2,17182, Note_off_c,0,67,127,
2,17185, Note_on_c,0,64,127,
2,17186, Note_off_c,0,64,127,
2,17194, Note_off_c,0,40,127,
2,17195, Note_on_c,0,40,127,
2,17205, Note_on_c,0,58,127,
2,17206, Note_on_c,0,34,127,
2,17206, Note_off_c,0,58,127,
2,17207, Note_off_c,0,34,127,
2,17218, Note_on_c,0,64,127,
2,17218, Note_off_c,0,61,127,
2,17220, Note_on_c,0,61,127,
2,17220, Note_off_c,0,64,127,
2,17231, Note_on_c,0,64,127,
2,17231, Note_off_c,0,61,127,
2,17232, Note_on_c,0,61,127,
2,17232, Note_off_c,0,64,127,
2,17233, Note_on_c,0,64,127,
2,17233, Note_off_c,0,61,127,
2,17234, Note_on_c,0,61,127,
2,17234, Note_off_c,0,64,127,
2,17243, Note_on_c,0,64,127,
2,17243, Note_off_c,0,61,127,
2,17244, Note_on_c,0,61,127,
2,17244, Note_off_c,0,64,127,
2,17253, Note_on_c,0,64,127,
2,17253, Note_off_c,0,61,127,
2,17254, Note_on_c,0,61,127,
2,17254, Note_off_c,0,64,127,
2,17255, Note_on_c,0,64,127,
2,17255, Note_off_c,0,61,127,
2,17256, Note_on_c,0,61,127,
2,17256, Note_off_c,0,64,127,
2,17257, Note_off_c,0,61,127,
2,17258, Note_on_c,0,61,127,
2,17268, Note_on_c,0,68,127,
2,17268, Note_off_c,0,61,127,
2,17269, Note_on_c,0,61,127,
2,17269, Note_off_c,0,68,127,
2,17285, Note_on_c,0,64,127,
2,17285, Note_off_c,0,61,127,
2,17286, Note_on_c,0,61,127,
2,17286, Note_off_c,0,64,127,
2,17290, Note_on_c,0,58,127,
2,17290, Note_off_c,0,61,127,
2,17291, Note_on_c,0,61,127,
2,17291, Note_off_c,0,58,127,
2,17297, Note_off_c,0,61,127,
2,17298, Note_on_c,0,61,127,
2,17298, Note_off_c,0,40,127,
2,17299, Note_on_c,0,40,127,
2,17299, Note_off_c,0,61,127,
2,17300, Note_on_c,0,61,127,
2,17300, Note_off_c,0,40,127,
2,17301, Note_on_c,0,40,127,
2,17301, Note_off_c,0,61,127,
2,17363, Note_on_c,0,46,127,
2,17363, Note_off_c,0,40,127,
2,17364, Note_on_c,0,40,127,
2,17364, Note_off_c,0,46,127,
2,17368, Note_on_c,0,37,127,
2,17368, Note_off_c,0,40,127,
2,17369, Note_on_c,0,40,127,
2,17369, Note_off_c,0,37,127,
2,17381, Note_off_c,0,40,127,
2,17383, Note_on_c,0,61,127,
2,17384, Note_on_c,0,40,127,
2,17384, Note_off_c,0,61,127,
2,17426, Note_on_c,0,37,127,
2,17426, Note_off_c,0,40,127,
2,17427, Note_on_c,0,40,127,
2,17427, Note_off_c,0,37,127,
2,17437, Note_on_c,0,64,127,
2,17439, Note_off_c,0,64,127,
2,17440, Note_on_c,0,61,127,
2,17441, Note_on_c,0,65,127,
2,17441, Note_off_c,0,61,127,
2,17442, Note_on_c,0,61,127,
2,17442, Note_off_c,0,65,127,
2,17444, Note_on_c,0,46,127,
2,17444, Note_off_c,0,61,127,
2,17445, Note_on_c,0,61,127,
2,17445, Note_off_c,0,46,127,
2,17446, Note_on_c,0,44,127,
2,17446, Note_off_c,0,61,127,
2,17447, Note_off_c,0,44,127,
2,17448, Note_on_c,0,61,127,
2,17450, Note_off_c,0,61,127,
2,17451, Note_on_c,0,61,127,
2,17453, Note_on_c,0,64,127,
2,17453, Note_off_c,0,61,127,
2,17454, Note_on_c,0,61,127,
2,17454, Note_off_c,0,64,127,
2,17455, Note_on_c,0,56,127,
2,17455, Note_off_c,0,61,127,
2,17456, Note_on_c,0,63,127,
2,17456, Note_off_c,0,56,127,
2,17457, Note_on_c,0,39,127,
2,17457, Note_off_c,0,63,127,
2,17458, Note_on_c,0,61,127,
2,17458, Note_off_c,0,39,127,
2,17459, Note_on_c,0,64,127,
2,17459, Note_off_c,0,61,127,
2,17460, Note_on_c,0,67,127,
2,17460, Note_on_c,0,49,127,
2,17460, Note_off_c,0,64,127,
2,17461, Note_on_c,0,61,127,
2,17461, Note_off_c,0,67,127,
2,17461, Note_off_c,0,49,127,
2,17466, Note_on_c,0,64,127,
2,17466, Note_off_c,0,61,127,
2,17467, Note_on_c,0,61,127,
2,17467, Note_off_c,0,64,127,
2,17468, Note_on_c,0,46,127,
2,17468, Note_off_c,0,40,127,
2,17469, Note_on_c,0,40,127,
2,17469, Note_off_c,0,46,127,
2,17475, Note_on_c,0,64,127,
2,17475, Note_off_c,0,61,127,
2,17476, Note_on_c,0,61,127,
2,17476, Note_off_c,0,64,127,
2,17477, Note_on_c,0,71,127,
2,17478, Note_off_c,0,71,127,
2,17482, Note_on_c,0,39,127,
2,17482, Note_off_c,0,40,127,
2,17483, Note_on_c,0,40,127,
2,17483, Note_off_c,0,39,127,
2,17488, Note_on_c,0,64,127,
2,17489, Note_off_c,0,64,127,
2,17495, Note_on_c,0,39,127,
2,17495, Note_off_c,0,40,127,
2,17496, Note_on_c,0,40,127,
2,17496, Note_off_c,0,39,127,
2,17497, Note_on_c,0,58,127,
2,17497, Note_off_c,0,61,127,
2,17498, Note_on_c,0,61,127,
2,17498, Note_off_c,0,58,127,
2,17503, Note_on_c,0,64,127,
2,17503, Note_off_c,0,61,127,
2,17504, Note_on_c,0,61,127,
2,17504, Note_off_c,0,64,127,
2,17515, Note_on_c,0,64,127,
2,17515, Note_off_c,0,61,127,
2,17516, Note_on_c,0,61,127,
2,17516, Note_on_c,0,39,127,
2,17516, Note_off_c,0,64,127,
2,17516, Note_off_c,0,40,127,
2,17517, Note_on_c,0,40,127,
2,17517, Note_off_c,0,39,127,
2,17520, Note_on_c,0,52,127,
2,17520, Note_off_c,0,61,127,
2,17521, Note_on_c,0,61,127,
2,17521, Note_off_c,0,52,127,
2,17522, Note_on_c,0,64,127,
2,17522, Note_off_c,0,61,127,
2,17523, Note_on_c,0,61,127,
2,17523, Note_off_c,0,64,127,
2,17525, Note_on_c,0,64,127,
2,17525, Note_off_c,0,61,127,
2,17526, Note_on_c,0,61,127,
2,17526, Note_off_c,0,64,127,
2,17533, Note_on_c,0,64,127,
2,17533, Note_off_c,0,61,127,
2,17534, Note_on_c,0,61,127,
2,17534, Note_off_c,0,64,127,
2,17543, Note_on_c,0,64,127,
2,17543, Note_off_c,0,61,127,
2,17544, Note_on_c,0,61,127,
2,17544, Note_off_c,0,64,127,
2,17565, Note_on_c,0,30,127,
2,17565, Note_off_c,0,40,127,
2,17566, Note_on_c,0,40,127,
2,17566, Note_off_c,0,30,127,
2,17572, Note_on_c,0,52,127,
2,17572, Note_on_c,0,37,127,
2,17572, Note_off_c,0,61,127,
2,17572, Note_off_c,0,40,127,
2,17573, Note_on_c,0,61,127,
2,17573, Note_on_c,0,40,127,
2,17573, Note_off_c,0,52,127,
2,17573, Note_off_c,0,37,127,
2,17581, Note_on_c,0,64,127,
2,17581, Note_off_c,0,61,127,
2,17582, Note_on_c,0,61,127,
2,17582, Note_off_c,0,64,127,
2,17603, Note_on_c,0,64,127,
2,17603, Note_off_c,0,61,127,
2,17604, Note_on_c,0,61,127,
2,17604, Note_off_c,0,64,127,
2,17612, Note_on_c,0,64,127,
2,17612, Note_off_c,0,61,127,
2,17613, Note_on_c,0,61,127,
2,17613, Note_off_c,0,64,127,
2,17628, Note_on_c,0,64,127,
2,17628, Note_off_c,0,61,127,
2,17629, Note_on_c,0,61,127,
2,17629, Note_off_c,0,64,127,
2,17630, Note_on_c,0,64,127,
2,17630, Note_off_c,0,61,127,
2,17631, Note_on_c,0,61,127,
2,17631, Note_off_c,0,64,127,
2,17635, Note_on_c,0,64,127,
2,17635, Note_off_c,0,61,127,
2,17636, Note_on_c,0,61,127,
2,17636, Note_off_c,0,64,127,
2,17637, Note_on_c,0,64,127,
2,17637, Note_off_c,0,61,127,
2,17638, Note_on_c,0,61,127,
2,17638, Note_off_c,0,64,127,
2,17639, Note_on_c,0,64,127,
2,17639, Note_off_c,0,61,127,
2,17640, Note_on_c,0,61,127,
2,17640, Note_off_c,0,64,127,
2,17642, Note_on_c,0,56,127,
2,17642, Note_off_c,0,61,127,
2,17643, Note_on_c,0,61,127,
2,17643, Note_off_c,0,56,127,
2,17647, Note_on_c,0,64,127,
2,17647, Note_off_c,0,61,127,
2,17648, Note_on_c,0,61,127,
2,17648, Note_off_c,0,64,127,
2,17654, Note_on_c,0,64,127,
2,17654, Note_off_c,0,61,127,
2,17655, Note_on_c,0,61,127,
2,17655, Note_off_c,0,64,127,
2,17659, Note_off_c,0,40,127,
2,17660, Note_on_c,0,40,127,
2,17662, Note_on_c,0,39,127,
2,17662, Note_off_c,0,40,127,
2,17663, Note_on_c,0,40,127,
2,17663, Note_off_c,0,39,127,
2,17667, Note_on_c,0,64,127,
2,17668, Note_on_c,0,73,127,
2,17668, Note_off_c,0,64,127,
2,17669, Note_off_c,0,73,127,
2,17670, Note_on_c,0,59,127,
2,17671, Note_off_c,0,59,127,
2,17677, Note_on_c,0,64,127,
2,17678, Note_off_c,0,64,127,
2,17684, Note_on_c,0,39,127,
2,17684, Note_off_c,0,40,127,
2,17685, Note_on_c,0,40,127,
2,17685, Note_off_c,0,39,127,
2,17686, Note_on_c,0,67,127,
2,17687, Note_off_c,0,67,127,
2,17694, Note_on_c,0,64,127,
2,17694, Note_off_c,0,61,127,
2,17695, Note_on_c,0,61,127,
2,17695, Note_off_c,0,64,127,
2,17722, Note_on_c,0,39,127,
2,17722, Note_off_c,0,40,127,
2,17723, Note_on_c,0,40,127,
2,17723, Note_off_c,0,39,127,
2,17745, Note_on_c,0,64,127,
2,17745, Note_off_c,0,61,127,
2,17746, Note_on_c,0,61,127,
2,17746, Note_on_c,0,37,127,
2,17746, Note_off_c,0,64,127,
2,17746, Note_off_c,0,40,127,
2,17747, Note_on_c,0,40,127,
2,17747, Note_off_c,0,37,127,
2,17749, Note_on_c,0,64,127,
2,17749, Note_off_c,0,61,127,
2,17750, Note_on_c,0,61,127,
2,17750, Note_off_c,0,64,127,
2,17762, Note_on_c,0,39,127,
2,17762, Note_off_c,0,40,127,
2,17763, Note_on_c,0,40,127,
2,17763, Note_off_c,0,39,127,
2,17766, Note_on_c,0,58,127,
2,17766, Note_off_c,0,61,127,
2,17767, Note_on_c,0,61,127,
2,17767, Note_off_c,0,58,127,
2,17777, Note_on_c,0,64,127,
2,17778, Note_on_c,0,49,127,
2,17778, Note_off_c,0,64,127,
2,17779, Note_off_c,0,49,127,
2,17787, Note_on_c,0,63,127,
2,17787, Note_off_c,0,61,127,
2,17788, Note_on_c,0,61,127,
2,17788, Note_off_c,0,63,127,
2,17789, Note_on_c,0,64,127,
2,17789, Note_off_c,0,61,127,
2,17790, Note_on_c,0,61,127,
2,17790, Note_off_c,0,64,127,
2,17797, Note_on_c,0,67,127,
2,17797, Note_off_c,0,40,127,
2,17798, Note_on_c,0,40,127,
2,17798, Note_off_c,0,67,127,
2,17802, Note_on_c,0,64,127,
2,17803, Note_off_c,0,64,127,
2,17806, Note_on_c,0,64,127,
2,17807, Note_on_c,0,63,127,
2,17807, Note_off_c,0,64,127,
2,17808, Note_off_c,0,63,127,
2,17809, Note_on_c,0,70,127,
2,17810, Note_off_c,0,70,127,
2,17811, Note_on_c,0,64,127,
2,17812, Note_off_c,0,64,127,
2,17813, Note_on_c,0,58,127,
2,17814, Note_off_c,0,58,127,
2,17816, Note_on_c,0,59,127,
2,17817, Note_on_c,0,70,127,
2,17817, Note_off_c,0,61,127,
2,17817, Note_off_c,0,59,127,
2,17818, Note_on_c,0,61,127,
2,17818, Note_off_c,0,40,127,
2,17818, Note_off_c,0,70,127,
2,17819, Note_on_c,0,40,127,
2,17825, Note_on_c,0,49,127,
2,17825, Note_off_c,0,40,127,
2,17826, Note_on_c,0,40,127,
2,17826, Note_off_c,0,49,127,
2,17831, Note_on_c,0,64,127,
2,17831, Note_off_c,0,61,127,
2,17832, Note_on_c,0,61,127,
2,17832, Note_off_c,0,64,127,
2,17836, Note_on_c,0,64,127,
2,17836, Note_off_c,0,61,127,
2,17837, Note_on_c,0,61,127,
2,17837, Note_off_c,0,64,127,
2,17839, Note_on_c,0,64,127,
2,17839, Note_off_c,0,61,127,
2,17840, Note_on_c,0,61,127,
2,17840, Note_off_c,0,64,127,
2,17844, Note_on_c,0,64,127,
2,17844, Note_off_c,0,61,127,
2,17845, Note_on_c,0,61,127,
2,17845, Note_off_c,0,64,127,
2,17874, Note_on_c,0,58,127,
2,17874, Note_off_c,0,61,127,
2,17875, Note_on_c,0,61,127,
2,17875, Note_off_c,0,58,127,
2,17881, Note_on_c,0,64,127,
2,17881, Note_off_c,0,61,127,
2,17882, Note_on_c,0,61,127,
2,17882, Note_off_c,0,64,127,
2,17883, Note_on_c,0,64,127,
2,17883, Note_off_c,0,61,127,
2,17884, Note_on_c,0,61,127,
2,17884, Note_off_c,0,64,127,
2,17893, Note_on_c,0,64,127,
2,17893, Note_off_c,0,61,127,
2,17894, Note_on_c,0,61,127,
2,17894, Note_off_c,0,64,127,
2,17901, Note_on_c,0,64,127,
2,17901, Note_off_c,0,61,127,
2,17902, Note_on_c,0,61,127,
2,17902, Note_off_c,0,64,127,
2,17909, Note_on_c,0,64,127,
2,17909, Note_off_c,0,61,127,
2,17910, Note_on_c,0,61,127,
2,17910, Note_on_c,0,68,127,
2,17910, Note_off_c,0,64,127,
2,17910, Note_off_c,0,40,127,
2,17911, Note_on_c,0,40,127,
2,17911, Note_off_c,0,68,127,
2,17936, Note_off_c,0,61,127,
2,17937, Note_on_c,0,61,127,
2,17937, Note_off_c,0,40,127,
2,17938, Note_on_c,0,40,127,
2,17938, Note_off_c,0,61,127,
2,17939, Note_on_c,0,61,127,
2,17939, Note_off_c,0,40,127,
2,17940, Note_on_c,0,40,127,
2,17940, Note_off_c,0,61,127,
2,17943, Note_on_c,0,52,127,
2,17943, Note_off_c,0,40,127,
2,17944, Note_on_c,0,40,127,
2,17944, Note_off_c,0,52,127,
2,17945, Note_on_c,0,46,127,
2,17945, Note_off_c,0,40,127,
2,17946, Note_on_c,0,40,127,
2,17946, Note_off_c,0,46,127,
2,17990, Note_on_c,0,71,127,
2,17991, Note_off_c,0,71,127,
2,17992, Note_on_c,0,61,127,
2,18000, Note_on_c,0,64,127,
2,18000, Note_off_c,0,61,127,
2,18001, Note_on_c,0,61,127,
2,18001, Note_off_c,0,64,127,
2,18004, Note_on_c,0,43,127,
2,18004, Note_off_c,0,61,127,
2,18005, Note_on_c,0,61,127,
2,18005, Note_off_c,0,43,127,
2,18006, Note_on_c,0,64,127,
2,18006, Note_on_c,0,39,127,
2,18006, Note_off_c,0,61,127,
2,18006, Note_off_c,0,40,127,
2,18007, Note_on_c,0,61,127,
2,18007, Note_on_c,0,40,127,
2,18007, Note_off_c,0,64,127,
2,18007, Note_off_c,0,39,127,
2,18035, Note_on_c,0,56,127,
2,18035, Note_off_c,0,61,127,
2,18036, Note_on_c,0,64,127,
2,18036, Note_off_c,0,56,127,
2,18037, Note_on_c,0,61,127,
2,18038, Note_off_c,0,64,127,
2,18040, Note_on_c,0,70,127,
2,18041, Note_on_c,0,64,127,
2,18041, Note_off_c,0,70,127,
2,18042, Note_off_c,0,64,127,
2,18044, Note_on_c,0,64,127,
2,18044, Note_off_c,0,61,127,
2,18045, Note_on_c,0,61,127,
2,18045, Note_off_c,0,64,127,
2,18048, Note_on_c,0,44,127,
2,18048, Note_on_c,0,64,127,
2,18048, Note_off_c,0,61,127,
2,18049, Note_on_c,0,39,127,
2,18049, Note_off_c,0,44,127,
2,18049, Note_off_c,0,40,127,
2,18050, Note_on_c,0,61,127,
2,18050, Note_on_c,0,40,127,
2,18050, Note_off_c,0,64,127,
2,18050, Note_off_c,0,39,127,
2,18054, Note_on_c,0,64,127,
2,18054, Note_off_c,0,61,127,
2,18055, Note_on_c,0,61,127,
2,18055, Note_off_c,0,64,127,
2,18057, Note_on_c,0,68,127,
2,18057, Note_off_c,0,61,127,
2,18058, Note_on_c,0,61,127,
2,18058, Note_off_c,0,68,127,
2,18081, Note_on_c,0,56,127,
2,18081, Note_off_c,0,40,127,
2,18082, Note_on_c,0,64,127,
2,18082, Note_on_c,0,40,127,
2,18082, Note_off_c,0,56,127,
2,18083, Note_off_c,0,61,127,
2,18084, Note_on_c,0,61,127,
2,18084, Note_off_c,0,64,127,
2,18085, Note_on_c,0,52,127,
2,18086, Note_off_c,0,52,127,
2,18088, Note_on_c,0,70,127,
2,18089, Note_off_c,0,70,127,
2,18093, Note_on_c,0,39,127,
2,18093, Note_off_c,0,40,127,
2,18094, Note_on_c,0,40,127,
2,18094, Note_off_c,0,39,127,
2,18104, Note_on_c,0,25,127,
2,18104, Note_off_c,0,40,127,
2,18105, Note_on_c,0,40,127,
2,18105, Note_off_c,0,25,127,
2,18109, Note_on_c,0,58,127,
2,18109, Note_off_c,0,61,127,
2,18110, Note_on_c,0,61,127,
2,18110, Note_off_c,0,58,127,
2,18122, Note_on_c,0,64,127,
2,18122, Note_off_c,0,61,127,
2,18124, Note_on_c,0,61,127,
2,18124, Note_off_c,0,64,127,
2,18131, Note_on_c,0,64,127,
2,18131, Note_off_c,0,61,127,
2,18132, Note_on_c,0,61,127,
2,18132, Note_off_c,0,64,127,
2,18139, Note_on_c,0,64,127,
2,18139, Note_off_c,0,61,127,
2,18140, Note_on_c,0,61,127,
2,18140, Note_off_c,0,64,127,
2,18148, Note_on_c,0,64,127,
2,18148, Note_off_c,0,61,127,
2,18149, Note_on_c,0,61,127,
2,18149, Note_off_c,0,64,127,
2,18157, Note_on_c,0,46,127,
2,18157, Note_off_c,0,61,127,
2,18158, Note_on_c,0,61,127,
2,18158, Note_off_c,0,46,127,
2,18173, Note_on_c,0,37,127,
2,18173, Note_off_c,0,40,127,
2,18174, Note_on_c,0,40,127,
2,18174, Note_off_c,0,37,127,
2,18179, Note_on_c,0,58,127,
2,18179, Note_off_c,0,61,127,
2,18180, Note_on_c,0,61,127,
2,18180, Note_off_c,0,58,127,
2,18196, Note_on_c,0,39,127,
2,18196, Note_off_c,0,40,127,
2,18197, Note_on_c,0,40,127,
2,18197, Note_off_c,0,39,127,
2,18199, Note_on_c,0,70,127,
2,18199, Note_off_c,0,61,127,
2,18200, Note_on_c,0,61,127,
2,18200, Note_off_c,0,70,127,
2,18204, Note_on_c,0,68,127,
2,18204, Note_off_c,0,61,127,
2,18205, Note_on_c,0,61,127,
2,18205, Note_off_c,0,68,127,
2,18209, Note_on_c,0,58,127,
2,18209, Note_off_c,0,61,127,
2,18210, Note_on_c,0,61,127,
2,18210, Note_off_c,0,58,127,
2,18244, Note_on_c,0,64,127,
2,18244, Note_off_c,0,61,127,
2,18245, Note_on_c,0,61,127,
2,18245, Note_off_c,0,64,127,
2,18254, Note_on_c,0,63,127,
2,18254, Note_off_c,0,61,127,
2,18255, Note_on_c,0,61,127,
2,18255, Note_off_c,0,63,127,
2,18262, Note_on_c,0,52,127,
2,18262, Note_off_c,0,61,127,
2,18263, Note_on_c,0,61,127,
2,18263, Note_off_c,0,52,127,
2,18265, Note_on_c,0,36,127,
2,18265, Note_off_c,0,40,127,
2,18266, Note_off_c,0,36,127,
2,18267, Note_on_c,0,40,127,
2,18286, Note_on_c,0,64,127,
2,18286, Note_off_c,0,61,127,
2,18287, Note_on_c,0,61,127,
2,18287, Note_off_c,0,64,127,
2,18291, Note_on_c,0,58,127,
2,18291, Note_off_c,0,61,127,
2,18292, Note_on_c,0,61,127,
2,18292, Note_off_c,0,58,127,
2,18301, Note_on_c,0,68,127,
2,18301, Note_off_c,0,61,127,
2,18302, Note_on_c,0,64,127,
2,18302, Note_off_c,0,68,127,
2,18303, Note_on_c,0,61,127,
2,18303, Note_off_c,0,64,127,
2,18309, Note_on_c,0,63,127,
2,18309, Note_off_c,0,61,127,
2,18310, Note_on_c,0,61,127,
2,18310, Note_off_c,0,63,127,
2,18312, Note_on_c,0,34,127,
2,18312, Note_off_c,0,40,127,
2,18313, Note_on_c,0,40,127,
2,18313, Note_off_c,0,34,127,
2,18317, Note_on_c,0,64,127,
2,18317, Note_off_c,0,61,127,
2,18318, Note_on_c,0,61,127,
2,18318, Note_off_c,0,64,127,
2,18327, Note_on_c,0,35,127,
2,18327, Note_off_c,0,40,127,
2,18328, Note_on_c,0,40,127,
2,18328, Note_off_c,0,35,127,
2,18329, Note_on_c,0,64,127,
2,18329, Note_off_c,0,61,127,
2,18330, Note_on_c,0,61,127,
2,18330, Note_on_c,0,58,127,
2,18330, Note_off_c,0,64,127,
2,18331, Note_on_c,0,67,127,
2,18331, Note_off_c,0,58,127,
2,18332, Note_off_c,0,67,127,
2,18334, Note_on_c,0,70,127,
2,18334, Note_off_c,0,61,127,
2,18335, Note_on_c,0,61,127,
2,18335, Note_off_c,0,70,127,
2,18343, Note_on_c,0,36,127,
2,18343, Note_off_c,0,40,127,
2,18344, Note_on_c,0,40,127,
2,18344, Note_off_c,0,36,127,
2,18350, Note_on_c,0,57,127,
2,18350, Note_off_c,0,40,127,
2,18351, Note_on_c,0,40,127,
2,18351, Note_off_c,0,57,127,
2,18352, Note_on_c,0,64,127,
2,18353, Note_off_c,0,64,127,
2,18355, Note_on_c,0,39,127,
2,18355, Note_off_c,0,40,127,
2,18356, Note_on_c,0,52,127,
2,18356, Note_on_c,0,40,127,
2,18356, Note_off_c,0,39,127,
2,18357, Note_off_c,0,52,127,
2,18360, Note_on_c,0,52,127,
2,18361, Note_off_c,0,52,127,
2,18362, Note_off_c,0,40,127,
2,18363, Note_on_c,0,40,127,
2,18364, Note_off_c,0,40,127,
2,18365, Note_on_c,0,40,127,
2,18372, Note_on_c,0,43,127,
2,18372, Note_off_c,0,40,127,
2,18373, Note_on_c,0,40,127,
2,18373, Note_off_c,0,43,127,
2,18382, Note_on_c,0,64,127,
2,18382, Note_off_c,0,61,127,
2,18383, Note_on_c,0,56,127,
2,18383, Note_off_c,0,64,127,
2,18384, Note_on_c,0,61,127,
2,18384, Note_off_c,0,56,127,
2,18385, Note_on_c,0,70,127,
2,18385, Note_off_c,0,61,127,
2,18386, Note_on_c,0,61,127,
2,18386, Note_off_c,0,70,127,
2,18391, Note_on_c,0,64,127,
2,18391, Note_off_c,0,61,127,
2,18392, Note_on_c,0,61,127,
2,18392, Note_off_c,0,64,127,
2,18393, Note_on_c,0,64,127,
2,18393, Note_off_c,0,61,127,
2,18394, Note_on_c,0,61,127,
2,18394, Note_off_c,0,64,127,
2,18418, Note_on_c,0,64,127,
2,18418, Note_off_c,0,61,127,
2,18419, Note_on_c,0,56,127,
2,18419, Note_off_c,0,64,127,
2,18420, Note_on_c,0,64,127,
2,18420, Note_off_c,0,56,127,
2,18421, Note_on_c,0,61,127,
2,18421, Note_off_c,0,64,127,
2,18433, Note_on_c,0,64,127,
2,18433, Note_off_c,0,61,127,
2,18434, Note_on_c,0,61,127,
2,18434, Note_off_c,0,64,127,
2,18435, Note_on_c,0,64,127,
2,18435, Note_off_c,0,61,127,
2,18436, Note_on_c,0,61,127,
2,18436, Note_off_c,0,64,127,
2,18450, Note_on_c,0,64,127,
2,18450, Note_off_c,0,61,127,
2,18451, Note_on_c,0,61,127,
2,18451, Note_on_c,0,34,127,
2,18451, Note_off_c,0,64,127,
2,18451, Note_off_c,0,40,127,
2,18452, Note_on_c,0,40,127,
2,18452, Note_off_c,0,34,127,
2,18457, Note_on_c,0,46,127,
2,18457, Note_off_c,0,40,127,
2,18458, Note_on_c,0,40,127,
2,18458, Note_off_c,0,46,127,
2,18459, Note_on_c,0,43,127,
2,18459, Note_off_c,0,40,127,
2,18460, Note_on_c,0,40,127,
2,18460, Note_off_c,0,43,127,
2,18464, Note_off_c,0,40,127,
2,18465, Note_on_c,0,40,127,
2,18481, Note_on_c,0,39,127,
2,18481, Note_off_c,0,40,127,
2,18482, Note_on_c,0,40,127,
2,18482, Note_off_c,0,39,127,
2,18515, Note_on_c,0,64,127,
2,18515, Note_off_c,0,61,127,
2,18516, Note_on_c,0,61,127,
2,18516, Note_off_c,0,64,127,
2,18526, Note_on_c,0,39,127,
2,18526, Note_off_c,0,40,127,
2,18527, Note_on_c,0,40,127,
2,18527, Note_off_c,0,39,127,
2,18531, Note_on_c,0,56,127,
2,18531, Note_off_c,0,40,127,
2,18532, Note_on_c,0,40,127,
2,18532, Note_off_c,0,56,127,
2,18537, Note_on_c,0,64,127,
2,18538, Note_off_c,0,64,127,
2,18539, Note_on_c,0,64,127,
2,18540, Note_off_c,0,64,127,
2,18541, Note_off_c,0,40,127,
2,18542, Note_on_c,0,64,127,
2,18542, Note_on_c,0,40,127,
2,18544, Note_off_c,0,64,127,
2,18546, Note_on_c,0,64,127,
2,18547, Note_off_c,0,64,127,
2,18548, Note_on_c,0,64,127,
2,18549, Note_off_c,0,64,127,
2,18554, Note_on_c,0,58,127,
2,18555, Note_off_c,0,58,127,
2,18556, Note_on_c,0,63,127,
2,18557, Note_off_c,0,63,127,
2,18559, Note_on_c,0,47,127,
2,18559, Note_off_c,0,40,127,
2,18560, Note_on_c,0,40,127,
2,18560, Note_off_c,0,47,127,
2,18562, Note_on_c,0,34,127,
2,18562, Note_off_c,0,40,127,
2,18563, Note_on_c,0,40,127,
2,18563, Note_on_c,0,70,127,
2,18563, Note_off_c,0,34,127,
2,18564, Note_on_c,0,64,127,
2,18564, Note_off_c,0,70,127,
2,18565, Note_off_c,0,64,127,
2,18566, Note_on_c,0,64,127,
2,18567, Note_off_c,0,64,127,
2,18573, Note_on_c,0,64,127,
2,18574, Note_off_c,0,64,127,
2,18589, Note_on_c,0,70,127,
2,18590, Note_on_c,0,64,127,
2,18590, Note_on_c,0,60,127,
2,18590, Note_off_c,0,40,127,
2,18590, Note_off_c,0,70,127,
2,18591, Note_on_c,0,40,127,
2,18591, Note_off_c,0,64,127,
2,18591, Note_off_c,0,60,127,
2,18592, Note_on_c,0,64,127,
2,18592, Note_off_c,0,61,127,
2,18593, Note_on_c,0,61,127,
2,18593, Note_off_c,0,64,127,
2,18595, Note_on_c,0,63,127,
2,18595, Note_off_c,0,61,127,
2,18596, Note_on_c,0,61,127,
2,18596, Note_off_c,0,63,127,
2,18598, Note_off_c,0,40,127,
2,18599, Note_on_c,0,40,127,
2,18600, Note_on_c,0,64,127,
2,18601, Note_on_c,0,39,127,
2,18601, Note_off_c,0,64,127,
2,18602, Note_off_c,0,39,127,
2,18608, Note_on_c,0,64,127,
2,18609, Note_off_c,0,64,127,
2,18614, Note_on_c,0,64,127,
2,18615, Note_off_c,0,64,127,
2,18623, Note_on_c,0,58,127,
2,18623, Note_off_c,0,61,127,
2,18624, Note_on_c,0,64,127,
2,18624, Note_off_c,0,58,127,
2,18624, Note_off_c,0,40,127,
2,18625, Note_on_c,0,61,127,
2,18625, Note_on_c,0,40,127,
2,18625, Note_off_c,0,64,127,
2,18639, Note_on_c,0,64,127,
2,18639, Note_off_c,0,61,127,
2,18640, Note_on_c,0,61,127,
2,18640, Note_off_c,0,64,127,
2,18641, Note_on_c,0,70,127,
2,18641, Note_off_c,0,61,127,
2,18642, Note_on_c,0,61,127,
2,18642, Note_off_c,0,70,127,
2,18650, Note_on_c,0,70,127,
2,18650, Note_off_c,0,61,127,
2,18651, Note_on_c,0,61,127,
2,18651, Note_off_c,0,70,127,
2,18657, Note_on_c,0,64,127,
2,18657, Note_off_c,0,61,127,
2,18658, Note_on_c,0,43,127,
2,18658, Note_on_c,0,61,127,
2,18658, Note_off_c,0,64,127,
2,18658, Note_off_c,0,40,127,
2,18659, Note_on_c,0,64,127,
2,18659, Note_off_c,0,43,127,
2,18660, Note_on_c,0,63,127,
2,18660, Note_on_c,0,40,127,
2,18660, Note_off_c,0,61,127,
2,18661, Note_on_c,0,61,127,
2,18661, Note_off_c,0,63,127,
2,18662, Note_on_c,0,58,127,
2,18662, Note_off_c,0,64,127,
2,18663, Note_on_c,0,64,127,
2,18663, Note_off_c,0,58,127,
2,18664, Note_on_c,0,58,127,
2,18664, Note_on_c,0,39,127,
2,18664, Note_off_c,0,61,127,
2,18664, Note_off_c,0,40,127,
2,18665, Note_on_c,0,61,127,
2,18665, Note_on_c,0,40,127,
2,18665, Note_off_c,0,64,127,
2,18665, Note_off_c,0,58,127,
2,18665, Note_off_c,0,39,127,
2,18668, Note_on_c,0,58,127,
2,18668, Note_off_c,0,61,127,
2,18669, Note_on_c,0,61,127,
2,18669, Note_off_c,0,58,127,
2,18670, Note_on_c,0,43,127,
2,18670, Note_off_c,0,40,127,
2,18671, Note_on_c,0,40,127,
2,18671, Note_off_c,0,43,127,
2,18673, Note_on_c,0,39,127,
2,18673, Note_off_c,0,40,127,
2,18674, Note_on_c,0,40,127,
2,18674, Note_off_c,0,39,127,
2,18675, Note_off_c,0,40,127,
2,18676, Note_on_c,0,40,127,
2,18677, Note_off_c,0,40,127,
2,18680, Note_on_c,0,40,127,
2,18680, Note_off_c,0,61,127,
2,18681, Note_on_c,0,61,127,
2,18681, Note_off_c,0,40,127,
2,18682, Note_on_c,0,40,127,
2,18682, Note_off_c,0,61,127,
2,18721, Note_on_c,0,39,127,
2,18721, Note_off_c,0,40,127,
2,18722, Note_on_c,0,40,127,
2,18722, Note_off_c,0,39,127,
2,18753, Note_on_c,0,39,127,
2,18753, Note_off_c,0,40,127,
2,18754, Note_on_c,0,40,127,
2,18754, Note_off_c,0,39,127,
2,18771, Note_on_c,0,39,127,
2,18771, Note_off_c,0,40,127,
2,18772, Note_on_c,0,40,127,
2,18772, Note_off_c,0,39,127,
2,18777, Note_on_c,0,61,127,
2,18777, Note_off_c,0,40,127,
2,18778, Note_on_c,0,40,127,
2,18778, Note_off_c,0,61,127,
2,18804, Note_on_c,0,46,127,
2,18804, Note_off_c,0,40,127,
2,18805, Note_on_c,0,56,127,
2,18805, Note_off_c,0,46,127,
2,18806, Note_on_c,0,39,127,
2,18806, Note_off_c,0,56,127,
2,18807, Note_on_c,0,40,127,
2,18807, Note_off_c,0,39,127,
2,18851, Note_on_c,0,37,127,
2,18851, Note_off_c,0,40,127,
2,18852, Note_on_c,0,40,127,
2,18852, Note_off_c,0,37,127,
2,18875, Note_on_c,0,52,127,
2,18875, Note_off_c,0,40,127,
2,18876, Note_on_c,0,40,127,
2,18876, Note_off_c,0,52,127,
2,18881, Note_on_c,0,37,127,
2,18881, Note_off_c,0,40,127,
2,18882, Note_on_c,0,40,127,
2,18882, Note_off_c,0,37,127,
2,18883, Note_on_c,0,35,127,
2,18883, Note_off_c,0,40,127,
2,18884, Note_on_c,0,40,127,
2,18884, Note_off_c,0,35,127,
2,18900, Note_on_c,0,67,127,
2,18900, Note_off_c,0,40,127,
2,18901, Note_on_c,0,61,127,
2,18901, Note_on_c,0,40,127,
2,18901, Note_off_c,0,67,127,
2,18902, Note_off_c,0,61,127,
2,18903, Note_on_c,0,61,127,
2,18906, Note_on_c,0,64,127,
2,18906, Note_off_c,0,61,127,
2,18907, Note_on_c,0,61,127,
2,18907, Note_off_c,0,64,127,
2,18917, Note_on_c,0,69,127,
2,18917, Note_off_c,0,61,127,
2,18918, Note_on_c,0,61,127,
2,18918, Note_off_c,0,69,127,
2,18927, Note_on_c,0,64,127,
2,18927, Note_off_c,0,61,127,
2,18928, Note_on_c,0,61,127,
2,18928, Note_off_c,0,64,127,
2,18960, Note_on_c,0,64,127,
2,18960, Note_on_c,0,67,127,
2,18960, Note_off_c,0,61,127,
2,18960, Note_off_c,0,40,127,
2,18961, Note_on_c,0,61,127,
2,18961, Note_on_c,0,40,127,
2,18961, Note_off_c,0,64,127,
2,18961, Note_off_c,0,67,127,
2,18968, Note_on_c,0,64,127,
2,18968, Note_off_c,0,61,127,
2,18969, Note_on_c,0,61,127,
2,18969, Note_off_c,0,64,127,
2,18970, Note_on_c,0,64,127,
2,18970, Note_off_c,0,61,127,
2,18971, Note_on_c,0,61,127,
2,18971, Note_off_c,0,64,127,
2,18972, Note_on_c,0,64,127,
2,18972, Note_off_c,0,61,127,
2,18973, Note_on_c,0,61,127,
2,18973, Note_off_c,0,64,127,
2,18974, Note_on_c,0,64,127,
2,18974, Note_off_c,0,61,127,
2,18975, Note_on_c,0,61,127,
2,18975, Note_off_c,0,64,127,
2,18977, Note_off_c,0,61,127,
2,18978, Note_on_c,0,61,127,
2,18990, Note_on_c,0,64,127,
2,18990, Note_off_c,0,61,127,
2,18991, Note_on_c,0,61,127,
2,18991, Note_off_c,0,64,127,
2,18992, Note_on_c,0,64,127,
2,18992, Note_off_c,0,61,127,
2,18993, Note_on_c,0,61,127,
2,18993, Note_off_c,0,64,127,
2,19000, Note_on_c,0,64,127,
2,19000, Note_on_c,0,39,127,
2,19000, Note_off_c,0,61,127,
2,19000, Note_off_c,0,40,127,
2,19001, Note_on_c,0,61,127,
2,19001, Note_on_c,0,40,127,
2,19001, Note_off_c,0,64,127,
2,19001, Note_off_c,0,39,127,
2,19003, Note_off_c,0,61,127,
2,19004, Note_on_c,0,61,127,
2,19004, Note_off_c,0,40,127,
2,19005, Note_on_c,0,40,127,
2,19005, Note_off_c,0,61,127,
2,19006, Note_on_c,0,61,127,
2,19006, Note_off_c,0,40,127,
2,19007, Note_on_c,0,40,127,
2,19007, Note_off_c,0,61,127,
2,19107, Note_on_c,0,71,127,
2,19108, Note_off_c,0,71,127,
2,19109, Note_on_c,0,56,127,
2,19110, Note_on_c,0,61,127,
2,19110, Note_off_c,0,56,127,
2,19111, Note_on_c,0,39,127,
2,19111, Note_on_c,0,56,127,
2,19111, Note_off_c,0,61,127,
2,19111, Note_off_c,0,40,127,
2,19112, Note_on_c,0,49,127,
2,19112, Note_on_c,0,40,127,
2,19112, Note_off_c,0,39,127,
2,19112, Note_off_c,0,56,127,
2,19113, Note_on_c,0,64,127,
2,19113, Note_off_c,0,49,127,
2,19114, Note_off_c,0,64,127,
2,19115, Note_on_c,0,61,127,
2,19116, Note_on_c,0,70,127,
2,19116, Note_off_c,0,61,127,
2,19117, Note_on_c,0,61,127,
2,19117, Note_off_c,0,70,127,
2,19119, Note_on_c,0,39,127,
2,19119, Note_off_c,0,40,127,
2,19120, Note_on_c,0,40,127,
2,19120, Note_off_c,0,39,127,
2,19127, Note_on_c,0,64,127,
2,19127, Note_off_c,0,61,127,
2,19128, Note_on_c,0,61,127,
2,19128, Note_off_c,0,64,127,
2,19135, Note_off_c,0,40,127,
2,19136, Note_on_c,0,64,127,
2,19136, Note_on_c,0,40,127,
2,19136, Note_off_c,0,61,127,
2,19137, Note_on_c,0,61,127,
2,19137, Note_off_c,0,64,127,
2,19138, Note_on_c,0,64,127,
2,19138, Note_off_c,0,61,127,
2,19139, Note_on_c,0,61,127,
2,19139, Note_off_c,0,64,127,
2,19146, Note_on_c,0,58,127,
2,19146, Note_off_c,0,61,127,
2,19147, Note_on_c,0,61,127,
2,19147, Note_off_c,0,58,127,
2,19158, Note_on_c,0,59,127,
2,19158, Note_off_c,0,61,127,
2,19160, Note_on_c,0,64,127,
2,19160, Note_off_c,0,59,127,
2,19161, Note_on_c,0,61,127,
2,19161, Note_off_c,0,64,127,
2,19171, Note_on_c,0,64,127,
2,19171, Note_off_c,0,61,127,
2,19172, Note_on_c,0,61,127,
2,19172, Note_off_c,0,64,127,
2,19173, Note_off_c,0,40,127,
2,19174, Note_on_c,0,64,127,
2,19174, Note_on_c,0,40,127,
2,19174, Note_off_c,0,61,127,
2,19175, Note_on_c,0,61,127,
2,19175, Note_off_c,0,64,127,
2,19205, Note_on_c,0,56,127,
2,19205, Note_off_c,0,40,127,
2,19206, Note_on_c,0,40,127,
2,19206, Note_off_c,0,56,127,
2,19207, Note_on_c,0,64,127,
2,19208, Note_off_c,0,64,127,
2,19213, Note_off_c,0,40,127,
2,19214, Note_on_c,0,40,127,
2,19216, Note_on_c,0,58,127,
2,19217, Note_on_c,0,64,127,
2,19217, Note_off_c,0,58,127,
2,19218, Note_on_c,0,70,127,
2,19218, Note_off_c,0,64,127,
2,19219, Note_off_c,0,70,127,
2,19226, Note_on_c,0,63,127,
2,19226, Note_off_c,0,61,127,
2,19227, Note_off_c,0,63,127,
2,19227, Note_off_c,0,40,127,
2,19228, Note_on_c,0,61,127,
2,19229, Note_on_c,0,40,127,
2,19235, Note_on_c,0,49,127,
2,19235, Note_off_c,0,40,127,
2,19236, Note_on_c,0,40,127,
2,19236, Note_off_c,0,49,127,
2,19239, Note_on_c,0,52,127,
2,19239, Note_off_c,0,40,127,
2,19240, Note_on_c,0,40,127,
2,19240, Note_off_c,0,52,127,
2,19241, Note_on_c,0,64,127,
2,19241, Note_off_c,0,61,127,
2,19242, Note_on_c,0,61,127,
2,19242, Note_off_c,0,64,127,
2,19244, Note_on_c,0,70,127,
2,19244, Note_off_c,0,61,127,
2,19245, Note_on_c,0,61,127,
2,19245, Note_off_c,0,70,127,
2,19265, Note_on_c,0,64,127,
2,19265, Note_off_c,0,61,127,
2,19266, Note_on_c,0,61,127,
2,19266, Note_off_c,0,64,127,
2,19274, Note_on_c,0,70,127,
2,19274, Note_off_c,0,61,127,
2,19275, Note_on_c,0,61,127,
2,19275, Note_off_c,0,70,127,
2,19285, Note_on_c,0,64,127,
2,19285, Note_off_c,0,61,127,
2,19286, Note_on_c,0,61,127,
2,19286, Note_on_c,0,39,127,
2,19286, Note_off_c,0,64,127,
2,19286, Note_off_c,0,40,127,
2,19287, Note_on_c,0,40,127,
2,19287, Note_off_c,0,39,127,
2,19290, Note_on_c,0,56,127,
2,19290, Note_off_c,0,40,127,
2,19291, Note_on_c,0,64,127,
2,19291, Note_on_c,0,40,127,
2,19291, Note_off_c,0,56,127,
2,19292, Note_off_c,0,64,127,
2,19295, Note_on_c,0,64,127,
2,19296, Note_off_c,0,64,127,
2,19297, Note_on_c,0,64,127,
2,19298, Note_off_c,0,64,127,
2,19302, Note_on_c,0,58,127,
2,19303, Note_off_c,0,58,127,
2,19306, Note_on_c,0,64,127,
2,19306, Note_off_c,0,61,127,
2,19307, Note_on_c,0,61,127,
2,19307, Note_on_c,0,46,127,
2,19307, Note_off_c,0,64,127,
2,19307, Note_off_c,0,40,127,
2,19308, Note_on_c,0,40,127,
2,19308, Note_off_c,0,46,127,
2,19344, Note_on_c,0,70,127,
2,19344, Note_off_c,0,61,127,
2,19345, Note_on_c,0,61,127,
2,19345, Note_off_c,0,70,127,
2,19353, Note_on_c,0,58,127,
2,19353, Note_off_c,0,61,127,
2,19354, Note_on_c,0,61,127,
2,19354, Note_off_c,0,58,127,
2,19357, Note_on_c,0,70,127,
2,19357, Note_off_c,0,61,127,
2,19358, Note_on_c,0,61,127,
2,19358, Note_off_c,0,70,127,
2,19386, Note_on_c,0,64,127,
2,19386, Note_off_c,0,61,127,
2,19387, Note_on_c,0,61,127,
2,19387, Note_off_c,0,64,127,
2,19393, Note_on_c,0,52,127,
2,19393, Note_off_c,0,40,127,
2,19394, Note_on_c,0,40,127,
2,19394, Note_off_c,0,52,127,
2,19398, Note_on_c,0,70,127,
2,19398, Note_off_c,0,61,127,
2,19399, Note_on_c,0,61,127,
2,19399, Note_off_c,0,70,127,
2,19408, Note_on_c,0,58,127,
2,19408, Note_off_c,0,61,127,
2,19409, Note_on_c,0,61,127,
2,19409, Note_off_c,0,58,127,
2,19410, Note_off_c,0,61,127,
2,19410, Note_off_c,0,40,127,
2,19411, Note_on_c,0,61,127,
2,19412, Note_on_c,0,40,127,
2,19417, Note_off_c,0,40,127,
2,19418, Note_on_c,0,40,127,
2,19431, Note_off_c,0,40,127,
2,19432, Note_on_c,0,40,127,
2,19433, Note_off_c,0,61,127,
2,19434, Note_on_c,0,61,127,
2,19434, Note_off_c,0,40,127,
2,19435, Note_on_c,0,39,127,
2,19435, Note_off_c,0,61,127,
2,19436, Note_on_c,0,61,127,
2,19436, Note_off_c,0,39,127,
2,19437, Note_on_c,0,40,127,
2,19437, Note_off_c,0,61,127,
2,19442, Note_on_c,0,39,127,
2,19442, Note_off_c,0,40,127,
2,19443, Note_on_c,0,40,127,
2,19443, Note_off_c,0,39,127,
2,19511, Note_on_c,0,39,127,
2,19511, Note_off_c,0,40,127,
2,19512, Note_on_c,0,40,127,
2,19512, Note_off_c,0,39,127,
2,19521, Note_on_c,0,49,127,
2,19521, Note_off_c,0,40,127,
2,19522, Note_on_c,0,40,127,
2,19522, Note_off_c,0,49,127,
2,19531, Note_on_c,0,64,127,
2,19531, Note_off_c,0,40,127,
2,19532, Note_on_c,0,61,127,
2,19532, Note_on_c,0,40,127,
2,19532, Note_off_c,0,64,127,
2,19535, Note_off_c,0,61,127,
2,19536, Note_on_c,0,61,127,
2,19536, Note_off_c,0,40,127,
2,19537, Note_on_c,0,40,127,
2,19581, Note_on_c,0,64,127,
2,19581, Note_off_c,0,61,127,
2,19582, Note_on_c,0,61,127,
2,19582, Note_off_c,0,64,127,
2,19585, Note_on_c,0,64,127,
2,19585, Note_off_c,0,61,127,
2,19586, Note_on_c,0,61,127,
2,19586, Note_off_c,0,64,127,
2,19587, Note_on_c,0,68,127,
2,19587, Note_off_c,0,61,127,
2,19588, Note_on_c,0,64,127,
2,19588, Note_off_c,0,68,127,
2,19589, Note_on_c,0,61,127,
2,19589, Note_off_c,0,64,127,
2,19593, Note_on_c,0,58,127,
2,19593, Note_off_c,0,61,127,
2,19594, Note_on_c,0,61,127,
2,19594, Note_off_c,0,58,127,
2,19596, Note_on_c,0,39,127,
2,19596, Note_off_c,0,40,127,
2,19597, Note_on_c,0,40,127,
2,19597, Note_off_c,0,39,127,
2,19618, Note_on_c,0,37,127,
2,19618, Note_off_c,0,40,127,
2,19619, Note_on_c,0,40,127,
2,19619, Note_off_c,0,37,127,
2,19621, Note_on_c,0,64,127,
2,19621, Note_off_c,0,61,127,
2,19622, Note_on_c,0,61,127,
2,19622, Note_off_c,0,64,127,
2,19635, Note_on_c,0,64,127,
2,19635, Note_off_c,0,61,127,
2,19636, Note_on_c,0,61,127,
2,19636, Note_off_c,0,64,127,
2,19644, Note_on_c,0,58,127,
2,19644, Note_off_c,0,61,127,
2,19645, Note_on_c,0,61,127,
2,19645, Note_on_c,0,37,127,
2,19645, Note_off_c,0,58,127,
2,19645, Note_off_c,0,40,127,
2,19646, Note_on_c,0,40,127,
2,19646, Note_off_c,0,37,127,
2,19659, Note_on_c,0,64,127,
2,19659, Note_off_c,0,61,127,
2,19660, Note_on_c,0,61,127,
2,19660, Note_off_c,0,64,127,
2,19683, Note_on_c,0,50,127,
2,19683, Note_off_c,0,40,127,
2,19684, Note_on_c,0,40,127,
2,19684, Note_off_c,0,50,127,
2,19694, Note_on_c,0,64,127,
2,19694, Note_off_c,0,61,127,
2,19695, Note_on_c,0,61,127,
2,19695, Note_off_c,0,64,127,
2,19697, Note_on_c,0,64,127,
2,19697, Note_off_c,0,61,127,
2,19699, Note_on_c,0,61,127,
2,19699, Note_off_c,0,64,127,
2,19707, Note_on_c,0,78,127,
2,19707, Note_off_c,0,61,127,
2,19707, Note_off_c,0,40,127,
2,19708, Note_on_c,0,64,127,
2,19708, Note_on_c,0,40,127,
2,19708, Note_off_c,0,78,127,
2,19709, Note_on_c,0,61,127,
2,19709, Note_off_c,0,64,127,
2,19714, Note_on_c,0,64,127,
2,19714, Note_off_c,0,61,127,
2,19715, Note_on_c,0,61,127,
2,19715, Note_off_c,0,64,127,
2,19715, Note_off_c,0,40,127,
2,19716, Note_on_c,0,40,127,
2,19717, Note_on_c,0,43,127,
2,19717, Note_on_c,0,64,127,
2,19717, Note_off_c,0,61,127,
2,19717, Note_off_c,0,40,127,
2,19718, Note_on_c,0,61,127,
2,19718, Note_on_c,0,40,127,
2,19718, Note_off_c,0,43,127,
2,19718, Note_off_c,0,64,127,
2,19719, Note_off_c,0,61,127,
2,19720, Note_on_c,0,61,127,
2,19720, Note_off_c,0,40,127,
2,19721, Note_on_c,0,40,127,
2,19721, Note_off_c,0,61,127,
2,19735, Note_on_c,0,37,127,
2,19735, Note_off_c,0,40,127,
2,19736, Note_on_c,0,40,127,
2,19736, Note_off_c,0,37,127,
2,19754, Note_on_c,0,61,127,
2,19755, Note_on_c,0,39,127,
2,19755, Note_off_c,0,61,127,
2,19756, Note_on_c,0,61,127,
2,19756, Note_off_c,0,39,127,
2,19757, Note_on_c,0,49,127,
2,19757, Note_off_c,0,61,127,
2,19758, Note_on_c,0,61,127,
2,19758, Note_off_c,0,49,127,
2,19760, Note_on_c,0,52,127,
2,19761, Note_on_c,0,44,127,
2,19761, Note_off_c,0,52,127,
2,19762, Note_on_c,0,64,127,
2,19762, Note_off_c,0,44,127,
2,19762, Note_off_c,0,61,127,
2,19763, Note_on_c,0,61,127,
2,19763, Note_off_c,0,64,127,
2,19765, Note_on_c,0,49,127,
2,19765, Note_off_c,0,61,127,
2,19766, Note_on_c,0,61,127,
2,19766, Note_off_c,0,49,127,
2,19778, Note_on_c,0,37,127,
2,19778, Note_off_c,0,40,127,
2,19779, Note_on_c,0,40,127,
2,19779, Note_off_c,0,37,127,
2,19782, Note_on_c,0,58,127,
2,19782, Note_off_c,0,61,127,
2,19783, Note_on_c,0,61,127,
2,19783, Note_off_c,0,58,127,
2,19786, Note_on_c,0,64,127,
2,19786, Note_off_c,0,61,127,
2,19787, Note_on_c,0,61,127,
2,19787, Note_off_c,0,64,127,
2,19790, Note_on_c,0,64,127,
2,19790, Note_off_c,0,61,127,
2,19791, Note_on_c,0,61,127,
2,19791, Note_off_c,0,64,127,
2,19811, Note_on_c,0,64,127,
2,19811, Note_off_c,0,61,127,
2,19812, Note_on_c,0,61,127,
2,19812, Note_off_c,0,64,127,
2,19815, Note_on_c,0,68,127,
2,19815, Note_off_c,0,61,127,
2,19816, Note_on_c,0,61,127,
2,19816, Note_off_c,0,68,127,
2,19820, Note_on_c,0,58,127,
2,19820, Note_off_c,0,61,127,
2,19821, Note_on_c,0,61,127,
2,19821, Note_off_c,0,58,127,
2,19825, Note_off_c,0,40,127,
2,19826, Note_on_c,0,40,127,
2,19830, Note_on_c,0,64,127,
2,19832, Note_off_c,0,64,127,
2,19833, Note_on_c,0,56,127,
2,19834, Note_off_c,0,56,127,
2,19836, Note_on_c,0,64,127,
2,19837, Note_off_c,0,64,127,
2,19840, Note_on_c,0,37,127,
2,19840, Note_off_c,0,40,127,
2,19841, Note_on_c,0,40,127,
2,19841, Note_off_c,0,37,127,
2,19842, Note_off_c,0,40,127,
2,19843, Note_on_c,0,64,127,
2,19843, Note_on_c,0,40,127,
2,19843, Note_off_c,0,61,127,
2,19844, Note_on_c,0,61,127,
2,19844, Note_off_c,0,64,127,
2,19855, Note_on_c,0,46,127,
2,19855, Note_off_c,0,40,127,
2,19856, Note_on_c,0,40,127,
2,19856, Note_off_c,0,46,127,
2,19860, Note_on_c,0,64,127,
2,19860, Note_off_c,0,61,127,
2,19861, Note_on_c,0,61,127,
2,19861, Note_off_c,0,64,127,
2,19867, Note_on_c,0,64,127,
2,19867, Note_off_c,0,61,127,
2,19868, Note_on_c,0,61,127,
2,19868, Note_off_c,0,64,127,
2,19869, Note_on_c,0,64,127,
2,19869, Note_off_c,0,61,127,
2,19870, Note_on_c,0,61,127,
2,19870, Note_off_c,0,64,127,
2,19874, Note_on_c,0,67,127,
2,19874, Note_off_c,0,61,127,
2,19875, Note_on_c,0,61,127,
2,19875, Note_off_c,0,67,127,
2,19888, Note_on_c,0,56,127,
2,19888, Note_off_c,0,61,127,
2,19889, Note_on_c,0,61,127,
2,19889, Note_off_c,0,56,127,
2,19898, Note_on_c,0,35,127,
2,19898, Note_off_c,0,40,127,
2,19899, Note_on_c,0,40,127,
2,19899, Note_off_c,0,35,127,
2,19901, Note_on_c,0,39,127,
2,19901, Note_off_c,0,40,127,
2,19902, Note_on_c,0,40,127,
2,19902, Note_off_c,0,39,127,
2,19923, Note_on_c,0,46,127,
2,19923, Note_off_c,0,61,127,
2,19924, Note_on_c,0,61,127,
2,19924, Note_off_c,0,46,127,
2,19928, Note_on_c,0,63,127,
2,19928, Note_off_c,0,61,127,
2,19929, Note_on_c,0,61,127,
2,19929, Note_off_c,0,63,127,
2,19930, Note_off_c,0,40,127,
2,19932, Note_on_c,0,40,127,
2,19935, Note_on_c,0,37,127,
2,19935, Note_off_c,0,40,127,
2,19936, Note_on_c,0,40,127,
2,19936, Note_off_c,0,37,127,
2,19942, Note_off_c,0,40,127,
2,19943, Note_on_c,0,40,127,
2,19944, Note_off_c,0,40,127,
2,19945, Note_on_c,0,40,127,
2,19958, Note_off_c,0,61,127,
2,19959, Note_on_c,0,64,127,
2,19959, Note_off_c,0,40,127,
2,19960, Note_on_c,0,61,127,
2,19960, Note_on_c,0,40,127,
2,19960, Note_off_c,0,64,127,
2,19971, Note_off_c,0,40,127,
2,19972, Note_on_c,0,40,127,
2,19973, Note_off_c,0,40,127,
2,19974, Note_on_c,0,40,127,
2,19991, Note_off_c,0,61,127,
2,19991, Note_off_c,0,40,127,
2,19992, Note_on_c,0,61,127,
2,19993, Note_on_c,0,40,127,
2,20002, Note_on_c,0,58,127,
2,20002, Note_off_c,0,61,127,
2,20003, Note_on_c,0,61,127,
2,20003, Note_off_c,0,58,127,
2,20005, Note_on_c,0,64,127,
2,20005, Note_off_c,0,61,127,
2,20006, Note_on_c,0,61,127,
2,20006, Note_off_c,0,64,127,
2,20010, Note_on_c,0,64,127,
2,20010, Note_off_c,0,61,127,
2,20011, Note_on_c,0,61,127,
2,20011, Note_off_c,0,64,127,
2,20019, Note_on_c,0,64,127,
2,20019, Note_off_c,0,61,127,
2,20020, Note_on_c,0,61,127,
2,20020, Note_off_c,0,64,127,
2,20021, Note_on_c,0,43,127,
2,20021, Note_off_c,0,40,127,
2,20022, Note_on_c,0,40,127,
2,20022, Note_off_c,0,43,127,
2,20074, Note_on_c,0,67,127,
2,20074, Note_off_c,0,40,127,
2,20075, Note_on_c,0,40,127,
2,20075, Note_off_c,0,67,127,
2,20077, Note_on_c,0,70,127,
2,20077, Note_off_c,0,61,127,
2,20078, Note_on_c,0,61,127,
2,20078, Note_off_c,0,70,127,
2,20079, Note_on_c,0,64,127,
2,20080, Note_off_c,0,64,127,
2,20081, Note_on_c,0,63,127,
2,20081, Note_off_c,0,61,127,
2,20082, Note_on_c,0,61,127,
2,20082, Note_off_c,0,63,127,
2,20084, Note_on_c,0,64,127,
2,20085, Note_off_c,0,64,127,
2,20092, Note_on_c,0,64,127,
2,20093, Note_off_c,0,64,127,
2,20094, Note_on_c,0,64,127,
2,20095, Note_off_c,0,64,127,
2,20097, Note_off_c,0,40,127,
2,20098, Note_on_c,0,40,127,
2,20099, Note_on_c,0,64,127,
2,20100, Note_off_c,0,64,127,
2,20101, Note_on_c,0,64,127,
2,20101, Note_on_c,0,58,127,
2,20101, Note_off_c,0,61,127,
2,20102, Note_on_c,0,61,127,
2,20102, Note_off_c,0,58,127,
2,20103, Note_off_c,0,64,127,
2,20104, Note_off_c,0,40,127,
2,20105, Note_on_c,0,40,127,
2,20110, Note_on_c,0,70,127,
2,20111, Note_off_c,0,70,127,
2,20117, Note_on_c,0,64,127,
2,20118, Note_on_c,0,39,127,
2,20118, Note_off_c,0,40,127,
2,20119, Note_on_c,0,40,127,
2,20119, Note_off_c,0,64,127,
2,20119, Note_off_c,0,39,127,
2,20120, Note_on_c,0,64,127,
2,20121, Note_on_c,0,34,127,
2,20121, Note_off_c,0,64,127,
2,20121, Note_off_c,0,40,127,
2,20122, Note_on_c,0,40,127,
2,20122, Note_off_c,0,34,127,
2,20123, Note_off_c,0,40,127,
2,20125, Note_on_c,0,40,127,
2,20126, Note_on_c,0,37,127,
2,20126, Note_off_c,0,40,127,
2,20127, Note_on_c,0,40,127,
2,20127, Note_off_c,0,37,127,
2,20129, Note_on_c,0,53,127,
2,20129, Note_off_c,0,61,127,
2,20130, Note_on_c,0,61,127,
2,20130, Note_on_c,0,35,127,
2,20130, Note_off_c,0,53,127,
2,20130, Note_off_c,0,40,127,
2,20131, Note_on_c,0,40,127,
2,20131, Note_off_c,0,35,127,
2,20132, Note_on_c,0,63,127,
2,20133, Note_off_c,0,63,127,
2,20136, Note_on_c,0,70,127,
2,20137, Note_off_c,0,70,127,
2,20141, Note_off_c,0,40,127,
2,20142, Note_on_c,0,64,127,
2,20142, Note_on_c,0,40,127,
2,20143, Note_off_c,0,64,127,
2,20150, Note_on_c,0,64,127,
2,20150, Note_off_c,0,61,127,
2,20151, Note_on_c,0,61,127,
2,20151, Note_off_c,0,64,127,
2,20152, Note_on_c,0,58,127,
2,20153, Note_off_c,0,58,127,
2,20157, Note_on_c,0,64,127,
2,20158, Note_off_c,0,64,127,
2,20162, Note_off_c,0,40,127,
2,20163, Note_on_c,0,40,127,
2,20164, Note_on_c,0,64,127,
2,20164, Note_off_c,0,61,127,
2,20165, Note_on_c,0,61,127,
2,20165, Note_off_c,0,64,127,
2,20171, Note_off_c,0,40,127,
2,20172, Note_on_c,0,40,127,
2,20182, Note_on_c,0,64,127,
2,20184, Note_off_c,0,61,127,
2,20185, Note_on_c,0,61,127,
2,20186, Note_off_c,0,64,127,
2,20187, Note_on_c,0,64,127,
2,20188, Note_off_c,0,64,127,
2,20191, Note_on_c,0,70,127,
2,20192, Note_on_c,0,64,127,
2,20192, Note_off_c,0,70,127,
2,20193, Note_off_c,0,64,127,
2,20195, Note_on_c,0,64,127,
2,20196, Note_off_c,0,64,127,
2,20198, Note_off_c,0,40,127,
2,20199, Note_on_c,0,40,127,
2,20210, Note_on_c,0,63,127,
2,20210, Note_off_c,0,61,127,
2,20210, Note_off_c,0,40,127,
2,20211, Note_on_c,0,40,127,
2,20211, Note_off_c,0,63,127,
2,20216, Note_on_c,0,61,127,
2,20217, Note_on_c,0,56,127,
2,20217, Note_off_c,0,40,127,
2,20218, Note_on_c,0,40,127,
2,20218, Note_off_c,0,56,127,
2,20220, Note_on_c,0,49,127,
2,20221, Note_on_c,0,46,127,
2,20221, Note_off_c,0,49,127,
2,20222, Note_off_c,0,46,127,
2,20223, Note_on_c,0,49,127,
2,20224, Note_on_c,0,46,127,
2,20224, Note_off_c,0,49,127,
2,20225, Note_off_c,0,46,127,
2,20226, Note_on_c,0,43,127,
2,20226, Note_off_c,0,40,127,
2,20227, Note_on_c,0,58,127,
2,20227, Note_on_c,0,40,127,
2,20227, Note_off_c,0,43,127,
2,20228, Note_on_c,0,64,127,
2,20228, Note_on_c,0,37,127,
2,20228, Note_off_c,0,58,127,
2,20229, Note_on_c,0,38,127,
2,20229, Note_off_c,0,37,127,
2,20230, Note_on_c,0,47,127,
2,20230, Note_off_c,0,38,127,
2,20230, Note_off_c,0,64,127,
2,20231, Note_on_c,0,46,127,
2,20231, Note_off_c,0,47,127,
2,20232, Note_off_c,0,46,127,
2,20238, Note_on_c,0,64,127,
2,20238, Note_off_c,0,61,127,
2,20239, Note_on_c,0,61,127,
2,20239, Note_on_c,0,39,127,
2,20239, Note_off_c,0,64,127,
2,20239, Note_off_c,0,40,127,
2,20240, Note_on_c,0,40,127,
2,20240, Note_off_c,0,39,127,
2,20244, Note_on_c,0,64,127,
2,20244, Note_off_c,0,61,127,
2,20245, Note_on_c,0,61,127,
2,20245, Note_off_c,0,64,127,
2,20248, Note_on_c,0,39,127,
2,20248, Note_off_c,0,40,127,
2,20249, Note_on_c,0,40,127,
2,20249, Note_off_c,0,39,127,
2,20252, Note_on_c,0,34,127,
2,20252, Note_off_c,0,40,127,
2,20253, Note_on_c,0,40,127,
2,20253, Note_off_c,0,34,127,
2,20254, Note_on_c,0,64,127,
2,20254, Note_on_c,0,37,127,
2,20254, Note_off_c,0,61,127,
2,20254, Note_off_c,0,40,127,
2,20255, Note_on_c,0,61,127,
2,20255, Note_on_c,0,40,127,
2,20255, Note_off_c,0,64,127,
2,20255, Note_off_c,0,37,127,
2,20256, Note_on_c,0,64,127,
2,20256, Note_off_c,0,61,127,
2,20257, Note_on_c,0,61,127,
2,20257, Note_off_c,0,64,127,
2,20260, Note_on_c,0,59,127,
2,20260, Note_off_c,0,61,127,
2,20261, Note_on_c,0,61,127,
2,20261, Note_off_c,0,59,127,
2,20271, Note_on_c,0,67,127,
2,20271, Note_off_c,0,40,127,
2,20272, Note_on_c,0,59,127,
2,20272, Note_on_c,0,40,127,
2,20272, Note_off_c,0,67,127,
2,20273, Note_off_c,0,59,127,
2,20281, Note_on_c,0,35,127,
2,20281, Note_off_c,0,40,127,
2,20282, Note_on_c,0,40,127,
2,20282, Note_off_c,0,35,127,
2,20285, Note_on_c,0,46,127,
2,20285, Note_off_c,0,40,127,
2,20286, Note_on_c,0,40,127,
2,20286, Note_off_c,0,46,127,
2,20306, Note_on_c,0,64,127,
2,20306, Note_off_c,0,61,127,
2,20307, Note_on_c,0,61,127,
2,20307, Note_off_c,0,64,127,
2,20313, Note_on_c,0,64,127,
2,20313, Note_off_c,0,61,127,
2,20314, Note_on_c,0,61,127,
2,20314, Note_off_c,0,64,127,
2,20316, Note_on_c,0,64,127,
2,20316, Note_off_c,0,61,127,
2,20317, Note_on_c,0,61,127,
2,20317, Note_off_c,0,64,127,
2,20328, Note_on_c,0,56,127,
2,20328, Note_on_c,0,37,127,
2,20328, Note_off_c,0,61,127,
2,20328, Note_off_c,0,40,127,
2,20329, Note_on_c,0,61,127,
2,20329, Note_on_c,0,40,127,
2,20329, Note_off_c,0,56,127,
2,20329, Note_off_c,0,37,127,
2,20334, Note_on_c,0,59,127,
2,20334, Note_off_c,0,61,127,
2,20335, Note_on_c,0,61,127,
2,20335, Note_off_c,0,59,127,
2,20343, Note_on_c,0,63,127,
2,20343, Note_off_c,0,61,127,
2,20344, Note_on_c,0,61,127,
2,20344, Note_off_c,0,63,127,
2,20347, Note_on_c,0,49,127,
2,20347, Note_off_c,0,61,127,
2,20348, Note_on_c,0,61,127,
2,20348, Note_off_c,0,49,127,
2,20349, Note_on_c,0,64,127,
2,20349, Note_off_c,0,61,127,
2,20350, Note_on_c,0,61,127,
2,20350, Note_off_c,0,64,127,
2,20357, Note_on_c,0,64,127,
2,20357, Note_off_c,0,61,127,
2,20358, Note_on_c,0,61,127,
2,20358, Note_off_c,0,64,127,
2,20384, Note_on_c,0,64,127,
2,20384, Note_off_c,0,61,127,
2,20385, Note_on_c,0,61,127,
2,20385, Note_off_c,0,64,127,
2,20386, Note_on_c,0,56,127,
2,20386, Note_off_c,0,61,127,
2,20387, Note_on_c,0,61,127,
2,20387, Note_off_c,0,56,127,
2,20388, Note_off_c,0,61,127,
2,20389, Note_on_c,0,61,127,
2,20389, Note_off_c,0,40,127,
2,20390, Note_on_c,0,40,127,
2,20390, Note_off_c,0,61,127,
2,20391, Note_on_c,0,68,127,
2,20391, Note_on_c,0,37,127,
2,20391, Note_off_c,0,40,127,
2,20392, Note_on_c,0,61,127,
2,20392, Note_on_c,0,40,127,
2,20392, Note_off_c,0,68,127,
2,20392, Note_off_c,0,37,127,
2,20393, Note_on_c,0,43,127,
2,20393, Note_on_c,0,64,127,
2,20393, Note_off_c,0,61,127,
2,20393, Note_off_c,0,40,127,
2,20394, Note_on_c,0,61,127,
2,20394, Note_on_c,0,40,127,
2,20394, Note_off_c,0,43,127,
2,20394, Note_off_c,0,64,127,
2,20419, Note_on_c,0,68,127,
2,20419, Note_off_c,0,61,127,
2,20420, Note_on_c,0,61,127,
2,20420, Note_off_c,0,68,127,
2,20423, Note_on_c,0,64,127,
2,20423, Note_off_c,0,61,127,
2,20424, Note_on_c,0,61,127,
2,20424, Note_off_c,0,64,127,
2,20428, Note_on_c,0,39,127,
2,20428, Note_off_c,0,40,127,
2,20429, Note_on_c,0,40,127,
2,20429, Note_off_c,0,39,127,
2,20437, Note_on_c,0,39,127,
2,20437, Note_off_c,0,40,127,
2,20438, Note_on_c,0,63,127,
2,20438, Note_on_c,0,40,127,
2,20438, Note_off_c,0,61,127,
2,20438, Note_off_c,0,39,127,
2,20439, Note_on_c,0,61,127,
2,20439, Note_off_c,0,63,127,
2,20447, Note_on_c,0,68,127,
2,20447, Note_off_c,0,61,127,
2,20448, Note_on_c,0,56,127,
2,20448, Note_off_c,0,68,127,
2,20449, Note_on_c,0,61,127,
2,20449, Note_off_c,0,56,127,
2,20456, Note_on_c,0,64,127,
2,20456, Note_off_c,0,61,127,
2,20457, Note_on_c,0,61,127,
2,20457, Note_off_c,0,64,127,
2,20459, Note_on_c,0,64,127,
2,20459, Note_off_c,0,61,127,
2,20460, Note_on_c,0,61,127,
2,20460, Note_off_c,0,64,127,
2,20468, Note_on_c,0,39,127,
2,20468, Note_off_c,0,40,127,
2,20469, Note_on_c,0,40,127,
2,20469, Note_off_c,0,39,127,
2,20470, Note_on_c,0,64,127,
2,20470, Note_off_c,0,61,127,
2,20471, Note_on_c,0,61,127,
2,20471, Note_off_c,0,64,127,
2,20474, Note_on_c,0,70,127,
2,20474, Note_off_c,0,61,127,
2,20476, Note_on_c,0,64,127,
2,20476, Note_off_c,0,70,127,
2,20477, Note_on_c,0,61,127,
2,20477, Note_off_c,0,64,127,
2,20481, Note_on_c,0,46,127,
2,20481, Note_off_c,0,40,127,
2,20482, Note_on_c,0,40,127,
2,20482, Note_off_c,0,46,127,
2,20486, Note_off_c,0,40,127,
2,20487, Note_on_c,0,40,127,
2,20488, Note_on_c,0,64,127,
2,20488, Note_on_c,0,46,127,
2,20488, Note_off_c,0,61,127,
2,20488, Note_off_c,0,40,127,
2,20489, Note_on_c,0,61,127,
2,20489, Note_on_c,0,40,127,
2,20489, Note_off_c,0,46,127,
2,20490, Note_on_c,0,34,127,
2,20490, Note_off_c,0,64,127,
2,20490, Note_off_c,0,40,127,
2,20491, Note_on_c,0,40,127,
2,20491, Note_off_c,0,34,127,
2,20496, Note_on_c,0,63,127,
2,20497, Note_off_c,0,63,127,
2,20498, Note_off_c,0,40,127,
2,20499, Note_on_c,0,40,127,
2,20505, Note_on_c,0,64,127,
2,20505, Note_off_c,0,61,127,
2,20506, Note_on_c,0,61,127,
2,20506, Note_off_c,0,64,127,
2,20520, Note_on_c,0,64,127,
2,20520, Note_off_c,0,61,127,
2,20521, Note_on_c,0,61,127,
2,20521, Note_off_c,0,64,127,
2,20523, Note_on_c,0,64,127,
2,20523, Note_off_c,0,61,127,
2,20524, Note_on_c,0,61,127,
2,20524, Note_off_c,0,64,127,
2,20537, Note_on_c,0,44,127,
2,20537, Note_off_c,0,40,127,
2,20538, Note_on_c,0,68,127,
2,20538, Note_on_c,0,40,127,
2,20538, Note_off_c,0,44,127,
2,20538, Note_off_c,0,61,127,
2,20539, Note_on_c,0,61,127,
2,20539, Note_off_c,0,68,127,
2,20549, Note_on_c,0,64,127,
2,20549, Note_off_c,0,61,127,
2,20550, Note_on_c,0,61,127,
2,20550, Note_off_c,0,64,127,
2,20553, Note_on_c,0,64,127,
2,20553, Note_off_c,0,61,127,
2,20554, Note_on_c,0,71,127,
2,20554, Note_on_c,0,61,127,
2,20554, Note_off_c,0,64,127,
2,20555, Note_off_c,0,71,127,
2,20557, Note_on_c,0,64,127,
2,20559, Note_off_c,0,61,127,
2,20560, Note_on_c,0,61,127,
2,20560, Note_off_c,0,64,127,
2,20561, Note_on_c,0,70,127,
2,20562, Note_on_c,0,64,127,
2,20562, Note_off_c,0,61,127,
2,20562, Note_off_c,0,70,127,
2,20563, Note_on_c,0,61,127,
2,20563, Note_off_c,0,64,127,
2,20564, Note_on_c,0,64,127,
2,20564, Note_on_c,0,70,127,
2,20564, Note_off_c,0,61,127,
2,20565, Note_on_c,0,61,127,
2,20565, Note_off_c,0,64,127,
2,20565, Note_off_c,0,70,127,
2,20567, Note_on_c,0,58,127,
2,20568, Note_on_c,0,64,127,
2,20568, Note_off_c,0,58,127,
2,20569, Note_off_c,0,64,127,
2,20581, Note_on_c,0,52,127,
2,20582, Note_off_c,0,52,127,
2,20585, Note_on_c,0,63,127,
2,20586, Note_off_c,0,63,127,
2,20587, Note_on_c,0,49,127,
2,20588, Note_off_c,0,49,127,
2,20589, Note_on_c,0,70,127,
2,20589, Note_off_c,0,40,127,
2,20590, Note_on_c,0,64,127,
2,20590, Note_on_c,0,40,127,
2,20590, Note_off_c,0,70,127,
2,20591, Note_off_c,0,64,127,
2,20595, Note_on_c,0,64,127,
2,20596, Note_on_c,0,39,127,
2,20596, Note_off_c,0,40,127,
2,20597, Note_on_c,0,40,127,
2,20597, Note_off_c,0,64,127,
2,20597, Note_off_c,0,39,127,
2,20598, Note_on_c,0,67,127,
2,20599, Note_on_c,0,58,127,
2,20599, Note_off_c,0,67,127,
2,20601, Note_off_c,0,58,127,
2,20604, Note_on_c,0,39,127,
2,20604, Note_off_c,0,40,127,
2,20605, Note_on_c,0,40,127,
2,20605, Note_off_c,0,39,127,
2,20607, Note_on_c,0,58,127,
2,20608, Note_off_c,0,58,127,
2,20612, Note_on_c,0,64,127,
2,20613, Note_off_c,0,64,127,
2,20616, Note_on_c,0,64,127,
2,20617, Note_off_c,0,64,127,
2,20618, Note_on_c,0,70,127,
2,20619, Note_off_c,0,70,127,
2,20620, Note_off_c,0,40,127,
2,20622, Note_on_c,0,40,127,
2,20633, Note_on_c,0,52,127,
2,20633, Note_off_c,0,40,127,
2,20634, Note_on_c,0,40,127,
2,20634, Note_off_c,0,52,127,
2,20636, Note_on_c,0,58,127,
2,20636, Note_off_c,0,61,127,
2,20637, Note_on_c,0,61,127,
2,20637, Note_off_c,0,58,127,
2,20637, Note_off_c,0,40,127,
2,20638, Note_on_c,0,40,127,
2,20639, Note_on_c,0,64,127,
2,20640, Note_off_c,0,64,127,
2,20645, Note_off_c,0,40,127,
2,20647, Note_on_c,0,40,127,
2,20648, Note_off_c,0,61,127,
2,20649, Note_on_c,0,61,127,
2,20649, Note_off_c,0,40,127,
2,20650, Note_on_c,0,40,127,
2,20650, Note_off_c,0,61,127,
2,20663, Note_on_c,0,35,127,
2,20663, Note_off_c,0,40,127,
2,20664, Note_on_c,0,40,127,
2,20664, Note_off_c,0,35,127,
2,20712, Note_on_c,0,61,127,
2,20712, Note_off_c,0,40,127,
2,20713, Note_on_c,0,40,127,
2,20713, Note_off_c,0,61,127,
2,20716, Note_on_c,0,76,127,
2,20717, Note_off_c,0,76,127,
2,20743, Note_on_c,0,61,127,
2,20744, Note_off_c,0,61,127,
2,20745, Note_on_c,0,64,127,
2,20746, Note_on_c,0,56,127,
2,20747, Note_on_c,0,61,127,
2,20747, Note_off_c,0,64,127,
2,20747, Note_off_c,0,56,127,
2,20748, Note_on_c,0,76,127,
2,20748, Note_off_c,0,61,127,
2,20749, Note_on_c,0,64,127,
2,20749, Note_off_c,0,76,127,
2,20750, Note_on_c,0,61,127,
2,20750, Note_off_c,0,64,127,
2,20755, Note_on_c,0,70,127,
2,20755, Note_off_c,0,61,127,
2,20756, Note_on_c,0,61,127,
2,20756, Note_on_c,0,39,127,
2,20756, Note_off_c,0,40,127,
2,20756, Note_off_c,0,70,127,
2,20757, Note_on_c,0,40,127,
2,20757, Note_off_c,0,39,127,
2,20761, Note_on_c,0,49,127,
2,20761, Note_off_c,0,61,127,
2,20762, Note_on_c,0,61,127,
2,20762, Note_off_c,0,49,127,
2,20764, Note_on_c,0,58,127,
2,20764, Note_off_c,0,61,127,
2,20765, Note_on_c,0,61,127,
2,20765, Note_off_c,0,58,127,
2,20770, Note_on_c,0,63,127,
2,20770, Note_off_c,0,40,127,
2,20771, Note_on_c,0,40,127,
2,20771, Note_off_c,0,63,127,
2,20788, Note_on_c,0,63,127,
2,20788, Note_off_c,0,61,127,
2,20789, Note_on_c,0,61,127,
2,20789, Note_off_c,0,63,127,
2,20790, Note_on_c,0,66,127,
2,20790, Note_off_c,0,61,127,
2,20792, Note_on_c,0,61,127,
2,20792, Note_off_c,0,66,127,
2,20794, Note_on_c,0,63,127,
2,20794, Note_off_c,0,61,127,
2,20795, Note_on_c,0,61,127,
2,20795, Note_off_c,0,63,127,
2,20796, Note_on_c,0,63,127,
2,20796, Note_off_c,0,61,127,
2,20797, Note_on_c,0,61,127,
2,20797, Note_off_c,0,63,127,
2,20809, Note_on_c,0,64,127,
2,20809, Note_off_c,0,61,127,
2,20810, Note_on_c,0,61,127,
2,20810, Note_off_c,0,64,127,
2,20811, Note_on_c,0,39,127,
2,20811, Note_off_c,0,40,127,
2,20812, Note_on_c,0,40,127,
2,20812, Note_off_c,0,39,127,
2,20815, Note_on_c,0,56,127,
2,20815, Note_off_c,0,61,127,
2,20816, Note_on_c,0,61,127,
2,20816, Note_off_c,0,56,127,
2,20818, Note_on_c,0,64,127,
2,20818, Note_off_c,0,61,127,
2,20820, Note_on_c,0,61,127,
2,20820, Note_off_c,0,64,127,
2,20829, Note_on_c,0,59,127,
2,20829, Note_off_c,0,61,127,
2,20830, Note_on_c,0,56,127,
2,20830, Note_off_c,0,59,127,
2,20831, Note_on_c,0,64,127,
2,20831, Note_off_c,0,56,127,
2,20832, Note_on_c,0,61,127,
2,20832, Note_off_c,0,64,127,
2,20833, Note_on_c,0,64,127,
2,20833, Note_off_c,0,61,127,
2,20834, Note_on_c,0,61,127,
2,20834, Note_off_c,0,64,127,
2,20842, Note_on_c,0,56,127,
2,20842, Note_off_c,0,61,127,
2,20843, Note_on_c,0,61,127,
2,20843, Note_off_c,0,56,127,
2,20852, Note_on_c,0,64,127,
2,20852, Note_off_c,0,61,127,
2,20853, Note_on_c,0,37,127,
2,20853, Note_off_c,0,64,127,
2,20854, Note_on_c,0,64,127,
2,20854, Note_off_c,0,37,127,
2,20855, Note_on_c,0,61,127,
2,20855, Note_on_c,0,49,127,
2,20855, Note_off_c,0,64,127,
2,20856, Note_on_c,0,52,127,
2,20856, Note_off_c,0,49,127,
2,20857, Note_on_c,0,64,127,
2,20857, Note_on_c,0,50,127,
2,20857, Note_off_c,0,61,127,
2,20857, Note_off_c,0,52,127,
2,20858, Note_on_c,0,61,127,
2,20858, Note_on_c,0,46,127,
2,20858, Note_off_c,0,64,127,
2,20858, Note_off_c,0,50,127,
2,20859, Note_on_c,0,49,127,
2,20859, Note_off_c,0,46,127,
2,20860, Note_on_c,0,64,127,
2,20860, Note_off_c,0,49,127,
2,20861, Note_off_c,0,61,127,
2,20862, Note_on_c,0,61,127,
2,20862, Note_off_c,0,64,127,
2,20863, Note_on_c,0,64,127,
2,20864, Note_on_c,0,49,127,
2,20864, Note_off_c,0,64,127,
2,20867, Note_off_c,0,49,127,
2,20868, Note_on_c,0,56,127,
2,20868, Note_off_c,0,61,127,
2,20869, Note_on_c,0,61,127,
2,20869, Note_off_c,0,56,127,
2,20870, Note_on_c,0,56,127,
2,20872, Note_on_c,0,64,127,
2,20872, Note_off_c,0,56,127,
2,20873, Note_off_c,0,64,127,
2,20874, Note_on_c,0,64,127,
2,20875, Note_on_c,0,59,127,
2,20875, Note_off_c,0,64,127,
2,20876, Note_off_c,0,59,127,
2,20877, Note_on_c,0,64,127,
2,20877, Note_on_c,0,59,127,
2,20877, Note_off_c,0,61,127,
2,20878, Note_on_c,0,61,127,
2,20878, Note_off_c,0,64,127,
2,20878, Note_off_c,0,59,127,
2,20886, Note_on_c,0,59,127,
2,20887, Note_off_c,0,59,127,
2,20902, Note_on_c,0,64,127,
2,20903, Note_off_c,0,64,127,
2,20904, Note_on_c,0,58,127,
2,20905, Note_off_c,0,58,127,
2,20906, Note_on_c,0,64,127,
2,20906, Note_off_c,0,61,127,
2,20907, Note_on_c,0,61,127,
2,20907, Note_off_c,0,64,127,
2,20907, Note_off_c,0,40,127,
2,20908, Note_on_c,0,40,127,
2,20912, Note_on_c,0,68,127,
2,20912, Note_off_c,0,40,127,
2,20913, Note_on_c,0,46,127,
2,20913, Note_off_c,0,68,127,
2,20914, Note_on_c,0,40,127,
2,20914, Note_off_c,0,46,127,
2,20915, Note_on_c,0,64,127,
2,20916, Note_off_c,0,64,127,
2,20917, Note_on_c,0,64,127,
2,20919, Note_off_c,0,64,127,
2,20920, Note_on_c,0,64,127,
2,20921, Note_on_c,0,46,127,
2,20921, Note_off_c,0,64,127,
2,20921, Note_off_c,0,40,127,
2,20922, Note_on_c,0,64,127,
2,20922, Note_on_c,0,40,127,
2,20922, Note_off_c,0,46,127,
2,20925, Note_off_c,0,64,127,
2,20926, Note_on_c,0,64,127,
2,20927, Note_off_c,0,64,127,
2,20928, Note_on_c,0,64,127,
2,20929, Note_off_c,0,64,127,
2,20932, Note_on_c,0,58,127,
2,20933, Note_off_c,0,58,127,
2,20938, Note_on_c,0,58,127,
2,20939, Note_off_c,0,58,127,
2,20940, Note_on_c,0,64,127,
2,20940, Note_off_c,0,61,127,
2,20941, Note_on_c,0,61,127,
2,20941, Note_off_c,0,64,127,
2,20941, Note_off_c,0,40,127,
2,20942, Note_on_c,0,40,127,
2,20959, Note_on_c,0,58,127,
2,20959, Note_off_c,0,61,127,
2,20960, Note_on_c,0,61,127,
2,20960, Note_off_c,0,58,127,
2,20969, Note_on_c,0,63,127,
2,20969, Note_off_c,0,61,127,
2,20970, Note_on_c,0,61,127,
2,20970, Note_off_c,0,63,127,
2,20971, Note_on_c,0,64,127,
2,20971, Note_off_c,0,61,127,
2,20972, Note_on_c,0,61,127,
2,20972, Note_off_c,0,64,127,
2,20976, Note_on_c,0,56,127,
2,20976, Note_off_c,0,40,127,
2,20977, Note_on_c,0,39,127,
2,20977, Note_off_c,0,56,127,
2,20978, Note_on_c,0,40,127,
2,20978, Note_off_c,0,39,127,
2,20980, Note_on_c,0,76,127,
2,20981, Note_off_c,0,76,127,
2,20986, Note_on_c,0,73,127,
2,20986, Note_on_c,0,46,127,
2,20986, Note_off_c,0,61,127,
2,20986, Note_off_c,0,40,127,
2,20987, Note_on_c,0,61,127,
2,20987, Note_on_c,0,40,127,
2,20987, Note_off_c,0,73,127,
2,20987, Note_off_c,0,46,127,
2,20990, Note_on_c,0,64,127,
2,20991, Note_off_c,0,64,127,
2,20997, Note_on_c,0,59,127,
2,20997, Note_off_c,0,61,127,
2,20998, Note_on_c,0,61,127,
2,20998, Note_off_c,0,59,127,
2,21016, Note_on_c,0,39,127,
2,21016, Note_off_c,0,40,127,
2,21017, Note_on_c,0,40,127,
2,21017, Note_off_c,0,39,127,
2,21033, Note_on_c,0,64,127,
2,21033, Note_on_c,0,49,127,
2,21033, Note_off_c,0,61,127,
2,21033, Note_off_c,0,40,127,
2,21034, Note_on_c,0,61,127,
2,21034, Note_on_c,0,40,127,
2,21034, Note_off_c,0,64,127,
2,21034, Note_off_c,0,49,127,
2,21043, Note_on_c,0,64,127,
2,21043, Note_off_c,0,61,127,
2,21044, Note_on_c,0,61,127,
2,21044, Note_off_c,0,64,127,
2,21050, Note_on_c,0,64,127,
2,21050, Note_off_c,0,61,127,
2,21051, Note_on_c,0,61,127,
2,21051, Note_off_c,0,64,127,
2,21057, Note_on_c,0,37,127,
2,21057, Note_off_c,0,40,127,
2,21058, Note_on_c,0,40,127,
2,21058, Note_off_c,0,37,127,
2,21059, Note_off_c,0,61,127,
2,21060, Note_on_c,0,64,127,
2,21060, Note_off_c,0,40,127,
2,21061, Note_on_c,0,61,127,
2,21061, Note_on_c,0,40,127,
2,21061, Note_off_c,0,64,127,
2,21063, Note_off_c,0,40,127,
2,21064, Note_on_c,0,40,127,
2,21065, Note_off_c,0,40,127,
2,21066, Note_on_c,0,40,127,
2,21067, Note_on_c,0,64,127,
2,21067, Note_on_c,0,46,127,
2,21067, Note_off_c,0,61,127,
2,21067, Note_off_c,0,40,127,
2,21068, Note_on_c,0,61,127,
2,21068, Note_on_c,0,40,127,
2,21068, Note_off_c,0,64,127,
2,21068, Note_off_c,0,46,127,
2,21069, Note_on_c,0,64,127,
2,21069, Note_off_c,0,61,127,
2,21070, Note_on_c,0,61,127,
2,21070, Note_on_c,0,46,127,
2,21070, Note_off_c,0,64,127,
2,21070, Note_off_c,0,40,127,
2,21071, Note_on_c,0,40,127,
2,21071, Note_off_c,0,46,127,
2,21072, Note_off_c,0,40,127,
2,21073, Note_on_c,0,40,127,
2,21080, Note_on_c,0,34,127,
2,21080, Note_off_c,0,40,127,
2,21081, Note_off_c,0,34,127,
2,21082, Note_on_c,0,40,127,
2,21096, Note_on_c,0,44,127,
2,21096, Note_off_c,0,40,127,
2,21097, Note_on_c,0,40,127,
2,21097, Note_off_c,0,44,127,
2,21111, Note_on_c,0,76,127,
2,21111, Note_off_c,0,40,127,
2,21112, Note_on_c,0,40,127,
2,21112, Note_off_c,0,76,127,
2,21113, Note_on_c,0,70,127,
2,21113, Note_off_c,0,61,127,
2,21113, Note_off_c,0,40,127,
2,21114, Note_on_c,0,64,127,
2,21114, Note_on_c,0,40,127,
2,21114, Note_off_c,0,70,127,
2,21115, Note_on_c,0,61,127,
2,21115, Note_off_c,0,64,127,
2,21120, Note_on_c,0,64,127,
2,21120, Note_off_c,0,61,127,
2,21121, Note_on_c,0,61,127,
2,21121, Note_off_c,0,64,127,
2,21134, Note_off_c,0,40,127,
2,21135, Note_on_c,0,40,127,
2,21142, Note_on_c,0,64,127,
2,21142, Note_on_c,0,39,127,
2,21142, Note_off_c,0,40,127,
2,21143, Note_on_c,0,40,127,
2,21143, Note_off_c,0,39,127,
2,21144, Note_on_c,0,58,127,
2,21144, Note_off_c,0,64,127,
2,21144, Note_off_c,0,40,127,
2,21145, Note_on_c,0,40,127,
2,21145, Note_off_c,0,58,127,
2,21149, Note_on_c,0,37,127,
2,21149, Note_off_c,0,40,127,
2,21150, Note_on_c,0,40,127,
2,21150, Note_off_c,0,37,127,
2,21153, Note_off_c,0,40,127,
2,21154, Note_on_c,0,40,127,
2,21167, Note_on_c,0,64,127,
2,21167, Note_off_c,0,61,127,
2,21168, Note_on_c,0,61,127,
2,21168, Note_off_c,0,64,127,
2,21176, Note_on_c,0,64,127,
2,21176, Note_off_c,0,61,127,
2,21177, Note_on_c,0,61,127,
2,21177, Note_off_c,0,64,127,
2,21180, Note_on_c,0,64,127,
2,21180, Note_off_c,0,61,127,
2,21181, Note_on_c,0,61,127,
2,21181, Note_off_c,0,64,127,
2,21187, Note_on_c,0,64,127,
2,21187, Note_off_c,0,61,127,
2,21189, Note_on_c,0,61,127,
2,21189, Note_off_c,0,64,127,
2,21190, Note_on_c,0,64,127,
2,21190, Note_off_c,0,40,127,
2,21191, Note_on_c,0,40,127,
2,21191, Note_off_c,0,64,127,
2,21193, Note_on_c,0,70,127,
2,21194, Note_off_c,0,70,127,
2,21195, Note_on_c,0,43,127,
2,21196, Note_off_c,0,43,127,
2,21200, Note_on_c,0,64,127,
2,21200, Note_off_c,0,61,127,
2,21201, Note_on_c,0,61,127,
2,21201, Note_off_c,0,64,127,
2,21203, Note_on_c,0,52,127,
2,21203, Note_off_c,0,40,127,
2,21204, Note_on_c,0,40,127,
2,21204, Note_off_c,0,52,127,
2,21205, Note_on_c,0,64,127,
2,21205, Note_off_c,0,61,127,
2,21206, Note_on_c,0,61,127,
2,21206, Note_off_c,0,64,127,
2,21208, Note_on_c,0,39,127,
2,21208, Note_off_c,0,40,127,
2,21209, Note_on_c,0,40,127,
2,21209, Note_off_c,0,39,127,
2,21210, Note_on_c,0,64,127,
2,21210, Note_off_c,0,61,127,
2,21211, Note_on_c,0,61,127,
2,21211, Note_off_c,0,64,127,
2,21213, Note_on_c,0,63,127,
2,21213, Note_off_c,0,61,127,
2,21214, Note_on_c,0,61,127,
2,21214, Note_off_c,0,63,127,
2,21215, Note_on_c,0,58,127,
2,21215, Note_off_c,0,61,127,
2,21216, Note_on_c,0,61,127,
2,21216, Note_off_c,0,58,127,
2,21216, Note_off_c,0,40,127,
2,21217, Note_on_c,0,40,127,
2,21218, Note_off_c,0,40,127,
2,21219, Note_on_c,0,40,127,
2,21226, Note_on_c,0,64,127,
2,21226, Note_off_c,0,61,127,
2,21227, Note_on_c,0,61,127,
2,21227, Note_off_c,0,64,127,
2,21232, Note_on_c,0,64,127,
2,21232, Note_off_c,0,61,127,
2,21233, Note_on_c,0,61,127,
2,21233, Note_off_c,0,64,127,
2,21248, Note_on_c,0,37,127,
2,21248, Note_off_c,0,40,127,
2,21249, Note_on_c,0,40,127,
2,21249, Note_off_c,0,37,127,
2,21262, Note_on_c,0,52,127,
2,21262, Note_off_c,0,40,127,
2,21263, Note_on_c,0,40,127,
2,21263, Note_off_c,0,52,127,
2,21268, Note_on_c,0,64,127,
2,21268, Note_off_c,0,61,127,
2,21269, Note_on_c,0,61,127,
2,21269, Note_off_c,0,64,127,
2,21290, Note_off_c,0,40,127,
2,21291, Note_on_c,0,40,127,
2,21292, Note_on_c,0,76,127,
2,21292, Note_off_c,0,61,127,
2,21292, Note_off_c,0,40,127,
2,21293, Note_on_c,0,61,127,
2,21293, Note_on_c,0,40,127,
2,21293, Note_off_c,0,76,127,
2,21294, Note_on_c,0,39,127,
2,21294, Note_off_c,0,40,127,
2,21295, Note_on_c,0,64,127,
2,21295, Note_on_c,0,40,127,
2,21295, Note_off_c,0,61,127,
2,21295, Note_off_c,0,39,127,
2,21296, Note_on_c,0,61,127,
2,21296, Note_off_c,0,64,127,
2,21299, Note_on_c,0,29,127,
2,21299, Note_off_c,0,40,127,
2,21300, Note_on_c,0,40,127,
2,21300, Note_off_c,0,29,127,
2,21301, Note_on_c,0,64,127,
2,21301, Note_off_c,0,61,127,
2,21302, Note_on_c,0,61,127,
2,21302, Note_off_c,0,64,127,
2,21308, Note_on_c,0,46,127,
2,21308, Note_off_c,0,40,127,
2,21309, Note_on_c,0,40,127,
2,21309, Note_off_c,0,46,127,
2,21317, Note_off_c,0,40,127,
2,21318, Note_on_c,0,40,127,
2,21321, Note_on_c,0,64,127,
2,21322, Note_off_c,0,64,127,
2,21327, Note_on_c,0,64,127,
2,21328, Note_off_c,0,64,127,
2,21329, Note_on_c,0,63,127,
2,21329, Note_on_c,0,64,127,
2,21329, Note_off_c,0,61,127,
2,21330, Note_on_c,0,61,127,
2,21330, Note_off_c,0,63,127,
2,21330, Note_off_c,0,64,127,
2,21340, Note_on_c,0,37,127,
2,21340, Note_off_c,0,40,127,
2,21341, Note_on_c,0,40,127,
2,21341, Note_off_c,0,37,127,
2,21342, Note_on_c,0,64,127,
2,21342, Note_off_c,0,61,127,
2,21343, Note_on_c,0,61,127,
2,21343, Note_off_c,0,64,127,
2,21348, Note_on_c,0,64,127,
2,21348, Note_off_c,0,61,127,
2,21349, Note_on_c,0,61,127,
2,21349, Note_off_c,0,64,127,
2,21352, Note_on_c,0,64,127,
2,21352, Note_off_c,0,61,127,
2,21352, Note_off_c,0,40,127,
2,21353, Note_on_c,0,61,127,
2,21353, Note_on_c,0,40,127,
2,21353, Note_off_c,0,64,127,
2,21362, Note_on_c,0,56,127,
2,21362, Note_off_c,0,61,127,
2,21363, Note_on_c,0,61,127,
2,21363, Note_off_c,0,56,127,
2,21367, Note_on_c,0,64,127,
2,21367, Note_off_c,0,61,127,
2,21368, Note_on_c,0,56,127,
2,21368, Note_off_c,0,64,127,
2,21369, Note_on_c,0,75,127,
2,21369, Note_off_c,0,56,127,
2,21370, Note_on_c,0,61,127,
2,21370, Note_off_c,0,75,127,
2,21375, Note_on_c,0,63,127,
2,21375, Note_off_c,0,61,127,
2,21376, Note_on_c,0,61,127,
2,21376, Note_off_c,0,63,127,
2,21378, Note_off_c,0,61,127,
2,21379, Note_on_c,0,64,127,
2,21379, Note_off_c,0,40,127,
2,21380, Note_on_c,0,61,127,
2,21380, Note_on_c,0,40,127,
2,21380, Note_off_c,0,64,127,
2,21381, Note_on_c,0,64,127,
2,21382, Note_on_c,0,39,127,
2,21382, Note_off_c,0,61,127,
2,21382, Note_off_c,0,64,127,
2,21382, Note_off_c,0,40,127,
2,21383, Note_on_c,0,64,127,
2,21383, Note_on_c,0,61,127,
2,21383, Note_off_c,0,39,127,
2,21384, Note_on_c,0,40,127,
2,21384, Note_off_c,0,64,127,
2,21385, Note_on_c,0,64,127,
2,21387, Note_off_c,0,64,127,
2,21388, Note_off_c,0,40,127,
2,21389, Note_on_c,0,40,127,
2,21391, Note_on_c,0,68,127,
2,21391, Note_off_c,0,61,127,
2,21392, Note_on_c,0,61,127,
2,21392, Note_on_c,0,39,127,
2,21392, Note_off_c,0,68,127,
2,21392, Note_off_c,0,40,127,
2,21393, Note_on_c,0,40,127,
2,21393, Note_off_c,0,39,127,
2,21396, Note_on_c,0,64,127,
2,21396, Note_off_c,0,61,127,
2,21397, Note_on_c,0,61,127,
2,21397, Note_off_c,0,64,127,
2,21398, Note_on_c,0,64,127,
2,21398, Note_off_c,0,61,127,
2,21399, Note_on_c,0,61,127,
2,21399, Note_off_c,0,64,127,
2,21400, Note_on_c,0,64,127,
2,21400, Note_off_c,0,61,127,
2,21401, Note_on_c,0,61,127,
2,21401, Note_off_c,0,64,127,
2,21402, Note_on_c,0,64,127,
2,21402, Note_off_c,0,61,127,
2,21403, Note_on_c,0,61,127,
2,21403, Note_off_c,0,64,127,
2,21406, Note_on_c,0,49,127,
2,21406, Note_off_c,0,61,127,
2,21407, Note_on_c,0,61,127,
2,21407, Note_off_c,0,49,127,
2,21408, Note_on_c,0,39,127,
2,21408, Note_off_c,0,40,127,
2,21409, Note_on_c,0,40,127,
2,21409, Note_off_c,0,39,127,
2,21418, Note_on_c,0,46,127,
2,21418, Note_off_c,0,40,127,
2,21419, Note_on_c,0,40,127,
2,21419, Note_off_c,0,46,127,
2,21425, Note_on_c,0,49,127,
2,21425, Note_off_c,0,61,127,
2,21426, Note_on_c,0,70,127,
2,21426, Note_off_c,0,49,127,
2,21427, Note_on_c,0,61,127,
2,21427, Note_off_c,0,70,127,
2,21439, Note_on_c,0,39,127,
2,21439, Note_off_c,0,40,127,
2,21440, Note_on_c,0,40,127,
2,21440, Note_off_c,0,39,127,
2,21443, Note_on_c,0,39,127,
2,21443, Note_off_c,0,40,127,
2,21444, Note_on_c,0,52,127,
2,21444, Note_on_c,0,40,127,
2,21444, Note_off_c,0,61,127,
2,21444, Note_off_c,0,39,127,
2,21445, Note_on_c,0,61,127,
2,21445, Note_off_c,0,52,127,
2,21452, Note_on_c,0,39,127,
2,21452, Note_off_c,0,40,127,
2,21453, Note_on_c,0,40,127,
2,21453, Note_off_c,0,39,127,
2,21478, Note_on_c,0,64,127,
2,21478, Note_off_c,0,61,127,
2,21479, Note_on_c,0,61,127,
2,21479, Note_off_c,0,64,127,
2,21480, Note_on_c,0,64,127,
2,21480, Note_off_c,0,61,127,
2,21481, Note_on_c,0,61,127,
2,21482, Note_off_c,0,64,127,
2,21483, Note_on_c,0,64,127,
2,21484, Note_on_c,0,67,127,
2,21484, Note_off_c,0,64,127,
2,21485, Note_on_c,0,64,127,
2,21485, Note_off_c,0,67,127,
2,21486, Note_off_c,0,61,127,
2,21487, Note_on_c,0,61,127,
2,21487, Note_off_c,0,64,127,
2,21488, Note_off_c,0,61,127,
2,21488, Note_off_c,0,40,127,
2,21489, Note_on_c,0,61,127,
2,21489, Note_on_c,0,70,127,
2,21490, Note_on_c,0,64,127,
2,21490, Note_on_c,0,37,127,
2,21490, Note_off_c,0,61,127,
2,21490, Note_off_c,0,70,127,
2,21491, Note_on_c,0,40,127,
2,21491, Note_off_c,0,37,127,
2,21492, Note_on_c,0,61,127,
2,21492, Note_off_c,0,64,127,
2,21492, Note_off_c,0,40,127,
2,21493, Note_on_c,0,40,127,
2,21496, Note_on_c,0,64,127,
2,21496, Note_off_c,0,61,127,
2,21497, Note_on_c,0,61,127,
2,21497, Note_off_c,0,64,127,
2,21498, Note_on_c,0,64,127,
2,21498, Note_off_c,0,61,127,
2,21499, Note_on_c,0,61,127,
2,21499, Note_off_c,0,64,127,
2,21521, Note_on_c,0,64,127,
2,21521, Note_off_c,0,61,127,
2,21522, Note_on_c,0,61,127,
2,21522, Note_off_c,0,64,127,
2,21538, Note_on_c,0,64,127,
2,21538, Note_off_c,0,61,127,
2,21539, Note_on_c,0,61,127,
2,21539, Note_off_c,0,64,127,
2,21541, Note_on_c,0,37,127,
2,21541, Note_off_c,0,40,127,
2,21542, Note_on_c,0,40,127,
2,21542, Note_off_c,0,37,127,
2,21543, Note_on_c,0,64,127,
2,21543, Note_off_c,0,61,127,
2,21544, Note_on_c,0,61,127,
2,21544, Note_off_c,0,64,127,
2,21566, Note_on_c,0,52,127,
2,21566, Note_off_c,0,40,127,
2,21567, Note_on_c,0,40,127,
2,21567, Note_off_c,0,52,127,
2,21572, Note_on_c,0,46,127,
2,21572, Note_off_c,0,61,127,
2,21573, Note_on_c,0,61,127,
2,21573, Note_off_c,0,46,127,
2,21576, Note_on_c,0,49,127,
2,21576, Note_off_c,0,40,127,
2,21577, Note_off_c,0,49,127,
2,21578, Note_on_c,0,40,127,
2,21581, Note_on_c,0,37,127,
2,21581, Note_off_c,0,40,127,
2,21582, Note_on_c,0,40,127,
2,21582, Note_off_c,0,37,127,
2,21595, Note_on_c,0,76,127,
2,21595, Note_off_c,0,61,127,
2,21596, Note_on_c,0,61,127,
2,21596, Note_off_c,0,76,127,
2,21608, Note_on_c,0,64,127,
2,21608, Note_off_c,0,61,127,
2,21609, Note_on_c,0,61,127,
2,21609, Note_off_c,0,64,127,
2,21632, Note_on_c,0,64,127,
2,21632, Note_off_c,0,61,127,
2,21633, Note_on_c,0,61,127,
2,21633, Note_off_c,0,64,127,
2,21645, Note_on_c,0,35,127,
2,21645, Note_off_c,0,40,127,
2,21646, Note_on_c,0,40,127,
2,21646, Note_off_c,0,35,127,
2,21650, Note_off_c,0,40,127,
2,21651, Note_on_c,0,40,127,
2,21655, Note_on_c,0,43,127,
2,21655, Note_off_c,0,40,127,
2,21656, Note_off_c,0,43,127,
2,21657, Note_on_c,0,40,127,
2,21666, Note_on_c,0,58,127,
2,21666, Note_off_c,0,61,127,
2,21667, Note_on_c,0,61,127,
2,21667, Note_off_c,0,58,127,
2,21681, Note_on_c,0,39,127,
2,21681, Note_off_c,0,40,127,
2,21682, Note_on_c,0,64,127,
2,21682, Note_on_c,0,40,127,
2,21682, Note_off_c,0,61,127,
2,21682, Note_off_c,0,39,127,
2,21683, Note_on_c,0,61,127,
2,21683, Note_off_c,0,64,127,
2,21687, Note_on_c,0,64,127,
2,21687, Note_off_c,0,61,127,
2,21688, Note_on_c,0,56,127,
2,21688, Note_off_c,0,64,127,
2,21689, Note_on_c,0,61,127,
2,21689, Note_off_c,0,56,127,
2,21696, Note_on_c,0,66,127,
2,21696, Note_off_c,0,61,127,
2,21696, Note_off_c,0,40,127,
2,21697, Note_on_c,0,61,127,
2,21697, Note_off_c,0,66,127,
2,21698, Note_on_c,0,69,127,
2,21698, Note_off_c,0,61,127,
2,21699, Note_on_c,0,40,127,
2,21699, Note_off_c,0,69,127,
2,21700, Note_on_c,0,61,127,
2,21700, Note_off_c,0,40,127,
2,21701, Note_on_c,0,40,127,
2,21701, Note_off_c,0,61,127,
2,21755, Note_on_c,0,56,127,
2,21755, Note_off_c,0,40,127,
2,21756, Note_on_c,0,40,127,
2,21756, Note_off_c,0,56,127,
2,21782, Note_on_c,0,61,127,
2,21791, Note_on_c,0,64,127,
2,21791, Note_off_c,0,61,127,
2,21793, Note_on_c,0,61,127,
2,21793, Note_off_c,0,64,127,
2,21794, Note_on_c,0,64,127,
2,21794, Note_off_c,0,61,127,
2,21795, Note_on_c,0,61,127,
2,21795, Note_on_c,0,36,127,
2,21795, Note_off_c,0,64,127,
2,21795, Note_off_c,0,40,127,
2,21796, Note_on_c,0,37,127,
2,21796, Note_off_c,0,36,127,
2,21797, Note_on_c,0,64,127,
2,21797, Note_on_c,0,40,127,
2,21797, Note_off_c,0,61,127,
2,21797, Note_off_c,0,37,127,
2,21798, Note_on_c,0,61,127,
2,21798, Note_off_c,0,64,127,
2,21799, Note_on_c,0,68,127,
2,21799, Note_off_c,0,61,127,
2,21800, Note_on_c,0,61,127,
2,21800, Note_off_c,0,68,127,
2,21807, Note_on_c,0,64,127,
2,21807, Note_off_c,0,61,127,
2,21808, Note_on_c,0,61,127,
2,21808, Note_off_c,0,64,127,
2,21813, Note_off_c,0,40,127,
2,21814, Note_on_c,0,40,127,
2,21818, Note_off_c,0,40,127,
2,21819, Note_on_c,0,40,127,
2,21828, Note_on_c,0,66,127,
2,21828, Note_off_c,0,61,127,
2,21829, Note_on_c,0,61,127,
2,21829, Note_off_c,0,66,127,
2,21839, Note_on_c,0,64,127,
2,21839, Note_off_c,0,61,127,
2,21840, Note_on_c,0,61,127,
2,21840, Note_off_c,0,64,127,
2,21875, Note_on_c,0,34,127,
2,21875, Note_off_c,0,40,127,
2,21876, Note_on_c,0,49,127,
2,21876, Note_on_c,0,40,127,
2,21876, Note_off_c,0,61,127,
2,21876, Note_off_c,0,34,127,
2,21877, Note_on_c,0,61,127,
2,21877, Note_off_c,0,49,127,
2,21888, Note_on_c,0,39,127,
2,21888, Note_off_c,0,40,127,
2,21889, Note_on_c,0,40,127,
2,21889, Note_off_c,0,39,127,
2,21920, Note_on_c,0,58,127,
2,21920, Note_off_c,0,61,127,
2,21921, Note_on_c,0,61,127,
2,21921, Note_off_c,0,58,127,
2,21926, Note_on_c,0,35,127,
2,21926, Note_off_c,0,40,127,
2,21927, Note_on_c,0,40,127,
2,21927, Note_off_c,0,35,127,
2,21938, Note_on_c,0,58,127,
2,21938, Note_off_c,0,61,127,
2,21939, Note_on_c,0,61,127,
2,21939, Note_off_c,0,58,127,
2,21950, Note_on_c,0,64,127,
2,21950, Note_on_c,0,39,127,
2,21950, Note_off_c,0,61,127,
2,21950, Note_off_c,0,40,127,
2,21951, Note_on_c,0,61,127,
2,21951, Note_on_c,0,40,127,
2,21951, Note_off_c,0,64,127,
2,21951, Note_off_c,0,39,127,
2,21957, Note_off_c,0,61,127,
2,21958, Note_on_c,0,61,127,
2,21958, Note_off_c,0,40,127,
2,21959, Note_on_c,0,40,127,
2,21962, Note_on_c,0,52,127,
2,21962, Note_off_c,0,40,127,
2,21963, Note_on_c,0,40,127,
2,21963, Note_off_c,0,52,127,
2,21971, Note_on_c,0,39,127,
2,21971, Note_off_c,0,40,127,
2,21972, Note_on_c,0,40,127,
2,21972, Note_off_c,0,39,127,
2,21992, Note_on_c,0,58,127,
2,21992, Note_off_c,0,61,127,
2,21993, Note_on_c,0,61,127,
2,21993, Note_off_c,0,58,127,
2,22006, Note_on_c,0,39,127,
2,22006, Note_off_c,0,40,127,
2,22007, Note_on_c,0,40,127,
2,22007, Note_off_c,0,39,127,
2,22014, Note_on_c,0,64,127,
2,22014, Note_off_c,0,61,127,
2,22015, Note_on_c,0,61,127,
2,22015, Note_off_c,0,64,127,
2,22024, Note_on_c,0,63,127,
2,22024, Note_off_c,0,61,127,
2,22025, Note_on_c,0,61,127,
2,22025, Note_off_c,0,63,127,
2,22035, Note_on_c,0,58,127,
2,22035, Note_off_c,0,61,127,
2,22036, Note_on_c,0,61,127,
2,22036, Note_on_c,0,39,127,
2,22036, Note_off_c,0,58,127,
2,22036, Note_off_c,0,40,127,
2,22037, Note_on_c,0,40,127,
2,22037, Note_off_c,0,39,127,
2,22038, Note_off_c,0,40,127,
2,22039, Note_on_c,0,40,127,
2,22040, Note_off_c,0,61,127,
2,22053, Note_on_c,0,49,127,
2,22053, Note_off_c,0,40,127,
2,22054, Note_on_c,0,40,127,
2,22054, Note_off_c,0,49,127,
2,22111, Note_on_c,0,71,127,
2,22112, Note_off_c,0,71,127,
2,22113, Note_on_c,0,61,127,
2,22130, Note_on_c,0,58,127,
2,22130, Note_off_c,0,61,127,
2,22131, Note_on_c,0,61,127,
2,22131, Note_off_c,0,58,127,
2,22145, Note_on_c,0,64,127,
2,22145, Note_off_c,0,61,127,
2,22146, Note_on_c,0,61,127,
2,22146, Note_off_c,0,64,127,
2,22158, Note_off_c,0,61,127,
2,22159, Note_on_c,0,61,127,
2,22159, Note_off_c,0,40,127,
2,22160, Note_on_c,0,40,127,
2,22160, Note_off_c,0,61,127,
2,22161, Note_on_c,0,61,127,
2,22161, Note_off_c,0,40,127,
2,22162, Note_on_c,0,40,127,
2,22163, Note_on_c,0,64,127,
2,22163, Note_off_c,0,61,127,
2,22164, Note_on_c,0,61,127,
2,22164, Note_off_c,0,64,127,
2,22185, Note_on_c,0,64,127,
2,22185, Note_off_c,0,40,127,
2,22186, Note_on_c,0,40,127,
2,22186, Note_off_c,0,64,127,
2,22191, Note_on_c,0,64,127,
2,22191, Note_off_c,0,40,127,
2,22192, Note_on_c,0,40,127,
2,22192, Note_off_c,0,64,127,
2,22197, Note_on_c,0,56,127,
2,22197, Note_off_c,0,61,127,
2,22198, Note_on_c,0,61,127,
2,22198, Note_off_c,0,56,127,
2,22211, Note_on_c,0,64,127,
2,22211, Note_off_c,0,61,127,
2,22212, Note_on_c,0,61,127,
2,22212, Note_off_c,0,64,127,
2,22214, Note_on_c,0,64,127,
2,22214, Note_off_c,0,61,127,
2,22215, Note_on_c,0,61,127,
2,22215, Note_off_c,0,64,127,
2,22218, Note_on_c,0,58,127,
2,22218, Note_off_c,0,61,127,
2,22219, Note_on_c,0,61,127,
2,22219, Note_off_c,0,58,127,
2,22233, Note_on_c,0,76,127,
2,22233, Note_off_c,0,61,127,
2,22234, Note_on_c,0,61,127,
2,22234, Note_off_c,0,76,127,
2,22240, Note_on_c,0,64,127,
2,22240, Note_off_c,0,61,127,
2,22241, Note_on_c,0,61,127,
2,22241, Note_off_c,0,64,127,
2,22251, Note_on_c,0,34,127,
2,22251, Note_off_c,0,40,127,
2,22252, Note_on_c,0,40,127,
2,22252, Note_off_c,0,34,127,
2,22255, Note_on_c,0,64,127,
2,22255, Note_off_c,0,61,127,
2,22256, Note_on_c,0,61,127,
2,22256, Note_off_c,0,64,127,
2,22265, Note_on_c,0,64,127,
2,22265, Note_off_c,0,61,127,
2,22266, Note_on_c,0,61,127,
2,22266, Note_off_c,0,64,127,
2,22267, Note_on_c,0,64,127,
2,22267, Note_off_c,0,61,127,
2,22268, Note_on_c,0,61,127,
2,22268, Note_off_c,0,64,127,
2,22275, Note_on_c,0,63,127,
2,22275, Note_off_c,0,61,127,
2,22276, Note_on_c,0,61,127,
2,22276, Note_on_c,0,39,127,
2,22276, Note_off_c,0,63,127,
2,22276, Note_off_c,0,40,127,
2,22277, Note_on_c,0,66,127,
2,22277, Note_on_c,0,64,127,
2,22277, Note_on_c,0,40,127,
2,22277, Note_off_c,0,61,127,
2,22277, Note_off_c,0,39,127,
2,22278, Note_on_c,0,61,127,
2,22278, Note_off_c,0,64,127,
2,22278, Note_off_c,0,66,127,
2,22285, Note_on_c,0,64,127,
2,22285, Note_off_c,0,61,127,
2,22286, Note_on_c,0,61,127,
2,22286, Note_off_c,0,64,127,
2,22287, Note_on_c,0,64,127,
2,22287, Note_off_c,0,61,127,
2,22288, Note_on_c,0,61,127,
2,22288, Note_on_c,0,39,127,
2,22288, Note_off_c,0,64,127,
2,22288, Note_off_c,0,40,127,
2,22289, Note_on_c,0,40,127,
2,22289, Note_off_c,0,39,127,
2,22298, Note_on_c,0,43,127,
2,22298, Note_off_c,0,40,127,
2,22299, Note_on_c,0,40,127,
2,22299, Note_off_c,0,43,127,
2,22301, Note_on_c,0,76,127,
2,22301, Note_on_c,0,64,127,
2,22301, Note_off_c,0,61,127,
2,22301, Note_off_c,0,40,127,
2,22302, Note_on_c,0,61,127,
2,22302, Note_on_c,0,40,127,
2,22302, Note_off_c,0,76,127,
2,22302, Note_off_c,0,64,127,
2,22303, Note_off_c,0,40,127,
2,22304, Note_on_c,0,39,127,
2,22305, Note_on_c,0,40,127,
2,22305, Note_off_c,0,39,127,
2,22310, Note_on_c,0,64,127,
2,22310, Note_off_c,0,61,127,
2,22311, Note_on_c,0,61,127,
2,22311, Note_off_c,0,64,127,
2,22325, Note_on_c,0,64,127,
2,22325, Note_off_c,0,61,127,
2,22326, Note_on_c,0,61,127,
2,22326, Note_off_c,0,64,127,
2,22332, Note_on_c,0,64,127,
2,22332, Note_off_c,0,61,127,
2,22333, Note_on_c,0,61,127,
2,22333, Note_off_c,0,64,127,
2,22339, Note_on_c,0,64,127,
2,22339, Note_off_c,0,61,127,
2,22340, Note_on_c,0,61,127,
2,22340, Note_on_c,0,39,127,
2,22340, Note_off_c,0,64,127,
2,22340, Note_off_c,0,40,127,
2,22341, Note_on_c,0,40,127,
2,22341, Note_off_c,0,39,127,
2,22351, Note_on_c,0,59,127,
2,22351, Note_off_c,0,61,127,
2,22352, Note_on_c,0,61,127,
2,22352, Note_off_c,0,59,127,
2,22353, Note_on_c,0,70,127,
2,22354, Note_off_c,0,70,127,
2,22356, Note_on_c,0,64,127,
2,22357, Note_off_c,0,64,127,
2,22362, Note_on_c,0,52,127,
2,22363, Note_off_c,0,52,127,
2,22365, Note_on_c,0,68,127,
2,22366, Note_off_c,0,68,127,
2,22371, Note_on_c,0,39,127,
2,22371, Note_off_c,0,40,127,
2,22372, Note_on_c,0,40,127,
2,22372, Note_off_c,0,39,127,
2,22377, Note_on_c,0,64,127,
2,22379, Note_off_c,0,64,127,
2,22381, Note_on_c,0,64,127,
2,22382, Note_off_c,0,64,127,
2,22383, Note_on_c,0,64,127,
2,22384, Note_off_c,0,64,127,
2,22386, Note_on_c,0,39,127,
2,22386, Note_off_c,0,40,127,
2,22387, Note_on_c,0,40,127,
2,22387, Note_off_c,0,39,127,
2,22388, Note_on_c,0,63,127,
2,22389, Note_off_c,0,63,127,
2,22390, Note_on_c,0,64,127,
2,22392, Note_off_c,0,64,127,
2,22397, Note_on_c,0,64,127,
2,22397, Note_off_c,0,61,127,
2,22398, Note_on_c,0,61,127,
2,22398, Note_off_c,0,64,127,
2,22398, Note_off_c,0,40,127,
2,22399, Note_on_c,0,40,127,
2,22399, Note_on_c,0,70,127,
2,22400, Note_off_c,0,70,127,
2,22402, Note_on_c,0,64,127,
2,22402, Note_on_c,0,46,127,
2,22402, Note_off_c,0,61,127,
2,22403, Note_on_c,0,61,127,
2,22403, Note_off_c,0,64,127,
2,22403, Note_off_c,0,46,127,
2,22405, Note_on_c,0,63,127,
2,22406, Note_off_c,0,63,127,
2,22407, Note_off_c,0,40,127,
2,22408, Note_on_c,0,40,127,
2,22412, Note_on_c,0,64,127,
2,22412, Note_off_c,0,61,127,
2,22413, Note_on_c,0,61,127,
2,22413, Note_off_c,0,64,127,
2,22414, Note_on_c,0,64,127,
2,22414, Note_off_c,0,61,127,
2,22415, Note_on_c,0,61,127,
2,22415, Note_off_c,0,64,127,
2,22416, Note_on_c,0,64,127,
2,22416, Note_off_c,0,61,127,
2,22417, Note_on_c,0,61,127,
2,22417, Note_off_c,0,64,127,
2,22423, Note_on_c,0,46,127,
2,22423, Note_off_c,0,40,127,
2,22424, Note_on_c,0,40,127,
2,22424, Note_off_c,0,46,127,
2,22443, Note_on_c,0,64,127,
2,22443, Note_off_c,0,61,127,
2,22444, Note_on_c,0,61,127,
2,22444, Note_off_c,0,64,127,
2,22471, Note_on_c,0,66,127,
2,22471, Note_off_c,0,61,127,
2,22472, Note_on_c,0,61,127,
2,22472, Note_off_c,0,66,127,
2,22480, Note_on_c,0,63,127,
2,22480, Note_off_c,0,61,127,
2,22481, Note_on_c,0,61,127,
2,22481, Note_off_c,0,63,127,
2,22485, Note_off_c,0,40,127,
2,22486, Note_on_c,0,40,127,
2,22491, Note_on_c,0,64,127,
2,22492, Note_on_c,0,70,127,
2,22492, Note_off_c,0,64,127,
2,22493, Note_on_c,0,64,127,
2,22493, Note_off_c,0,70,127,
2,22495, Note_on_c,0,70,127,
2,22495, Note_off_c,0,61,127,
2,22496, Note_on_c,0,63,127,
2,22496, Note_on_c,0,58,127,
2,22496, Note_off_c,0,64,127,
2,22496, Note_off_c,0,40,127,
2,22496, Note_off_c,0,70,127,
2,22497, Note_on_c,0,61,127,
2,22497, Note_on_c,0,40,127,
2,22497, Note_off_c,0,63,127,
2,22497, Note_off_c,0,58,127,
2,22498, Note_off_c,0,40,127,
2,22499, Note_on_c,0,35,127,
2,22500, Note_on_c,0,40,127,
2,22500, Note_off_c,0,35,127,
2,22525, Note_on_c,0,64,127,
2,22525, Note_off_c,0,61,127,
2,22526, Note_on_c,0,61,127,
2,22526, Note_off_c,0,64,127,
2,22527, Note_on_c,0,43,127,
2,22527, Note_off_c,0,40,127,
2,22528, Note_on_c,0,40,127,
2,22528, Note_off_c,0,43,127,
2,22529, Note_on_c,0,39,127,
2,22529, Note_off_c,0,40,127,
2,22530, Note_on_c,0,40,127,
2,22530, Note_off_c,0,39,127,
2,22533, Note_on_c,0,63,127,
2,22533, Note_off_c,0,61,127,
2,22534, Note_on_c,0,56,127,
2,22534, Note_off_c,0,63,127,
2,22535, Note_on_c,0,61,127,
2,22535, Note_on_c,0,64,127,
2,22535, Note_off_c,0,56,127,
2,22536, Note_off_c,0,64,127,
2,22547, Note_on_c,0,70,127,
2,22548, Note_off_c,0,70,127,
2,22549, Note_on_c,0,58,127,
2,22549, Note_off_c,0,61,127,
2,22550, Note_on_c,0,61,127,
2,22550, Note_off_c,0,58,127,
2,22553, Note_on_c,0,64,127,
2,22553, Note_off_c,0,61,127,
2,22555, Note_on_c,0,61,127,
2,22555, Note_off_c,0,64,127,
2,22556, Note_off_c,0,61,127,
2,22557, Note_on_c,0,61,127,
2,22558, Note_on_c,0,64,127,
2,22558, Note_off_c,0,61,127,
2,22559, Note_on_c,0,61,127,
2,22559, Note_off_c,0,64,127,
2,22574, Note_on_c,0,64,127,
2,22574, Note_off_c,0,61,127,
2,22575, Note_on_c,0,61,127,
2,22575, Note_on_c,0,39,127,
2,22575, Note_off_c,0,64,127,
2,22575, Note_off_c,0,40,127,
2,22576, Note_on_c,0,40,127,
2,22576, Note_off_c,0,39,127,
2,22596, Note_on_c,0,64,127,
2,22596, Note_off_c,0,61,127,
2,22597, Note_on_c,0,61,127,
2,22597, Note_off_c,0,64,127,
2,22600, Note_on_c,0,64,127,
2,22600, Note_off_c,0,61,127,
2,22601, Note_on_c,0,61,127,
2,22601, Note_off_c,0,64,127,
2,22607, Note_on_c,0,39,127,
2,22607, Note_off_c,0,40,127,
2,22608, Note_on_c,0,40,127,
2,22608, Note_off_c,0,39,127,
2,22610, Note_on_c,0,46,127,
2,22610, Note_off_c,0,40,127,
2,22611, Note_on_c,0,40,127,
2,22611, Note_off_c,0,46,127,
2,22650, Note_on_c,0,64,127,
2,22650, Note_off_c,0,61,127,
2,22651, Note_on_c,0,61,127,
2,22651, Note_on_c,0,34,127,
2,22651, Note_off_c,0,64,127,
2,22651, Note_off_c,0,40,127,
2,22652, Note_off_c,0,34,127,
2,22653, Note_on_c,0,40,127,
2,22665, Note_on_c,0,39,127,
2,22665, Note_off_c,0,40,127,
2,22666, Note_on_c,0,63,127,
2,22666, Note_on_c,0,40,127,
2,22666, Note_off_c,0,61,127,
2,22666, Note_off_c,0,39,127,
2,22667, Note_off_c,0,63,127,
2,22668, Note_on_c,0,61,127,
2,22673, Note_on_c,0,39,127,
2,22673, Note_off_c,0,40,127,
2,22674, Note_on_c,0,40,127,
2,22674, Note_off_c,0,39,127,
2,22690, Note_on_c,0,68,127,
2,22690, Note_off_c,0,61,127,
2,22691, Note_on_c,0,61,127,
2,22691, Note_off_c,0,68,127,
2,22697, Note_on_c,0,63,127,
2,22697, Note_off_c,0,61,127,
2,22698, Note_on_c,0,61,127,
2,22698, Note_off_c,0,63,127,
2,22714, Note_off_c,0,40,127,
2,22715, Note_on_c,0,40,127,
2,22716, Note_off_c,0,40,127,
2,22719, Note_on_c,0,40,127,
2,22722, Note_off_c,0,40,127,
2,22723, Note_on_c,0,40,127,
2,22727, Note_on_c,0,46,127,
2,22727, Note_off_c,0,40,127,
2,22728, Note_on_c,0,40,127,
2,22728, Note_off_c,0,46,127,
2,22757, Note_on_c,0,39,127,
2,22757, Note_off_c,0,40,127,
2,22758, Note_on_c,0,40,127,
2,22758, Note_off_c,0,39,127,
2,22778, Note_on_c,0,64,127,
2,22778, Note_off_c,0,61,127,
2,22779, Note_on_c,0,61,127,
2,22779, Note_off_c,0,64,127,
2,22780, Note_on_c,0,58,127,
2,22780, Note_off_c,0,61,127,
2,22781, Note_on_c,0,64,127,
2,22781, Note_off_c,0,58,127,
2,22782, Note_on_c,0,61,127,
2,22782, Note_off_c,0,64,127,
2,22784, Note_on_c,0,58,127,
2,22784, Note_off_c,0,61,127,
2,22785, Note_on_c,0,61,127,
2,22785, Note_off_c,0,58,127,
2,22786, Note_on_c,0,64,127,
2,22786, Note_off_c,0,61,127,
2,22787, Note_on_c,0,61,127,
2,22787, Note_off_c,0,64,127,
2,22797, Note_on_c,0,64,127,
2,22797, Note_off_c,0,61,127,
2,22798, Note_on_c,0,61,127,
2,22798, Note_off_c,0,64,127,
2,22804, Note_on_c,0,39,127,
2,22804, Note_off_c,0,40,127,
2,22805, Note_on_c,0,40,127,
2,22805, Note_off_c,0,39,127,
2,22807, Note_on_c,0,64,127,
2,22807, Note_off_c,0,61,127,
2,22808, Note_on_c,0,61,127,
2,22808, Note_off_c,0,64,127,
2,22824, Note_on_c,0,68,127,
2,22824, Note_off_c,0,61,127,
2,22825, Note_on_c,0,61,127,
2,22825, Note_off_c,0,68,127,
2,22826, Note_on_c,0,64,127,
2,22826, Note_off_c,0,61,127,
2,22827, Note_on_c,0,76,127,
2,22827, Note_on_c,0,61,127,
2,22827, Note_off_c,0,64,127,
2,22827, Note_off_c,0,40,127,
2,22828, Note_on_c,0,37,127,
2,22828, Note_off_c,0,76,127,
2,22829, Note_on_c,0,64,127,
2,22829, Note_on_c,0,40,127,
2,22829, Note_off_c,0,37,127,
2,22830, Note_off_c,0,64,127,
2,22831, Note_on_c,0,64,127,
2,22832, Note_off_c,0,61,127,
2,22833, Note_on_c,0,61,127,
2,22833, Note_on_c,0,59,127,
2,22833, Note_off_c,0,64,127,
2,22834, Note_off_c,0,59,127,
2,22836, Note_on_c,0,63,127,
2,22837, Note_off_c,0,63,127,
2,22841, Note_on_c,0,68,127,
2,22842, Note_on_c,0,64,127,
2,22842, Note_off_c,0,68,127,
2,22843, Note_off_c,0,64,127,
2,22846, Note_on_c,0,75,127,
2,22847, Note_off_c,0,75,127,
2,22851, Note_on_c,0,43,127,
2,22851, Note_off_c,0,40,127,
2,22852, Note_on_c,0,64,127,
2,22852, Note_on_c,0,40,127,
2,22852, Note_off_c,0,43,127,
2,22852, Note_off_c,0,61,127,
2,22853, Note_on_c,0,61,127,
2,22853, Note_off_c,0,64,127,
2,22869, Note_on_c,0,64,127,
2,22869, Note_off_c,0,61,127,
2,22870, Note_on_c,0,61,127,
2,22870, Note_off_c,0,64,127,
2,22895, Note_on_c,0,39,127,
2,22895, Note_off_c,0,40,127,
2,22896, Note_on_c,0,40,127,
2,22896, Note_off_c,0,39,127,
2,22906, Note_on_c,0,64,127,
2,22906, Note_off_c,0,61,127,
2,22907, Note_on_c,0,61,127,
2,22907, Note_off_c,0,64,127,
2,22924, Note_on_c,0,39,127,
2,22924, Note_off_c,0,40,127,
2,22925, Note_on_c,0,40,127,
2,22925, Note_off_c,0,39,127,
2,22931, Note_off_c,0,40,127,
2,22932, Note_on_c,0,40,127,
2,22935, Note_off_c,0,40,127,
2,22936, Note_on_c,0,40,127,
2,22939, Note_on_c,0,64,127,
2,22939, Note_off_c,0,61,127,
2,22940, Note_on_c,0,61,127,
2,22940, Note_off_c,0,64,127,
2,22940, Note_off_c,0,40,127,
2,22941, Note_on_c,0,40,127,
2,22943, Note_on_c,0,64,127,
2,22944, Note_off_c,0,64,127,
2,22946, Note_on_c,0,64,127,
2,22947, Note_off_c,0,64,127,
2,22951, Note_on_c,0,58,127,
2,22952, Note_on_c,0,64,127,
2,22952, Note_off_c,0,58,127,
2,22953, Note_off_c,0,64,127,
2,22954, Note_on_c,0,64,127,
2,22954, Note_on_c,0,46,127,
2,22954, Note_off_c,0,40,127,
2,22955, Note_on_c,0,40,127,
2,22955, Note_off_c,0,46,127,
2,22958, Note_off_c,0,64,127,
2,22959, Note_on_c,0,64,127,
2,22960, Note_off_c,0,64,127,
2,22961, Note_on_c,0,64,127,
2,22962, Note_off_c,0,64,127,
2,22963, Note_on_c,0,64,127,
2,22964, Note_on_c,0,34,127,
2,22964, Note_off_c,0,64,127,
2,22965, Note_on_c,0,64,127,
2,22965, Note_off_c,0,34,127,
2,22966, Note_off_c,0,64,127,
2,22967, Note_on_c,0,64,127,
2,22967, Note_off_c,0,61,127,
2,22969, Note_on_c,0,61,127,
2,22969, Note_off_c,0,64,127,
2,22971, Note_on_c,0,64,127,
2,22971, Note_off_c,0,61,127,
2,22972, Note_on_c,0,61,127,
2,22972, Note_off_c,0,64,127,
2,22973, Note_on_c,0,49,127,
2,22973, Note_off_c,0,61,127,
2,22974, Note_on_c,0,61,127,
2,22974, Note_off_c,0,49,127,
2,22976, Note_on_c,0,56,127,
2,22976, Note_off_c,0,61,127,
2,22977, Note_on_c,0,61,127,
2,22977, Note_off_c,0,56,127,
2,22997, Note_on_c,0,64,127,
2,22997, Note_off_c,0,61,127,
2,22998, Note_on_c,0,61,127,
2,22998, Note_off_c,0,64,127,
2,23004, Note_off_c,0,40,127,
2,23005, Note_on_c,0,40,127,
2,23007, Note_on_c,0,64,127,
2,23008, Note_off_c,0,64,127,
2,23009, Note_on_c,0,56,127,
2,23010, Note_off_c,0,56,127,
2,23011, Note_on_c,0,64,127,
2,23012, Note_off_c,0,64,127,
2,23015, Note_on_c,0,64,127,
2,23016, Note_off_c,0,64,127,
2,23019, Note_on_c,0,64,127,
2,23020, Note_off_c,0,64,127,
2,23024, Note_on_c,0,64,127,
2,23025, Note_off_c,0,64,127,
2,23029, Note_on_c,0,58,127,
2,23030, Note_on_c,0,64,127,
2,23030, Note_off_c,0,58,127,
2,23031, Note_off_c,0,64,127,
2,23033, Note_on_c,0,64,127,
2,23034, Note_off_c,0,64,127,
2,23036, Note_on_c,0,64,127,
2,23038, Note_off_c,0,64,127,
2,23039, Note_on_c,0,64,127,
2,23040, Note_off_c,0,64,127,
2,23041, Note_on_c,0,64,127,
2,23041, Note_on_c,0,66,127,
2,23041, Note_off_c,0,61,127,
2,23042, Note_on_c,0,61,127,
2,23042, Note_off_c,0,64,127,
2,23042, Note_off_c,0,66,127,
2,23044, Note_on_c,0,56,127,
2,23044, Note_off_c,0,40,127,
2,23045, Note_on_c,0,40,127,
2,23045, Note_off_c,0,56,127,
2,23051, Note_on_c,0,58,127,
2,23052, Note_off_c,0,58,127,
2,23055, Note_on_c,0,64,127,
2,23056, Note_on_c,0,44,127,
2,23056, Note_off_c,0,64,127,
2,23056, Note_off_c,0,40,127,
2,23057, Note_on_c,0,64,127,
2,23057, Note_on_c,0,40,127,
2,23057, Note_off_c,0,44,127,
2,23058, Note_off_c,0,64,127,
2,23065, Note_on_c,0,64,127,
2,23066, Note_off_c,0,64,127,
2,23067, Note_on_c,0,64,127,
2,23069, Note_off_c,0,64,127,
2,23070, Note_on_c,0,58,127,
2,23071, Note_off_c,0,58,127,
2,23072, Note_on_c,0,64,127,
2,23072, Note_off_c,0,61,127,
2,23073, Note_on_c,0,61,127,
2,23073, Note_off_c,0,64,127,
2,23074, Note_on_c,0,43,127,
2,23074, Note_on_c,0,64,127,
2,23074, Note_off_c,0,40,127,
2,23075, Note_on_c,0,40,127,
2,23075, Note_off_c,0,43,127,
2,23075, Note_off_c,0,64,127,
2,23076, Note_on_c,0,64,127,
2,23080, Note_on_c,0,58,127,
2,23080, Note_off_c,0,61,127,
2,23081, Note_on_c,0,61,127,
2,23081, Note_off_c,0,64,127,
2,23081, Note_off_c,0,58,127,
2,23082, Note_on_c,0,64,127,
2,23082, Note_off_c,0,61,127,
2,23083, Note_on_c,0,61,127,
2,23083, Note_off_c,0,64,127,
2,23085, Note_on_c,0,64,127,
2,23085, Note_off_c,0,61,127,
2,23086, Note_on_c,0,61,127,
2,23086, Note_off_c,0,64,127,
2,23097, Note_on_c,0,35,127,
2,23097, Note_off_c,0,40,127,
2,23098, Note_on_c,0,64,127,
2,23098, Note_on_c,0,40,127,
2,23098, Note_off_c,0,61,127,
2,23098, Note_off_c,0,35,127,
2,23099, Note_on_c,0,61,127,
2,23099, Note_off_c,0,64,127,
2,23100, Note_on_c,0,46,127,
2,23100, Note_off_c,0,40,127,
2,23101, Note_on_c,0,58,127,
2,23101, Note_on_c,0,40,127,
2,23101, Note_off_c,0,61,127,
2,23101, Note_off_c,0,46,127,
2,23102, Note_on_c,0,61,127,
2,23102, Note_off_c,0,58,127,
2,23106, Note_off_c,0,40,127,
2,23107, Note_on_c,0,66,127,
2,23107, Note_on_c,0,40,127,
2,23108, Note_off_c,0,66,127,
2,23110, Note_on_c,0,64,127,
2,23110, Note_off_c,0,40,127,
2,23111, Note_on_c,0,40,127,
2,23111, Note_off_c,0,64,127,
2,23122, Note_on_c,0,64,127,
2,23122, Note_off_c,0,61,127,
2,23123, Note_on_c,0,61,127,
2,23123, Note_off_c,0,64,127,
2,23129, Note_off_c,0,61,127,
2,23130, Note_on_c,0,61,127,
2,23130, Note_off_c,0,40,127,
2,23131, Note_on_c,0,40,127,
2,23136, Note_on_c,0,39,127,
2,23136, Note_off_c,0,40,127,
2,23137, Note_on_c,0,40,127,
2,23137, Note_off_c,0,39,127,
2,23140, Note_on_c,0,37,127,
2,23140, Note_off_c,0,40,127,
2,23141, Note_on_c,0,40,127,
2,23141, Note_off_c,0,37,127,
2,23149, Note_off_c,0,61,127,
2,23149, Note_off_c,0,40,127,
2,23150, Note_on_c,0,61,127,
2,23151, Note_on_c,0,40,127,
2,23158, Note_on_c,0,70,127,
2,23159, Note_on_c,0,64,127,
2,23159, Note_off_c,0,70,127,
2,23161, Note_off_c,0,64,127,
2,23163, Note_off_c,0,40,127,
2,23164, Note_on_c,0,40,127,
2,23166, Note_on_c,0,64,127,
2,23167, Note_off_c,0,64,127,
2,23168, Note_on_c,0,64,127,
2,23169, Note_off_c,0,64,127,
2,23171, Note_on_c,0,64,127,
2,23172, Note_off_c,0,64,127,
2,23173, Note_on_c,0,64,127,
2,23173, Note_off_c,0,61,127,
2,23174, Note_on_c,0,61,127,
2,23174, Note_off_c,0,64,127,
2,23176, Note_off_c,0,40,127,
2,23177, Note_on_c,0,40,127,
2,23177, Note_on_c,0,70,127,
2,23178, Note_off_c,0,70,127,
2,23181, Note_on_c,0,64,127,
2,23181, Note_on_c,0,39,127,
2,23181, Note_off_c,0,40,127,
2,23182, Note_on_c,0,40,127,
2,23182, Note_off_c,0,64,127,
2,23182, Note_off_c,0,39,127,
2,23187, Note_on_c,0,64,127,
2,23187, Note_off_c,0,61,127,
2,23188, Note_on_c,0,61,127,
2,23188, Note_off_c,0,64,127,
2,23196, Note_on_c,0,39,127,
2,23196, Note_off_c,0,40,127,
2,23197, Note_on_c,0,40,127,
2,23197, Note_off_c,0,39,127,
2,23202, Note_on_c,0,58,127,
2,23202, Note_off_c,0,61,127,
2,23203, Note_on_c,0,61,127,
2,23203, Note_off_c,0,58,127,
2,23213, Note_on_c,0,68,127,
2,23213, Note_off_c,0,61,127,
2,23213, Note_off_c,0,40,127,
2,23214, Note_on_c,0,64,127,
2,23214, Note_on_c,0,40,127,
2,23214, Note_off_c,0,68,127,
2,23215, Note_on_c,0,61,127,
2,23215, Note_off_c,0,64,127,
2,23240, Note_on_c,0,64,127,
2,23240, Note_off_c,0,61,127,
2,23241, Note_on_c,0,61,127,
2,23241, Note_off_c,0,64,127,
2,23247, Note_off_c,0,40,127,
2,23248, Note_on_c,0,40,127,
2,23249, Note_on_c,0,64,127,
2,23249, Note_off_c,0,61,127,
2,23250, Note_on_c,0,61,127,
2,23250, Note_off_c,0,64,127,
2,23253, Note_on_c,0,64,127,
2,23253, Note_off_c,0,61,127,
2,23255, Note_on_c,0,61,127,
2,23255, Note_off_c,0,64,127,
2,23257, Note_on_c,0,64,127,
2,23257, Note_off_c,0,40,127,
2,23258, Note_on_c,0,40,127,
2,23259, Note_off_c,0,64,127,
2,23260, Note_on_c,0,64,127,
2,23261, Note_on_c,0,70,127,
2,23261, Note_off_c,0,64,127,
2,23262, Note_on_c,0,64,127,
2,23262, Note_off_c,0,70,127,
2,23263, Note_off_c,0,64,127,
2,23269, Note_on_c,0,70,127,
2,23269, Note_off_c,0,61,127,
2,23269, Note_off_c,0,40,127,
2,23270, Note_on_c,0,61,127,
2,23270, Note_on_c,0,40,127,
2,23270, Note_off_c,0,70,127,
2,23273, Note_on_c,0,70,127,
2,23273, Note_off_c,0,61,127,
2,23274, Note_on_c,0,61,127,
2,23274, Note_off_c,0,70,127,
2,23275, Note_on_c,0,49,127,
2,23275, Note_off_c,0,40,127,
2,23276, Note_on_c,0,40,127,
2,23276, Note_off_c,0,49,127,
2,23279, Note_on_c,0,64,127,
2,23279, Note_off_c,0,61,127,
2,23280, Note_on_c,0,61,127,
2,23280, Note_off_c,0,64,127,
2,23281, Note_on_c,0,64,127,
2,23281, Note_off_c,0,61,127,
2,23282, Note_on_c,0,61,127,
2,23282, Note_off_c,0,64,127,
2,23284, Note_on_c,0,64,127,
2,23284, Note_off_c,0,61,127,
2,23285, Note_on_c,0,61,127,
2,23285, Note_off_c,0,64,127,
2,23289, Note_on_c,0,64,127,
2,23289, Note_off_c,0,61,127,
2,23290, Note_on_c,0,61,127,
2,23290, Note_off_c,0,64,127,
2,23291, Note_on_c,0,64,127,
2,23291, Note_off_c,0,61,127,
2,23292, Note_on_c,0,61,127,
2,23292, Note_off_c,0,64,127,
2,23295, Note_on_c,0,64,127,
2,23296, Note_off_c,0,64,127,
2,23301, Note_on_c,0,70,127,
2,23302, Note_on_c,0,64,127,
2,23302, Note_off_c,0,70,127,
2,23303, Note_off_c,0,64,127,
2,23309, Note_on_c,0,35,127,
2,23309, Note_off_c,0,40,127,
2,23310, Note_on_c,0,40,127,
2,23310, Note_off_c,0,35,127,
2,23313, Note_on_c,0,64,127,
2,23313, Note_off_c,0,61,127,
2,23314, Note_on_c,0,63,127,
2,23314, Note_off_c,0,64,127,
2,23315, Note_on_c,0,70,127,
2,23315, Note_off_c,0,63,127,
2,23316, Note_on_c,0,61,127,
2,23316, Note_off_c,0,70,127,
2,23318, Note_on_c,0,67,127,
2,23319, Note_off_c,0,67,127,
2,23320, Note_on_c,0,64,127,
2,23321, Note_off_c,0,64,127,
2,23324, Note_on_c,0,64,127,
2,23325, Note_off_c,0,64,127,
2,23329, Note_off_c,0,40,127,
2,23330, Note_on_c,0,40,127,
2,23331, Note_on_c,0,66,127,
2,23331, Note_off_c,0,61,127,
2,23332, Note_on_c,0,61,127,
2,23332, Note_off_c,0,66,127,
2,23342, Note_on_c,0,56,127,
2,23342, Note_off_c,0,61,127,
2,23343, Note_on_c,0,61,127,
2,23343, Note_off_c,0,56,127,
2,23344, Note_on_c,0,47,127,
2,23344, Note_off_c,0,61,127,
2,23345, Note_on_c,0,64,127,
2,23345, Note_off_c,0,47,127,
2,23346, Note_on_c,0,61,127,
2,23346, Note_off_c,0,64,127,
2,23358, Note_on_c,0,58,127,
2,23358, Note_off_c,0,61,127,
2,23359, Note_on_c,0,61,127,
2,23359, Note_off_c,0,58,127,
2,23363, Note_on_c,0,58,127,
2,23363, Note_off_c,0,61,127,
2,23364, Note_on_c,0,61,127,
2,23364, Note_off_c,0,58,127,
2,23367, Note_off_c,0,40,127,
2,23368, Note_on_c,0,40,127,
2,23379, Note_on_c,0,39,127,
2,23379, Note_off_c,0,40,127,
2,23380, Note_on_c,0,40,127,
2,23380, Note_off_c,0,39,127,
2,23394, Note_off_c,0,40,127,
2,23395, Note_on_c,0,40,127,
2,23396, Note_off_c,0,61,127,
2,23398, Note_on_c,0,61,127,
2,23398, Note_off_c,0,40,127,
2,23399, Note_on_c,0,40,127,
2,23399, Note_off_c,0,61,127,
2,23400, Note_on_c,0,61,127,
2,23400, Note_off_c,0,40,127,
2,23401, Note_on_c,0,40,127,
2,23401, Note_off_c,0,61,127,
2,23427, Note_on_c,0,61,127,
2,23428, Note_on_c,0,76,127,
2,23428, Note_off_c,0,61,127,
2,23428, Note_off_c,0,40,127,
2,23429, Note_on_c,0,61,127,
2,23429, Note_on_c,0,40,127,
2,23429, Note_off_c,0,76,127,
2,23430, Note_on_c,0,64,127,
2,23430, Note_off_c,0,61,127,
2,23431, Note_on_c,0,61,127,
2,23431, Note_off_c,0,64,127,
2,23433, Note_on_c,0,58,127,
2,23433, Note_off_c,0,61,127,
2,23434, Note_on_c,0,61,127,
2,23434, Note_off_c,0,58,127,
2,23436, Note_on_c,0,64,127,
2,23436, Note_off_c,0,61,127,
2,23437, Note_on_c,0,61,127,
2,23437, Note_off_c,0,64,127,
2,23449, Note_on_c,0,58,127,
2,23449, Note_off_c,0,61,127,
2,23450, Note_on_c,0,61,127,
2,23450, Note_off_c,0,58,127,
2,23455, Note_on_c,0,46,127,
2,23455, Note_off_c,0,40,127,
2,23456, Note_on_c,0,39,127,
2,23456, Note_off_c,0,46,127,
2,23457, Note_on_c,0,40,127,
2,23457, Note_off_c,0,39,127,
2,23459, Note_on_c,0,37,127,
2,23459, Note_off_c,0,40,127,
2,23460, Note_on_c,0,40,127,
2,23460, Note_off_c,0,37,127,
2,23465, Note_on_c,0,58,127,
2,23465, Note_off_c,0,61,127,
2,23466, Note_on_c,0,61,127,
2,23466, Note_off_c,0,58,127,
2,23470, Note_on_c,0,64,127,
2,23470, Note_off_c,0,61,127,
2,23471, Note_on_c,0,61,127,
2,23471, Note_off_c,0,64,127,
2,23474, Note_on_c,0,64,127,
2,23474, Note_off_c,0,61,127,
2,23475, Note_on_c,0,61,127,
2,23475, Note_off_c,0,64,127,
2,23481, Note_on_c,0,37,127,
2,23481, Note_off_c,0,40,127,
2,23482, Note_on_c,0,40,127,
2,23482, Note_off_c,0,37,127,
2,23494, Note_on_c,0,63,127,
2,23494, Note_off_c,0,61,127,
2,23495, Note_on_c,0,61,127,
2,23495, Note_off_c,0,63,127,
2,23499, Note_off_c,0,61,127,
2,23500, Note_on_c,0,61,127,
2,23501, Note_on_c,0,63,127,
2,23501, Note_off_c,0,61,127,
2,23502, Note_on_c,0,56,127,
2,23502, Note_off_c,0,63,127,
2,23503, Note_off_c,0,56,127,
2,23504, Note_on_c,0,43,127,
2,23505, Note_on_c,0,61,127,
2,23505, Note_off_c,0,43,127,
2,23506, Note_on_c,0,56,127,
2,23506, Note_off_c,0,61,127,
2,23507, Note_on_c,0,61,127,
2,23507, Note_off_c,0,56,127,
2,23510, Note_on_c,0,56,127,
2,23510, Note_off_c,0,61,127,
2,23511, Note_on_c,0,61,127,
2,23511, Note_off_c,0,56,127,
2,23512, Note_on_c,0,60,127,
2,23513, Note_on_c,0,56,127,
2,23513, Note_off_c,0,60,127,
2,23515, Note_on_c,0,64,127,
2,23515, Note_off_c,0,56,127,
2,23516, Note_on_c,0,71,127,
2,23516, Note_off_c,0,61,127,
2,23517, Note_on_c,0,61,127,
2,23517, Note_off_c,0,71,127,
2,23517, Note_off_c,0,64,127,
2,23518, Note_on_c,0,64,127,
2,23519, Note_on_c,0,47,127,
2,23519, Note_off_c,0,64,127,
2,23520, Note_on_c,0,64,127,
2,23520, Note_off_c,0,61,127,
2,23520, Note_off_c,0,47,127,
2,23521, Note_on_c,0,61,127,
2,23521, Note_off_c,0,64,127,
2,23522, Note_on_c,0,64,127,
2,23522, Note_off_c,0,61,127,
2,23523, Note_on_c,0,61,127,
2,23523, Note_off_c,0,64,127,
2,23524, Note_on_c,0,56,127,
2,23524, Note_off_c,0,61,127,
2,23525, Note_off_c,0,56,127,
2,23526, Note_on_c,0,64,127,
2,23527, Note_off_c,0,64,127,
2,23528, Note_on_c,0,64,127,
2,23529, Note_on_c,0,61,127,
2,23529, Note_on_c,0,49,127,
2,23529, Note_off_c,0,64,127,
2,23530, Note_on_c,0,56,127,
2,23530, Note_off_c,0,49,127,
2,23531, Note_off_c,0,56,127,
2,23533, Note_on_c,0,64,127,
2,23533, Note_on_c,0,49,127,
2,23533, Note_off_c,0,61,127,
2,23534, Note_on_c,0,61,127,
2,23534, Note_on_c,0,52,127,
2,23534, Note_off_c,0,64,127,
2,23534, Note_off_c,0,49,127,
2,23535, Note_on_c,0,68,127,
2,23535, Note_off_c,0,52,127,
2,23536, Note_off_c,0,68,127,
2,23537, Note_on_c,0,64,127,
2,23538, Note_off_c,0,64,127,
2,23541, Note_on_c,0,64,127,
2,23541, Note_on_c,0,46,127,
2,23541, Note_off_c,0,61,127,
2,23542, Note_on_c,0,61,127,
2,23542, Note_off_c,0,64,127,
2,23542, Note_off_c,0,46,127,
2,23544, Note_on_c,0,64,127,
2,23544, Note_off_c,0,61,127,
2,23545, Note_on_c,0,61,127,
2,23545, Note_off_c,0,64,127,
2,23546, Note_on_c,0,70,127,
2,23547, Note_off_c,0,70,127,
2,23548, Note_on_c,0,70,127,
2,23548, Note_off_c,0,61,127,
2,23549, Note_on_c,0,61,127,
2,23549, Note_off_c,0,70,127,
2,23550, Note_on_c,0,70,127,
2,23550, Note_off_c,0,61,127,
2,23551, Note_on_c,0,61,127,
2,23551, Note_off_c,0,70,127,
2,23559, Note_on_c,0,64,127,
2,23559, Note_off_c,0,61,127,
2,23560, Note_on_c,0,61,127,
2,23560, Note_off_c,0,64,127,
2,23591, Note_on_c,0,64,127,
2,23591, Note_off_c,0,40,127,
2,23592, Note_on_c,0,40,127,
2,23593, Note_off_c,0,64,127,
2,23601, Note_on_c,0,67,127,
2,23602, Note_off_c,0,67,127,
2,23609, Note_on_c,0,64,127,
2,23609, Note_on_c,0,46,127,
2,23609, Note_off_c,0,40,127,
2,23610, Note_on_c,0,58,127,
2,23610, Note_on_c,0,40,127,
2,23610, Note_off_c,0,64,127,
2,23610, Note_off_c,0,46,127,
2,23611, Note_on_c,0,34,127,
2,23611, Note_off_c,0,58,127,
2,23611, Note_off_c,0,40,127,
2,23612, Note_on_c,0,40,127,
2,23612, Note_on_c,0,70,127,
2,23612, Note_off_c,0,34,127,
2,23613, Note_off_c,0,70,127,
2,23615, Note_off_c,0,40,127,
2,23616, Note_on_c,0,40,127,
2,23617, Note_on_c,0,58,127,
2,23618, Note_off_c,0,58,127,
2,23620, Note_on_c,0,64,127,
2,23621, Note_off_c,0,64,127,
2,23622, Note_on_c,0,39,127,
2,23622, Note_off_c,0,40,127,
2,23623, Note_on_c,0,40,127,
2,23623, Note_off_c,0,39,127,
2,23625, Note_on_c,0,58,127,
2,23626, Note_on_c,0,64,127,
2,23626, Note_off_c,0,58,127,
2,23627, Note_on_c,0,63,127,
2,23627, Note_off_c,0,64,127,
2,23628, Note_off_c,0,63,127,
2,23629, Note_on_c,0,58,127,
2,23629, Note_on_c,0,70,127,
2,23629, Note_off_c,0,61,127,
2,23630, Note_on_c,0,61,127,
2,23630, Note_off_c,0,58,127,
2,23630, Note_off_c,0,70,127,
2,23631, Note_on_c,0,64,127,
2,23631, Note_off_c,0,61,127,
2,23632, Note_on_c,0,61,127,
2,23632, Note_off_c,0,64,127,
2,23637, Note_on_c,0,76,127,
2,23637, Note_off_c,0,40,127,
2,23638, Note_on_c,0,40,127,
2,23638, Note_off_c,0,76,127,
2,23639, Note_on_c,0,64,127,
2,23640, Note_off_c,0,64,127,
2,23643, Note_on_c,0,64,127,
2,23644, Note_off_c,0,64,127,
2,23645, Note_on_c,0,64,127,
2,23646, Note_on_c,0,56,127,
2,23646, Note_off_c,0,64,127,
2,23647, Note_on_c,0,64,127,
2,23647, Note_off_c,0,56,127,
2,23648, Note_off_c,0,40,127,
2,23649, Note_on_c,0,40,127,
2,23649, Note_off_c,0,64,127,
2,23657, Note_on_c,0,64,127,
2,23658, Note_off_c,0,64,127,
2,23659, Note_on_c,0,70,127,
2,23660, Note_on_c,0,46,127,
2,23660, Note_off_c,0,40,127,
2,23660, Note_off_c,0,70,127,
2,23661, Note_on_c,0,40,127,
2,23661, Note_off_c,0,46,127,
2,23665, Note_on_c,0,64,127,
2,23666, Note_off_c,0,64,127,
2,23667, Note_on_c,0,64,127,
2,23668, Note_off_c,0,64,127,
2,23672, Note_on_c,0,39,127,
2,23672, Note_off_c,0,40,127,
2,23673, Note_off_c,0,39,127,
2,23675, Note_on_c,0,40,127,
2,23679, Note_on_c,0,83,127,
2,23679, Note_off_c,0,40,127,
2,23680, Note_on_c,0,40,127,
2,23680, Note_off_c,0,83,127,
2,23682, Note_on_c,0,64,127,
2,23682, Note_off_c,0,40,127,
2,23683, Note_on_c,0,40,127,
2,23683, Note_off_c,0,64,127,
2,23684, Note_off_c,0,61,127,
2,23723, Note_on_c,0,44,127,
2,23723, Note_off_c,0,40,127,
2,23724, Note_on_c,0,40,127,
2,23724, Note_off_c,0,44,127,
2,23751, Note_on_c,0,68,127,
2,23752, Note_on_c,0,56,127,
2,23752, Note_off_c,0,68,127,
2,23753, Note_on_c,0,61,127,
2,23753, Note_off_c,0,56,127,
2,23754, Note_on_c,0,56,127,
2,23754, Note_off_c,0,61,127,
2,23755, Note_off_c,0,56,127,
2,23756, Note_on_c,0,56,127,
2,23757, Note_on_c,0,39,127,
2,23757, Note_off_c,0,56,127,
2,23758, Note_on_c,0,56,127,
2,23758, Note_off_c,0,39,127,
2,23759, Note_off_c,0,56,127,
2,23760, Note_on_c,0,61,127,
2,23762, Note_on_c,0,39,127,
2,23762, Note_on_c,0,56,127,
2,23762, Note_off_c,0,40,127,
2,23763, Note_on_c,0,72,127,
2,23763, Note_on_c,0,40,127,
2,23763, Note_off_c,0,39,127,
2,23763, Note_off_c,0,56,127,
2,23764, Note_on_c,0,56,127,
2,23764, Note_off_c,0,72,127,
2,23765, Note_off_c,0,61,127,
2,23766, Note_on_c,0,37,127,
2,23767, Note_on_c,0,61,127,
2,23767, Note_on_c,0,49,127,
2,23767, Note_off_c,0,56,127,
2,23767, Note_off_c,0,37,127,
2,23768, Note_on_c,0,44,127,
2,23768, Note_off_c,0,49,127,
2,23769, Note_off_c,0,44,127,
2,23771, Note_on_c,0,49,127,
2,23772, Note_off_c,0,49,127,
2,23774, Note_on_c,0,36,127,
2,23774, Note_off_c,0,40,127,
2,23775, Note_on_c,0,71,127,
2,23775, Note_on_c,0,40,127,
2,23775, Note_off_c,0,36,127,
2,23776, Note_on_c,0,64,127,
2,23776, Note_off_c,0,71,127,
2,23777, Note_off_c,0,64,127,
2,23778, Note_on_c,0,70,127,
2,23779, Note_on_c,0,58,127,
2,23779, Note_off_c,0,70,127,
2,23780, Note_off_c,0,58,127,
2,23793, Note_on_c,0,70,127,
2,23794, Note_off_c,0,70,127,
2,23795, Note_on_c,0,64,127,
2,23796, Note_off_c,0,64,127,
2,23798, Note_off_c,0,40,127,
2,23799, Note_on_c,0,40,127,
2,23806, Note_on_c,0,58,127,
2,23806, Note_off_c,0,61,127,
2,23807, Note_on_c,0,61,127,
2,23807, Note_off_c,0,58,127,
2,23837, Note_off_c,0,61,127,
2,23838, Note_on_c,0,61,127,
2,23839, Note_on_c,0,56,127,
2,23839, Note_off_c,0,61,127,
2,23840, Note_on_c,0,61,127,
2,23840, Note_off_c,0,56,127,
2,23869, Note_on_c,0,64,127,
2,23869, Note_off_c,0,61,127,
2,23870, Note_on_c,0,61,127,
2,23870, Note_off_c,0,64,127,
2,23876, Note_on_c,0,37,127,
2,23876, Note_off_c,0,40,127,
2,23877, Note_on_c,0,40,127,
2,23877, Note_off_c,0,37,127,
2,23881, Note_on_c,0,64,127,
2,23881, Note_off_c,0,61,127,
2,23882, Note_on_c,0,61,127,
2,23882, Note_on_c,0,67,127,
2,23882, Note_off_c,0,64,127,
2,23882, Note_off_c,0,40,127,
2,23883, Note_on_c,0,64,127,
2,23883, Note_on_c,0,40,127,
2,23883, Note_off_c,0,67,127,
2,23884, Note_off_c,0,64,127,
2,23886, Note_on_c,0,64,127,
2,23887, Note_off_c,0,64,127,
2,23888, Note_on_c,0,49,127,
2,23889, Note_on_c,0,64,127,
2,23889, Note_off_c,0,49,127,
2,23890, Note_on_c,0,37,127,
2,23890, Note_off_c,0,64,127,
2,23891, Note_off_c,0,37,127,
2,23892, Note_on_c,0,58,127,
2,23892, Note_off_c,0,61,127,
2,23893, Note_on_c,0,61,127,
2,23893, Note_off_c,0,58,127,
2,23894, Note_on_c,0,63,127,
2,23894, Note_off_c,0,61,127,
2,23896, Note_on_c,0,61,127,
2,23896, Note_off_c,0,63,127,
2,23904, Note_on_c,0,49,127,
2,23904, Note_off_c,0,61,127,
2,23905, Note_on_c,0,61,127,
2,23905, Note_off_c,0,49,127,
2,23907, Note_on_c,0,64,127,
2,23907, Note_off_c,0,61,127,
2,23908, Note_on_c,0,61,127,
2,23908, Note_off_c,0,64,127,
2,23911, Note_on_c,0,47,127,
2,23911, Note_off_c,0,40,127,
2,23912, Note_on_c,0,40,127,
2,23912, Note_off_c,0,47,127,
2,23915, Note_on_c,0,50,127,
2,23915, Note_off_c,0,40,127,
2,23916, Note_on_c,0,40,127,
2,23916, Note_off_c,0,50,127,
2,23918, Note_on_c,0,70,127,
2,23918, Note_off_c,0,61,127,
2,23919, Note_on_c,0,61,127,
2,23919, Note_off_c,0,70,127,
2,23927, Note_on_c,0,56,127,
2,23927, Note_off_c,0,61,127,
2,23928, Note_on_c,0,61,127,
2,23928, Note_off_c,0,56,127,
2,23950, Note_on_c,0,52,127,
2,23950, Note_off_c,0,40,127,
2,23951, Note_on_c,0,40,127,
2,23951, Note_off_c,0,52,127,
2,23961, Note_on_c,0,59,127,
2,23961, Note_off_c,0,61,127,
2,23962, Note_on_c,0,61,127,
2,23962, Note_off_c,0,59,127,
2,23967, Note_on_c,0,56,127,
2,23967, Note_off_c,0,61,127,
2,23968, Note_on_c,0,67,127,
2,23968, Note_off_c,0,56,127,
2,23969, Note_on_c,0,61,127,
2,23969, Note_off_c,0,67,127,
2,23970, Note_on_c,0,64,127,
2,23970, Note_off_c,0,61,127,
2,23970, Note_off_c,0,40,127,
2,23971, Note_on_c,0,61,127,
2,23971, Note_on_c,0,40,127,
2,23971, Note_off_c,0,64,127,
2,23972, Note_on_c,0,63,127,
2,23972, Note_off_c,0,61,127,
2,23973, Note_on_c,0,61,127,
2,23973, Note_off_c,0,63,127,
2,23977, Note_on_c,0,39,127,
2,23977, Note_off_c,0,40,127,
2,23978, Note_on_c,0,40,127,
2,23978, Note_on_c,0,56,127,
2,23978, Note_off_c,0,61,127,
2,23978, Note_off_c,0,39,127,
2,23979, Note_on_c,0,61,127,
2,23979, Note_off_c,0,56,127,
2,23983, Note_on_c,0,64,127,
2,23983, Note_off_c,0,61,127,
2,23984, Note_on_c,0,61,127,
2,23984, Note_off_c,0,64,127,
2,23989, Note_on_c,0,64,127,
2,23989, Note_off_c,0,61,127,
2,23990, Note_on_c,0,61,127,
2,23990, Note_off_c,0,64,127,
2,23992, Note_on_c,0,64,127,
2,23992, Note_off_c,0,61,127,
2,23993, Note_on_c,0,61,127,
2,23993, Note_off_c,0,64,127,
2,24001, Note_on_c,0,37,127,
2,24001, Note_off_c,0,40,127,
2,24002, Note_on_c,0,40,127,
2,24002, Note_off_c,0,37,127,
2,24026, Note_on_c,0,64,127,
2,24026, Note_off_c,0,61,127,
2,24027, Note_on_c,0,61,127,
2,24027, Note_off_c,0,64,127,
2,24028, Note_on_c,0,64,127,
2,24028, Note_off_c,0,61,127,
2,24029, Note_on_c,0,61,127,
2,24029, Note_off_c,0,64,127,
2,24046, Note_on_c,0,64,127,
2,24046, Note_off_c,0,61,127,
2,24048, Note_on_c,0,61,127,
2,24048, Note_off_c,0,64,127,
2,24067, Note_on_c,0,39,127,
2,24067, Note_off_c,0,40,127,
2,24068, Note_on_c,0,40,127,
2,24068, Note_off_c,0,39,127,
2,24077, Note_on_c,0,35,127,
2,24077, Note_off_c,0,40,127,
2,24078, Note_on_c,0,40,127,
2,24078, Note_off_c,0,35,127,
2,24079, Note_on_c,0,64,127,
2,24079, Note_off_c,0,61,127,
2,24080, Note_on_c,0,61,127,
2,24080, Note_off_c,0,64,127,
2,24081, Note_off_c,0,40,127,
2,24082, Note_on_c,0,40,127,
2,24083, Note_on_c,0,64,127,
2,24084, Note_off_c,0,64,127,
2,24099, Note_on_c,0,64,127,
2,24099, Note_off_c,0,61,127,
2,24100, Note_on_c,0,61,127,
2,24100, Note_off_c,0,64,127,
2,24103, Note_on_c,0,37,127,
2,24103, Note_off_c,0,40,127,
2,24104, Note_on_c,0,40,127,
2,24104, Note_off_c,0,37,127,
2,24107, Note_on_c,0,64,127,
2,24107, Note_off_c,0,61,127,
2,24109, Note_on_c,0,61,127,
2,24109, Note_off_c,0,64,127,
2,24110, Note_on_c,0,64,127,
2,24110, Note_off_c,0,61,127,
2,24111, Note_on_c,0,61,127,
2,24111, Note_off_c,0,64,127,
2,24114, Note_on_c,0,49,127,
2,24114, Note_off_c,0,61,127,
2,24115, Note_on_c,0,61,127,
2,24115, Note_off_c,0,49,127,
2,24121, Note_on_c,0,39,127,
2,24121, Note_on_c,0,66,127,
2,24121, Note_off_c,0,61,127,
2,24121, Note_off_c,0,40,127,
2,24122, Note_on_c,0,61,127,
2,24122, Note_on_c,0,40,127,
2,24122, Note_off_c,0,39,127,
2,24122, Note_off_c,0,66,127,
2,24123, Note_on_c,0,70,127,
2,24123, Note_off_c,0,61,127,
2,24124, Note_on_c,0,61,127,
2,24124, Note_off_c,0,70,127,
2,24143, Note_on_c,0,64,127,
2,24143, Note_off_c,0,61,127,
2,24144, Note_on_c,0,61,127,
2,24144, Note_off_c,0,64,127,
2,24149, Note_on_c,0,64,127,
2,24149, Note_off_c,0,61,127,
2,24150, Note_on_c,0,61,127,
2,24150, Note_off_c,0,64,127,
2,24157, Note_on_c,0,63,127,
2,24157, Note_off_c,0,61,127,
2,24158, Note_on_c,0,61,127,
2,24158, Note_off_c,0,63,127,
2,24160, Note_off_c,0,40,127,
2,24161, Note_on_c,0,40,127,
2,24167, Note_on_c,0,63,127,
2,24167, Note_off_c,0,61,127,
2,24168, Note_off_c,0,63,127,
2,24169, Note_on_c,0,58,127,
2,24169, Note_on_c,0,37,127,
2,24169, Note_off_c,0,40,127,
2,24170, Note_on_c,0,61,127,
2,24170, Note_on_c,0,40,127,
2,24170, Note_off_c,0,58,127,
2,24170, Note_off_c,0,37,127,
2,24182, Note_on_c,0,64,127,
2,24182, Note_off_c,0,61,127,
2,24183, Note_on_c,0,61,127,
2,24183, Note_off_c,0,64,127,
2,24196, Note_on_c,0,70,127,
2,24196, Note_off_c,0,61,127,
2,24197, Note_on_c,0,61,127,
2,24197, Note_on_c,0,39,127,
2,24197, Note_off_c,0,40,127,
2,24197, Note_off_c,0,70,127,
2,24198, Note_on_c,0,46,127,
2,24198, Note_off_c,0,39,127,
2,24199, Note_on_c,0,40,127,
2,24199, Note_off_c,0,46,127,
2,24210, Note_off_c,0,40,127,
2,24211, Note_on_c,0,40,127,
2,24221, Note_on_c,0,64,127,
2,24222, Note_off_c,0,64,127,
2,24223, Note_on_c,0,64,127,
2,24225, Note_off_c,0,64,127,
2,24227, Note_on_c,0,64,127,
2,24227, Note_on_c,0,52,127,
2,24227, Note_off_c,0,61,127,
2,24228, Note_on_c,0,61,127,
2,24228, Note_on_c,0,67,127,
2,24228, Note_off_c,0,64,127,
2,24228, Note_off_c,0,52,127,
2,24228, Note_off_c,0,40,127,
2,24229, Note_on_c,0,64,127,
2,24229, Note_on_c,0,40,127,
2,24229, Note_off_c,0,67,127,
2,24230, Note_off_c,0,64,127,
2,24232, Note_off_c,0,40,127,
2,24233, Note_on_c,0,40,127,
2,24234, Note_on_c,0,64,127,
2,24234, Note_off_c,0,61,127,
2,24235, Note_on_c,0,61,127,
2,24235, Note_off_c,0,64,127,
2,24235, Note_off_c,0,40,127,
2,24236, Note_on_c,0,40,127,
2,24254, Note_on_c,0,55,127,
2,24254, Note_off_c,0,40,127,
2,24255, Note_on_c,0,40,127,
2,24255, Note_off_c,0,55,127,
2,24256, Note_on_c,0,64,127,
2,24256, Note_off_c,0,61,127,
2,24257, Note_on_c,0,68,127,
2,24257, Note_off_c,0,64,127,
2,24258, Note_on_c,0,61,127,
2,24258, Note_off_c,0,68,127,
2,24272, Note_off_c,0,40,127,
2,24273, Note_on_c,0,40,127,
2,24288, Note_on_c,0,76,127,
2,24288, Note_off_c,0,61,127,
2,24289, Note_on_c,0,61,127,
2,24289, Note_off_c,0,76,127,
2,24296, Note_on_c,0,39,127,
2,24296, Note_off_c,0,40,127,
2,24297, Note_on_c,0,40,127,
2,24297, Note_off_c,0,39,127,
2,24313, Note_off_c,0,40,127,
2,24314, Note_on_c,0,40,127,
2,24331, Note_on_c,0,58,127,
2,24331, Note_off_c,0,61,127,
2,24332, Note_on_c,0,61,127,
2,24332, Note_off_c,0,58,127,
2,24357, Note_on_c,0,37,127,
2,24357, Note_off_c,0,40,127,
2,24358, Note_on_c,0,40,127,
2,24358, Note_off_c,0,37,127,
2,24370, Note_on_c,0,67,127,
2,24370, Note_off_c,0,40,127,
2,24371, Note_on_c,0,40,127,
2,24371, Note_off_c,0,67,127,
2,24372, Note_on_c,0,70,127,
2,24373, Note_off_c,0,70,127,
2,24374, Note_on_c,0,67,127,
2,24375, Note_on_c,0,64,127,
2,24375, Note_off_c,0,67,127,
2,24377, Note_off_c,0,64,127,
2,24380, Note_on_c,0,64,127,
2,24381, Note_off_c,0,64,127,
2,24383, Note_on_c,0,76,127,
2,24384, Note_off_c,0,76,127,
2,24392, Note_on_c,0,64,127,
2,24392, Note_off_c,0,61,127,
2,24393, Note_on_c,0,61,127,
2,24393, Note_off_c,0,64,127,
2,24395, Note_on_c,0,64,127,
2,24395, Note_off_c,0,61,127,
2,24396, Note_on_c,0,61,127,
2,24396, Note_off_c,0,64,127,
2,24397, Note_off_c,0,40,127,
2,24398, Note_on_c,0,40,127,
2,24400, Note_on_c,0,64,127,
2,24401, Note_off_c,0,64,127,
2,24402, Note_on_c,0,64,127,
2,24403, Note_off_c,0,64,127,
2,24407, Note_on_c,0,52,127,
2,24408, Note_off_c,0,52,127,
2,24413, Note_on_c,0,52,127,
2,24413, Note_off_c,0,61,127,
2,24414, Note_on_c,0,61,127,
2,24414, Note_off_c,0,52,127,
2,24415, Note_on_c,0,44,127,
2,24415, Note_off_c,0,40,127,
2,24416, Note_on_c,0,40,127,
2,24416, Note_off_c,0,44,127,
2,24418, Note_on_c,0,70,127,
2,24418, Note_off_c,0,61,127,
2,24419, Note_on_c,0,61,127,
2,24419, Note_off_c,0,70,127,
2,24423, Note_on_c,0,47,127,
2,24423, Note_off_c,0,40,127,
2,24424, Note_on_c,0,40,127,
2,24424, Note_off_c,0,47,127,
2,24429, Note_on_c,0,37,127,
2,24429, Note_off_c,0,40,127,
2,24430, Note_on_c,0,40,127,
2,24430, Note_off_c,0,37,127,
2,24441, Note_on_c,0,64,127,
2,24441, Note_off_c,0,61,127,
2,24442, Note_on_c,0,61,127,
2,24442, Note_off_c,0,64,127,
2,24447, Note_on_c,0,64,127,
2,24447, Note_off_c,0,61,127,
2,24448, Note_on_c,0,61,127,
2,24448, Note_off_c,0,64,127,
2,24455, Note_on_c,0,64,127,
2,24455, Note_off_c,0,61,127,
2,24456, Note_on_c,0,61,127,
2,24456, Note_off_c,0,64,127,
2,24459, Note_on_c,0,64,127,
2,24459, Note_off_c,0,61,127,
2,24460, Note_on_c,0,61,127,
2,24460, Note_off_c,0,64,127,
2,24461, Note_on_c,0,64,127,
2,24461, Note_off_c,0,61,127,
2,24462, Note_on_c,0,61,127,
2,24462, Note_off_c,0,64,127,
2,24483, Note_on_c,0,64,127,
2,24483, Note_off_c,0,61,127,
2,24484, Note_on_c,0,61,127,
2,24484, Note_off_c,0,64,127,
2,24487, Note_on_c,0,64,127,
2,24487, Note_off_c,0,61,127,
2,24489, Note_on_c,0,61,127,
2,24489, Note_off_c,0,64,127,
2,24524, Note_on_c,0,39,127,
2,24524, Note_off_c,0,40,127,
2,24525, Note_on_c,0,40,127,
2,24525, Note_off_c,0,39,127,
2,24541, Note_on_c,0,66,127,
2,24541, Note_off_c,0,61,127,
2,24542, Note_on_c,0,61,127,
2,24542, Note_off_c,0,66,127,
2,24546, Note_on_c,0,56,127,
2,24546, Note_off_c,0,61,127,
2,24547, Note_on_c,0,61,127,
2,24547, Note_off_c,0,56,127,
2,24548, Note_on_c,0,70,127,
2,24549, Note_off_c,0,70,127,
2,24566, Note_on_c,0,64,127,
2,24567, Note_off_c,0,64,127,
2,24570, Note_on_c,0,64,127,
2,24571, Note_off_c,0,64,127,
2,24573, Note_on_c,0,64,127,
2,24574, Note_off_c,0,64,127,
2,24578, Note_on_c,0,64,127,
2,24578, Note_off_c,0,40,127,
2,24579, Note_on_c,0,40,127,
2,24580, Note_on_c,0,56,127,
2,24580, Note_off_c,0,64,127,
2,24581, Note_off_c,0,56,127,
2,24583, Note_on_c,0,73,127,
2,24583, Note_on_c,0,58,127,
2,24583, Note_off_c,0,61,127,
2,24584, Note_on_c,0,61,127,
2,24584, Note_off_c,0,73,127,
2,24584, Note_off_c,0,58,127,
2,24591, Note_on_c,0,67,127,
2,24591, Note_off_c,0,61,127,
2,24591, Note_off_c,0,40,127,
2,24592, Note_on_c,0,61,127,
2,24592, Note_off_c,0,67,127,
2,24593, Note_on_c,0,40,127,
2,24599, Note_on_c,0,71,127,
2,24599, Note_off_c,0,61,127,
2,24600, Note_on_c,0,61,127,
2,24600, Note_off_c,0,71,127,
2,24607, Note_on_c,0,44,127,
2,24607, Note_off_c,0,40,127,
2,24608, Note_on_c,0,40,127,
2,24608, Note_off_c,0,44,127,
2,24617, Note_off_c,0,61,127,
2,24618, Note_on_c,0,68,127,
2,24619, Note_on_c,0,61,127,
2,24619, Note_off_c,0,68,127,
2,24625, Note_on_c,0,64,127,
2,24625, Note_off_c,0,61,127,
2,24625, Note_off_c,0,40,127,
2,24626, Note_on_c,0,61,127,
2,24627, Note_on_c,0,40,127,
2,24627, Note_off_c,0,64,127,
2,24631, Note_on_c,0,56,127,
2,24631, Note_off_c,0,61,127,
2,24632, Note_on_c,0,61,127,
2,24632, Note_off_c,0,56,127,
2,24635, Note_on_c,0,70,127,
2,24635, Note_off_c,0,61,127,
2,24636, Note_on_c,0,61,127,
2,24636, Note_off_c,0,70,127,
2,24639, Note_on_c,0,64,127,
2,24639, Note_off_c,0,61,127,
2,24640, Note_on_c,0,61,127,
2,24640, Note_off_c,0,64,127,
2,24662, Note_on_c,0,64,127,
2,24662, Note_off_c,0,61,127,
2,24664, Note_on_c,0,61,127,
2,24664, Note_off_c,0,64,127,
2,24675, Note_on_c,0,64,127,
2,24675, Note_off_c,0,61,127,
2,24676, Note_on_c,0,61,127,
2,24676, Note_off_c,0,64,127,
2,24681, Note_on_c,0,64,127,
2,24681, Note_off_c,0,61,127,
2,24683, Note_on_c,0,61,127,
2,24683, Note_off_c,0,64,127,
2,24684, Note_on_c,0,39,127,
2,24684, Note_off_c,0,40,127,
2,24685, Note_on_c,0,63,127,
2,24685, Note_on_c,0,40,127,
2,24685, Note_off_c,0,61,127,
2,24685, Note_off_c,0,39,127,
2,24686, Note_on_c,0,61,127,
2,24686, Note_off_c,0,63,127,
2,24687, Note_on_c,0,64,127,
2,24691, Note_off_c,0,64,127,
2,24694, Note_on_c,0,64,127,
2,24695, Note_off_c,0,64,127,
2,24707, Note_on_c,0,64,127,
2,24708, Note_off_c,0,64,127,
2,24712, Note_on_c,0,37,127,
2,24712, Note_off_c,0,40,127,
2,24713, Note_on_c,0,40,127,
2,24713, Note_off_c,0,37,127,
2,24721, Note_on_c,0,28,127,
2,24721, Note_off_c,0,40,127,
2,24722, Note_on_c,0,40,127,
2,24722, Note_off_c,0,28,127,
2,24734, Note_off_c,0,61,127,
2,24735, Note_on_c,0,61,127,
2,24735, Note_off_c,0,40,127,
2,24736, Note_on_c,0,40,127,
2,24736, Note_off_c,0,61,127,
2,24749, Note_on_c,0,49,127,
2,24749, Note_off_c,0,40,127,
2,24750, Note_on_c,0,40,127,
2,24750, Note_off_c,0,49,127,
2,24766, Note_on_c,0,34,127,
2,24766, Note_off_c,0,40,127,
2,24767, Note_on_c,0,40,127,
2,24767, Note_off_c,0,34,127,
2,24803, Note_on_c,0,34,127,
2,24803, Note_off_c,0,40,127,
2,24804, Note_on_c,0,40,127,
2,24804, Note_off_c,0,34,127,
2,24811, Note_on_c,0,71,127,
2,24812, Note_on_c,0,61,127,
2,24812, Note_off_c,0,71,127,
2,24818, Note_on_c,0,68,127,
2,24820, Note_off_c,0,68,127,
2,24824, Note_on_c,0,56,127,
2,24825, Note_off_c,0,56,127,
2,24826, Note_on_c,0,64,127,
2,24828, Note_off_c,0,64,127,
2,24829, Note_on_c,0,64,127,
2,24830, Note_on_c,0,63,127,
2,24830, Note_off_c,0,64,127,
2,24831, Note_off_c,0,63,127,
2,24834, Note_on_c,0,68,127,
2,24835, Note_on_c,0,58,127,
2,24835, Note_off_c,0,68,127,
2,24836, Note_off_c,0,58,127,
2,24836, Note_off_c,0,40,127,
2,24837, Note_on_c,0,40,127,
2,24839, Note_on_c,0,66,127,
2,24839, Note_off_c,0,40,127,
2,24840, Note_on_c,0,40,127,
2,24840, Note_off_c,0,66,127,
2,24843, Note_on_c,0,64,127,
2,24843, Note_on_c,0,52,127,
2,24843, Note_off_c,0,61,127,
2,24844, Note_on_c,0,61,127,
2,24844, Note_off_c,0,64,127,
2,24844, Note_off_c,0,52,127,
2,24845, Note_on_c,0,64,127,
2,24846, Note_off_c,0,64,127,
2,24848, Note_on_c,0,49,127,
2,24849, Note_on_c,0,64,127,
2,24849, Note_off_c,0,61,127,
2,24849, Note_off_c,0,49,127,
2,24850, Note_on_c,0,61,127,
2,24850, Note_off_c,0,64,127,
2,24855, Note_on_c,0,70,127,
2,24855, Note_off_c,0,61,127,
2,24856, Note_on_c,0,61,127,
2,24856, Note_off_c,0,70,127,
2,24858, Note_on_c,0,64,127,
2,24858, Note_off_c,0,61,127,
2,24859, Note_on_c,0,61,127,
2,24859, Note_off_c,0,64,127,
2,24879, Note_on_c,0,64,127,
2,24879, Note_off_c,0,61,127,
2,24881, Note_on_c,0,61,127,
2,24881, Note_off_c,0,64,127,
2,24887, Note_on_c,0,39,127,
2,24887, Note_off_c,0,40,127,
2,24888, Note_on_c,0,40,127,
2,24888, Note_off_c,0,39,127,
2,24890, Note_on_c,0,64,127,
2,24890, Note_off_c,0,61,127,
2,24891, Note_on_c,0,61,127,
2,24891, Note_off_c,0,64,127,
2,24893, Note_on_c,0,56,127,
2,24893, Note_off_c,0,61,127,
2,24894, Note_on_c,0,61,127,
2,24894, Note_off_c,0,56,127,
2,24895, Note_on_c,0,64,127,
2,24895, Note_off_c,0,61,127,
2,24896, Note_on_c,0,61,127,
2,24896, Note_off_c,0,64,127,
2,24904, Note_off_c,0,40,127,
2,24905, Note_on_c,0,39,127,
2,24906, Note_on_c,0,40,127,
2,24906, Note_off_c,0,39,127,
2,24911, Note_on_c,0,28,127,
2,24911, Note_off_c,0,40,127,
2,24912, Note_on_c,0,40,127,
2,24912, Note_off_c,0,28,127,
2,24913, Note_on_c,0,68,127,
2,24914, Note_on_c,0,64,127,
2,24914, Note_on_c,0,56,127,
2,24914, Note_off_c,0,61,127,
2,24914, Note_off_c,0,68,127,
2,24915, Note_off_c,0,56,127,
2,24916, Note_on_c,0,61,127,
2,24917, Note_on_c,0,73,127,
2,24917, Note_off_c,0,64,127,
2,24918, Note_on_c,0,64,127,
2,24918, Note_off_c,0,73,127,
2,24920, Note_off_c,0,64,127,
2,24921, Note_on_c,0,68,127,
2,24922, Note_on_c,0,49,127,
2,24922, Note_off_c,0,68,127,
2,24923, Note_on_c,0,64,127,
2,24923, Note_off_c,0,49,127,
2,24924, Note_on_c,0,28,127,
2,24924, Note_off_c,0,64,127,
2,24925, Note_off_c,0,28,127,
2,24926, Note_on_c,0,34,127,
2,24926, Note_off_c,0,40,127,
2,24927, Note_on_c,0,40,127,
2,24927, Note_off_c,0,34,127,
2,24931, Note_on_c,0,64,127,
2,24931, Note_off_c,0,61,127,
2,24932, Note_on_c,0,61,127,
2,24932, Note_off_c,0,64,127,
2,24935, Note_on_c,0,63,127,
2,24935, Note_off_c,0,61,127,
2,24936, Note_on_c,0,64,127,
2,24936, Note_off_c,0,63,127,
2,24937, Note_on_c,0,43,127,
2,24937, Note_on_c,0,61,127,
2,24937, Note_off_c,0,64,127,
2,24937, Note_off_c,0,40,127,
2,24938, Note_on_c,0,40,127,
2,24938, Note_off_c,0,43,127,
2,24940, Note_on_c,0,64,127,
2,24941, Note_on_c,0,63,127,
2,24941, Note_off_c,0,64,127,
2,24941, Note_off_c,0,40,127,
2,24942, Note_on_c,0,40,127,
2,24942, Note_off_c,0,63,127,
2,24943, Note_on_c,0,64,127,
2,24943, Note_off_c,0,61,127,
2,24944, Note_on_c,0,61,127,
2,24944, Note_on_c,0,39,127,
2,24944, Note_off_c,0,64,127,
2,24944, Note_off_c,0,40,127,
2,24945, Note_on_c,0,40,127,
2,24945, Note_off_c,0,39,127,
2,24946, Note_on_c,0,46,127,
2,24946, Note_off_c,0,40,127,
2,24947, Note_on_c,0,40,127,
2,24947, Note_off_c,0,46,127,
2,24949, Note_on_c,0,39,127,
2,24949, Note_off_c,0,40,127,
2,24950, Note_on_c,0,40,127,
2,24950, Note_off_c,0,39,127,
2,24963, Note_on_c,0,64,127,
2,24963, Note_off_c,0,61,127,
2,24964, Note_on_c,0,56,127,
2,24964, Note_off_c,0,64,127,
2,24965, Note_on_c,0,71,127,
2,24965, Note_off_c,0,56,127,
2,24966, Note_on_c,0,56,127,
2,24966, Note_off_c,0,71,127,
2,24967, Note_on_c,0,61,127,
2,24967, Note_off_c,0,56,127,
2,24969, Note_on_c,0,52,127,
2,24969, Note_off_c,0,61,127,
2,24970, Note_on_c,0,61,127,
2,24970, Note_off_c,0,52,127,
2,24971, Note_on_c,0,46,127,
2,24971, Note_off_c,0,61,127,
2,24972, Note_on_c,0,61,127,
2,24972, Note_off_c,0,46,127,
2,24991, Note_on_c,0,39,127,
2,24991, Note_off_c,0,40,127,
2,24992, Note_on_c,0,40,127,
2,24992, Note_off_c,0,39,127,
2,24993, Note_on_c,0,72,127,
2,24993, Note_off_c,0,40,127,
2,24994, Note_on_c,0,64,127,
2,24994, Note_on_c,0,40,127,
2,24994, Note_off_c,0,61,127,
2,24994, Note_off_c,0,72,127,
2,24995, Note_on_c,0,61,127,
2,24995, Note_off_c,0,64,127,
2,25005, Note_off_c,0,40,127,
2,25006, Note_on_c,0,40,127,
2,25010, Note_on_c,0,64,127,
2,25011, Note_off_c,0,64,127,
2,25012, Note_on_c,0,64,127,
2,25013, Note_off_c,0,64,127,
2,25014, Note_on_c,0,67,127,
2,25015, Note_on_c,0,64,127,
2,25015, Note_off_c,0,67,127,
2,25016, Note_off_c,0,64,127,
2,25022, Note_on_c,0,64,127,
2,25023, Note_on_c,0,63,127,
2,25023, Note_off_c,0,64,127,
2,25023, Note_off_c,0,40,127,
2,25024, Note_on_c,0,40,127,
2,25024, Note_off_c,0,63,127,
2,25025, Note_on_c,0,64,127,
2,25026, Note_off_c,0,64,127,
2,25028, Note_on_c,0,37,127,
2,25028, Note_off_c,0,40,127,
2,25029, Note_on_c,0,40,127,
2,25029, Note_off_c,0,37,127,
2,25030, Note_off_c,0,40,127,
2,25031, Note_on_c,0,40,127,
2,25032, Note_off_c,0,40,127,
2,25033, Note_on_c,0,66,127,
2,25033, Note_on_c,0,40,127,
2,25033, Note_off_c,0,61,127,
2,25034, Note_on_c,0,61,127,
2,25034, Note_off_c,0,66,127,
2,25038, Note_on_c,0,64,127,
2,25038, Note_off_c,0,61,127,
2,25039, Note_on_c,0,61,127,
2,25039, Note_off_c,0,64,127,
2,25041, Note_on_c,0,64,127,
2,25041, Note_off_c,0,61,127,
2,25042, Note_on_c,0,61,127,
2,25042, Note_off_c,0,64,127,
2,25044, Note_on_c,0,64,127,
2,25044, Note_off_c,0,61,127,
2,25045, Note_on_c,0,61,127,
2,25045, Note_off_c,0,64,127,
2,25059, Note_on_c,0,63,127,
2,25059, Note_off_c,0,61,127,
2,25060, Note_on_c,0,49,127,
2,25060, Note_off_c,0,63,127,
2,25061, Note_on_c,0,61,127,
2,25061, Note_off_c,0,49,127,
2,25066, Note_on_c,0,63,127,
2,25066, Note_off_c,0,61,127,
2,25067, Note_on_c,0,61,127,
2,25067, Note_off_c,0,63,127,
2,25081, Note_on_c,0,69,127,
2,25081, Note_off_c,0,61,127,
2,25082, Note_on_c,0,61,127,
2,25082, Note_off_c,0,69,127,
2,25088, Note_on_c,0,56,127,
2,25088, Note_off_c,0,61,127,
2,25089, Note_on_c,0,61,127,
2,25089, Note_off_c,0,56,127,
2,25126, Note_on_c,0,64,127,
2,25126, Note_off_c,0,61,127,
2,25127, Note_on_c,0,61,127,
2,25127, Note_off_c,0,64,127,
2,25131, Note_on_c,0,64,127,
2,25131, Note_off_c,0,40,127,
2,25132, Note_on_c,0,40,127,
2,25132, Note_off_c,0,64,127,
2,25141, Note_on_c,0,66,127,
2,25142, Note_on_c,0,58,127,
2,25142, Note_off_c,0,66,127,
2,25143, Note_off_c,0,58,127,
2,25149, Note_off_c,0,40,127,
2,25150, Note_on_c,0,40,127,
2,25154, Note_on_c,0,64,127,
2,25155, Note_on_c,0,73,127,
2,25155, Note_off_c,0,64,127,
2,25156, Note_off_c,0,73,127,
2,25157, Note_on_c,0,70,127,
2,25158, Note_off_c,0,70,127,
2,25160, Note_off_c,0,40,127,
2,25161, Note_on_c,0,40,127,
2,25163, Note_off_c,0,40,127,
2,25164, Note_on_c,0,64,127,
2,25164, Note_on_c,0,40,127,
2,25165, Note_off_c,0,64,127,
2,25167, Note_on_c,0,64,127,
2,25167, Note_off_c,0,61,127,
2,25168, Note_on_c,0,61,127,
2,25168, Note_off_c,0,64,127,
2,25170, Note_off_c,0,40,127,
2,25171, Note_on_c,0,40,127,
2,25176, Note_on_c,0,66,127,
2,25177, Note_off_c,0,66,127,
2,25185, Note_on_c,0,39,127,
2,25185, Note_off_c,0,40,127,
2,25186, Note_on_c,0,64,127,
2,25186, Note_on_c,0,40,127,
2,25186, Note_off_c,0,39,127,
2,25187, Note_off_c,0,64,127,
2,25188, Note_on_c,0,56,127,
2,25189, Note_on_c,0,64,127,
2,25189, Note_off_c,0,61,127,
2,25189, Note_off_c,0,56,127,
2,25190, Note_on_c,0,61,127,
2,25191, Note_off_c,0,64,127,
2,25194, Note_on_c,0,64,127,
2,25195, Note_off_c,0,64,127,
2,25203, Note_on_c,0,58,127,
2,25204, Note_off_c,0,58,127,
2,25208, Note_off_c,0,40,127,
2,25209, Note_on_c,0,40,127,
2,25212, Note_on_c,0,39,127,
2,25212, Note_off_c,0,40,127,
2,25213, Note_on_c,0,40,127,
2,25213, Note_off_c,0,39,127,
2,25218, Note_on_c,0,70,127,
2,25218, Note_off_c,0,61,127,
2,25219, Note_on_c,0,61,127,
2,25219, Note_off_c,0,70,127,
2,25222, Note_on_c,0,64,127,
2,25222, Note_off_c,0,61,127,
2,25224, Note_on_c,0,61,127,
2,25224, Note_off_c,0,64,127,
2,25230, Note_on_c,0,68,127,
2,25230, Note_off_c,0,61,127,
2,25231, Note_on_c,0,61,127,
2,25231, Note_off_c,0,68,127,
2,25232, Note_off_c,0,61,127,
2,25233, Note_on_c,0,61,127,
2,25233, Note_off_c,0,40,127,
2,25234, Note_on_c,0,40,127,
2,25240, Note_on_c,0,58,127,
2,25240, Note_off_c,0,61,127,
2,25241, Note_on_c,0,61,127,
2,25241, Note_off_c,0,58,127,
2,25244, Note_on_c,0,56,127,
2,25244, Note_off_c,0,61,127,
2,25245, Note_on_c,0,61,127,
2,25245, Note_off_c,0,56,127,
2,25254, Note_on_c,0,64,127,
2,25254, Note_off_c,0,61,127,
2,25255, Note_on_c,0,61,127,
2,25255, Note_off_c,0,64,127,
2,25268, Note_on_c,0,64,127,
2,25268, Note_off_c,0,61,127,
2,25269, Note_on_c,0,61,127,
2,25269, Note_off_c,0,64,127,
2,25270, Note_on_c,0,70,127,
2,25270, Note_off_c,0,61,127,
2,25271, Note_on_c,0,61,127,
2,25271, Note_off_c,0,70,127,
2,25279, Note_on_c,0,37,127,
2,25279, Note_off_c,0,40,127,
2,25280, Note_on_c,0,40,127,
2,25280, Note_off_c,0,37,127,
2,25315, Note_on_c,0,64,127,
2,25315, Note_off_c,0,61,127,
2,25316, Note_on_c,0,61,127,
2,25316, Note_off_c,0,64,127,
2,25331, Note_on_c,0,64,127,
2,25331, Note_off_c,0,61,127,
2,25332, Note_on_c,0,61,127,
2,25332, Note_off_c,0,64,127,
2,25352, Note_on_c,0,66,127,
2,25352, Note_off_c,0,61,127,
2,25353, Note_on_c,0,61,127,
2,25353, Note_on_c,0,39,127,
2,25353, Note_off_c,0,66,127,
2,25353, Note_off_c,0,40,127,
2,25354, Note_on_c,0,40,127,
2,25354, Note_off_c,0,39,127,
2,25355, Note_on_c,0,66,127,
2,25355, Note_off_c,0,61,127,
2,25356, Note_on_c,0,61,127,
2,25356, Note_off_c,0,66,127,
2,25367, Note_on_c,0,64,127,
2,25367, Note_off_c,0,61,127,
2,25368, Note_on_c,0,61,127,
2,25368, Note_off_c,0,64,127,
2,25369, Note_on_c,0,43,127,
2,25369, Note_off_c,0,40,127,
2,25370, Note_on_c,0,40,127,
2,25370, Note_off_c,0,43,127,
2,25394, Note_on_c,0,64,127,
2,25394, Note_off_c,0,61,127,
2,25395, Note_on_c,0,61,127,
2,25395, Note_off_c,0,64,127,
2,25403, Note_on_c,0,39,127,
2,25403, Note_off_c,0,40,127,
2,25404, Note_on_c,0,40,127,
2,25404, Note_off_c,0,39,127,
2,25424, Note_on_c,0,64,127,
2,25424, Note_off_c,0,40,127,
2,25425, Note_on_c,0,40,127,
2,25426, Note_off_c,0,64,127,
2,25429, Note_on_c,0,64,127,
2,25429, Note_off_c,0,40,127,
2,25430, Note_on_c,0,40,127,
2,25430, Note_off_c,0,64,127,
2,25431, Note_on_c,0,64,127,
2,25432, Note_off_c,0,64,127,
2,25433, Note_on_c,0,64,127,
2,25433, Note_on_c,0,58,127,
2,25433, Note_off_c,0,61,127,
2,25434, Note_on_c,0,61,127,
2,25434, Note_off_c,0,64,127,
2,25434, Note_off_c,0,58,127,
2,25437, Note_on_c,0,70,127,
2,25437, Note_off_c,0,61,127,
2,25438, Note_on_c,0,61,127,
2,25438, Note_off_c,0,70,127,
2,25439, Note_on_c,0,46,127,
2,25439, Note_off_c,0,40,127,
2,25440, Note_on_c,0,40,127,
2,25440, Note_off_c,0,46,127,
2,25444, Note_on_c,0,34,127,
2,25444, Note_off_c,0,40,127,
2,25445, Note_on_c,0,40,127,
2,25445, Note_off_c,0,34,127,
2,25452, Note_on_c,0,64,127,
2,25453, Note_off_c,0,64,127,
2,25456, Note_on_c,0,58,127,
2,25457, Note_off_c,0,58,127,
2,25458, Note_on_c,0,70,127,
2,25459, Note_off_c,0,70,127,
2,25461, Note_on_c,0,64,127,
2,25461, Note_off_c,0,61,127,
2,25462, Note_off_c,0,40,127,
2,25463, Note_on_c,0,61,127,
2,25463, Note_on_c,0,40,127,
2,25463, Note_off_c,0,64,127,
2,25468, Note_on_c,0,49,127,
2,25468, Note_off_c,0,61,127,
2,25469, Note_on_c,0,64,127,
2,25469, Note_off_c,0,49,127,
2,25470, Note_on_c,0,61,127,
2,25470, Note_off_c,0,64,127,
2,25487, Note_on_c,0,58,127,
2,25487, Note_off_c,0,61,127,
2,25488, Note_on_c,0,61,127,
2,25488, Note_off_c,0,58,127,
2,25497, Note_on_c,0,64,127,
2,25497, Note_off_c,0,61,127,
2,25498, Note_on_c,0,61,127,
2,25498, Note_off_c,0,64,127,
2,25500, Note_on_c,0,44,127,
2,25500, Note_off_c,0,40,127,
2,25501, Note_on_c,0,40,127,
2,25501, Note_off_c,0,44,127,
2,25505, Note_on_c,0,39,127,
2,25505, Note_off_c,0,40,127,
2,25506, Note_on_c,0,40,127,
2,25506, Note_off_c,0,39,127,
2,25511, Note_off_c,0,40,127,
2,25512, Note_on_c,0,64,127,
2,25512, Note_on_c,0,40,127,
2,25512, Note_off_c,0,61,127,
2,25513, Note_on_c,0,76,127,
2,25513, Note_off_c,0,64,127,
2,25514, Note_on_c,0,61,127,
2,25514, Note_on_c,0,64,127,
2,25514, Note_off_c,0,76,127,
2,25515, Note_off_c,0,64,127,
2,25516, Note_on_c,0,64,127,
2,25516, Note_off_c,0,61,127,
2,25517, Note_on_c,0,61,127,
2,25517, Note_on_c,0,58,127,
2,25517, Note_off_c,0,64,127,
2,25519, Note_off_c,0,58,127,
2,25521, Note_off_c,0,40,127,
2,25522, Note_on_c,0,40,127,
2,25523, Note_on_c,0,64,127,
2,25524, Note_off_c,0,64,127,
2,25525, Note_on_c,0,64,127,
2,25525, Note_on_c,0,39,127,
2,25525, Note_off_c,0,40,127,
2,25526, Note_on_c,0,52,127,
2,25526, Note_off_c,0,64,127,
2,25526, Note_off_c,0,39,127,
2,25527, Note_on_c,0,40,127,
2,25527, Note_off_c,0,52,127,
2,25529, Note_on_c,0,64,127,
2,25530, Note_off_c,0,64,127,
2,25532, Note_off_c,0,40,127,
2,25533, Note_on_c,0,64,127,
2,25534, Note_on_c,0,40,127,
2,25535, Note_off_c,0,64,127,
2,25542, Note_on_c,0,64,127,
2,25542, Note_off_c,0,61,127,
2,25542, Note_off_c,0,40,127,
2,25543, Note_on_c,0,40,127,
2,25544, Note_on_c,0,61,127,
2,25544, Note_off_c,0,64,127,
2,25556, Note_on_c,0,64,127,
2,25556, Note_off_c,0,61,127,
2,25557, Note_on_c,0,61,127,
2,25557, Note_off_c,0,64,127,
2,25557, Note_off_c,0,40,127,
2,25558, Note_on_c,0,40,127,
2,25559, Note_off_c,0,61,127,
2,25560, Note_on_c,0,61,127,
2,25560, Note_off_c,0,40,127,
2,25561, Note_on_c,0,46,127,
2,25561, Note_off_c,0,61,127,
2,25562, Note_on_c,0,40,127,
2,25562, Note_off_c,0,46,127,
2,25565, Note_on_c,0,39,127,
2,25565, Note_off_c,0,40,127,
2,25566, Note_on_c,0,40,127,
2,25566, Note_off_c,0,39,127,
2,25568, Note_on_c,0,61,127,
2,25568, Note_off_c,0,40,127,
2,25569, Note_on_c,0,40,127,
2,25569, Note_off_c,0,61,127,
2,25571, Note_on_c,0,37,127,
2,25571, Note_off_c,0,40,127,
2,25572, Note_on_c,0,40,127,
2,25572, Note_off_c,0,37,127,
2,25596, Note_on_c,0,56,127,
2,25596, Note_off_c,0,40,127,
2,25597, Note_on_c,0,40,127,
2,25597, Note_off_c,0,56,127,
2,25610, Note_on_c,0,34,127,
2,25610, Note_off_c,0,40,127,
2,25611, Note_on_c,0,40,127,
2,25611, Note_off_c,0,34,127,
2,25624, Note_on_c,0,37,127,
2,25624, Note_off_c,0,40,127,
2,25625, Note_on_c,0,40,127,
2,25625, Note_off_c,0,37,127,
2,25627, Note_on_c,0,43,127,
2,25627, Note_off_c,0,40,127,
2,25628, Note_on_c,0,56,127,
2,25628, Note_off_c,0,43,127,
2,25629, Note_on_c,0,40,127,
2,25629, Note_off_c,0,56,127,
2,25636, Note_on_c,0,37,127,
2,25636, Note_off_c,0,40,127,
2,25637, Note_on_c,0,40,127,
2,25637, Note_off_c,0,37,127,
2,25656, Note_on_c,0,46,127,
2,25656, Note_off_c,0,40,127,
2,25657, Note_on_c,0,40,127,
2,25657, Note_off_c,0,46,127,
2,25718, Note_on_c,0,37,127,
2,25718, Note_off_c,0,40,127,
2,25719, Note_on_c,0,40,127,
2,25719, Note_off_c,0,37,127,
2,25723, Note_on_c,0,61,127,
2,25723, Note_off_c,0,40,127,
2,25724, Note_on_c,0,40,127,
2,25724, Note_off_c,0,61,127,
2,25740, Note_on_c,0,39,127,
2,25740, Note_off_c,0,40,127,
2,25741, Note_on_c,0,40,127,
2,25741, Note_off_c,0,39,127,
2,25748, Note_on_c,0,30,127,
2,25748, Note_off_c,0,40,127,
2,25749, Note_on_c,0,40,127,
2,25749, Note_off_c,0,30,127,
2,25752, Note_on_c,0,39,127,
2,25752, Note_off_c,0,40,127,
2,25753, Note_on_c,0,40,127,
2,25753, Note_off_c,0,39,127,
2,25845, Note_on_c,0,37,127,
2,25845, Note_off_c,0,40,127,
2,25846, Note_on_c,0,40,127,
2,25846, Note_off_c,0,37,127,
2,25851, Note_on_c,0,71,127,
2,25852, Note_on_c,0,39,127,
2,25852, Note_off_c,0,71,127,
2,25853, Note_on_c,0,61,127,
2,25853, Note_off_c,0,39,127,
2,25854, Note_on_c,0,52,127,
2,25854, Note_off_c,0,61,127,
2,25855, Note_on_c,0,61,127,
2,25855, Note_off_c,0,52,127,
2,25857, Note_on_c,0,68,127,
2,25857, Note_off_c,0,61,127,
2,25858, Note_on_c,0,56,127,
2,25858, Note_off_c,0,68,127,
2,25859, Note_on_c,0,61,127,
2,25859, Note_off_c,0,56,127,
2,25862, Note_on_c,0,52,127,
2,25862, Note_off_c,0,61,127,
2,25863, Note_on_c,0,61,127,
2,25863, Note_off_c,0,52,127,
2,25871, Note_on_c,0,58,127,
2,25871, Note_off_c,0,61,127,
2,25872, Note_on_c,0,61,127,
2,25872, Note_off_c,0,58,127,
2,25885, Note_on_c,0,36,127,
2,25885, Note_off_c,0,40,127,
2,25886, Note_on_c,0,40,127,
2,25886, Note_off_c,0,36,127,
2,25899, Note_on_c,0,39,127,
2,25899, Note_off_c,0,40,127,
2,25900, Note_on_c,0,40,127,
2,25900, Note_off_c,0,39,127,
2,25901, Note_on_c,0,64,127,
2,25901, Note_off_c,0,61,127,
2,25902, Note_on_c,0,61,127,
2,25902, Note_off_c,0,64,127,
2,25903, Note_on_c,0,56,127,
2,25903, Note_off_c,0,40,127,
2,25904, Note_on_c,0,40,127,
2,25904, Note_off_c,0,56,127,
2,25905, Note_on_c,0,56,127,
2,25906, Note_off_c,0,56,127,
2,25907, Note_on_c,0,64,127,
2,25907, Note_on_c,0,56,127,
2,25907, Note_off_c,0,61,127,
2,25908, Note_on_c,0,61,127,
2,25908, Note_off_c,0,64,127,
2,25908, Note_off_c,0,56,127,
2,25909, Note_on_c,0,64,127,
2,25910, Note_on_c,0,49,127,
2,25910, Note_off_c,0,64,127,
2,25911, Note_off_c,0,49,127,
2,25916, Note_on_c,0,46,127,
2,25916, Note_off_c,0,40,127,
2,25917, Note_on_c,0,40,127,
2,25917, Note_off_c,0,46,127,
2,25922, Note_on_c,0,64,127,
2,25922, Note_off_c,0,61,127,
2,25923, Note_on_c,0,61,127,
2,25923, Note_off_c,0,64,127,
2,25931, Note_on_c,0,64,127,
2,25931, Note_off_c,0,61,127,
2,25932, Note_on_c,0,61,127,
2,25932, Note_off_c,0,64,127,
2,25933, Note_on_c,0,64,127,
2,25933, Note_off_c,0,61,127,
2,25934, Note_on_c,0,61,127,
2,25934, Note_off_c,0,64,127,
2,25962, Note_off_c,0,40,127,
2,25963, Note_on_c,0,64,127,
2,25963, Note_on_c,0,40,127,
2,25963, Note_off_c,0,61,127,
2,25964, Note_on_c,0,61,127,
2,25964, Note_off_c,0,64,127,
2,25978, Note_on_c,0,37,127,
2,25978, Note_off_c,0,40,127,
2,25979, Note_on_c,0,40,127,
2,25979, Note_off_c,0,37,127,
2,25980, Note_on_c,0,63,127,
2,25980, Note_off_c,0,61,127,
2,25980, Note_off_c,0,40,127,
2,25981, Note_on_c,0,61,127,
2,25981, Note_on_c,0,40,127,
2,25981, Note_off_c,0,63,127,
2,25987, Note_on_c,0,44,127,
2,25987, Note_off_c,0,40,127,
2,25988, Note_on_c,0,40,127,
2,25988, Note_off_c,0,44,127,
2,26005, Note_on_c,0,56,127,
2,26005, Note_off_c,0,61,127,
2,26006, Note_on_c,0,61,127,
2,26006, Note_off_c,0,56,127,
2,26020, Note_on_c,0,37,127,
2,26020, Note_off_c,0,40,127,
2,26021, Note_on_c,0,40,127,
2,26021, Note_off_c,0,37,127,
2,26023, Note_on_c,0,37,127,
2,26023, Note_off_c,0,40,127,
2,26024, Note_on_c,0,40,127,
2,26024, Note_off_c,0,37,127,
2,26037, Note_on_c,0,39,127,
2,26037, Note_off_c,0,40,127,
2,26038, Note_on_c,0,40,127,
2,26038, Note_off_c,0,39,127,
2,26046, Note_on_c,0,46,127,
2,26046, Note_off_c,0,40,127,
2,26047, Note_on_c,0,40,127,
2,26047, Note_off_c,0,46,127,
2,26050, Note_on_c,0,39,127,
2,26050, Note_off_c,0,40,127,
2,26051, Note_on_c,0,40,127,
2,26051, Note_off_c,0,39,127,
2,26057, Note_off_c,0,40,127,
2,26058, Note_on_c,0,68,127,
2,26058, Note_on_c,0,40,127,
2,26059, Note_off_c,0,68,127,
2,26060, Note_on_c,0,64,127,
2,26060, Note_on_c,0,59,127,
2,26060, Note_off_c,0,61,127,
2,26061, Note_on_c,0,61,127,
2,26061, Note_off_c,0,64,127,
2,26061, Note_off_c,0,59,127,
2,26069, Note_on_c,0,58,127,
2,26071, Note_off_c,0,58,127,
2,26073, Note_off_c,0,40,127,
2,26075, Note_on_c,0,40,127,
2,26082, Note_on_c,0,46,127,
2,26082, Note_off_c,0,40,127,
2,26083, Note_on_c,0,40,127,
2,26083, Note_off_c,0,46,127,
2,26090, Note_on_c,0,43,127,
2,26090, Note_off_c,0,40,127,
2,26091, Note_on_c,0,40,127,
2,26091, Note_off_c,0,43,127,
2,26094, Note_on_c,0,58,127,
2,26094, Note_off_c,0,61,127,
2,26095, Note_on_c,0,61,127,
2,26095, Note_off_c,0,58,127,
2,26107, Note_on_c,0,64,127,
2,26107, Note_off_c,0,61,127,
2,26108, Note_on_c,0,61,127,
2,26108, Note_off_c,0,64,127,
2,26111, Note_on_c,0,64,127,
2,26111, Note_off_c,0,61,127,
2,26112, Note_on_c,0,61,127,
2,26112, Note_off_c,0,64,127,
2,26115, Note_on_c,0,64,127,
2,26115, Note_off_c,0,61,127,
2,26116, Note_on_c,0,61,127,
2,26116, Note_off_c,0,64,127,
2,26118, Note_on_c,0,56,127,
2,26118, Note_off_c,0,61,127,
2,26119, Note_on_c,0,61,127,
2,26119, Note_off_c,0,56,127,
2,26130, Note_on_c,0,64,127,
2,26130, Note_on_c,0,67,127,
2,26130, Note_off_c,0,61,127,
2,26130, Note_off_c,0,40,127,
2,26131, Note_on_c,0,61,127,
2,26131, Note_on_c,0,40,127,
2,26131, Note_off_c,0,64,127,
2,26131, Note_off_c,0,67,127,
2,26137, Note_on_c,0,64,127,
2,26138, Note_off_c,0,64,127,
2,26142, Note_on_c,0,68,127,
2,26143, Note_on_c,0,64,127,
2,26143, Note_off_c,0,68,127,
2,26145, Note_off_c,0,64,127,
2,26147, Note_on_c,0,68,127,
2,26148, Note_on_c,0,64,127,
2,26148, Note_off_c,0,68,127,
2,26150, Note_off_c,0,64,127,
2,26151, Note_on_c,0,64,127,
2,26153, Note_off_c,0,64,127,
2,26156, Note_on_c,0,46,127,
2,26156, Note_off_c,0,40,127,
2,26157, Note_on_c,0,64,127,
2,26157, Note_on_c,0,40,127,
2,26157, Note_off_c,0,46,127,
2,26158, Note_off_c,0,64,127,
2,26164, Note_on_c,0,55,127,
2,26164, Note_off_c,0,40,127,
2,26165, Note_on_c,0,40,127,
2,26165, Note_off_c,0,55,127,
2,26168, Note_on_c,0,64,127,
2,26169, Note_off_c,0,64,127,
2,26171, Note_on_c,0,64,127,
2,26172, Note_on_c,0,58,127,
2,26172, Note_off_c,0,64,127,
2,26173, Note_off_c,0,58,127,
2,26174, Note_on_c,0,37,127,
2,26174, Note_off_c,0,40,127,
2,26175, Note_on_c,0,64,127,
2,26175, Note_on_c,0,40,127,
2,26175, Note_off_c,0,37,127,
2,26177, Note_off_c,0,64,127,
2,26178, Note_on_c,0,70,127,
2,26178, Note_off_c,0,40,127,
2,26179, Note_on_c,0,64,127,
2,26179, Note_on_c,0,40,127,
2,26179, Note_off_c,0,70,127,
2,26180, Note_off_c,0,64,127,
2,26188, Note_on_c,0,58,127,
2,26189, Note_off_c,0,58,127,
2,26190, Note_on_c,0,64,127,
2,26191, Note_off_c,0,64,127,
2,26195, Note_on_c,0,64,127,
2,26197, Note_off_c,0,64,127,
2,26198, Note_on_c,0,63,127,
2,26199, Note_off_c,0,63,127,
2,26201, Note_off_c,0,40,127,
2,26202, Note_on_c,0,66,127,
2,26202, Note_on_c,0,40,127,
2,26203, Note_off_c,0,66,127,
2,26204, Note_on_c,0,43,127,
2,26204, Note_off_c,0,40,127,
2,26205, Note_on_c,0,40,127,
2,26205, Note_off_c,0,43,127,
2,26208, Note_off_c,0,40,127,
2,26209, Note_on_c,0,40,127,
2,26221, Note_on_c,0,64,127,
2,26221, Note_off_c,0,61,127,
2,26222, Note_on_c,0,61,127,
2,26222, Note_off_c,0,64,127,
2,26225, Note_on_c,0,64,127,
2,26225, Note_off_c,0,61,127,
2,26227, Note_on_c,0,61,127,
2,26227, Note_off_c,0,64,127,
2,26251, Note_on_c,0,37,127,
2,26251, Note_off_c,0,40,127,
2,26252, Note_on_c,0,40,127,
2,26252, Note_off_c,0,37,127,
2,26258, Note_on_c,0,46,127,
2,26258, Note_off_c,0,40,127,
2,26259, Note_on_c,0,40,127,
2,26259, Note_off_c,0,46,127,
2,26277, Note_on_c,0,64,127,
2,26277, Note_off_c,0,61,127,
2,26278, Note_on_c,0,61,127,
2,26278, Note_off_c,0,64,127,
2,26279, Note_on_c,0,64,127,
2,26279, Note_off_c,0,61,127,
2,26280, Note_on_c,0,61,127,
2,26280, Note_off_c,0,64,127,
2,26286, Note_on_c,0,64,127,
2,26286, Note_off_c,0,61,127,
2,26287, Note_on_c,0,61,127,
2,26287, Note_off_c,0,64,127,
2,26293, Note_on_c,0,58,127,
2,26293, Note_off_c,0,61,127,
2,26294, Note_on_c,0,61,127,
2,26294, Note_off_c,0,58,127,
2,26297, Note_on_c,0,39,127,
2,26297, Note_off_c,0,40,127,
2,26298, Note_on_c,0,40,127,
2,26298, Note_off_c,0,39,127,
2,26301, Note_on_c,0,37,127,
2,26301, Note_off_c,0,40,127,
2,26302, Note_on_c,0,40,127,
2,26302, Note_off_c,0,37,127,
2,26308, Note_on_c,0,64,127,
2,26308, Note_off_c,0,61,127,
2,26309, Note_on_c,0,61,127,
2,26309, Note_off_c,0,64,127,
2,26313, Note_on_c,0,64,127,
2,26313, Note_off_c,0,61,127,
2,26314, Note_on_c,0,61,127,
2,26314, Note_off_c,0,64,127,
2,26326, Note_on_c,0,64,127,
2,26326, Note_off_c,0,61,127,
2,26327, Note_on_c,0,61,127,
2,26327, Note_off_c,0,64,127,
2,26342, Note_on_c,0,70,127,
2,26343, Note_off_c,0,70,127,
2,26362, Note_on_c,0,37,127,
2,26362, Note_off_c,0,40,127,
2,26363, Note_on_c,0,40,127,
2,26363, Note_off_c,0,37,127,
2,26364, Note_on_c,0,39,127,
2,26364, Note_off_c,0,40,127,
2,26365, Note_on_c,0,40,127,
2,26365, Note_off_c,0,39,127,
2,26366, Note_on_c,0,57,127,
2,26366, Note_off_c,0,61,127,
2,26366, Note_off_c,0,40,127,
2,26367, Note_on_c,0,61,127,
2,26367, Note_on_c,0,40,127,
2,26367, Note_off_c,0,57,127,
2,26368, Note_on_c,0,39,127,
2,26368, Note_off_c,0,40,127,
2,26369, Note_on_c,0,64,127,
2,26369, Note_on_c,0,40,127,
2,26369, Note_off_c,0,61,127,
2,26369, Note_off_c,0,39,127,
2,26370, Note_on_c,0,61,127,
2,26370, Note_off_c,0,64,127,
2,26377, Note_on_c,0,66,127,
2,26378, Note_on_c,0,64,127,
2,26378, Note_off_c,0,66,127,
2,26379, Note_off_c,0,64,127,
2,26380, Note_on_c,0,30,127,
2,26381, Note_off_c,0,30,127,
2,26382, Note_off_c,0,40,127,
2,26383, Note_on_c,0,40,127,
2,26390, Note_on_c,0,76,127,
2,26390, Note_off_c,0,40,127,
2,26391, Note_on_c,0,40,127,
2,26391, Note_off_c,0,76,127,
2,26393, Note_on_c,0,64,127,
2,26394, Note_off_c,0,64,127,
2,26397, Note_on_c,0,64,127,
2,26398, Note_off_c,0,64,127,
2,26401, Note_on_c,0,46,127,
2,26402, Note_on_c,0,58,127,
2,26402, Note_off_c,0,61,127,
2,26402, Note_off_c,0,46,127,
2,26403, Note_on_c,0,61,127,
2,26403, Note_off_c,0,58,127,
2,26404, Note_on_c,0,39,127,
2,26404, Note_off_c,0,40,127,
2,26405, Note_on_c,0,40,127,
2,26405, Note_off_c,0,39,127,
2,26409, Note_on_c,0,43,127,
2,26409, Note_off_c,0,40,127,
2,26410, Note_on_c,0,40,127,
2,26410, Note_off_c,0,43,127,
2,26434, Note_on_c,0,58,127,
2,26434, Note_off_c,0,61,127,
2,26435, Note_on_c,0,61,127,
2,26435, Note_off_c,0,58,127,
2,26436, Note_off_c,0,40,127,
2,26437, Note_on_c,0,40,127,
2,26448, Note_on_c,0,52,127,
2,26448, Note_off_c,0,61,127,
2,26449, Note_on_c,0,61,127,
2,26449, Note_off_c,0,52,127,
2,26450, Note_on_c,0,64,127,
2,26450, Note_on_c,0,30,127,
2,26450, Note_off_c,0,61,127,
2,26450, Note_off_c,0,40,127,
2,26451, Note_on_c,0,61,127,
2,26451, Note_on_c,0,40,127,
2,26451, Note_off_c,0,64,127,
2,26451, Note_off_c,0,30,127,
2,26456, Note_off_c,0,40,127,
2,26457, Note_on_c,0,40,127,
2,26466, Note_on_c,0,64,127,
2,26467, Note_off_c,0,64,127,
2,26469, Note_on_c,0,64,127,
2,26471, Note_off_c,0,64,127,
2,26472, Note_on_c,0,64,127,
2,26473, Note_on_c,0,58,127,
2,26473, Note_off_c,0,64,127,
2,26474, Note_off_c,0,58,127,
2,26476, Note_on_c,0,64,127,
2,26477, Note_off_c,0,64,127,
2,26486, Note_on_c,0,64,127,
2,26487, Note_on_c,0,70,127,
2,26487, Note_off_c,0,64,127,
2,26488, Note_off_c,0,70,127,
2,26490, Note_off_c,0,40,127,
2,26491, Note_on_c,0,40,127,
2,26509, Note_on_c,0,39,127,
2,26509, Note_off_c,0,40,127,
2,26510, Note_on_c,0,40,127,
2,26510, Note_off_c,0,39,127,
2,26517, Note_on_c,0,35,127,
2,26517, Note_off_c,0,40,127,
2,26518, Note_on_c,0,67,127,
2,26518, Note_on_c,0,40,127,
2,26518, Note_off_c,0,61,127,
2,26518, Note_off_c,0,35,127,
2,26519, Note_on_c,0,61,127,
2,26519, Note_off_c,0,67,127,
2,26526, Note_off_c,0,40,127,
2,26527, Note_on_c,0,40,127,
2,26528, Note_off_c,0,61,127,
2,26529, Note_on_c,0,61,127,
2,26548, Note_on_c,0,52,127,
2,26548, Note_off_c,0,61,127,
2,26549, Note_on_c,0,61,127,
2,26549, Note_off_c,0,52,127,
2,26552, Note_on_c,0,59,127,
2,26552, Note_off_c,0,61,127,
2,26553, Note_off_c,0,59,127,
2,26554, Note_on_c,0,61,127,
2,26583, Note_on_c,0,63,127,
2,26583, Note_off_c,0,61,127,
2,26584, Note_on_c,0,64,127,
2,26584, Note_off_c,0,63,127,
2,26585, Note_on_c,0,61,127,
2,26585, Note_off_c,0,64,127,
2,26589, Note_on_c,0,58,127,
2,26590, Note_off_c,0,58,127,
2,26597, Note_on_c,0,58,127,
2,26598, Note_off_c,0,58,127,
2,26600, Note_on_c,0,64,127,
2,26600, Note_on_c,0,58,127,
2,26600, Note_off_c,0,61,127,
2,26601, Note_on_c,0,61,127,
2,26601, Note_on_c,0,49,127,
2,26601, Note_off_c,0,64,127,
2,26601, Note_off_c,0,58,127,
2,26602, Note_on_c,0,58,127,
2,26602, Note_off_c,0,49,127,
2,26603, Note_on_c,0,34,127,
2,26603, Note_off_c,0,58,127,
2,26603, Note_off_c,0,40,127,
2,26604, Note_on_c,0,40,127,
2,26604, Note_off_c,0,34,127,
2,26605, Note_on_c,0,64,127,
2,26605, Note_on_c,0,25,127,
2,26605, Note_off_c,0,40,127,
2,26606, Note_on_c,0,40,127,
2,26606, Note_off_c,0,64,127,
2,26606, Note_off_c,0,25,127,
2,26611, Note_off_c,0,40,127,
2,26612, Note_on_c,0,40,127,
2,26620, Note_on_c,0,68,127,
2,26620, Note_off_c,0,61,127,
2,26620, Note_off_c,0,40,127,
2,26621, Note_on_c,0,64,127,
2,26621, Note_on_c,0,61,127,
2,26621, Note_off_c,0,68,127,
2,26622, Note_on_c,0,40,127,
2,26622, Note_off_c,0,64,127,
2,26629, Note_on_c,0,64,127,
2,26629, Note_off_c,0,61,127,
2,26630, Note_on_c,0,61,127,
2,26630, Note_off_c,0,64,127,
2,26643, Note_off_c,0,61,127,
2,26644, Note_on_c,0,61,127,
2,26644, Note_off_c,0,40,127,
2,26645, Note_on_c,0,40,127,
2,26645, Note_off_c,0,61,127,
2,26652, Note_on_c,0,37,127,
2,26652, Note_off_c,0,40,127,
2,26653, Note_on_c,0,40,127,
2,26653, Note_off_c,0,37,127,
2,26675, Note_on_c,0,61,127,
2,26676, Note_on_c,0,46,127,
2,26676, Note_off_c,0,61,127,
2,26677, Note_on_c,0,61,127,
2,26677, Note_off_c,0,46,127,
2,26681, Note_on_c,0,64,127,
2,26681, Note_off_c,0,61,127,
2,26682, Note_on_c,0,61,127,
2,26682, Note_off_c,0,64,127,
2,26702, Note_on_c,0,64,127,
2,26702, Note_off_c,0,61,127,
2,26703, Note_on_c,0,61,127,
2,26703, Note_off_c,0,64,127,
2,26710, Note_on_c,0,64,127,
2,26710, Note_off_c,0,61,127,
2,26711, Note_on_c,0,61,127,
2,26711, Note_off_c,0,64,127,
2,26729, Note_on_c,0,70,127,
2,26729, Note_off_c,0,61,127,
2,26730, Note_on_c,0,61,127,
2,26730, Note_on_c,0,63,127,
2,26730, Note_off_c,0,40,127,
2,26730, Note_off_c,0,70,127,
2,26731, Note_on_c,0,66,127,
2,26731, Note_on_c,0,40,127,
2,26731, Note_off_c,0,61,127,
2,26731, Note_off_c,0,63,127,
2,26732, Note_on_c,0,61,127,
2,26732, Note_off_c,0,66,127,
2,26734, Note_on_c,0,63,127,
2,26734, Note_off_c,0,61,127,
2,26735, Note_on_c,0,61,127,
2,26735, Note_off_c,0,63,127,
2,26746, Note_on_c,0,64,127,
2,26746, Note_off_c,0,61,127,
2,26747, Note_on_c,0,61,127,
2,26747, Note_off_c,0,64,127,
2,26749, Note_on_c,0,64,127,
2,26749, Note_off_c,0,61,127,
2,26750, Note_on_c,0,61,127,
2,26750, Note_off_c,0,64,127,
2,26754, Note_on_c,0,64,127,
2,26754, Note_off_c,0,61,127,
2,26755, Note_on_c,0,61,127,
2,26755, Note_off_c,0,64,127,
2,26761, Note_on_c,0,68,127,
2,26761, Note_off_c,0,61,127,
2,26762, Note_on_c,0,61,127,
2,26762, Note_off_c,0,68,127,
2,26763, Note_on_c,0,64,127,
2,26763, Note_off_c,0,61,127,
2,26764, Note_on_c,0,61,127,
2,26764, Note_off_c,0,64,127,
2,26766, Note_on_c,0,64,127,
2,26766, Note_off_c,0,61,127,
2,26767, Note_on_c,0,61,127,
2,26767, Note_off_c,0,64,127,
2,26773, Note_on_c,0,64,127,
2,26773, Note_off_c,0,61,127,
2,26774, Note_on_c,0,61,127,
2,26774, Note_off_c,0,64,127,
2,26793, Note_on_c,0,64,127,
2,26793, Note_off_c,0,61,127,
2,26794, Note_on_c,0,61,127,
2,26794, Note_off_c,0,64,127,
2,26810, Note_off_c,0,40,127,
2,26811, Note_on_c,0,40,127,
2,26812, Note_off_c,0,40,127,
2,26813, Note_on_c,0,64,127,
2,26813, Note_on_c,0,40,127,
2,26815, Note_off_c,0,64,127,
2,26819, Note_on_c,0,46,127,
2,26819, Note_off_c,0,40,127,
2,26820, Note_on_c,0,40,127,
2,26820, Note_off_c,0,46,127,
2,26823, Note_on_c,0,71,127,
2,26823, Note_on_c,0,43,127,
2,26823, Note_off_c,0,40,127,
2,26824, Note_on_c,0,40,127,
2,26824, Note_on_c,0,56,127,
2,26824, Note_off_c,0,71,127,
2,26824, Note_off_c,0,43,127,
2,26825, Note_on_c,0,66,127,
2,26825, Note_off_c,0,56,127,
2,26826, Note_on_c,0,64,127,
2,26826, Note_off_c,0,66,127,
2,26827, Note_on_c,0,70,127,
2,26827, Note_off_c,0,64,127,
2,26828, Note_on_c,0,64,127,
2,26828, Note_off_c,0,70,127,
2,26829, Note_off_c,0,64,127,
2,26831, Note_on_c,0,67,127,
2,26831, Note_off_c,0,40,127,
2,26832, Note_on_c,0,40,127,
2,26832, Note_off_c,0,67,127,
2,26834, Note_off_c,0,40,127,
2,26835, Note_on_c,0,40,127,
2,26855, Note_on_c,0,64,127,
2,26855, Note_off_c,0,40,127,
2,26856, Note_on_c,0,40,127,
2,26857, Note_off_c,0,64,127,
2,26862, Note_on_c,0,76,127,
2,26863, Note_off_c,0,76,127,
2,26870, Note_on_c,0,58,127,
2,26871, Note_off_c,0,58,127,
2,26873, Note_off_c,0,40,127,
2,26874, Note_on_c,0,40,127,
2,26875, Note_off_c,0,40,127,
2,26876, Note_on_c,0,40,127,
2,26881, Note_on_c,0,64,127,
2,26881, Note_off_c,0,61,127,
2,26882, Note_on_c,0,61,127,
2,26882, Note_off_c,0,64,127,
2,26883, Note_on_c,0,64,127,
2,26883, Note_off_c,0,61,127,
2,26884, Note_on_c,0,61,127,
2,26884, Note_off_c,0,64,127,
2,26895, Note_on_c,0,64,127,
2,26895, Note_off_c,0,40,127,
2,26896, Note_on_c,0,40,127,
2,26896, Note_off_c,0,64,127,
2,26902, Note_on_c,0,68,127,
2,26903, Note_on_c,0,49,127,
2,26903, Note_off_c,0,68,127,
2,26904, Note_on_c,0,64,127,
2,26904, Note_off_c,0,49,127,
2,26905, Note_off_c,0,64,127,
2,26917, Note_on_c,0,73,127,
2,26917, Note_off_c,0,61,127,
2,26918, Note_on_c,0,61,127,
2,26918, Note_off_c,0,73,127,
2,26920, Note_on_c,0,64,127,
2,26921, Note_off_c,0,64,127,
2,26922, Note_on_c,0,64,127,
2,26923, Note_off_c,0,64,127,
2,26925, Note_off_c,0,40,127,
2,26926, Note_on_c,0,39,127,
2,26927, Note_on_c,0,64,127,
2,26927, Note_on_c,0,40,127,
2,26927, Note_off_c,0,61,127,
2,26927, Note_off_c,0,39,127,
2,26928, Note_on_c,0,61,127,
2,26928, Note_off_c,0,64,127,
2,26933, Note_on_c,0,64,127,
2,26934, Note_off_c,0,64,127,
2,26936, Note_on_c,0,64,127,
2,26936, Note_on_c,0,58,127,
2,26936, Note_off_c,0,61,127,
2,26937, Note_on_c,0,61,127,
2,26937, Note_off_c,0,58,127,
2,26939, Note_off_c,0,64,127,
2,26946, Note_on_c,0,64,127,
2,26947, Note_off_c,0,64,127,
2,26951, Note_off_c,0,40,127,
2,26952, Note_on_c,0,64,127,
2,26952, Note_on_c,0,40,127,
2,26952, Note_off_c,0,61,127,
2,26953, Note_on_c,0,56,127,
2,26953, Note_off_c,0,64,127,
2,26954, Note_on_c,0,68,127,
2,26954, Note_off_c,0,56,127,
2,26955, Note_on_c,0,61,127,
2,26955, Note_off_c,0,68,127,
2,26956, Note_on_c,0,37,127,
2,26956, Note_off_c,0,40,127,
2,26957, Note_on_c,0,40,127,
2,26957, Note_off_c,0,37,127,
2,26964, Note_on_c,0,64,127,
2,26964, Note_off_c,0,61,127,
2,26965, Note_on_c,0,61,127,
2,26965, Note_off_c,0,64,127,
2,26968, Note_off_c,0,61,127,
2,26969, Note_on_c,0,61,127,
2,26972, Note_off_c,0,61,127,
2,26973, Note_on_c,0,61,127,
2,26973, Note_off_c,0,40,127,
2,26974, Note_on_c,0,40,127,
2,26975, Note_on_c,0,39,127,
2,26975, Note_off_c,0,40,127,
2,26976, Note_on_c,0,40,127,
2,26976, Note_off_c,0,39,127,
2,26980, Note_on_c,0,64,127,
2,26980, Note_off_c,0,61,127,
2,26982, Note_on_c,0,61,127,
2,26982, Note_off_c,0,64,127,
2,27002, Note_on_c,0,64,127,
2,27002, Note_off_c,0,61,127,
2,27003, Note_on_c,0,61,127,
2,27003, Note_off_c,0,64,127,
2,27016, Note_on_c,0,63,127,
2,27016, Note_on_c,0,39,127,
2,27016, Note_off_c,0,61,127,
2,27016, Note_off_c,0,40,127,
2,27017, Note_on_c,0,61,127,
2,27017, Note_on_c,0,40,127,
2,27017, Note_off_c,0,63,127,
2,27017, Note_off_c,0,39,127,
2,27020, Note_on_c,0,39,127,
2,27020, Note_off_c,0,40,127,
2,27021, Note_on_c,0,40,127,
2,27021, Note_off_c,0,39,127,
2,27026, Note_on_c,0,64,127,
2,27026, Note_off_c,0,61,127,
2,27027, Note_on_c,0,61,127,
2,27027, Note_off_c,0,64,127,
2,27031, Note_on_c,0,64,127,
2,27031, Note_off_c,0,61,127,
2,27032, Note_on_c,0,61,127,
2,27032, Note_off_c,0,64,127,
2,27039, Note_on_c,0,64,127,
2,27039, Note_off_c,0,61,127,
2,27040, Note_on_c,0,61,127,
2,27040, Note_off_c,0,64,127,
2,27043, Note_on_c,0,64,127,
2,27043, Note_off_c,0,61,127,
2,27044, Note_on_c,0,61,127,
2,27044, Note_off_c,0,64,127,
2,27047, Note_on_c,0,64,127,
2,27047, Note_off_c,0,61,127,
2,27048, Note_on_c,0,61,127,
2,27048, Note_off_c,0,64,127,
2,27066, Note_off_c,0,40,127,
2,27067, Note_on_c,0,40,127,
2,27068, Note_off_c,0,61,127,
2,27069, Note_on_c,0,61,127,
2,27069, Note_off_c,0,40,127,
2,27070, Note_on_c,0,40,127,
2,27070, Note_off_c,0,61,127,
2,27071, Note_on_c,0,61,127,
2,27071, Note_off_c,0,40,127,
2,27072, Note_on_c,0,40,127,
2,27072, Note_off_c,0,61,127,
2,27093, Note_on_c,0,61,127,
2,27093, Note_off_c,0,40,127,
2,27094, Note_on_c,0,40,127,
2,27094, Note_off_c,0,61,127,
2,27124, Note_on_c,0,37,127,
2,27124, Note_off_c,0,40,127,
2,27125, Note_on_c,0,40,127,
2,27125, Note_off_c,0,37,127,
2,27127, Note_on_c,0,37,127,
2,27127, Note_off_c,0,40,127,
2,27128, Note_on_c,0,61,127,
2,27128, Note_on_c,0,40,127,
2,27128, Note_off_c,0,37,127,
2,27138, Note_on_c,0,64,127,
2,27138, Note_off_c,0,61,127,
2,27139, Note_on_c,0,61,127,
2,27139, Note_off_c,0,64,127,
2,27140, Note_on_c,0,70,127,
2,27140, Note_off_c,0,61,127,
2,27141, Note_on_c,0,56,127,
2,27141, Note_off_c,0,70,127,
2,27142, Note_on_c,0,61,127,
2,27142, Note_off_c,0,56,127,
2,27151, Note_on_c,0,68,127,
2,27151, Note_off_c,0,61,127,
2,27152, Note_on_c,0,61,127,
2,27152, Note_off_c,0,68,127,
2,27153, Note_on_c,0,64,127,
2,27153, Note_off_c,0,61,127,
2,27154, Note_on_c,0,61,127,
2,27154, Note_off_c,0,64,127,
2,27160, Note_on_c,0,64,127,
2,27160, Note_off_c,0,61,127,
2,27161, Note_on_c,0,61,127,
2,27161, Note_off_c,0,64,127,
2,27166, Note_on_c,0,64,127,
2,27166, Note_off_c,0,61,127,
2,27168, Note_on_c,0,61,127,
2,27168, Note_off_c,0,64,127,
2,27171, Note_on_c,0,68,127,
2,27171, Note_off_c,0,61,127,
2,27172, Note_on_c,0,61,127,
2,27172, Note_off_c,0,68,127,
2,27173, Note_on_c,0,64,127,
2,27173, Note_off_c,0,61,127,
2,27174, Note_on_c,0,61,127,
2,27174, Note_off_c,0,64,127,
2,27182, Note_off_c,0,40,127,
2,27183, Note_on_c,0,73,127,
2,27183, Note_on_c,0,40,127,
2,27183, Note_off_c,0,61,127,
2,27184, Note_off_c,0,73,127,
2,27185, Note_on_c,0,64,127,
2,27185, Note_off_c,0,40,127,
2,27186, Note_on_c,0,68,127,
2,27186, Note_on_c,0,40,127,
2,27186, Note_off_c,0,64,127,
2,27187, Note_on_c,0,61,127,
2,27187, Note_off_c,0,68,127,
2,27196, Note_on_c,0,64,127,
2,27196, Note_off_c,0,61,127,
2,27197, Note_on_c,0,61,127,
2,27197, Note_off_c,0,64,127,
2,27200, Note_on_c,0,70,127,
2,27200, Note_off_c,0,61,127,
2,27201, Note_on_c,0,61,127,
2,27201, Note_off_c,0,70,127,
2,27206, Note_on_c,0,64,127,
2,27206, Note_off_c,0,61,127,
2,27207, Note_on_c,0,61,127,
2,27207, Note_off_c,0,64,127,
2,27208, Note_on_c,0,64,127,
2,27208, Note_off_c,0,61,127,
2,27209, Note_on_c,0,61,127,
2,27209, Note_off_c,0,64,127,
2,27212, Note_on_c,0,64,127,
2,27212, Note_off_c,0,61,127,
2,27213, Note_on_c,0,58,127,
2,27213, Note_off_c,0,64,127,
2,27214, Note_on_c,0,61,127,
2,27214, Note_off_c,0,58,127,
2,27246, Note_on_c,0,76,127,
2,27246, Note_off_c,0,61,127,
2,27247, Note_on_c,0,61,127,
2,27247, Note_off_c,0,76,127,
2,27250, Note_off_c,0,40,127,
2,27251, Note_on_c,0,40,127,
2,27258, Note_on_c,0,64,127,
2,27258, Note_off_c,0,61,127,
2,27259, Note_on_c,0,61,127,
2,27259, Note_off_c,0,64,127,
2,27279, Note_off_c,0,40,127,
2,27280, Note_on_c,0,40,127,
2,27285, Note_on_c,0,58,127,
2,27285, Note_off_c,0,61,127,
2,27286, Note_on_c,0,67,127,
2,27286, Note_off_c,0,58,127,
2,27287, Note_on_c,0,61,127,
2,27287, Note_off_c,0,67,127,
2,27288, Note_on_c,0,64,127,
2,27288, Note_off_c,0,61,127,
2,27289, Note_on_c,0,61,127,
2,27289, Note_off_c,0,64,127,
2,27290, Note_on_c,0,64,127,
2,27290, Note_off_c,0,61,127,
2,27291, Note_on_c,0,61,127,
2,27291, Note_off_c,0,64,127,
2,27296, Note_on_c,0,64,127,
2,27296, Note_off_c,0,61,127,
2,27297, Note_on_c,0,61,127,
2,27297, Note_off_c,0,64,127,
2,27308, Note_off_c,0,40,127,
2,27309, Note_on_c,0,40,127,
2,27310, Note_off_c,0,40,127,
2,27311, Note_on_c,0,40,127,
2,27321, Note_on_c,0,58,127,
2,27321, Note_off_c,0,61,127,
2,27322, Note_on_c,0,61,127,
2,27322, Note_off_c,0,58,127,
2,27324, Note_on_c,0,39,127,
2,27324, Note_off_c,0,40,127,
2,27325, Note_on_c,0,40,127,
2,27325, Note_off_c,0,39,127,
2,27327, Note_on_c,0,64,127,
2,27327, Note_off_c,0,61,127,
2,27328, Note_on_c,0,61,127,
2,27328, Note_off_c,0,64,127,
2,27333, Note_on_c,0,64,127,
2,27333, Note_off_c,0,61,127,
2,27334, Note_on_c,0,67,127,
2,27334, Note_off_c,0,64,127,
2,27335, Note_on_c,0,61,127,
2,27335, Note_off_c,0,67,127,
2,27336, Note_off_c,0,40,127,
2,27338, Note_on_c,0,40,127,
2,27338, Note_off_c,0,61,127,
2,27339, Note_on_c,0,61,127,
2,27339, Note_off_c,0,40,127,
2,27340, Note_on_c,0,40,127,
2,27340, Note_off_c,0,61,127,
2,27348, Note_on_c,0,39,127,
2,27348, Note_off_c,0,40,127,
2,27349, Note_on_c,0,40,127,
2,27349, Note_off_c,0,39,127,
2,27359, Note_on_c,0,63,127,
2,27359, Note_off_c,0,40,127,
2,27360, Note_on_c,0,40,127,
2,27360, Note_off_c,0,63,127,
2,27361, Note_on_c,0,61,127,
2,27361, Note_on_c,0,39,127,
2,27361, Note_off_c,0,40,127,
2,27362, Note_on_c,0,44,127,
2,27362, Note_on_c,0,64,127,
2,27362, Note_off_c,0,61,127,
2,27362, Note_off_c,0,39,127,
2,27363, Note_on_c,0,61,127,
2,27363, Note_on_c,0,40,127,
2,27363, Note_off_c,0,44,127,
2,27363, Note_off_c,0,64,127,
2,27371, Note_off_c,0,40,127,
2,27373, Note_on_c,0,40,127,
2,27373, Note_off_c,0,61,127,
2,27376, Note_on_c,0,76,127,
2,27376, Note_off_c,0,40,127,
2,27377, Note_on_c,0,64,127,
2,27377, Note_on_c,0,40,127,
2,27377, Note_off_c,0,76,127,
2,27378, Note_on_c,0,61,127,
2,27378, Note_off_c,0,64,127,
2,27382, Note_off_c,0,61,127,
2,27383, Note_on_c,0,61,127,
2,27395, Note_on_c,0,64,127,
2,27395, Note_off_c,0,61,127,
2,27396, Note_on_c,0,61,127,
2,27396, Note_on_c,0,35,127,
2,27396, Note_off_c,0,64,127,
2,27396, Note_off_c,0,40,127,
2,27397, Note_on_c,0,40,127,
2,27397, Note_off_c,0,35,127,
2,27398, Note_off_c,0,40,127,
2,27399, Note_on_c,0,40,127,
2,27400, Note_on_c,0,64,127,
2,27400, Note_off_c,0,61,127,
2,27401, Note_on_c,0,61,127,
2,27401, Note_off_c,0,64,127,
2,27401, Note_off_c,0,40,127,
2,27402, Note_on_c,0,40,127,
2,27407, Note_on_c,0,64,127,
2,27409, Note_off_c,0,64,127,
2,27410, Note_on_c,0,64,127,
2,27411, Note_off_c,0,64,127,
2,27413, Note_on_c,0,64,127,
2,27414, Note_off_c,0,64,127,
2,27415, Note_on_c,0,73,127,
2,27415, Note_off_c,0,61,127,
2,27416, Note_on_c,0,61,127,
2,27416, Note_off_c,0,73,127,
2,27416, Note_off_c,0,40,127,
2,27417, Note_on_c,0,40,127,
2,27436, Note_on_c,0,64,127,
2,27436, Note_off_c,0,61,127,
2,27437, Note_on_c,0,61,127,
2,27437, Note_off_c,0,64,127,
2,27440, Note_on_c,0,64,127,
2,27440, Note_off_c,0,61,127,
2,27441, Note_on_c,0,61,127,
2,27441, Note_off_c,0,64,127,
2,27444, Note_on_c,0,46,127,
2,27444, Note_off_c,0,40,127,
2,27445, Note_on_c,0,40,127,
2,27445, Note_off_c,0,46,127,
2,27455, Note_off_c,0,40,127,
2,27456, Note_on_c,0,40,127,
2,27461, Note_on_c,0,58,127,
2,27461, Note_off_c,0,61,127,
2,27462, Note_on_c,0,61,127,
2,27462, Note_off_c,0,58,127,
2,27468, Note_on_c,0,64,127,
2,27468, Note_off_c,0,61,127,
2,27469, Note_on_c,0,61,127,
2,27469, Note_off_c,0,64,127,
2,27478, Note_on_c,0,44,127,
2,27478, Note_off_c,0,40,127,
2,27479, Note_on_c,0,40,127,
2,27479, Note_off_c,0,44,127,
2,27481, Note_on_c,0,64,127,
2,27481, Note_off_c,0,61,127,
2,27482, Note_on_c,0,61,127,
2,27482, Note_off_c,0,64,127,
2,27487, Note_on_c,0,39,127,
2,27487, Note_off_c,0,40,127,
2,27488, Note_on_c,0,40,127,
2,27488, Note_off_c,0,39,127,
2,27511, Note_on_c,0,63,127,
2,27511, Note_off_c,0,61,127,
2,27512, Note_on_c,0,61,127,
2,27512, Note_off_c,0,63,127,
2,27515, Note_on_c,0,52,127,
2,27515, Note_off_c,0,61,127,
2,27516, Note_on_c,0,61,127,
2,27516, Note_off_c,0,52,127,
2,27522, Note_on_c,0,56,127,
2,27522, Note_off_c,0,61,127,
2,27523, Note_on_c,0,61,127,
2,27523, Note_off_c,0,56,127,
2,27525, Note_on_c,0,63,127,
2,27525, Note_off_c,0,61,127,
2,27526, Note_off_c,0,63,127,
2,27527, Note_on_c,0,61,127,
2,27536, Note_on_c,0,63,127,
2,27536, Note_off_c,0,61,127,
2,27537, Note_on_c,0,61,127,
2,27537, Note_off_c,0,63,127,
2,27539, Note_on_c,0,56,127,
2,27540, Note_on_c,0,64,127,
2,27540, Note_off_c,0,56,127,
2,27541, Note_off_c,0,64,127,
2,27549, Note_on_c,0,46,127,
2,27549, Note_off_c,0,40,127,
2,27550, Note_on_c,0,40,127,
2,27550, Note_off_c,0,46,127,
2,27560, Note_on_c,0,64,127,
2,27561, Note_off_c,0,64,127,
2,27563, Note_off_c,0,40,127,
2,27564, Note_on_c,0,64,127,
2,27565, Note_on_c,0,40,127,
2,27565, Note_off_c,0,64,127,
2,27566, Note_off_c,0,40,127,
2,27567, Note_on_c,0,39,127,
2,27568, Note_on_c,0,40,127,
2,27568, Note_off_c,0,39,127,
2,27573, Note_off_c,0,40,127,
2,27574, Note_on_c,0,40,127,
2,27580, Note_on_c,0,46,127,
2,27580, Note_off_c,0,40,127,
2,27581, Note_on_c,0,40,127,
2,27581, Note_off_c,0,46,127,
2,27583, Note_off_c,0,40,127,
2,27584, Note_on_c,0,64,127,
2,27584, Note_on_c,0,40,127,
2,27585, Note_off_c,0,64,127,
2,27586, Note_on_c,0,63,127,
2,27587, Note_off_c,0,63,127,
2,27594, Note_on_c,0,63,127,
2,27595, Note_on_c,0,64,127,
2,27595, Note_off_c,0,63,127,
2,27596, Note_off_c,0,64,127,
2,27597, Note_on_c,0,64,127,
2,27598, Note_off_c,0,64,127,
2,27600, Note_on_c,0,64,127,
2,27601, Note_off_c,0,64,127,
2,27612, Note_on_c,0,64,127,
2,27613, Note_off_c,0,64,127,
2,27615, Note_on_c,0,64,127,
2,27615, Note_off_c,0,61,127,
2,27615, Note_off_c,0,40,127,
2,27616, Note_on_c,0,61,127,
2,27616, Note_on_c,0,40,127,
2,27616, Note_off_c,0,64,127,
2,27619, Note_on_c,0,34,127,
2,27619, Note_off_c,0,40,127,
2,27620, Note_on_c,0,40,127,
2,27620, Note_off_c,0,34,127,
2,27621, Note_on_c,0,64,127,
2,27621, Note_off_c,0,61,127,
2,27622, Note_on_c,0,61,127,
2,27622, Note_off_c,0,64,127,
2,27624, Note_on_c,0,37,127,
2,27624, Note_off_c,0,40,127,
2,27625, Note_on_c,0,40,127,
2,27625, Note_off_c,0,37,127,
2,27631, Note_on_c,0,43,127,
2,27631, Note_off_c,0,40,127,
2,27632, Note_on_c,0,40,127,
2,27632, Note_off_c,0,43,127,
2,27634, Note_on_c,0,64,127,
2,27634, Note_off_c,0,61,127,
2,27635, Note_on_c,0,61,127,
2,27635, Note_off_c,0,64,127,
2,27636, Note_on_c,0,64,127,
2,27636, Note_off_c,0,61,127,
2,27637, Note_on_c,0,61,127,
2,27637, Note_off_c,0,64,127,
2,27638, Note_on_c,0,59,127,
2,27638, Note_off_c,0,61,127,
2,27639, Note_on_c,0,61,127,
2,27639, Note_off_c,0,59,127,
2,27641, Note_on_c,0,44,127,
2,27641, Note_off_c,0,40,127,
2,27642, Note_on_c,0,40,127,
2,27642, Note_off_c,0,44,127,
2,27657, Note_on_c,0,46,127,
2,27657, Note_off_c,0,40,127,
2,27658, Note_on_c,0,40,127,
2,27658, Note_off_c,0,46,127,
2,27661, Note_on_c,0,68,127,
2,27661, Note_off_c,0,61,127,
2,27662, Note_on_c,0,61,127,
2,27662, Note_off_c,0,68,127,
2,27676, Note_on_c,0,43,127,
2,27676, Note_off_c,0,40,127,
2,27677, Note_on_c,0,40,127,
2,27677, Note_off_c,0,43,127,
2,27689, Note_off_c,0,40,127,
2,27690, Note_on_c,0,40,127,
2,27692, Note_on_c,0,64,127,
2,27693, Note_off_c,0,64,127,
2,27694, Note_on_c,0,56,127,
2,27694, Note_off_c,0,40,127,
2,27695, Note_on_c,0,64,127,
2,27695, Note_on_c,0,40,127,
2,27695, Note_off_c,0,61,127,
2,27695, Note_off_c,0,56,127,
2,27696, Note_on_c,0,61,127,
2,27696, Note_off_c,0,64,127,
2,27701, Note_on_c,0,64,127,
2,27701, Note_off_c,0,61,127,
2,27702, Note_on_c,0,61,127,
2,27702, Note_on_c,0,39,127,
2,27702, Note_off_c,0,64,127,
2,27702, Note_off_c,0,40,127,
2,27703, Note_on_c,0,40,127,
2,27703, Note_off_c,0,39,127,
2,27738, Note_on_c,0,56,127,
2,27738, Note_off_c,0,61,127,
2,27739, Note_on_c,0,61,127,
2,27739, Note_off_c,0,56,127,
2,27740, Note_on_c,0,64,127,
2,27740, Note_off_c,0,61,127,
2,27741, Note_on_c,0,61,127,
2,27741, Note_off_c,0,64,127,
2,27745, Note_on_c,0,37,127,
2,27745, Note_off_c,0,40,127,
2,27746, Note_on_c,0,58,127,
2,27746, Note_on_c,0,40,127,
2,27746, Note_off_c,0,61,127,
2,27746, Note_off_c,0,37,127,
2,27747, Note_on_c,0,61,127,
2,27747, Note_off_c,0,58,127,
2,27750, Note_on_c,0,44,127,
2,27750, Note_off_c,0,40,127,
2,27751, Note_on_c,0,40,127,
2,27751, Note_off_c,0,44,127,
2,27758, Note_on_c,0,39,127,
2,27758, Note_off_c,0,40,127,
2,27759, Note_on_c,0,40,127,
2,27759, Note_off_c,0,39,127,
2,27765, Note_on_c,0,52,127,
2,27765, Note_off_c,0,40,127,
2,27766, Note_on_c,0,40,127,
2,27766, Note_off_c,0,52,127,
2,27767, Note_on_c,0,64,127,
2,27767, Note_off_c,0,61,127,
2,27768, Note_on_c,0,61,127,
2,27768, Note_off_c,0,64,127,
2,27771, Note_off_c,0,61,127,
2,27772, Note_on_c,0,61,127,
2,27772, Note_off_c,0,40,127,
2,27773, Note_on_c,0,40,127,
2,27773, Note_off_c,0,61,127,
2,27785, Note_on_c,0,71,127,
2,27786, Note_on_c,0,49,127,
2,27786, Note_off_c,0,71,127,
2,27787, Note_on_c,0,56,127,
2,27787, Note_off_c,0,49,127,
2,27788, Note_on_c,0,49,127,
2,27788, Note_off_c,0,56,127,
2,27789, Note_on_c,0,39,127,
2,27789, Note_off_c,0,49,127,
2,27790, Note_on_c,0,69,127,
2,27790, Note_off_c,0,39,127,
2,27791, Note_on_c,0,61,127,
2,27791, Note_on_c,0,49,127,
2,27791, Note_off_c,0,69,127,
2,27792, Note_on_c,0,67,127,
2,27792, Note_on_c,0,56,127,
2,27792, Note_off_c,0,61,127,
2,27792, Note_off_c,0,49,127,
2,27793, Note_on_c,0,61,127,
2,27793, Note_off_c,0,67,127,
2,27793, Note_off_c,0,56,127,
2,27794, Note_off_c,0,61,127,
2,27795, Note_on_c,0,61,127,
2,27796, Note_on_c,0,56,127,
2,27796, Note_off_c,0,61,127,
2,27797, Note_on_c,0,61,127,
2,27797, Note_off_c,0,56,127,
2,27807, Note_on_c,0,58,127,
2,27808, Note_off_c,0,58,127,
2,27810, Note_on_c,0,64,127,
2,27812, Note_off_c,0,64,127,
2,27813, Note_on_c,0,64,127,
2,27814, Note_off_c,0,64,127,
2,27818, Note_on_c,0,64,127,
2,27819, Note_off_c,0,64,127,
2,27820, Note_on_c,0,64,127,
2,27821, Note_off_c,0,64,127,
2,27826, Note_on_c,0,64,127,
2,27827, Note_on_c,0,58,127,
2,27827, Note_off_c,0,64,127,
2,27828, Note_off_c,0,58,127,
2,27835, Note_off_c,0,61,127,
2,27836, Note_on_c,0,61,127,
2,27836, Note_off_c,0,40,127,
2,27837, Note_on_c,0,40,127,
2,27840, Note_on_c,0,34,127,
2,27840, Note_off_c,0,40,127,
2,27841, Note_on_c,0,40,127,
2,27841, Note_off_c,0,34,127,
2,27842, Note_on_c,0,43,127,
2,27842, Note_off_c,0,40,127,
2,27843, Note_on_c,0,40,127,
2,27843, Note_off_c,0,43,127,
2,27855, Note_on_c,0,64,127,
2,27855, Note_off_c,0,61,127,
2,27856, Note_on_c,0,61,127,
2,27856, Note_off_c,0,64,127,
2,27878, Note_on_c,0,64,127,
2,27878, Note_off_c,0,61,127,
2,27879, Note_on_c,0,61,127,
2,27879, Note_off_c,0,64,127,
2,27884, Note_on_c,0,64,127,
2,27884, Note_off_c,0,61,127,
2,27885, Note_on_c,0,61,127,
2,27885, Note_off_c,0,64,127,
2,27898, Note_on_c,0,63,127,
2,27898, Note_off_c,0,40,127,
2,27899, Note_on_c,0,64,127,
2,27899, Note_off_c,0,63,127,
2,27901, Note_on_c,0,40,127,
2,27901, Note_off_c,0,64,127,
2,27902, Note_on_c,0,64,127,
2,27902, Note_off_c,0,61,127,
2,27903, Note_on_c,0,61,127,
2,27903, Note_off_c,0,64,127,
2,27911, Note_on_c,0,64,127,
2,27911, Note_off_c,0,61,127,
2,27912, Note_on_c,0,61,127,
2,27912, Note_off_c,0,64,127,
2,27914, Note_on_c,0,56,127,
2,27914, Note_off_c,0,61,127,
2,27915, Note_on_c,0,61,127,
2,27915, Note_on_c,0,34,127,
2,27915, Note_off_c,0,40,127,
2,27915, Note_off_c,0,56,127,
2,27916, Note_on_c,0,40,127,
2,27916, Note_off_c,0,34,127,
2,27928, Note_off_c,0,40,127,
2,27929, Note_on_c,0,30,127,
2,27930, Note_on_c,0,40,127,
2,27930, Note_off_c,0,30,127,
2,27931, Note_on_c,0,64,127,
2,27932, Note_off_c,0,64,127,
2,27933, Note_on_c,0,64,127,
2,27934, Note_off_c,0,64,127,
2,27935, Note_off_c,0,40,127,
2,27936, Note_on_c,0,64,127,
2,27936, Note_on_c,0,40,127,
2,27936, Note_off_c,0,61,127,
2,27937, Note_on_c,0,61,127,
2,27937, Note_off_c,0,64,127,
2,27938, Note_off_c,0,40,127,
2,27939, Note_on_c,0,40,127,
2,27943, Note_on_c,0,64,127,
2,27943, Note_off_c,0,61,127,
2,27944, Note_on_c,0,61,127,
2,27944, Note_off_c,0,64,127,
2,27945, Note_on_c,0,64,127,
2,27945, Note_off_c,0,61,127,
2,27946, Note_on_c,0,61,127,
2,27946, Note_off_c,0,40,127,
2,27947, Note_on_c,0,40,127,
2,27947, Note_off_c,0,64,127,
2,27948, Note_off_c,0,40,127,
2,27949, Note_on_c,0,40,127,
2,27950, Note_on_c,0,64,127,
2,27952, Note_on_c,0,39,127,
2,27952, Note_off_c,0,64,127,
2,27952, Note_off_c,0,40,127,
2,27953, Note_on_c,0,40,127,
2,27953, Note_off_c,0,39,127,
2,27954, Note_on_c,0,64,127,
2,27956, Note_off_c,0,64,127,
2,27958, Note_on_c,0,69,127,
2,27959, Note_off_c,0,69,127,
2,27962, Note_on_c,0,58,127,
2,27962, Note_off_c,0,40,127,
2,27963, Note_on_c,0,40,127,
2,27963, Note_off_c,0,58,127,
2,27965, Note_on_c,0,64,127,
2,27966, Note_on_c,0,58,127,
2,27966, Note_off_c,0,64,127,
2,27967, Note_on_c,0,70,127,
2,27967, Note_off_c,0,61,127,
2,27968, Note_on_c,0,61,127,
2,27968, Note_off_c,0,58,127,
2,27968, Note_off_c,0,70,127,
2,27970, Note_off_c,0,40,127,
2,27971, Note_on_c,0,58,127,
2,27971, Note_on_c,0,40,127,
2,27972, Note_off_c,0,58,127,
2,27984, Note_on_c,0,64,127,
2,27984, Note_off_c,0,61,127,
2,27985, Note_on_c,0,61,127,
2,27985, Note_off_c,0,64,127,
2,27991, Note_on_c,0,58,127,
2,27991, Note_off_c,0,61,127,
2,27992, Note_on_c,0,61,127,
2,27992, Note_off_c,0,58,127,
2,28004, Note_on_c,0,39,127,
2,28004, Note_off_c,0,40,127,
2,28005, Note_on_c,0,40,127,
2,28005, Note_off_c,0,39,127,
2,28012, Note_on_c,0,58,127,
2,28012, Note_off_c,0,61,127,
2,28013, Note_on_c,0,61,127,
2,28013, Note_off_c,0,58,127,
2,28014, Note_on_c,0,46,127,
2,28014, Note_off_c,0,40,127,
2,28015, Note_on_c,0,40,127,
2,28015, Note_off_c,0,46,127,
2,28016, Note_on_c,0,63,127,
2,28016, Note_off_c,0,61,127,
2,28017, Note_on_c,0,61,127,
2,28017, Note_off_c,0,63,127,
2,28022, Note_on_c,0,64,127,
2,28022, Note_on_c,0,37,127,
2,28022, Note_off_c,0,61,127,
2,28022, Note_off_c,0,40,127,
2,28023, Note_on_c,0,61,127,
2,28023, Note_on_c,0,40,127,
2,28023, Note_off_c,0,64,127,
2,28023, Note_off_c,0,37,127,
2,28026, Note_on_c,0,64,127,
2,28026, Note_off_c,0,61,127,
2,28027, Note_on_c,0,61,127,
2,28027, Note_off_c,0,64,127,
2,28028, Note_on_c,0,37,127,
2,28028, Note_off_c,0,40,127,
2,28029, Note_on_c,0,40,127,
2,28029, Note_off_c,0,37,127,
2,28064, Note_on_c,0,64,127,
2,28064, Note_off_c,0,61,127,
2,28065, Note_on_c,0,61,127,
2,28065, Note_off_c,0,64,127,
2,28075, Note_on_c,0,46,127,
2,28075, Note_off_c,0,61,127,
2,28076, Note_on_c,0,61,127,
2,28076, Note_off_c,0,46,127,
2,28077, Note_on_c,0,46,127,
2,28077, Note_off_c,0,61,127,
2,28078, Note_on_c,0,61,127,
2,28078, Note_off_c,0,46,127,
2,28079, Note_on_c,0,46,127,
2,28080, Note_on_c,0,58,127,
2,28080, Note_off_c,0,46,127,
2,28081, Note_off_c,0,58,127,
2,28084, Note_on_c,0,64,127,
2,28085, Note_off_c,0,64,127,
2,28086, Note_on_c,0,64,127,
2,28087, Note_on_c,0,58,127,
2,28087, Note_off_c,0,64,127,
2,28088, Note_off_c,0,58,127,
2,28091, Note_on_c,0,64,127,
2,28092, Note_off_c,0,64,127,
2,28093, Note_on_c,0,64,127,
2,28094, Note_off_c,0,64,127,
2,28100, Note_on_c,0,64,127,
2,28103, Note_off_c,0,64,127,
2,28105, Note_on_c,0,64,127,
2,28105, Note_off_c,0,61,127,
2,28106, Note_on_c,0,61,127,
2,28106, Note_off_c,0,64,127,
2,28116, Note_on_c,0,70,127,
2,28117, Note_off_c,0,70,127,
2,28120, Note_on_c,0,68,127,
2,28120, Note_off_c,0,61,127,
2,28121, Note_on_c,0,61,127,
2,28121, Note_off_c,0,68,127,
2,28128, Note_on_c,0,64,127,
2,28128, Note_off_c,0,61,127,
2,28129, Note_on_c,0,61,127,
2,28129, Note_off_c,0,64,127,
2,28138, Note_on_c,0,59,127,
2,28138, Note_off_c,0,61,127,
2,28139, Note_on_c,0,61,127,
2,28139, Note_off_c,0,59,127,
2,28141, Note_on_c,0,68,127,
2,28141, Note_off_c,0,61,127,
2,28142, Note_on_c,0,61,127,
2,28142, Note_off_c,0,68,127,
2,28144, Note_on_c,0,37,127,
2,28144, Note_off_c,0,40,127,
2,28145, Note_on_c,0,40,127,
2,28145, Note_off_c,0,37,127,
2,28147, Note_on_c,0,64,127,
2,28147, Note_off_c,0,61,127,
2,28148, Note_on_c,0,61,127,
2,28148, Note_off_c,0,64,127,
2,28158, Note_on_c,0,39,127,
2,28158, Note_off_c,0,40,127,
2,28159, Note_on_c,0,40,127,
2,28159, Note_off_c,0,39,127,
2,28166, Note_off_c,0,61,127,
2,28166, Note_off_c,0,40,127,
2,28167, Note_on_c,0,61,127,
2,28167, Note_on_c,0,64,127,
2,28168, Note_on_c,0,40,127,
2,28168, Note_off_c,0,64,127,
2,28172, Note_on_c,0,64,127,
2,28172, Note_off_c,0,61,127,
2,28173, Note_on_c,0,61,127,
2,28173, Note_off_c,0,64,127,
2,28175, Note_on_c,0,64,127,
2,28175, Note_off_c,0,61,127,
2,28176, Note_on_c,0,61,127,
2,28176, Note_off_c,0,64,127,
2,28178, Note_on_c,0,58,127,
2,28178, Note_off_c,0,61,127,
2,28179, Note_on_c,0,61,127,
2,28179, Note_off_c,0,58,127,
2,28182, Note_on_c,0,39,127,
2,28182, Note_off_c,0,40,127,
2,28183, Note_on_c,0,40,127,
2,28183, Note_off_c,0,39,127,
2,28186, Note_on_c,0,64,127,
2,28186, Note_off_c,0,61,127,
2,28187, Note_on_c,0,61,127,
2,28187, Note_off_c,0,64,127,
2,28190, Note_on_c,0,64,127,
2,28190, Note_off_c,0,61,127,
2,28191, Note_off_c,0,64,127,
2,28193, Note_on_c,0,61,127,
2,28199, Note_on_c,0,64,127,
2,28199, Note_off_c,0,61,127,
2,28200, Note_on_c,0,61,127,
2,28200, Note_off_c,0,64,127,
2,28208, Note_on_c,0,49,127,
2,28208, Note_off_c,0,61,127,
2,28209, Note_on_c,0,61,127,
2,28209, Note_off_c,0,49,127,
2,28220, Note_on_c,0,64,127,
2,28220, Note_off_c,0,61,127,
2,28221, Note_on_c,0,61,127,
2,28221, Note_off_c,0,64,127,
2,28222, Note_on_c,0,68,127,
2,28222, Note_off_c,0,61,127,
2,28223, Note_on_c,0,61,127,
2,28223, Note_off_c,0,68,127,
2,28224, Note_on_c,0,64,127,
2,28224, Note_off_c,0,61,127,
2,28225, Note_on_c,0,61,127,
2,28225, Note_off_c,0,64,127,
2,28231, Note_on_c,0,37,127,
2,28231, Note_off_c,0,40,127,
2,28232, Note_on_c,0,40,127,
2,28232, Note_off_c,0,37,127,
2,28244, Note_on_c,0,46,127,
2,28244, Note_off_c,0,40,127,
2,28245, Note_on_c,0,40,127,
2,28245, Note_off_c,0,46,127,
2,28247, Note_on_c,0,64,127,
2,28247, Note_off_c,0,61,127,
2,28248, Note_on_c,0,61,127,
2,28248, Note_off_c,0,64,127,
2,28254, Note_on_c,0,70,127,
2,28255, Note_on_c,0,64,127,
2,28255, Note_on_c,0,35,127,
2,28255, Note_off_c,0,40,127,
2,28255, Note_off_c,0,70,127,
2,28256, Note_on_c,0,40,127,
2,28256, Note_off_c,0,64,127,
2,28256, Note_off_c,0,35,127,
2,28258, Note_on_c,0,63,127,
2,28258, Note_off_c,0,61,127,
2,28258, Note_off_c,0,40,127,
2,28259, Note_on_c,0,56,127,
2,28259, Note_off_c,0,63,127,
2,28260, Note_on_c,0,61,127,
2,28260, Note_on_c,0,40,127,
2,28260, Note_off_c,0,56,127,
2,28261, Note_on_c,0,64,127,
2,28261, Note_off_c,0,61,127,
2,28262, Note_on_c,0,61,127,
2,28262, Note_off_c,0,64,127,
2,28265, Note_on_c,0,64,127,
2,28265, Note_off_c,0,61,127,
2,28266, Note_on_c,0,61,127,
2,28266, Note_off_c,0,64,127,
2,28278, Note_on_c,0,64,127,
2,28278, Note_off_c,0,61,127,
2,28279, Note_on_c,0,61,127,
2,28279, Note_off_c,0,64,127,
2,28285, Note_on_c,0,64,127,
2,28285, Note_off_c,0,61,127,
2,28286, Note_on_c,0,61,127,
2,28286, Note_off_c,0,64,127,
2,28290, Note_off_c,0,40,127,
2,28291, Note_on_c,0,40,127,
2,28292, Note_off_c,0,40,127,
2,28293, Note_on_c,0,40,127,
2,28294, Note_on_c,0,44,127,
2,28294, Note_off_c,0,40,127,
2,28295, Note_on_c,0,40,127,
2,28295, Note_off_c,0,44,127,
2,28298, Note_on_c,0,58,127,
2,28298, Note_off_c,0,61,127,
2,28299, Note_on_c,0,61,127,
2,28299, Note_off_c,0,58,127,
2,28310, Note_on_c,0,64,127,
2,28310, Note_off_c,0,61,127,
2,28311, Note_on_c,0,61,127,
2,28311, Note_off_c,0,64,127,
2,28322, Note_on_c,0,64,127,
2,28322, Note_off_c,0,61,127,
2,28323, Note_on_c,0,61,127,
2,28323, Note_off_c,0,64,127,
2,28337, Note_off_c,0,40,127,
2,28338, Note_on_c,0,40,127,
2,28339, Note_off_c,0,40,127,
2,28340, Note_on_c,0,40,127,
2,28346, Note_on_c,0,63,127,
2,28346, Note_off_c,0,61,127,
2,28347, Note_on_c,0,61,127,
2,28347, Note_off_c,0,63,127,
2,28356, Note_on_c,0,64,127,
2,28356, Note_off_c,0,61,127,
2,28357, Note_on_c,0,61,127,
2,28357, Note_off_c,0,64,127,
2,28358, Note_on_c,0,64,127,
2,28358, Note_off_c,0,61,127,
2,28359, Note_on_c,0,61,127,
2,28359, Note_off_c,0,64,127,
2,28371, Note_on_c,0,56,127,
2,28371, Note_off_c,0,61,127,
2,28372, Note_on_c,0,61,127,
2,28372, Note_off_c,0,56,127,
2,28374, Note_on_c,0,64,127,
2,28374, Note_off_c,0,61,127,
2,28375, Note_on_c,0,61,127,
2,28375, Note_off_c,0,64,127,
2,28376, Note_on_c,0,64,127,
2,28376, Note_off_c,0,61,127,
2,28377, Note_on_c,0,61,127,
2,28377, Note_off_c,0,64,127,
2,28400, Note_on_c,0,64,127,
2,28400, Note_off_c,0,61,127,
2,28401, Note_on_c,0,61,127,
2,28401, Note_off_c,0,64,127,
2,28416, Note_on_c,0,39,127,
2,28416, Note_off_c,0,40,127,
2,28417, Note_on_c,0,36,127,
2,28417, Note_off_c,0,39,127,
2,28418, Note_on_c,0,40,127,
2,28418, Note_off_c,0,36,127,
2,28429, Note_off_c,0,40,127,
2,28430, Note_on_c,0,40,127,
2,28431, Note_on_c,0,68,127,
2,28431, Note_off_c,0,61,127,
2,28432, Note_on_c,0,61,127,
2,28432, Note_off_c,0,68,127,
2,28439, Note_on_c,0,64,127,
2,28439, Note_off_c,0,61,127,
2,28441, Note_on_c,0,61,127,
2,28441, Note_off_c,0,64,127,
2,28448, Note_on_c,0,58,127,
2,28448, Note_off_c,0,61,127,
2,28449, Note_on_c,0,61,127,
2,28449, Note_off_c,0,58,127,
2,28465, Note_on_c,0,64,127,
2,28465, Note_off_c,0,61,127,
2,28466, Note_on_c,0,61,127,
2,28466, Note_off_c,0,64,127,
2,28468, Note_on_c,0,35,127,
2,28468, Note_off_c,0,40,127,
2,28469, Note_on_c,0,40,127,
2,28469, Note_off_c,0,35,127,
2,28472, Note_off_c,0,40,127,
2,28473, Note_on_c,0,40,127,
2,28487, Note_on_c,0,46,127,
2,28487, Note_off_c,0,40,127,
2,28488, Note_on_c,0,40,127,
2,28488, Note_off_c,0,46,127,
2,28491, Note_on_c,0,59,127,
2,28491, Note_off_c,0,61,127,
2,28492, Note_on_c,0,61,127,
2,28492, Note_off_c,0,59,127,
2,28493, Note_on_c,0,58,127,
2,28493, Note_off_c,0,61,127,
2,28494, Note_on_c,0,61,127,
2,28494, Note_off_c,0,58,127,
2,28511, Note_on_c,0,58,127,
2,28511, Note_off_c,0,61,127,
2,28512, Note_on_c,0,61,127,
2,28512, Note_off_c,0,58,127,
2,28516, Note_on_c,0,52,127,
2,28516, Note_off_c,0,40,127,
2,28517, Note_on_c,0,40,127,
2,28517, Note_off_c,0,52,127,
2,28543, Note_on_c,0,39,127,
2,28543, Note_off_c,0,40,127,
2,28544, Note_on_c,0,40,127,
2,28544, Note_off_c,0,39,127,
2,28574, Note_on_c,0,64,127,
2,28574, Note_off_c,0,61,127,
2,28575, Note_on_c,0,61,127,
2,28575, Note_off_c,0,64,127,
2,28588, Note_off_c,0,40,127,
2,28589, Note_on_c,0,40,127,
2,28611, Note_on_c,0,64,127,
2,28611, Note_on_c,0,39,127,
2,28611, Note_off_c,0,61,127,
2,28611, Note_off_c,0,40,127,
2,28612, Note_on_c,0,61,127,
2,28612, Note_on_c,0,40,127,
2,28612, Note_off_c,0,64,127,
2,28612, Note_off_c,0,39,127,
2,28616, Note_on_c,0,64,127,
2,28616, Note_off_c,0,61,127,
2,28617, Note_on_c,0,61,127,
2,28617, Note_off_c,0,64,127,
2,28618, Note_on_c,0,64,127,
2,28618, Note_off_c,0,61,127,
2,28619, Note_on_c,0,61,127,
2,28619, Note_off_c,0,64,127,
2,28622, Note_on_c,0,68,127,
2,28622, Note_on_c,0,56,127,
2,28622, Note_off_c,0,61,127,
2,28622, Note_off_c,0,40,127,
2,28623, Note_on_c,0,64,127,
2,28623, Note_on_c,0,40,127,
2,28623, Note_off_c,0,68,127,
2,28623, Note_off_c,0,56,127,
2,28624, Note_on_c,0,61,127,
2,28625, Note_off_c,0,64,127,
2,28634, Note_on_c,0,44,127,
2,28634, Note_off_c,0,40,127,
2,28635, Note_on_c,0,40,127,
2,28635, Note_off_c,0,44,127,
2,28637, Note_on_c,0,64,127,
2,28638, Note_off_c,0,64,127,
2,28640, Note_on_c,0,58,127,
2,28641, Note_off_c,0,58,127,
2,28643, Note_on_c,0,64,127,
2,28643, Note_on_c,0,70,127,
2,28643, Note_off_c,0,61,127,
2,28644, Note_on_c,0,61,127,
2,28644, Note_off_c,0,70,127,
2,28646, Note_off_c,0,64,127,
2,28648, Note_on_c,0,64,127,
2,28648, Note_off_c,0,61,127,
2,28649, Note_on_c,0,61,127,
2,28649, Note_on_c,0,46,127,
2,28649, Note_off_c,0,64,127,
2,28649, Note_off_c,0,40,127,
2,28650, Note_on_c,0,40,127,
2,28650, Note_off_c,0,46,127,
2,28651, Note_on_c,0,39,127,
2,28651, Note_off_c,0,40,127,
2,28652, Note_on_c,0,63,127,
2,28652, Note_on_c,0,40,127,
2,28652, Note_off_c,0,61,127,
2,28652, Note_off_c,0,39,127,
2,28653, Note_on_c,0,61,127,
2,28653, Note_off_c,0,63,127,
2,28658, Note_on_c,0,52,127,
2,28658, Note_off_c,0,61,127,
2,28659, Note_on_c,0,61,127,
2,28659, Note_off_c,0,52,127,
2,28659, Note_off_c,0,40,127,
2,28660, Note_on_c,0,40,127,
2,28661, Note_on_c,0,66,127,
2,28661, Note_off_c,0,61,127,
2,28662, Note_on_c,0,61,127,
2,28662, Note_off_c,0,66,127,
2,28664, Note_on_c,0,64,127,
2,28664, Note_off_c,0,61,127,
2,28664, Note_off_c,0,40,127,
2,28665, Note_on_c,0,61,127,
2,28665, Note_off_c,0,64,127,
2,28666, Note_on_c,0,40,127,
2,28668, Note_off_c,0,61,127,
2,28669, Note_on_c,0,61,127,
2,28669, Note_off_c,0,40,127,
2,28670, Note_on_c,0,40,127,
2,28670, Note_off_c,0,61,127,
2,28678, Note_on_c,0,49,127,
2,28678, Note_off_c,0,40,127,
2,28679, Note_on_c,0,40,127,
2,28679, Note_off_c,0,49,127,
2,28680, Note_off_c,0,40,127,
2,28681, Note_on_c,0,61,127,
2,28682, Note_on_c,0,40,127,
2,28682, Note_off_c,0,61,127,
2,28685, Note_on_c,0,61,127,
2,28685, Note_off_c,0,40,127,
2,28686, Note_on_c,0,40,127,
2,28686, Note_off_c,0,61,127,
2,28729, Note_on_c,0,64,127,
2,28730, Note_on_c,0,56,127,
2,28730, Note_off_c,0,64,127,
2,28731, Note_off_c,0,56,127,
2,28732, Note_on_c,0,61,127,
2,28732, Note_off_c,0,40,127,
2,28733, Note_on_c,0,40,127,
2,28734, Note_on_c,0,49,127,
2,28734, Note_off_c,0,61,127,
2,28735, Note_on_c,0,61,127,
2,28735, Note_off_c,0,49,127,
2,28738, Note_on_c,0,64,127,
2,28738, Note_off_c,0,61,127,
2,28739, Note_on_c,0,61,127,
2,28739, Note_off_c,0,64,127,
2,28743, Note_on_c,0,64,127,
2,28743, Note_off_c,0,61,127,
2,28745, Note_on_c,0,61,127,
2,28745, Note_off_c,0,64,127,
2,28752, Note_on_c,0,64,127,
2,28752, Note_off_c,0,61,127,
2,28753, Note_on_c,0,61,127,
2,28753, Note_off_c,0,64,127,
2,28770, Note_on_c,0,64,127,
2,28770, Note_off_c,0,61,127,
2,28771, Note_on_c,0,61,127,
2,28771, Note_off_c,0,64,127,
2,28777, Note_on_c,0,56,127,
2,28777, Note_off_c,0,40,127,
2,28778, Note_on_c,0,37,127,
2,28778, Note_off_c,0,56,127,
2,28779, Note_on_c,0,64,127,
2,28779, Note_on_c,0,40,127,
2,28779, Note_off_c,0,37,127,
2,28780, Note_off_c,0,64,127,
2,28790, Note_on_c,0,64,127,
2,28791, Note_off_c,0,64,127,
2,28794, Note_on_c,0,64,127,
2,28794, Note_off_c,0,61,127,
2,28795, Note_on_c,0,61,127,
2,28795, Note_off_c,0,64,127,
2,28797, Note_on_c,0,56,127,
2,28797, Note_off_c,0,40,127,
2,28798, Note_on_c,0,40,127,
2,28798, Note_off_c,0,56,127,
2,28801, Note_on_c,0,64,127,
2,28804, Note_off_c,0,64,127,
2,28807, Note_on_c,0,64,127,
2,28807, Note_off_c,0,61,127,
2,28808, Note_on_c,0,61,127,
2,28808, Note_off_c,0,64,127,
2,28810, Note_on_c,0,52,127,
2,28810, Note_off_c,0,40,127,
2,28811, Note_on_c,0,40,127,
2,28811, Note_off_c,0,52,127,
2,28850, Note_on_c,0,64,127,
2,28850, Note_off_c,0,61,127,
2,28851, Note_on_c,0,61,127,
2,28851, Note_on_c,0,66,127,
2,28851, Note_off_c,0,64,127,
2,28851, Note_off_c,0,40,127,
2,28852, Note_on_c,0,40,127,
2,28852, Note_off_c,0,66,127,
2,28857, Note_on_c,0,64,127,
2,28858, Note_off_c,0,64,127,
2,28860, Note_on_c,0,64,127,
2,28861, Note_off_c,0,64,127,
2,28862, Note_on_c,0,70,127,
2,28863, Note_off_c,0,70,127,
2,28865, Note_on_c,0,58,127,
2,28867, Note_off_c,0,58,127,
2,28870, Note_on_c,0,64,127,
2,28872, Note_off_c,0,64,127,
2,28876, Note_on_c,0,64,127,
2,28877, Note_on_c,0,35,127,
2,28877, Note_off_c,0,64,127,
2,28877, Note_off_c,0,40,127,
2,28878, Note_on_c,0,40,127,
2,28878, Note_off_c,0,35,127,
2,28879, Note_on_c,0,58,127,
2,28880, Note_off_c,0,58,127,
2,28885, Note_on_c,0,64,127,
2,28887, Note_off_c,0,64,127,
2,28888, Note_on_c,0,64,127,
2,28888, Note_on_c,0,49,127,
2,28888, Note_off_c,0,61,127,
2,28889, Note_on_c,0,61,127,
2,28889, Note_off_c,0,49,127,
2,28889, Note_off_c,0,40,127,
2,28890, Note_on_c,0,58,127,
2,28890, Note_on_c,0,40,127,
2,28890, Note_off_c,0,64,127,
2,28891, Note_off_c,0,58,127,
2,28892, Note_on_c,0,64,127,
2,28893, Note_on_c,0,67,127,
2,28893, Note_off_c,0,64,127,
2,28894, Note_off_c,0,67,127,
2,28895, Note_on_c,0,64,127,
2,28896, Note_off_c,0,64,127,
2,28897, Note_on_c,0,64,127,
2,28899, Note_off_c,0,64,127,
2,28900, Note_on_c,0,64,127,
2,28900, Note_off_c,0,40,127,
2,28901, Note_on_c,0,40,127,
2,28902, Note_off_c,0,64,127,
2,28906, Note_on_c,0,64,127,
2,28907, Note_off_c,0,64,127,
2,28909, Note_on_c,0,36,127,
2,28910, Note_on_c,0,64,127,
2,28910, Note_off_c,0,36,127,
2,28911, Note_off_c,0,64,127,
2,28912, Note_on_c,0,58,127,
2,28913, Note_off_c,0,58,127,
2,28921, Note_on_c,0,64,127,
2,28921, Note_on_c,0,70,127,
2,28921, Note_off_c,0,61,127,
2,28922, Note_on_c,0,61,127,
2,28922, Note_off_c,0,64,127,
2,28922, Note_off_c,0,70,127,
2,28924, Note_on_c,0,58,127,
2,28925, Note_off_c,0,58,127,
2,28926, Note_on_c,0,39,127,
2,28926, Note_off_c,0,40,127,
2,28927, Note_on_c,0,40,127,
2,28927, Note_off_c,0,39,127,
2,28929, Note_off_c,0,61,127,
2,28929, Note_off_c,0,40,127,
2,28930, Note_on_c,0,61,127,
2,28931, Note_on_c,0,40,127,
2,28933, Note_on_c,0,64,127,
2,28933, Note_off_c,0,61,127,
2,28934, Note_on_c,0,61,127,
2,28934, Note_off_c,0,64,127,
2,28938, Note_on_c,0,39,127,
2,28938, Note_off_c,0,40,127,
2,28939, Note_on_c,0,40,127,
2,28939, Note_off_c,0,39,127,
2,28950, Note_on_c,0,64,127,
2,28950, Note_off_c,0,61,127,
2,28951, Note_on_c,0,61,127,
2,28951, Note_off_c,0,64,127,
2,28953, Note_on_c,0,39,127,
2,28953, Note_off_c,0,40,127,
2,28954, Note_on_c,0,40,127,
2,28954, Note_off_c,0,39,127,
2,28961, Note_on_c,0,76,127,
2,28961, Note_off_c,0,40,127,
2,28962, Note_on_c,0,40,127,
2,28962, Note_off_c,0,76,127,
2,28964, Note_on_c,0,58,127,
2,28964, Note_off_c,0,61,127,
2,28965, Note_on_c,0,61,127,
2,28965, Note_off_c,0,58,127,
2,28970, Note_on_c,0,64,127,
2,28970, Note_off_c,0,61,127,
2,28971, Note_on_c,0,61,127,
2,28971, Note_off_c,0,64,127,
2,28973, Note_on_c,0,34,127,
2,28973, Note_off_c,0,40,127,
2,28974, Note_on_c,0,40,127,
2,28974, Note_off_c,0,34,127,
2,28978, Note_on_c,0,64,127,
2,28978, Note_on_c,0,39,127,
2,28978, Note_off_c,0,61,127,
2,28978, Note_off_c,0,40,127,
2,28979, Note_on_c,0,61,127,
2,28979, Note_on_c,0,40,127,
2,28979, Note_off_c,0,64,127,
2,28979, Note_off_c,0,39,127,
2,28983, Note_on_c,0,34,127,
2,28983, Note_off_c,0,40,127,
2,28984, Note_on_c,0,40,127,
2,28984, Note_off_c,0,34,127,
2,28993, Note_on_c,0,64,127,
2,28993, Note_off_c,0,61,127,
2,28994, Note_on_c,0,61,127,
2,28994, Note_off_c,0,64,127,
2,29008, Note_on_c,0,64,127,
2,29008, Note_off_c,0,61,127,
2,29009, Note_on_c,0,61,127,
2,29009, Note_off_c,0,64,127,
2,29016, Note_on_c,0,37,127,
2,29016, Note_off_c,0,40,127,
2,29017, Note_on_c,0,40,127,
2,29017, Note_off_c,0,37,127,
2,29019, Note_on_c,0,64,127,
2,29019, Note_off_c,0,61,127,
2,29020, Note_on_c,0,61,127,
2,29020, Note_off_c,0,64,127,
2,29021, Note_on_c,0,67,127,
2,29021, Note_off_c,0,61,127,
2,29022, Note_on_c,0,61,127,
2,29022, Note_off_c,0,67,127,
2,29023, Note_on_c,0,64,127,
2,29023, Note_off_c,0,61,127,
2,29024, Note_on_c,0,61,127,
2,29024, Note_off_c,0,64,127,
2,29041, Note_on_c,0,65,127,
2,29041, Note_off_c,0,40,127,
2,29042, Note_on_c,0,40,127,
2,29042, Note_on_c,0,70,127,
2,29042, Note_off_c,0,65,127,
2,29043, Note_off_c,0,70,127,
2,29047, Note_on_c,0,64,127,
2,29048, Note_off_c,0,64,127,
2,29050, Note_on_c,0,58,127,
2,29052, Note_off_c,0,58,127,
2,29055, Note_off_c,0,40,127,
2,29056, Note_on_c,0,40,127,
2,29066, Note_on_c,0,64,127,
2,29066, Note_off_c,0,61,127,
2,29067, Note_on_c,0,61,127,
2,29067, Note_off_c,0,64,127,
2,29070, Note_on_c,0,64,127,
2,29070, Note_off_c,0,61,127,
2,29071, Note_on_c,0,61,127,
2,29071, Note_off_c,0,64,127,
2,29080, Note_off_c,0,61,127,
2,29081, Note_on_c,0,61,127,
2,29082, Note_on_c,0,56,127,
2,29083, Note_on_c,0,46,127,
2,29083, Note_on_c,0,58,127,
2,29083, Note_off_c,0,61,127,
2,29083, Note_off_c,0,56,127,
2,29084, Note_on_c,0,64,127,
2,29084, Note_on_c,0,56,127,
2,29084, Note_off_c,0,46,127,
2,29084, Note_off_c,0,58,127,
2,29085, Note_on_c,0,61,127,
2,29085, Note_off_c,0,56,127,
2,29086, Note_on_c,0,56,127,
2,29086, Note_off_c,0,64,127,
2,29087, Note_off_c,0,56,127,
2,29088, Note_on_c,0,64,127,
2,29089, Note_off_c,0,64,127,
2,29093, Note_on_c,0,67,127,
2,29093, Note_on_c,0,34,127,
2,29093, Note_off_c,0,40,127,
2,29094, Note_on_c,0,43,127,
2,29094, Note_on_c,0,64,127,
2,29094, Note_off_c,0,67,127,
2,29094, Note_off_c,0,34,127,
2,29095, Note_on_c,0,40,127,
2,29095, Note_on_c,0,70,127,
2,29095, Note_off_c,0,43,127,
2,29095, Note_off_c,0,64,127,
2,29096, Note_on_c,0,64,127,
2,29096, Note_off_c,0,61,127,
2,29097, Note_on_c,0,61,127,
2,29097, Note_on_c,0,67,127,
2,29097, Note_off_c,0,64,127,
2,29097, Note_off_c,0,70,127,
2,29098, Note_off_c,0,67,127,
2,29099, Note_on_c,0,46,127,
2,29099, Note_off_c,0,40,127,
2,29100, Note_on_c,0,40,127,
2,29100, Note_off_c,0,46,127,
2,29115, Note_on_c,0,63,127,
2,29115, Note_off_c,0,61,127,
2,29116, Note_on_c,0,76,127,
2,29116, Note_off_c,0,63,127,
2,29117, Note_on_c,0,61,127,
2,29117, Note_off_c,0,76,127,
2,29118, Note_on_c,0,59,127,
2,29119, Note_off_c,0,59,127,
2,29120, Note_on_c,0,39,127,
2,29120, Note_off_c,0,40,127,
2,29121, Note_on_c,0,40,127,
2,29121, Note_off_c,0,39,127,
2,29132, Note_on_c,0,70,127,
2,29133, Note_off_c,0,70,127,
2,29137, Note_on_c,0,58,127,
2,29138, Note_on_c,0,64,127,
2,29138, Note_off_c,0,58,127,
2,29139, Note_off_c,0,64,127,
2,29141, Note_on_c,0,46,127,
2,29142, Note_off_c,0,46,127,
2,29144, Note_on_c,0,58,127,
2,29145, Note_off_c,0,58,127,
2,29150, Note_on_c,0,64,127,
2,29151, Note_off_c,0,64,127,
2,29152, Note_on_c,0,64,127,
2,29153, Note_off_c,0,64,127,
2,29154, Note_on_c,0,64,127,
2,29155, Note_off_c,0,64,127,
2,29157, Note_on_c,0,58,127,
2,29158, Note_off_c,0,58,127,
2,29159, Note_on_c,0,64,127,
2,29160, Note_off_c,0,64,127,
2,29161, Note_on_c,0,64,127,
2,29161, Note_off_c,0,61,127,
2,29162, Note_on_c,0,61,127,
2,29162, Note_off_c,0,64,127,
2,29162, Note_off_c,0,40,127,
2,29163, Note_on_c,0,40,127,
2,29167, Note_off_c,0,40,127,
2,29168, Note_on_c,0,40,127,
2,29175, Note_on_c,0,43,127,
2,29175, Note_on_c,0,64,127,
2,29175, Note_off_c,0,61,127,
2,29176, Note_on_c,0,61,127,
2,29176, Note_off_c,0,43,127,
2,29176, Note_off_c,0,64,127,
2,29177, Note_on_c,0,39,127,
2,29177, Note_off_c,0,40,127,
2,29178, Note_on_c,0,40,127,
2,29178, Note_off_c,0,39,127,
2,29183, Note_off_c,0,40,127,
2,29184, Note_on_c,0,40,127,
2,29220, Note_on_c,0,64,127,
2,29220, Note_off_c,0,61,127,
2,29221, Note_on_c,0,61,127,
2,29221, Note_off_c,0,64,127,
2,29222, Note_on_c,0,63,127,
2,29222, Note_off_c,0,61,127,
2,29223, Note_on_c,0,61,127,
2,29223, Note_off_c,0,63,127,
2,29232, Note_off_c,0,61,127,
2,29233, Note_on_c,0,61,127,
2,29233, Note_on_c,0,47,127,
2,29233, Note_off_c,0,40,127,
2,29234, Note_on_c,0,40,127,
2,29234, Note_off_c,0,47,127,
2,29239, Note_on_c,0,70,127,
2,29240, Note_off_c,0,70,127,
2,29241, Note_on_c,0,64,127,
2,29242, Note_off_c,0,64,127,
2,29244, Note_on_c,0,52,127,
2,29245, Note_off_c,0,52,127,
2,29248, Note_on_c,0,64,127,
2,29248, Note_off_c,0,61,127,
2,29249, Note_on_c,0,61,127,
2,29249, Note_off_c,0,64,127,
2,29272, Note_on_c,0,64,127,
2,29272, Note_off_c,0,61,127,
2,29273, Note_on_c,0,61,127,
2,29273, Note_off_c,0,64,127,
2,29277, Note_on_c,0,37,127,
2,29277, Note_off_c,0,40,127,
2,29278, Note_on_c,0,40,127,
2,29278, Note_off_c,0,37,127,
2,29279, Note_on_c,0,67,127,
2,29279, Note_off_c,0,61,127,
2,29280, Note_on_c,0,61,127,
2,29280, Note_off_c,0,67,127,
2,29281, Note_on_c,0,64,127,
2,29281, Note_off_c,0,40,127,
2,29282, Note_on_c,0,40,127,
2,29282, Note_off_c,0,64,127,
2,29285, Note_on_c,0,64,127,
2,29286, Note_off_c,0,64,127,
2,29287, Note_on_c,0,64,127,
2,29287, Note_off_c,0,61,127,
2,29288, Note_on_c,0,61,127,
2,29288, Note_off_c,0,64,127,
2,29298, Note_on_c,0,68,127,
2,29298, Note_off_c,0,61,127,
2,29299, Note_on_c,0,61,127,
2,29299, Note_off_c,0,68,127,
2,29311, Note_on_c,0,64,127,
2,29311, Note_off_c,0,61,127,
2,29312, Note_on_c,0,63,127,
2,29312, Note_off_c,0,64,127,
2,29313, Note_on_c,0,61,127,
2,29313, Note_off_c,0,63,127,
2,29314, Note_on_c,0,56,127,
2,29315, Note_off_c,0,56,127,
2,29317, Note_on_c,0,63,127,
2,29318, Note_off_c,0,63,127,
2,29322, Note_on_c,0,64,127,
2,29323, Note_off_c,0,64,127,
2,29324, Note_on_c,0,58,127,
2,29325, Note_off_c,0,58,127,
2,29330, Note_on_c,0,64,127,
2,29331, Note_on_c,0,44,127,
2,29331, Note_off_c,0,64,127,
2,29331, Note_off_c,0,40,127,
2,29332, Note_on_c,0,37,127,
2,29332, Note_off_c,0,44,127,
2,29333, Note_on_c,0,40,127,
2,29333, Note_off_c,0,37,127,
2,29334, Note_on_c,0,39,127,
2,29334, Note_off_c,0,40,127,
2,29335, Note_on_c,0,64,127,
2,29335, Note_on_c,0,40,127,
2,29335, Note_off_c,0,39,127,
2,29336, Note_off_c,0,64,127,
2,29342, Note_on_c,0,64,127,
2,29343, Note_off_c,0,64,127,
2,29346, Note_on_c,0,64,127,
2,29347, Note_off_c,0,64,127,
2,29348, Note_on_c,0,49,127,
2,29349, Note_off_c,0,49,127,
2,29350, Note_on_c,0,64,127,
2,29354, Note_off_c,0,64,127,
2,29355, Note_on_c,0,64,127,
2,29355, Note_off_c,0,61,127,
2,29356, Note_on_c,0,61,127,
2,29356, Note_off_c,0,64,127,
2,29372, Note_on_c,0,64,127,
2,29373, Note_off_c,0,64,127,
2,29375, Note_on_c,0,64,127,
2,29376, Note_off_c,0,64,127,
2,29377, Note_on_c,0,64,127,
2,29378, Note_on_c,0,59,127,
2,29378, Note_off_c,0,64,127,
2,29379, Note_on_c,0,70,127,
2,29379, Note_off_c,0,59,127,
2,29380, Note_on_c,0,59,127,
2,29380, Note_off_c,0,61,127,
2,29380, Note_off_c,0,70,127,
2,29381, Note_on_c,0,61,127,
2,29381, Note_off_c,0,59,127,
2,29382, Note_on_c,0,49,127,
2,29382, Note_on_c,0,58,127,
2,29382, Note_off_c,0,61,127,
2,29383, Note_on_c,0,61,127,
2,29383, Note_off_c,0,49,127,
2,29383, Note_off_c,0,58,127,
2,29391, Note_on_c,0,64,127,
2,29392, Note_off_c,0,64,127,
2,29394, Note_on_c,0,64,127,
2,29395, Note_off_c,0,64,127,
2,29396, Note_on_c,0,64,127,
2,29397, Note_on_c,0,46,127,
2,29397, Note_off_c,0,64,127,
2,29397, Note_off_c,0,40,127,
2,29398, Note_on_c,0,40,127,
2,29398, Note_off_c,0,46,127,
2,29400, Note_on_c,0,39,127,
2,29400, Note_off_c,0,40,127,
2,29401, Note_on_c,0,40,127,
2,29401, Note_off_c,0,39,127,
2,29402, Note_on_c,0,64,127,
2,29402, Note_off_c,0,61,127,
2,29403, Note_on_c,0,61,127,
2,29403, Note_off_c,0,64,127,
2,29412, Note_on_c,0,34,127,
2,29412, Note_off_c,0,40,127,
2,29413, Note_on_c,0,64,127,
2,29413, Note_on_c,0,40,127,
2,29413, Note_off_c,0,61,127,
2,29413, Note_off_c,0,34,127,
2,29414, Note_on_c,0,61,127,
2,29414, Note_off_c,0,64,127,
2,29415, Note_on_c,0,59,127,
2,29415, Note_off_c,0,61,127,
2,29416, Note_on_c,0,64,127,
2,29416, Note_on_c,0,39,127,
2,29416, Note_off_c,0,59,127,
2,29416, Note_off_c,0,40,127,
2,29417, Note_on_c,0,61,127,
2,29417, Note_on_c,0,40,127,
2,29417, Note_off_c,0,64,127,
2,29417, Note_off_c,0,39,127,
2,29426, Note_on_c,0,64,127,
2,29426, Note_off_c,0,61,127,
2,29426, Note_off_c,0,40,127,
2,29427, Note_on_c,0,61,127,
2,29427, Note_on_c,0,40,127,
2,29427, Note_off_c,0,64,127,
2,29438, Note_on_c,0,68,127,
2,29438, Note_off_c,0,61,127,
2,29439, Note_on_c,0,61,127,
2,29439, Note_off_c,0,68,127,
2,29445, Note_on_c,0,64,127,
2,29445, Note_on_c,0,33,127,
2,29445, Note_off_c,0,61,127,
2,29445, Note_off_c,0,40,127,
2,29446, Note_on_c,0,61,127,
2,29446, Note_on_c,0,40,127,
2,29446, Note_off_c,0,64,127,
2,29446, Note_off_c,0,33,127,
2,29447, Note_off_c,0,61,127,
2,29449, Note_on_c,0,56,127,
2,29449, Note_off_c,0,40,127,
2,29450, Note_on_c,0,40,127,
2,29450, Note_off_c,0,56,127,
2,29451, Note_on_c,0,70,127,
2,29452, Note_on_c,0,56,127,
2,29452, Note_off_c,0,70,127,
2,29453, Note_on_c,0,63,127,
2,29453, Note_off_c,0,56,127,
2,29454, Note_on_c,0,47,127,
2,29454, Note_off_c,0,63,127,
2,29455, Note_on_c,0,63,127,
2,29455, Note_off_c,0,47,127,
2,29456, Note_on_c,0,39,127,
2,29456, Note_off_c,0,63,127,
2,29457, Note_on_c,0,61,127,
2,29457, Note_off_c,0,39,127,
2,29458, Note_off_c,0,61,127,
2,29487, Note_on_c,0,61,127,
2,29488, Note_off_c,0,61,127,
2,29489, Note_on_c,0,61,127,
2,29490, Note_on_c,0,34,127,
2,29490, Note_off_c,0,61,127,
2,29491, Note_on_c,0,61,127,
2,29491, Note_off_c,0,34,127,
2,29492, Note_on_c,0,64,127,
2,29492, Note_off_c,0,61,127,
2,29493, Note_on_c,0,61,127,
2,29493, Note_off_c,0,64,127,
2,29499, Note_on_c,0,39,127,
2,29499, Note_off_c,0,40,127,
2,29500, Note_on_c,0,40,127,
2,29500, Note_off_c,0,39,127,
2,29504, Note_on_c,0,64,127,
2,29504, Note_off_c,0,61,127,
2,29505, Note_on_c,0,61,127,
2,29505, Note_off_c,0,64,127,
2,29508, Note_on_c,0,64,127,
2,29508, Note_off_c,0,61,127,
2,29509, Note_on_c,0,61,127,
2,29509, Note_off_c,0,64,127,
2,29524, Note_on_c,0,64,127,
2,29525, Note_off_c,0,64,127,
2,29527, Note_off_c,0,40,127,
2,29528, Note_on_c,0,40,127,
2,29530, Note_on_c,0,64,127,
2,29531, Note_off_c,0,64,127,
2,29534, Note_on_c,0,64,127,
2,29535, Note_off_c,0,64,127,
2,29537, Note_on_c,0,63,127,
2,29538, Note_off_c,0,63,127,
2,29539, Note_on_c,0,68,127,
2,29540, Note_off_c,0,68,127,
2,29541, Note_off_c,0,40,127,
2,29542, Note_on_c,0,40,127,
2,29547, Note_on_c,0,71,127,
2,29547, Note_off_c,0,61,127,
2,29548, Note_on_c,0,61,127,
2,29548, Note_off_c,0,71,127,
2,29552, Note_off_c,0,40,127,
2,29553, Note_on_c,0,40,127,
2,29567, Note_on_c,0,64,127,
2,29567, Note_off_c,0,61,127,
2,29568, Note_on_c,0,61,127,
2,29568, Note_off_c,0,64,127,
2,29569, Note_off_c,0,61,127,
2,29570, Note_on_c,0,61,127,
2,29574, Note_on_c,0,50,127,
2,29574, Note_off_c,0,40,127,
2,29575, Note_on_c,0,40,127,
2,29575, Note_off_c,0,50,127,
2,29595, Note_on_c,0,58,127,
2,29595, Note_off_c,0,61,127,
2,29596, Note_on_c,0,61,127,
2,29596, Note_off_c,0,58,127,
2,29604, Note_on_c,0,56,127,
2,29604, Note_off_c,0,61,127,
2,29605, Note_on_c,0,61,127,
2,29605, Note_off_c,0,56,127,
2,29607, Note_on_c,0,56,127,
2,29607, Note_off_c,0,61,127,
2,29608, Note_on_c,0,61,127,
2,29608, Note_off_c,0,56,127,
2,29609, Note_on_c,0,49,127,
2,29610, Note_off_c,0,49,127,
2,29612, Note_on_c,0,64,127,
2,29612, Note_off_c,0,61,127,
2,29613, Note_on_c,0,61,127,
2,29613, Note_off_c,0,64,127,
2,29617, Note_on_c,0,56,127,
2,29617, Note_off_c,0,61,127,
2,29618, Note_on_c,0,61,127,
2,29618, Note_off_c,0,56,127,
2,29619, Note_on_c,0,64,127,
2,29619, Note_off_c,0,61,127,
2,29620, Note_on_c,0,61,127,
2,29620, Note_off_c,0,64,127,
2,29635, Note_on_c,0,58,127,
2,29635, Note_off_c,0,61,127,
2,29636, Note_on_c,0,56,127,
2,29636, Note_off_c,0,58,127,
2,29637, Note_on_c,0,61,127,
2,29637, Note_off_c,0,56,127,
2,29638, Note_on_c,0,68,127,
2,29638, Note_off_c,0,61,127,
2,29639, Note_on_c,0,61,127,
2,29639, Note_off_c,0,68,127,
2,29655, Note_on_c,0,63,127,
2,29655, Note_off_c,0,61,127,
2,29656, Note_on_c,0,61,127,
2,29656, Note_off_c,0,63,127,
2,29657, Note_on_c,0,64,127,
2,29657, Note_off_c,0,61,127,
2,29659, Note_on_c,0,61,127,
2,29659, Note_off_c,0,64,127,
2,29661, Note_on_c,0,68,127,
2,29662, Note_off_c,0,68,127,
2,29673, Note_on_c,0,64,127,
2,29673, Note_off_c,0,61,127,
2,29674, Note_on_c,0,61,127,
2,29674, Note_off_c,0,64,127,
2,29680, Note_on_c,0,28,127,
2,29680, Note_off_c,0,61,127,
2,29681, Note_on_c,0,61,127,
2,29681, Note_off_c,0,28,127,
2,29686, Note_on_c,0,64,127,
2,29686, Note_off_c,0,61,127,
2,29687, Note_on_c,0,61,127,
2,29687, Note_off_c,0,64,127,
2,29688, Note_on_c,0,49,127,
2,29688, Note_off_c,0,40,127,
2,29689, Note_on_c,0,40,127,
2,29689, Note_off_c,0,49,127,
2,29698, Note_on_c,0,44,127,
2,29698, Note_off_c,0,40,127,
2,29699, Note_on_c,0,66,127,
2,29699, Note_off_c,0,44,127,
2,29699, Note_off_c,0,61,127,
2,29700, Note_on_c,0,61,127,
2,29700, Note_on_c,0,40,127,
2,29700, Note_off_c,0,66,127,
2,29714, Note_on_c,0,52,127,
2,29714, Note_off_c,0,61,127,
2,29715, Note_on_c,0,61,127,
2,29715, Note_off_c,0,52,127,
2,29718, Note_on_c,0,64,127,
2,29718, Note_off_c,0,61,127,
2,29719, Note_on_c,0,61,127,
2,29719, Note_off_c,0,64,127,
2,29725, Note_on_c,0,39,127,
2,29725, Note_off_c,0,40,127,
2,29726, Note_on_c,0,40,127,
2,29726, Note_off_c,0,39,127,
2,29732, Note_on_c,0,64,127,
2,29732, Note_off_c,0,61,127,
2,29733, Note_on_c,0,61,127,
2,29733, Note_off_c,0,64,127,
2,29737, Note_on_c,0,59,127,
2,29737, Note_off_c,0,61,127,
2,29738, Note_on_c,0,61,127,
2,29738, Note_off_c,0,59,127,
2,29743, Note_on_c,0,58,127,
2,29743, Note_off_c,0,61,127,
2,29744, Note_on_c,0,61,127,
2,29744, Note_off_c,0,58,127,
2,29749, Note_on_c,0,64,127,
2,29749, Note_off_c,0,61,127,
2,29750, Note_on_c,0,61,127,
2,29750, Note_off_c,0,64,127,
2,29756, Note_on_c,0,64,127,
2,29756, Note_off_c,0,61,127,
2,29757, Note_on_c,0,61,127,
2,29757, Note_off_c,0,64,127,
2,29767, Note_on_c,0,64,127,
2,29767, Note_off_c,0,61,127,
2,29768, Note_on_c,0,61,127,
2,29768, Note_off_c,0,64,127,
2,29791, Note_on_c,0,64,127,
2,29791, Note_off_c,0,61,127,
2,29792, Note_on_c,0,61,127,
2,29792, Note_off_c,0,64,127,
2,29793, Note_on_c,0,39,127,
2,29793, Note_off_c,0,40,127,
2,29794, Note_on_c,0,40,127,
2,29794, Note_off_c,0,39,127,
2,29803, Note_on_c,0,64,127,
2,29803, Note_off_c,0,61,127,
2,29804, Note_on_c,0,61,127,
2,29804, Note_off_c,0,64,127,
2,29805, Note_on_c,0,70,127,
2,29805, Note_off_c,0,61,127,
2,29806, Note_on_c,0,61,127,
2,29806, Note_off_c,0,70,127,
2,29807, Note_on_c,0,64,127,
2,29807, Note_off_c,0,61,127,
2,29808, Note_on_c,0,61,127,
2,29808, Note_off_c,0,64,127,
2,29815, Note_off_c,0,40,127,
2,29816, Note_on_c,0,40,127,
2,29817, Note_off_c,0,61,127,
2,29833, Note_on_c,0,37,127,
2,29833, Note_off_c,0,40,127,
2,29834, Note_on_c,0,40,127,
2,29834, Note_off_c,0,37,127,
2,29841, Note_on_c,0,39,127,
2,29841, Note_off_c,0,40,127,
2,29842, Note_on_c,0,40,127,
2,29842, Note_off_c,0,39,127,
2,29910, Note_on_c,0,49,127,
2,29910, Note_off_c,0,40,127,
2,29911, Note_on_c,0,40,127,
2,29911, Note_off_c,0,49,127,
2,29956, Note_on_c,0,49,127,
2,29956, Note_off_c,0,40,127,
2,29957, Note_on_c,0,39,127,
2,29957, Note_off_c,0,49,127,
2,29958, Note_on_c,0,40,127,
2,29958, Note_off_c,0,39,127,
2,29976, Note_on_c,0,39,127,
2,29976, Note_off_c,0,40,127,
2,29977, Note_on_c,0,37,127,
2,29977, Note_off_c,0,39,127,
2,29978, Note_on_c,0,40,127,
2,29978, Note_off_c,0,37,127,
2,29991, Note_on_c,0,35,127,
2,29991, Note_off_c,0,40,127,
2,29992, Note_on_c,0,40,127,
2,29992, Note_off_c,0,35,127,
2,30060, Note_on_c,0,61,127,
2,30060, Note_off_c,0,40,127,
2,30061, Note_on_c,0,40,127,
2,30062, Note_on_c,0,39,127,
2,30062, Note_off_c,0,61,127,
2,30063, Note_on_c,0,61,127,
2,30063, Note_off_c,0,39,127,
2,30064, Note_on_c,0,56,127,
2,30064, Note_off_c,0,61,127,
2,30065, Note_off_c,0,56,127,
2,30066, Note_on_c,0,56,127,
2,30066, Note_off_c,0,40,127,
2,30067, Note_on_c,0,40,127,
2,30067, Note_off_c,0,56,127,
2,30103, Note_on_c,0,64,127,
2,30103, Note_off_c,0,40,127,
2,30104, Note_on_c,0,61,127,
2,30104, Note_on_c,0,40,127,
2,30104, Note_off_c,0,64,127,
2,30109, Note_on_c,0,64,127,
2,30109, Note_off_c,0,61,127,
2,30110, Note_on_c,0,61,127,
2,30110, Note_off_c,0,64,127,
2,30112, Note_on_c,0,64,127,
2,30112, Note_off_c,0,61,127,
2,30113, Note_on_c,0,58,127,
2,30113, Note_off_c,0,64,127,
2,30114, Note_on_c,0,61,127,
2,30114, Note_off_c,0,58,127,
2,30138, Note_off_c,0,40,127,
2,30139, Note_on_c,0,40,127,
2,30140, Note_on_c,0,46,127,
2,30140, Note_off_c,0,61,127,
2,30140, Note_off_c,0,40,127,
2,30141, Note_on_c,0,40,127,
2,30141, Note_off_c,0,46,127,
2,30142, Note_on_c,0,61,127,
2,30142, Note_off_c,0,40,127,
2,30143, Note_on_c,0,40,127,
2,30143, Note_off_c,0,61,127,
2,30144, Note_on_c,0,61,127,
2,30144, Note_off_c,0,40,127,
2,30145, Note_on_c,0,40,127,
2,30145, Note_off_c,0,61,127,
2,30181, Note_on_c,0,39,127,
2,30181, Note_off_c,0,40,127,
2,30182, Note_on_c,0,40,127,
2,30182, Note_off_c,0,39,127,
2,30206, Note_on_c,0,71,127,
2,30207, Note_off_c,0,71,127,
2,30208, Note_on_c,0,61,127,
2,30209, Note_on_c,0,46,127,
2,30209, Note_off_c,0,61,127,
2,30210, Note_on_c,0,61,127,
2,30210, Note_off_c,0,46,127,
2,30211, Note_off_c,0,61,127,
2,30212, Note_on_c,0,61,127,
2,30213, Note_on_c,0,56,127,
2,30213, Note_off_c,0,61,127,
2,30214, Note_on_c,0,49,127,
2,30214, Note_off_c,0,56,127,
2,30215, Note_off_c,0,49,127,
2,30216, Note_on_c,0,61,127,
2,30217, Note_on_c,0,56,127,
2,30217, Note_off_c,0,61,127,
2,30218, Note_off_c,0,56,127,
2,30219, Note_on_c,0,71,127,
2,30219, Note_on_c,0,56,127,
2,30220, Note_on_c,0,61,127,
2,30220, Note_off_c,0,71,127,
2,30222, Note_on_c,0,64,127,
2,30222, Note_off_c,0,61,127,
2,30223, Note_on_c,0,61,127,
2,30223, Note_off_c,0,56,127,
2,30224, Note_off_c,0,64,127,
2,30226, Note_on_c,0,49,127,
2,30227, Note_on_c,0,56,127,
2,30227, Note_off_c,0,49,127,
2,30228, Note_on_c,0,37,127,
2,30228, Note_off_c,0,40,127,
2,30228, Note_off_c,0,56,127,
2,30229, Note_on_c,0,64,127,
2,30229, Note_on_c,0,52,127,
2,30229, Note_on_c,0,40,127,
2,30229, Note_off_c,0,61,127,
2,30229, Note_off_c,0,37,127,
2,30230, Note_on_c,0,61,127,
2,30230, Note_off_c,0,64,127,
2,30230, Note_off_c,0,52,127,
2,30232, Note_on_c,0,46,127,
2,30233, Note_off_c,0,46,127,
2,30246, Note_on_c,0,64,127,
2,30246, Note_off_c,0,61,127,
2,30247, Note_on_c,0,61,127,
2,30247, Note_on_c,0,56,127,
2,30247, Note_off_c,0,64,127,
2,30247, Note_off_c,0,40,127,
2,30248, Note_on_c,0,40,127,
2,30248, Note_off_c,0,56,127,
2,30249, Note_on_c,0,64,127,
2,30249, Note_on_c,0,52,127,
2,30249, Note_off_c,0,40,127,
2,30250, Note_on_c,0,40,127,
2,30250, Note_off_c,0,64,127,
2,30250, Note_off_c,0,52,127,
2,30252, Note_on_c,0,64,127,
2,30253, Note_off_c,0,64,127,
2,30262, Note_on_c,0,64,127,
2,30263, Note_off_c,0,64,127,
2,30264, Note_on_c,0,64,127,
2,30265, Note_off_c,0,64,127,
2,30267, Note_on_c,0,64,127,
2,30267, Note_off_c,0,61,127,
2,30267, Note_off_c,0,40,127,
2,30268, Note_on_c,0,40,127,
2,30269, Note_on_c,0,61,127,
2,30269, Note_off_c,0,64,127,
2,30271, Note_on_c,0,64,127,
2,30271, Note_off_c,0,61,127,
2,30272, Note_on_c,0,61,127,
2,30272, Note_off_c,0,64,127,
2,30282, Note_on_c,0,68,127,
2,30282, Note_off_c,0,61,127,
2,30283, Note_on_c,0,61,127,
2,30283, Note_off_c,0,68,127,
2,30286, Note_on_c,0,39,127,
2,30286, Note_off_c,0,40,127,
2,30287, Note_on_c,0,40,127,
2,30287, Note_off_c,0,39,127,
2,30296, Note_on_c,0,64,127,
2,30296, Note_off_c,0,61,127,
2,30297, Note_on_c,0,61,127,
2,30297, Note_off_c,0,64,127,
2,30298, Note_on_c,0,46,127,
2,30298, Note_off_c,0,40,127,
2,30299, Note_on_c,0,40,127,
2,30299, Note_off_c,0,46,127,
2,30304, Note_on_c,0,64,127,
2,30304, Note_off_c,0,61,127,
2,30305, Note_on_c,0,61,127,
2,30305, Note_on_c,0,46,127,
2,30305, Note_off_c,0,64,127,
2,30305, Note_off_c,0,40,127,
2,30306, Note_on_c,0,40,127,
2,30306, Note_off_c,0,46,127,
2,30309, Note_on_c,0,64,127,
2,30309, Note_off_c,0,61,127,
2,30310, Note_on_c,0,61,127,
2,30310, Note_on_c,0,39,127,
2,30310, Note_off_c,0,64,127,
2,30310, Note_off_c,0,40,127,
2,30311, Note_on_c,0,40,127,
2,30311, Note_off_c,0,39,127,
2,30312, Note_on_c,0,64,127,
2,30312, Note_off_c,0,61,127,
2,30313, Note_on_c,0,61,127,
2,30313, Note_off_c,0,64,127,
2,30322, Note_on_c,0,64,127,
2,30322, Note_off_c,0,61,127,
2,30323, Note_on_c,0,61,127,
2,30323, Note_off_c,0,64,127,
2,30327, Note_on_c,0,39,127,
2,30327, Note_off_c,0,40,127,
2,30328, Note_on_c,0,40,127,
2,30328, Note_off_c,0,39,127,
2,30333, Note_off_c,0,40,127,
2,30334, Note_on_c,0,34,127,
2,30335, Note_on_c,0,64,127,
2,30335, Note_on_c,0,40,127,
2,30335, Note_off_c,0,61,127,
2,30335, Note_off_c,0,34,127,
2,30336, Note_on_c,0,61,127,
2,30336, Note_off_c,0,64,127,
2,30348, Note_on_c,0,36,127,
2,30348, Note_off_c,0,40,127,
2,30349, Note_on_c,0,40,127,
2,30349, Note_off_c,0,36,127,
2,30360, Note_on_c,0,59,127,
2,30360, Note_off_c,0,61,127,
2,30361, Note_on_c,0,61,127,
2,30361, Note_off_c,0,59,127,
2,30364, Note_on_c,0,58,127,
2,30364, Note_off_c,0,61,127,
2,30365, Note_on_c,0,61,127,
2,30365, Note_off_c,0,58,127,
2,30373, Note_on_c,0,64,127,
2,30373, Note_on_c,0,56,127,
2,30373, Note_off_c,0,61,127,
2,30373, Note_off_c,0,40,127,
2,30374, Note_on_c,0,43,127,
2,30374, Note_on_c,0,61,127,
2,30374, Note_off_c,0,64,127,
2,30374, Note_off_c,0,56,127,
2,30375, Note_on_c,0,40,127,
2,30375, Note_off_c,0,43,127,
2,30376, Note_on_c,0,63,127,
2,30376, Note_on_c,0,69,127,
2,30376, Note_off_c,0,61,127,
2,30377, Note_on_c,0,61,127,
2,30377, Note_off_c,0,63,127,
2,30377, Note_off_c,0,69,127,
2,30379, Note_on_c,0,64,127,
2,30379, Note_on_c,0,34,127,
2,30379, Note_off_c,0,40,127,
2,30380, Note_on_c,0,40,127,
2,30380, Note_off_c,0,64,127,
2,30380, Note_off_c,0,34,127,
2,30382, Note_on_c,0,70,127,
2,30383, Note_off_c,0,70,127,
2,30385, Note_on_c,0,52,127,
2,30386, Note_on_c,0,64,127,
2,30386, Note_off_c,0,61,127,
2,30386, Note_off_c,0,52,127,
2,30387, Note_on_c,0,43,127,
2,30387, Note_on_c,0,61,127,
2,30387, Note_off_c,0,64,127,
2,30387, Note_off_c,0,40,127,
2,30388, Note_on_c,0,40,127,
2,30388, Note_off_c,0,43,127,
2,30389, Note_off_c,0,61,127,
2,30390, Note_on_c,0,61,127,
2,30390, Note_off_c,0,40,127,
2,30391, Note_on_c,0,40,127,
2,30393, Note_on_c,0,63,127,
2,30393, Note_on_c,0,39,127,
2,30393, Note_off_c,0,61,127,
2,30393, Note_off_c,0,40,127,
2,30394, Note_on_c,0,40,127,
2,30394, Note_on_c,0,56,127,
2,30394, Note_off_c,0,63,127,
2,30394, Note_off_c,0,39,127,
2,30395, Note_on_c,0,61,127,
2,30395, Note_off_c,0,56,127,
2,30397, Note_on_c,0,44,127,
2,30397, Note_off_c,0,40,127,
2,30398, Note_on_c,0,39,127,
2,30398, Note_off_c,0,44,127,
2,30399, Note_on_c,0,40,127,
2,30399, Note_off_c,0,39,127,
2,30403, Note_on_c,0,49,127,
2,30403, Note_off_c,0,40,127,
2,30404, Note_on_c,0,40,127,
2,30404, Note_off_c,0,49,127,
2,30410, Note_on_c,0,64,127,
2,30410, Note_off_c,0,61,127,
2,30411, Note_on_c,0,61,127,
2,30411, Note_off_c,0,64,127,
2,30412, Note_on_c,0,64,127,
2,30412, Note_off_c,0,61,127,
2,30413, Note_on_c,0,76,127,
2,30413, Note_off_c,0,64,127,
2,30414, Note_on_c,0,61,127,
2,30414, Note_off_c,0,76,127,
2,30416, Note_off_c,0,40,127,
2,30417, Note_on_c,0,64,127,
2,30417, Note_on_c,0,40,127,
2,30417, Note_off_c,0,61,127,
2,30419, Note_on_c,0,61,127,
2,30419, Note_off_c,0,64,127,
2,30423, Note_on_c,0,70,127,
2,30423, Note_off_c,0,61,127,
2,30424, Note_on_c,0,64,127,
2,30424, Note_off_c,0,70,127,
2,30425, Note_on_c,0,61,127,
2,30425, Note_off_c,0,64,127,
2,30437, Note_on_c,0,39,127,
2,30437, Note_off_c,0,40,127,
2,30438, Note_on_c,0,40,127,
2,30438, Note_off_c,0,39,127,
2,30455, Note_on_c,0,76,127,
2,30455, Note_off_c,0,61,127,
2,30456, Note_on_c,0,64,127,
2,30456, Note_off_c,0,76,127,
2,30457, Note_on_c,0,61,127,
2,30457, Note_off_c,0,64,127,
2,30472, Note_on_c,0,37,127,
2,30472, Note_off_c,0,40,127,
2,30473, Note_on_c,0,64,127,
2,30473, Note_on_c,0,40,127,
2,30473, Note_off_c,0,61,127,
2,30473, Note_off_c,0,37,127,
2,30474, Note_on_c,0,61,127,
2,30474, Note_off_c,0,64,127,
2,30488, Note_on_c,0,49,127,
2,30488, Note_off_c,0,40,127,
2,30489, Note_on_c,0,40,127,
2,30489, Note_off_c,0,49,127,
2,30500, Note_on_c,0,64,127,
2,30500, Note_off_c,0,61,127,
2,30501, Note_on_c,0,61,127,
2,30501, Note_off_c,0,64,127,
2,30503, Note_on_c,0,64,127,
2,30503, Note_off_c,0,61,127,
2,30504, Note_on_c,0,61,127,
2,30504, Note_off_c,0,64,127,
2,30506, Note_on_c,0,64,127,
2,30506, Note_off_c,0,61,127,
2,30507, Note_on_c,0,61,127,
2,30507, Note_off_c,0,64,127,
2,30512, Note_on_c,0,64,127,
2,30512, Note_on_c,0,58,127,
2,30512, Note_off_c,0,61,127,
2,30513, Note_on_c,0,61,127,
2,30513, Note_off_c,0,58,127,
2,30515, Note_off_c,0,64,127,
2,30516, Note_on_c,0,70,127,
2,30517, Note_on_c,0,52,127,
2,30517, Note_off_c,0,70,127,
2,30518, Note_off_c,0,52,127,
2,30525, Note_on_c,0,68,127,
2,30525, Note_off_c,0,61,127,
2,30526, Note_on_c,0,64,127,
2,30526, Note_off_c,0,68,127,
2,30527, Note_on_c,0,61,127,
2,30527, Note_off_c,0,64,127,
2,30528, Note_on_c,0,64,127,
2,30528, Note_off_c,0,61,127,
2,30529, Note_on_c,0,61,127,
2,30529, Note_off_c,0,64,127,
2,30530, Note_on_c,0,64,127,
2,30530, Note_off_c,0,61,127,
2,30531, Note_on_c,0,61,127,
2,30531, Note_off_c,0,64,127,
2,30533, Note_on_c,0,64,127,
2,30533, Note_off_c,0,61,127,
2,30534, Note_on_c,0,61,127,
2,30534, Note_off_c,0,64,127,
2,30571, Note_on_c,0,39,127,
2,30571, Note_off_c,0,40,127,
2,30572, Note_on_c,0,40,127,
2,30572, Note_off_c,0,39,127,
2,30580, Note_on_c,0,64,127,
2,30580, Note_off_c,0,61,127,
2,30581, Note_on_c,0,61,127,
2,30581, Note_off_c,0,64,127,
2,30583, Note_on_c,0,64,127,
2,30583, Note_off_c,0,61,127,
2,30584, Note_on_c,0,61,127,
2,30584, Note_off_c,0,64,127,
2,30585, Note_off_c,0,40,127,
2,30586, Note_on_c,0,40,127,
2,30587, Note_off_c,0,40,127,
2,30588, Note_on_c,0,40,127,
2,30598, Note_on_c,0,64,127,
2,30598, Note_off_c,0,61,127,
2,30599, Note_on_c,0,61,127,
2,30599, Note_off_c,0,64,127,
2,30602, Note_on_c,0,64,127,
2,30602, Note_off_c,0,61,127,
2,30603, Note_on_c,0,61,127,
2,30603, Note_off_c,0,64,127,
2,30604, Note_on_c,0,64,127,
2,30604, Note_off_c,0,61,127,
2,30607, Note_on_c,0,61,127,
2,30607, Note_off_c,0,64,127,
2,30619, Note_on_c,0,37,127,
2,30619, Note_off_c,0,40,127,
2,30620, Note_on_c,0,44,127,
2,30620, Note_off_c,0,37,127,
2,30621, Note_on_c,0,63,127,
2,30621, Note_on_c,0,40,127,
2,30621, Note_off_c,0,44,127,
2,30621, Note_off_c,0,61,127,
2,30622, Note_on_c,0,61,127,
2,30622, Note_off_c,0,63,127,
2,30623, Note_on_c,0,52,127,
2,30623, Note_off_c,0,61,127,
2,30624, Note_on_c,0,64,127,
2,30624, Note_off_c,0,52,127,
2,30625, Note_on_c,0,61,127,
2,30625, Note_off_c,0,64,127,
2,30626, Note_on_c,0,64,127,
2,30626, Note_off_c,0,61,127,
2,30627, Note_on_c,0,61,127,
2,30627, Note_off_c,0,64,127,
2,30629, Note_on_c,0,64,127,
2,30629, Note_off_c,0,61,127,
2,30630, Note_on_c,0,61,127,
2,30630, Note_off_c,0,64,127,
2,30632, Note_on_c,0,52,127,
2,30632, Note_off_c,0,61,127,
2,30633, Note_on_c,0,61,127,
2,30633, Note_off_c,0,52,127,
2,30641, Note_on_c,0,64,127,
2,30641, Note_off_c,0,61,127,
2,30642, Note_on_c,0,61,127,
2,30642, Note_off_c,0,64,127,
2,30653, Note_on_c,0,37,127,
2,30653, Note_off_c,0,40,127,
2,30654, Note_on_c,0,40,127,
2,30654, Note_off_c,0,37,127,
2,30673, Note_on_c,0,39,127,
2,30673, Note_off_c,0,40,127,
2,30674, Note_on_c,0,40,127,
2,30674, Note_off_c,0,39,127,
2,30680, Note_on_c,0,39,127,
2,30680, Note_off_c,0,40,127,
2,30681, Note_on_c,0,40,127,
2,30681, Note_off_c,0,39,127,
2,30690, Note_on_c,0,64,127,
2,30690, Note_off_c,0,61,127,
2,30691, Note_on_c,0,61,127,
2,30691, Note_off_c,0,64,127,
2,30701, Note_on_c,0,46,127,
2,30701, Note_off_c,0,40,127,
2,30702, Note_on_c,0,64,127,
2,30702, Note_on_c,0,40,127,
2,30702, Note_off_c,0,61,127,
2,30702, Note_off_c,0,46,127,
2,30703, Note_on_c,0,61,127,
2,30703, Note_off_c,0,64,127,
2,30705, Note_on_c,0,64,127,
2,30705, Note_off_c,0,61,127,
2,30706, Note_on_c,0,61,127,
2,30706, Note_off_c,0,64,127,
2,30714, Note_on_c,0,64,127,
2,30714, Note_off_c,0,61,127,
2,30715, Note_on_c,0,61,127,
2,30715, Note_off_c,0,64,127,
2,30717, Note_on_c,0,64,127,
2,30717, Note_off_c,0,61,127,
2,30718, Note_on_c,0,61,127,
2,30718, Note_off_c,0,64,127,
2,30719, Note_on_c,0,39,127,
2,30719, Note_off_c,0,40,127,
2,30720, Note_on_c,0,40,127,
2,30720, Note_off_c,0,39,127,
2,30721, Note_on_c,0,37,127,
2,30721, Note_off_c,0,40,127,
2,30722, Note_on_c,0,40,127,
2,30722, Note_off_c,0,37,127,
2,30724, Note_on_c,0,56,127,
2,30724, Note_off_c,0,61,127,
2,30725, Note_on_c,0,61,127,
2,30725, Note_off_c,0,56,127,
2,30726, Note_on_c,0,64,127,
2,30726, Note_off_c,0,61,127,
2,30727, Note_on_c,0,61,127,
2,30727, Note_off_c,0,64,127,
2,30732, Note_on_c,0,64,127,
2,30732, Note_off_c,0,61,127,
2,30733, Note_on_c,0,61,127,
2,30733, Note_off_c,0,64,127,
2,30734, Note_on_c,0,49,127,
2,30734, Note_off_c,0,40,127,
2,30735, Note_on_c,0,40,127,
2,30735, Note_off_c,0,49,127,
2,30745, Note_on_c,0,64,127,
2,30745, Note_on_c,0,39,127,
2,30745, Note_off_c,0,61,127,
2,30745, Note_off_c,0,40,127,
2,30746, Note_on_c,0,61,127,
2,30746, Note_on_c,0,40,127,
2,30746, Note_off_c,0,64,127,
2,30746, Note_off_c,0,39,127,
2,30752, Note_on_c,0,64,127,
2,30752, Note_off_c,0,61,127,
2,30753, Note_on_c,0,61,127,
2,30753, Note_off_c,0,64,127,
2,30762, Note_on_c,0,39,127,
2,30762, Note_off_c,0,40,127,
2,30763, Note_on_c,0,40,127,
2,30763, Note_off_c,0,39,127,
2,30765, Note_on_c,0,63,127,
2,30765, Note_off_c,0,61,127,
2,30766, Note_on_c,0,61,127,
2,30766, Note_off_c,0,63,127,
2,30769, Note_on_c,0,64,127,
2,30770, Note_off_c,0,64,127,
2,30771, Note_on_c,0,68,127,
2,30772, Note_on_c,0,64,127,
2,30772, Note_on_c,0,66,127,
2,30772, Note_off_c,0,61,127,
2,30772, Note_off_c,0,68,127,
2,30773, Note_on_c,0,61,127,
2,30773, Note_off_c,0,64,127,
2,30773, Note_off_c,0,66,127,
2,30774, Note_on_c,0,64,127,
2,30775, Note_off_c,0,64,127,
2,30777, Note_on_c,0,63,127,
2,30777, Note_off_c,0,61,127,
2,30777, Note_off_c,0,40,127,
2,30778, Note_on_c,0,61,127,
2,30778, Note_on_c,0,40,127,
2,30778, Note_off_c,0,63,127,
2,30790, Note_on_c,0,68,127,
2,30790, Note_off_c,0,61,127,
2,30791, Note_on_c,0,61,127,
2,30791, Note_off_c,0,68,127,
2,30798, Note_on_c,0,64,127,
2,30798, Note_off_c,0,61,127,
2,30799, Note_on_c,0,61,127,
2,30799, Note_off_c,0,64,127,
2,30810, Note_on_c,0,59,127,
2,30810, Note_off_c,0,61,127,
2,30811, Note_on_c,0,61,127,
2,30811, Note_off_c,0,59,127,
2,30813, Note_on_c,0,64,127,
2,30813, Note_off_c,0,61,127,
2,30814, Note_on_c,0,61,127,
2,30814, Note_off_c,0,64,127,
2,30829, Note_on_c,0,58,127,
2,30829, Note_off_c,0,61,127,
2,30830, Note_on_c,0,61,127,
2,30830, Note_off_c,0,58,127,
2,30835, Note_on_c,0,58,127,
2,30835, Note_off_c,0,61,127,
2,30836, Note_on_c,0,61,127,
2,30836, Note_off_c,0,58,127,
2,30837, Note_on_c,0,58,127,
2,30837, Note_off_c,0,61,127,
2,30838, Note_on_c,0,64,127,
2,30838, Note_off_c,0,58,127,
2,30840, Note_on_c,0,61,127,
2,30840, Note_off_c,0,64,127,
2,30841, Note_on_c,0,64,127,
2,30841, Note_off_c,0,61,127,
2,30843, Note_on_c,0,61,127,
2,30843, Note_off_c,0,64,127,
2,30846, Note_on_c,0,67,127,
2,30846, Note_off_c,0,61,127,
2,30847, Note_on_c,0,61,127,
2,30847, Note_off_c,0,67,127,
2,30848, Note_off_c,0,61,127,
2,30849, Note_on_c,0,61,127,
2,30849, Note_off_c,0,40,127,
2,30850, Note_on_c,0,40,127,
2,30853, Note_on_c,0,39,127,
2,30853, Note_off_c,0,40,127,
2,30854, Note_on_c,0,40,127,
2,30854, Note_off_c,0,39,127,
2,30859, Note_on_c,0,39,127,
2,30859, Note_off_c,0,40,127,
2,30860, Note_on_c,0,40,127,
2,30860, Note_off_c,0,39,127,
2,30888, Note_on_c,0,64,127,
2,30888, Note_off_c,0,61,127,
2,30889, Note_on_c,0,61,127,
2,30889, Note_off_c,0,64,127,
2,30917, Note_off_c,0,61,127,
2,30917, Note_off_c,0,40,127,
2,30918, Note_on_c,0,61,127,
2,30919, Note_on_c,0,64,127,
2,30919, Note_on_c,0,40,127,
2,30919, Note_off_c,0,61,127,
2,30922, Note_on_c,0,61,127,
2,30922, Note_off_c,0,64,127,
2,30934, Note_on_c,0,49,127,
2,30934, Note_off_c,0,61,127,
2,30935, Note_on_c,0,61,127,
2,30935, Note_off_c,0,49,127,
2,30971, Note_on_c,0,39,127,
2,30971, Note_off_c,0,40,127,
2,30972, Note_on_c,0,40,127,
2,30972, Note_off_c,0,39,127,
2,30981, Note_on_c,0,64,127,
2,30981, Note_off_c,0,61,127,
2,30982, Note_on_c,0,61,127,
2,30982, Note_off_c,0,64,127,
2,30993, Note_on_c,0,56,127,
2,30993, Note_off_c,0,61,127,
2,30994, Note_on_c,0,61,127,
2,30994, Note_off_c,0,56,127,
2,31008, Note_on_c,0,34,127,
2,31008, Note_off_c,0,40,127,
2,31009, Note_on_c,0,40,127,
2,31009, Note_off_c,0,34,127,
2,31011, Note_on_c,0,46,127,
2,31011, Note_off_c,0,40,127,
2,31012, Note_on_c,0,40,127,
2,31012, Note_off_c,0,46,127,
2,31014, Note_on_c,0,68,127,
2,31014, Note_off_c,0,40,127,
2,31015, Note_on_c,0,40,127,
2,31015, Note_off_c,0,68,127,
2,31016, Note_off_c,0,40,127,
2,31017, Note_on_c,0,64,127,
2,31017, Note_on_c,0,40,127,
2,31017, Note_off_c,0,61,127,
2,31018, Note_on_c,0,61,127,
2,31018, Note_off_c,0,64,127,
2,31029, Note_on_c,0,34,127,
2,31029, Note_off_c,0,40,127,
2,31030, Note_on_c,0,40,127,
2,31030, Note_off_c,0,34,127,
2,31031, Note_off_c,0,40,127,
2,31032, Note_on_c,0,40,127,
2,31036, Note_on_c,0,64,127,
2,31037, Note_off_c,0,64,127,
2,31041, Note_on_c,0,56,127,
2,31042, Note_on_c,0,58,127,
2,31042, Note_off_c,0,56,127,
2,31044, Note_off_c,0,58,127,
2,31045, Note_on_c,0,46,127,
2,31045, Note_off_c,0,40,127,
2,31046, Note_on_c,0,40,127,
2,31046, Note_off_c,0,46,127,
2,31048, Note_on_c,0,39,127,
2,31048, Note_off_c,0,40,127,
2,31049, Note_on_c,0,40,127,
2,31049, Note_off_c,0,39,127,
2,31051, Note_on_c,0,68,127,
2,31051, Note_off_c,0,40,127,
2,31052, Note_on_c,0,64,127,
2,31052, Note_on_c,0,40,127,
2,31052, Note_off_c,0,68,127,
2,31053, Note_off_c,0,64,127,
2,31056, Note_on_c,0,55,127,
2,31057, Note_off_c,0,55,127,
2,31059, Note_on_c,0,70,127,
2,31060, Note_off_c,0,40,127,
2,31061, Note_on_c,0,64,127,
2,31061, Note_on_c,0,40,127,
2,31061, Note_off_c,0,70,127,
2,31062, Note_off_c,0,64,127,
2,31067, Note_off_c,0,40,127,
2,31069, Note_on_c,0,40,127,
2,31071, Note_on_c,0,39,127,
2,31071, Note_off_c,0,40,127,
2,31072, Note_on_c,0,40,127,
2,31072, Note_off_c,0,39,127,
2,31084, Note_on_c,0,64,127,
2,31084, Note_off_c,0,61,127,
2,31085, Note_on_c,0,61,127,
2,31085, Note_off_c,0,64,127,
2,31087, Note_on_c,0,64,127,
2,31087, Note_off_c,0,61,127,
2,31088, Note_on_c,0,61,127,
2,31088, Note_off_c,0,64,127,
2,31088, Note_off_c,0,40,127,
2,31089, Note_on_c,0,40,127,
2,31092, Note_on_c,0,67,127,
2,31092, Note_off_c,0,61,127,
2,31093, Note_on_c,0,61,127,
2,31093, Note_off_c,0,67,127,
2,31100, Note_on_c,0,39,127,
2,31100, Note_off_c,0,40,127,
2,31101, Note_on_c,0,40,127,
2,31101, Note_off_c,0,39,127,
2,31102, Note_on_c,0,37,127,
2,31102, Note_off_c,0,40,127,
2,31103, Note_on_c,0,40,127,
2,31103, Note_off_c,0,37,127,
2,31104, Note_on_c,0,63,127,
2,31104, Note_off_c,0,61,127,
2,31105, Note_on_c,0,61,127,
2,31105, Note_off_c,0,63,127,
2,31109, Note_on_c,0,36,127,
2,31109, Note_off_c,0,40,127,
2,31110, Note_on_c,0,40,127,
2,31110, Note_off_c,0,36,127,
2,31114, Note_on_c,0,64,127,
2,31115, Note_off_c,0,64,127,
2,31117, Note_on_c,0,64,127,
2,31118, Note_off_c,0,64,127,
2,31119, Note_on_c,0,64,127,
2,31120, Note_off_c,0,64,127,
2,31123, Note_on_c,0,64,127,
2,31124, Note_off_c,0,64,127,
2,31131, Note_on_c,0,64,127,
2,31132, Note_off_c,0,64,127,
2,31136, Note_on_c,0,64,127,
2,31137, Note_off_c,0,64,127,
2,31138, Note_off_c,0,40,127,
2,31139, Note_on_c,0,40,127,
2,31151, Note_on_c,0,64,127,
2,31151, Note_off_c,0,61,127,
2,31152, Note_on_c,0,61,127,
2,31152, Note_off_c,0,64,127,
2,31154, Note_on_c,0,64,127,
2,31154, Note_off_c,0,61,127,
2,31155, Note_on_c,0,61,127,
2,31155, Note_off_c,0,64,127,
2,31181, Note_on_c,0,64,127,
2,31181, Note_off_c,0,61,127,
2,31182, Note_on_c,0,61,127,
2,31182, Note_off_c,0,64,127,
2,31183, Note_on_c,0,59,127,
2,31183, Note_off_c,0,61,127,
2,31184, Note_on_c,0,61,127,
2,31184, Note_off_c,0,59,127,
2,31184, Note_off_c,0,40,127,
2,31185, Note_on_c,0,40,127,
2,31186, Note_on_c,0,63,127,
2,31186, Note_off_c,0,61,127,
2,31187, Note_on_c,0,56,127,
2,31187, Note_off_c,0,63,127,
2,31187, Note_off_c,0,40,127,
2,31188, Note_on_c,0,61,127,
2,31188, Note_on_c,0,40,127,
2,31188, Note_off_c,0,56,127,
2,31189, Note_on_c,0,59,127,
2,31189, Note_off_c,0,40,127,
2,31190, Note_on_c,0,58,127,
2,31190, Note_on_c,0,56,127,
2,31190, Note_off_c,0,61,127,
2,31190, Note_off_c,0,59,127,
2,31191, Note_on_c,0,61,127,
2,31191, Note_on_c,0,40,127,
2,31191, Note_off_c,0,58,127,
2,31191, Note_off_c,0,56,127,
2,31197, Note_on_c,0,64,127,
2,31197, Note_off_c,0,61,127,
2,31198, Note_on_c,0,61,127,
2,31198, Note_off_c,0,64,127,
2,31201, Note_on_c,0,37,127,
2,31201, Note_off_c,0,40,127,
2,31202, Note_on_c,0,40,127,
2,31202, Note_off_c,0,37,127,
2,31209, Note_on_c,0,64,127,
2,31209, Note_off_c,0,61,127,
2,31210, Note_on_c,0,61,127,
2,31210, Note_off_c,0,64,127,
2,31227, Note_on_c,0,64,127,
2,31227, Note_on_c,0,46,127,
2,31227, Note_off_c,0,61,127,
2,31227, Note_off_c,0,40,127,
2,31228, Note_on_c,0,61,127,
2,31228, Note_on_c,0,40,127,
2,31228, Note_off_c,0,64,127,
2,31228, Note_off_c,0,46,127,
2,31236, Note_on_c,0,64,127,
2,31236, Note_off_c,0,61,127,
2,31237, Note_on_c,0,61,127,
2,31237, Note_off_c,0,64,127,
2,31238, Note_on_c,0,64,127,
2,31238, Note_off_c,0,61,127,
2,31239, Note_on_c,0,61,127,
2,31239, Note_off_c,0,64,127,
2,31254, Note_on_c,0,46,127,
2,31254, Note_off_c,0,61,127,
2,31255, Note_on_c,0,67,127,
2,31255, Note_off_c,0,40,127,
2,31256, Note_on_c,0,61,127,
2,31256, Note_on_c,0,40,127,
2,31256, Note_off_c,0,67,127,
2,31256, Note_off_c,0,46,127,
2,31257, Note_on_c,0,64,127,
2,31257, Note_on_c,0,63,127,
2,31257, Note_off_c,0,61,127,
2,31258, Note_on_c,0,61,127,
2,31258, Note_off_c,0,64,127,
2,31258, Note_off_c,0,63,127,
2,31259, Note_on_c,0,64,127,
2,31259, Note_on_c,0,58,127,
2,31259, Note_off_c,0,61,127,
2,31260, Note_on_c,0,61,127,
2,31260, Note_off_c,0,64,127,
2,31260, Note_off_c,0,58,127,
2,31262, Note_off_c,0,40,127,
2,31263, Note_on_c,0,40,127,
2,31264, Note_on_c,0,83,127,
2,31265, Note_off_c,0,83,127,
2,31266, Note_on_c,0,70,127,
2,31267, Note_on_c,0,44,127,
2,31267, Note_off_c,0,40,127,
2,31267, Note_off_c,0,70,127,
2,31268, Note_off_c,0,44,127,
2,31269, Note_on_c,0,40,127,
2,31275, Note_on_c,0,37,127,
2,31275, Note_off_c,0,40,127,
2,31276, Note_on_c,0,40,127,
2,31276, Note_off_c,0,37,127,
2,31277, Note_on_c,0,44,127,
2,31277, Note_off_c,0,40,127,
2,31278, Note_on_c,0,40,127,
2,31278, Note_off_c,0,44,127,
2,31279, Note_on_c,0,63,127,
2,31279, Note_off_c,0,61,127,
2,31280, Note_on_c,0,61,127,
2,31280, Note_off_c,0,63,127,
2,31288, Note_on_c,0,39,127,
2,31288, Note_off_c,0,40,127,
2,31289, Note_on_c,0,40,127,
2,31289, Note_off_c,0,39,127,
2,31300, Note_on_c,0,39,127,
2,31300, Note_off_c,0,40,127,
2,31301, Note_on_c,0,40,127,
2,31301, Note_off_c,0,39,127,
2,31302, Note_off_c,0,40,127,
2,31303, Note_on_c,0,40,127,
2,31304, Note_on_c,0,64,127,
2,31304, Note_off_c,0,61,127,
2,31305, Note_on_c,0,61,127,
2,31305, Note_off_c,0,64,127,
2,31315, Note_on_c,0,64,127,
2,31315, Note_off_c,0,61,127,
2,31316, Note_on_c,0,61,127,
2,31316, Note_on_c,0,46,127,
2,31316, Note_off_c,0,64,127,
2,31316, Note_off_c,0,40,127,
2,31317, Note_on_c,0,40,127,
2,31317, Note_off_c,0,46,127,
2,31319, Note_on_c,0,49,127,
2,31319, Note_off_c,0,61,127,
2,31320, Note_on_c,0,61,127,
2,31320, Note_off_c,0,49,127,
2,31328, Note_on_c,0,76,127,
2,31328, Note_off_c,0,61,127,
2,31329, Note_on_c,0,61,127,
2,31329, Note_off_c,0,76,127,
2,31330, Note_on_c,0,64,127,
2,31330, Note_off_c,0,61,127,
2,31331, Note_on_c,0,61,127,
2,31331, Note_off_c,0,64,127,
2,31348, Note_on_c,0,64,127,
2,31348, Note_off_c,0,40,127,
2,31349, Note_on_c,0,40,127,
2,31350, Note_off_c,0,64,127,
2,31351, Note_on_c,0,64,127,
2,31353, Note_off_c,0,64,127,
2,31355, Note_on_c,0,64,127,
2,31355, Note_on_c,0,58,127,
2,31355, Note_off_c,0,61,127,
2,31356, Note_on_c,0,61,127,
2,31356, Note_on_c,0,34,127,
2,31356, Note_off_c,0,64,127,
2,31356, Note_off_c,0,58,127,
2,31357, Note_off_c,0,34,127,
2,31358, Note_off_c,0,40,127,
2,31359, Note_on_c,0,40,127,
2,31362, Note_on_c,0,70,127,
2,31363, Note_off_c,0,70,127,
2,31364, Note_on_c,0,64,127,
2,31365, Note_off_c,0,64,127,
2,31369, Note_on_c,0,58,127,
2,31369, Note_off_c,0,40,127,
2,31370, Note_on_c,0,40,127,
2,31370, Note_off_c,0,58,127,
2,31371, Note_on_c,0,39,127,
2,31371, Note_off_c,0,40,127,
2,31372, Note_on_c,0,40,127,
2,31372, Note_off_c,0,39,127,
2,31373, Note_on_c,0,64,127,
2,31374, Note_off_c,0,64,127,
2,31377, Note_on_c,0,64,127,
2,31378, Note_off_c,0,64,127,
2,31380, Note_on_c,0,52,127,
2,31381, Note_off_c,0,52,127,
2,31382, Note_on_c,0,58,127,
2,31383, Note_on_c,0,66,127,
2,31383, Note_off_c,0,58,127,
2,31384, Note_off_c,0,66,127,
2,31392, Note_on_c,0,64,127,
2,31392, Note_off_c,0,61,127,
2,31393, Note_on_c,0,61,127,
2,31393, Note_off_c,0,64,127,
2,31418, Note_on_c,0,68,127,
2,31418, Note_off_c,0,40,127,
2,31419, Note_on_c,0,44,127,
2,31419, Note_off_c,0,68,127,
2,31420, Note_on_c,0,40,127,
2,31420, Note_off_c,0,44,127,
2,31423, Note_on_c,0,46,127,
2,31423, Note_off_c,0,40,127,
2,31424, Note_on_c,0,40,127,
2,31424, Note_off_c,0,46,127,
2,31425, Note_on_c,0,64,127,
2,31426, Note_off_c,0,64,127,
2,31430, Note_off_c,0,40,127,
2,31431, Note_on_c,0,40,127,
2,31442, Note_on_c,0,66,127,
2,31442, Note_off_c,0,61,127,
2,31443, Note_on_c,0,61,127,
2,31443, Note_off_c,0,66,127,
2,31445, Note_on_c,0,46,127,
2,31445, Note_off_c,0,40,127,
2,31446, Note_on_c,0,58,127,
2,31446, Note_on_c,0,40,127,
2,31446, Note_off_c,0,61,127,
2,31446, Note_off_c,0,46,127,
2,31447, Note_on_c,0,61,127,
2,31447, Note_off_c,0,58,127,
2,31449, Note_on_c,0,46,127,
2,31449, Note_off_c,0,40,127,
2,31450, Note_on_c,0,40,127,
2,31450, Note_off_c,0,46,127,
2,31453, Note_on_c,0,39,127,
2,31453, Note_off_c,0,40,127,
2,31454, Note_on_c,0,40,127,
2,31454, Note_off_c,0,39,127,
2,31490, Note_on_c,0,64,127,
2,31490, Note_off_c,0,61,127,
2,31491, Note_on_c,0,61,127,
2,31491, Note_off_c,0,64,127,
2,31493, Note_on_c,0,64,127,
2,31493, Note_off_c,0,61,127,
2,31494, Note_on_c,0,61,127,
2,31494, Note_off_c,0,64,127,
2,31495, Note_on_c,0,52,127,
2,31495, Note_off_c,0,61,127,
2,31496, Note_on_c,0,61,127,
2,31496, Note_off_c,0,52,127,
2,31497, Note_on_c,0,64,127,
2,31497, Note_off_c,0,61,127,
2,31498, Note_on_c,0,61,127,
2,31498, Note_off_c,0,64,127,
2,31500, Note_off_c,0,61,127,
2,31501, Note_on_c,0,61,127,
2,31506, Note_on_c,0,64,127,
2,31506, Note_off_c,0,61,127,
2,31507, Note_on_c,0,61,127,
2,31507, Note_off_c,0,64,127,
2,31510, Note_on_c,0,70,127,
2,31510, Note_off_c,0,61,127,
2,31511, Note_on_c,0,61,127,
2,31511, Note_off_c,0,70,127,
2,31518, Note_on_c,0,58,127,
2,31518, Note_off_c,0,61,127,
2,31519, Note_on_c,0,61,127,
2,31519, Note_off_c,0,58,127,
2,31520, Note_on_c,0,49,127,
2,31520, Note_off_c,0,61,127,
2,31521, Note_on_c,0,61,127,
2,31521, Note_off_c,0,49,127,
2,31524, Note_off_c,0,40,127,
2,31525, Note_on_c,0,40,127,
2,31525, Note_off_c,0,61,127,
2,31526, Note_on_c,0,61,127,
2,31526, Note_off_c,0,40,127,
2,31527, Note_on_c,0,40,127,
2,31538, Note_on_c,0,70,127,
2,31538, Note_off_c,0,61,127,
2,31539, Note_on_c,0,61,127,
2,31539, Note_off_c,0,70,127,
2,31545, Note_on_c,0,64,127,
2,31545, Note_off_c,0,61,127,
2,31546, Note_on_c,0,61,127,
2,31546, Note_off_c,0,64,127,
2,31551, Note_on_c,0,64,127,
2,31551, Note_off_c,0,61,127,
2,31552, Note_on_c,0,61,127,
2,31552, Note_off_c,0,64,127,
2,31561, Note_on_c,0,46,127,
2,31561, Note_off_c,0,40,127,
2,31562, Note_on_c,0,40,127,
2,31562, Note_off_c,0,46,127,
2,31575, Note_on_c,0,64,127,
2,31575, Note_off_c,0,61,127,
2,31576, Note_on_c,0,61,127,
2,31576, Note_off_c,0,64,127,
2,31586, Note_on_c,0,70,127,
2,31586, Note_off_c,0,61,127,
2,31587, Note_on_c,0,61,127,
2,31587, Note_off_c,0,70,127,
2,31590, Note_on_c,0,58,127,
2,31590, Note_off_c,0,61,127,
2,31591, Note_on_c,0,64,127,
2,31591, Note_off_c,0,58,127,
2,31592, Note_on_c,0,61,127,
2,31592, Note_off_c,0,64,127,
2,31594, Note_on_c,0,64,127,
2,31594, Note_off_c,0,61,127,
2,31595, Note_on_c,0,61,127,
2,31595, Note_off_c,0,64,127,
2,31596, Note_on_c,0,64,127,
2,31596, Note_off_c,0,61,127,
2,31597, Note_on_c,0,61,127,
2,31597, Note_off_c,0,64,127,
2,31631, Note_on_c,0,64,127,
2,31631, Note_off_c,0,40,127,
2,31632, Note_on_c,0,40,127,
2,31632, Note_off_c,0,64,127,
2,31639, Note_off_c,0,61,127,
2,31639, Note_off_c,0,40,127,
2,31640, Note_on_c,0,61,127,
2,31641, Note_on_c,0,40,127,
2,31643, Note_on_c,0,58,127,
2,31644, Note_off_c,0,58,127,
2,31660, Note_on_c,0,64,127,
2,31661, Note_off_c,0,64,127,
2,31662, Note_on_c,0,64,127,
2,31663, Note_off_c,0,64,127,
2,31666, Note_off_c,0,40,127,
2,31667, Note_on_c,0,40,127,
2,31680, Note_on_c,0,46,127,
2,31680, Note_off_c,0,40,127,
2,31681, Note_on_c,0,40,127,
2,31681, Note_off_c,0,46,127,
2,31682, Note_on_c,0,63,127,
2,31682, Note_off_c,0,61,127,
2,31683, Note_on_c,0,61,127,
2,31683, Note_off_c,0,63,127,
2,31686, Note_on_c,0,59,127,
2,31687, Note_off_c,0,59,127,
2,31689, Note_on_c,0,44,127,
2,31689, Note_off_c,0,40,127,
2,31690, Note_on_c,0,43,127,
2,31690, Note_on_c,0,40,127,
2,31690, Note_off_c,0,44,127,
2,31691, Note_off_c,0,43,127,
2,31699, Note_on_c,0,68,127,
2,31699, Note_off_c,0,61,127,
2,31700, Note_on_c,0,61,127,
2,31700, Note_off_c,0,68,127,
2,31712, Note_on_c,0,64,127,
2,31712, Note_off_c,0,61,127,
2,31713, Note_on_c,0,61,127,
2,31713, Note_off_c,0,64,127,
2,31725, Note_on_c,0,39,127,
2,31725, Note_off_c,0,40,127,
2,31726, Note_on_c,0,40,127,
2,31726, Note_off_c,0,39,127,
2,31739, Note_on_c,0,37,127,
2,31739, Note_off_c,0,40,127,
2,31740, Note_on_c,0,40,127,
2,31740, Note_off_c,0,37,127,
2,31742, Note_on_c,0,64,127,
2,31742, Note_off_c,0,61,127,
2,31743, Note_on_c,0,61,127,
2,31743, Note_off_c,0,64,127,
2,31757, Note_on_c,0,64,127,
2,31757, Note_off_c,0,61,127,
2,31758, Note_on_c,0,61,127,
2,31758, Note_off_c,0,64,127,
2,31759, Note_on_c,0,64,127,
2,31759, Note_off_c,0,61,127,
2,31760, Note_on_c,0,61,127,
2,31760, Note_off_c,0,64,127,
2,31766, Note_on_c,0,64,127,
2,31766, Note_off_c,0,61,127,
2,31767, Note_on_c,0,61,127,
2,31767, Note_off_c,0,64,127,
2,31778, Note_on_c,0,63,127,
2,31778, Note_off_c,0,61,127,
2,31779, Note_on_c,0,61,127,
2,31779, Note_off_c,0,63,127,
2,31780, Note_on_c,0,76,127,
2,31781, Note_off_c,0,76,127,
2,31809, Note_on_c,0,64,127,
2,31809, Note_off_c,0,61,127,
2,31810, Note_on_c,0,61,127,
2,31810, Note_off_c,0,64,127,
2,31814, Note_on_c,0,64,127,
2,31814, Note_off_c,0,61,127,
2,31815, Note_on_c,0,61,127,
2,31815, Note_off_c,0,64,127,
2,31817, Note_on_c,0,64,127,
2,31817, Note_off_c,0,61,127,
2,31818, Note_on_c,0,61,127,
2,31818, Note_off_c,0,64,127,
2,31828, Note_on_c,0,46,127,
2,31828, Note_off_c,0,61,127,
2,31829, Note_on_c,0,61,127,
2,31829, Note_off_c,0,46,127,
2,31832, Note_off_c,0,40,127,
2,31833, Note_on_c,0,40,127,
2,31842, Note_on_c,0,64,127,
2,31842, Note_off_c,0,61,127,
2,31843, Note_on_c,0,61,127,
2,31843, Note_off_c,0,64,127,
2,31858, Note_on_c,0,64,127,
2,31858, Note_off_c,0,61,127,
2,31859, Note_on_c,0,61,127,
2,31859, Note_on_c,0,39,127,
2,31859, Note_off_c,0,64,127,
2,31859, Note_off_c,0,40,127,
2,31860, Note_on_c,0,40,127,
2,31860, Note_off_c,0,39,127,
2,31861, Note_on_c,0,64,127,
2,31861, Note_off_c,0,61,127,
2,31862, Note_on_c,0,61,127,
2,31862, Note_off_c,0,64,127,
2,31888, Note_on_c,0,64,127,
2,31888, Note_off_c,0,61,127,
2,31889, Note_on_c,0,61,127,
2,31889, Note_off_c,0,64,127,
2,31902, Note_on_c,0,39,127,
2,31902, Note_off_c,0,40,127,
2,31903, Note_on_c,0,40,127,
2,31903, Note_off_c,0,39,127,
2,31905, Note_on_c,0,56,127,
2,31905, Note_off_c,0,40,127,
2,31906, Note_on_c,0,59,127,
2,31906, Note_on_c,0,40,127,
2,31906, Note_on_c,0,70,127,
2,31906, Note_off_c,0,61,127,
2,31906, Note_off_c,0,56,127,
2,31907, Note_on_c,0,61,127,
2,31907, Note_off_c,0,59,127,
2,31907, Note_off_c,0,70,127,
2,31924, Note_on_c,0,64,127,
2,31924, Note_on_c,0,39,127,
2,31924, Note_off_c,0,40,127,
2,31925, Note_on_c,0,40,127,
2,31925, Note_off_c,0,64,127,
2,31925, Note_off_c,0,39,127,
2,31931, Note_on_c,0,64,127,
2,31933, Note_off_c,0,40,127,
2,31934, Note_on_c,0,40,127,
2,31935, Note_off_c,0,64,127,
2,31937, Note_on_c,0,64,127,
2,31939, Note_off_c,0,64,127,
2,31943, Note_on_c,0,64,127,
2,31944, Note_off_c,0,64,127,
2,31953, Note_on_c,0,58,127,
2,31953, Note_off_c,0,61,127,
2,31954, Note_on_c,0,61,127,
2,31954, Note_on_c,0,70,127,
2,31954, Note_off_c,0,58,127,
2,31954, Note_off_c,0,40,127,
2,31955, Note_on_c,0,40,127,
2,31955, Note_off_c,0,70,127,
2,31958, Note_off_c,0,40,127,
2,31959, Note_on_c,0,40,127,
2,31960, Note_on_c,0,43,127,
2,31960, Note_off_c,0,40,127,
2,31961, Note_on_c,0,40,127,
2,31961, Note_off_c,0,43,127,
2,31962, Note_on_c,0,64,127,
2,31963, Note_on_c,0,58,127,
2,31963, Note_off_c,0,64,127,
2,31964, Note_off_c,0,58,127,
2,31965, Note_on_c,0,64,127,
2,31965, Note_on_c,0,58,127,
2,31965, Note_off_c,0,61,127,
2,31966, Note_on_c,0,61,127,
2,31966, Note_off_c,0,64,127,
2,31966, Note_off_c,0,58,127,
2,31983, Note_on_c,0,58,127,
2,31983, Note_off_c,0,61,127,
2,31984, Note_on_c,0,61,127,
2,31984, Note_off_c,0,58,127,
2,31993, Note_on_c,0,64,127,
2,31993, Note_on_c,0,34,127,
2,31993, Note_off_c,0,61,127,
2,31993, Note_off_c,0,40,127,
2,31994, Note_on_c,0,61,127,
2,31994, Note_on_c,0,40,127,
2,31994, Note_off_c,0,64,127,
2,31994, Note_off_c,0,34,127,
2,32029, Note_on_c,0,64,127,
2,32029, Note_on_c,0,39,127,
2,32029, Note_off_c,0,61,127,
2,32029, Note_off_c,0,40,127,
2,32030, Note_on_c,0,61,127,
2,32030, Note_on_c,0,40,127,
2,32030, Note_off_c,0,64,127,
2,32030, Note_off_c,0,39,127,
2,32036, Note_on_c,0,63,127,
2,32036, Note_off_c,0,61,127,
2,32037, Note_on_c,0,61,127,
2,32037, Note_off_c,0,63,127,
2,32044, Note_on_c,0,46,127,
2,32044, Note_off_c,0,40,127,
2,32045, Note_on_c,0,40,127,
2,32045, Note_off_c,0,46,127,
2,32052, Note_on_c,0,64,127,
2,32052, Note_on_c,0,39,127,
2,32052, Note_off_c,0,61,127,
2,32052, Note_off_c,0,40,127,
2,32053, Note_on_c,0,61,127,
2,32053, Note_on_c,0,40,127,
2,32053, Note_off_c,0,64,127,
2,32053, Note_off_c,0,39,127,
2,32055, Note_on_c,0,44,127,
2,32055, Note_off_c,0,40,127,
2,32056, Note_on_c,0,40,127,
2,32056, Note_off_c,0,44,127,
2,32058, Note_on_c,0,36,127,
2,32058, Note_off_c,0,40,127,
2,32059, Note_on_c,0,40,127,
2,32059, Note_off_c,0,36,127,
2,32060, Note_on_c,0,58,127,
2,32060, Note_off_c,0,61,127,
2,32060, Note_off_c,0,40,127,
2,32061, Note_on_c,0,61,127,
2,32061, Note_on_c,0,40,127,
2,32061, Note_off_c,0,58,127,
2,32068, Note_on_c,0,43,127,
2,32068, Note_off_c,0,40,127,
2,32069, Note_on_c,0,46,127,
2,32069, Note_off_c,0,43,127,
2,32070, Note_on_c,0,40,127,
2,32070, Note_off_c,0,46,127,
2,32083, Note_on_c,0,37,127,
2,32083, Note_off_c,0,40,127,
2,32084, Note_on_c,0,40,127,
2,32084, Note_off_c,0,37,127,
2,32110, Note_on_c,0,58,127,
2,32110, Note_off_c,0,61,127,
2,32111, Note_on_c,0,61,127,
2,32111, Note_off_c,0,58,127,
2,32116, Note_on_c,0,64,127,
2,32116, Note_off_c,0,61,127,
2,32117, Note_on_c,0,61,127,
2,32117, Note_off_c,0,64,127,
2,32126, Note_on_c,0,67,127,
2,32126, Note_off_c,0,61,127,
2,32127, Note_on_c,0,61,127,
2,32127, Note_off_c,0,67,127,
2,32128, Note_on_c,0,46,127,
2,32128, Note_off_c,0,40,127,
2,32129, Note_on_c,0,40,127,
2,32129, Note_off_c,0,46,127,
2,32147, Note_on_c,0,63,127,
2,32147, Note_off_c,0,61,127,
2,32148, Note_on_c,0,61,127,
2,32148, Note_off_c,0,63,127,
2,32150, Note_off_c,0,40,127,
2,32151, Note_on_c,0,40,127,
2,32168, Note_off_c,0,61,127,
2,32169, Note_on_c,0,61,127,
2,32176, Note_on_c,0,63,127,
2,32176, Note_off_c,0,61,127,
2,32177, Note_on_c,0,61,127,
2,32177, Note_off_c,0,63,127,
2,32186, Note_on_c,0,48,127,
2,32186, Note_off_c,0,40,127,
2,32187, Note_on_c,0,50,127,
2,32187, Note_off_c,0,48,127,
2,32188, Note_on_c,0,40,127,
2,32188, Note_off_c,0,50,127,
2,32198, Note_on_c,0,34,127,
2,32198, Note_off_c,0,40,127,
2,32199, Note_on_c,0,40,127,
2,32199, Note_off_c,0,34,127,
2,32201, Note_on_c,0,46,127,
2,32201, Note_off_c,0,61,127,
2,32202, Note_on_c,0,61,127,
2,32202, Note_off_c,0,46,127,
2,32212, Note_off_c,0,61,127,
2,32212, Note_off_c,0,40,127,
2,32213, Note_on_c,0,61,127,
2,32214, Note_on_c,0,40,127,
2,32246, Note_off_c,0,40,127,
2,32247, Note_on_c,0,40,127,
2,32254, Note_on_c,0,64,127,
2,32254, Note_off_c,0,61,127,
2,32255, Note_on_c,0,61,127,
2,32255, Note_off_c,0,64,127,
2,32275, Note_on_c,0,64,127,
2,32275, Note_off_c,0,61,127,
2,32276, Note_on_c,0,61,127,
2,32276, Note_off_c,0,64,127,
2,32286, Note_on_c,0,43,127,
2,32286, Note_off_c,0,40,127,
2,32287, Note_on_c,0,40,127,
2,32287, Note_off_c,0,43,127,
2,32301, Note_on_c,0,72,127,
2,32301, Note_off_c,0,40,127,
2,32302, Note_on_c,0,68,127,
2,32302, Note_on_c,0,40,127,
2,32302, Note_off_c,0,72,127,
2,32303, Note_off_c,0,68,127,
2,32304, Note_on_c,0,75,127,
2,32305, Note_off_c,0,75,127,
2,32306, Note_on_c,0,64,127,
2,32307, Note_off_c,0,64,127,
2,32308, Note_on_c,0,70,127,
2,32309, Note_on_c,0,64,127,
2,32309, Note_on_c,0,58,127,
2,32309, Note_off_c,0,61,127,
2,32309, Note_off_c,0,70,127,
2,32310, Note_on_c,0,61,127,
2,32310, Note_off_c,0,58,127,
2,32311, Note_off_c,0,64,127,
2,32313, Note_on_c,0,58,127,
2,32314, Note_off_c,0,58,127,
2,32318, Note_on_c,0,64,127,
2,32319, Note_on_c,0,58,127,
2,32319, Note_off_c,0,64,127,
2,32320, Note_off_c,0,58,127,
2,32321, Note_on_c,0,64,127,
2,32322, Note_off_c,0,64,127,
2,32329, Note_on_c,0,49,127,
2,32329, Note_off_c,0,40,127,
2,32330, Note_on_c,0,40,127,
2,32330, Note_off_c,0,49,127,
2,32333, Note_on_c,0,64,127,
2,32334, Note_on_c,0,58,127,
2,32334, Note_off_c,0,64,127,
2,32335, Note_off_c,0,58,127,
2,32343, Note_on_c,0,70,127,
2,32344, Note_off_c,0,70,127,
2,32345, Note_on_c,0,58,127,
2,32345, Note_on_c,0,70,127,
2,32345, Note_off_c,0,61,127,
2,32346, Note_on_c,0,61,127,
2,32346, Note_off_c,0,58,127,
2,32346, Note_off_c,0,70,127,
2,32347, Note_on_c,0,65,127,
2,32347, Note_off_c,0,40,127,
2,32348, Note_on_c,0,40,127,
2,32348, Note_off_c,0,65,127,
2,32361, Note_on_c,0,36,127,
2,32361, Note_off_c,0,40,127,
2,32362, Note_on_c,0,40,127,
2,32362, Note_off_c,0,36,127,
2,32365, Note_on_c,0,37,127,
2,32365, Note_off_c,0,40,127,
2,32366, Note_on_c,0,40,127,
2,32366, Note_off_c,0,37,127,
2,32369, Note_off_c,0,40,127,
2,32370, Note_on_c,0,40,127,
2,32371, Note_off_c,0,40,127,
2,32372, Note_on_c,0,40,127,
2,32377, Note_on_c,0,70,127,
2,32377, Note_off_c,0,61,127,
2,32378, Note_on_c,0,61,127,
2,32378, Note_off_c,0,40,127,
2,32378, Note_off_c,0,70,127,
2,32379, Note_on_c,0,40,127,
2,32380, Note_on_c,0,39,127,
2,32380, Note_off_c,0,40,127,
2,32381, Note_on_c,0,40,127,
2,32381, Note_off_c,0,39,127,
2,32392, Note_on_c,0,56,127,
2,32392, Note_off_c,0,40,127,
2,32393, Note_on_c,0,40,127,
2,32393, Note_off_c,0,56,127,
2,32396, Note_on_c,0,64,127,
2,32397, Note_off_c,0,64,127,
2,32402, Note_on_c,0,63,127,
2,32403, Note_off_c,0,63,127,
2,32404, Note_on_c,0,70,127,
2,32405, Note_off_c,0,70,127,
2,32412, Note_off_c,0,61,127,
2,32413, Note_on_c,0,61,127,
2,32422, Note_on_c,0,39,127,
2,32422, Note_off_c,0,40,127,
2,32423, Note_on_c,0,40,127,
2,32423, Note_off_c,0,39,127,
2,32434, Note_on_c,0,64,127,
2,32434, Note_off_c,0,61,127,
2,32435, Note_on_c,0,61,127,
2,32435, Note_off_c,0,64,127,
2,32443, Note_on_c,0,37,127,
2,32443, Note_off_c,0,40,127,
2,32444, Note_on_c,0,40,127,
2,32444, Note_off_c,0,37,127,
2,32461, Note_on_c,0,39,127,
2,32461, Note_off_c,0,40,127,
2,32462, Note_on_c,0,40,127,
2,32462, Note_off_c,0,39,127,
2,32463, Note_on_c,0,64,127,
2,32463, Note_off_c,0,61,127,
2,32464, Note_on_c,0,61,127,
2,32464, Note_off_c,0,64,127,
2,32467, Note_on_c,0,64,127,
2,32467, Note_off_c,0,61,127,
2,32468, Note_on_c,0,61,127,
2,32468, Note_off_c,0,64,127,
2,32473, Note_on_c,0,52,127,
2,32473, Note_off_c,0,40,127,
2,32474, Note_on_c,0,40,127,
2,32474, Note_off_c,0,52,127,
2,32483, Note_on_c,0,63,127,
2,32483, Note_off_c,0,61,127,
2,32484, Note_off_c,0,63,127,
2,32485, Note_on_c,0,61,127,
2,32487, Note_on_c,0,47,127,
2,32487, Note_off_c,0,61,127,
2,32488, Note_on_c,0,61,127,
2,32488, Note_off_c,0,47,127,
2,32489, Note_on_c,0,71,127,
2,32490, Note_off_c,0,71,127,
2,32493, Note_on_c,0,64,127,
2,32494, Note_off_c,0,64,127,
2,32496, Note_on_c,0,64,127,
2,32497, Note_off_c,0,64,127,
2,32499, Note_on_c,0,64,127,
2,32499, Note_off_c,0,61,127,
2,32500, Note_on_c,0,61,127,
2,32500, Note_off_c,0,64,127,
2,32501, Note_on_c,0,64,127,
2,32502, Note_on_c,0,59,127,
2,32502, Note_off_c,0,64,127,
2,32503, Note_off_c,0,59,127,
2,32505, Note_on_c,0,64,127,
2,32506, Note_off_c,0,64,127,
2,32510, Note_on_c,0,64,127,
2,32510, Note_off_c,0,61,127,
2,32511, Note_on_c,0,61,127,
2,32511, Note_off_c,0,64,127,
2,32513, Note_on_c,0,64,127,
2,32514, Note_off_c,0,64,127,
2,32515, Note_on_c,0,63,127,
2,32515, Note_on_c,0,52,127,
2,32515, Note_off_c,0,61,127,
2,32516, Note_on_c,0,61,127,
2,32516, Note_off_c,0,63,127,
2,32516, Note_off_c,0,52,127,
2,32518, Note_on_c,0,64,127,
2,32519, Note_off_c,0,64,127,
2,32523, Note_off_c,0,40,127,
2,32524, Note_on_c,0,40,127,
2,32529, Note_on_c,0,64,127,
2,32529, Note_off_c,0,61,127,
2,32530, Note_on_c,0,61,127,
2,32530, Note_off_c,0,64,127,
2,32541, Note_on_c,0,64,127,
2,32541, Note_off_c,0,61,127,
2,32542, Note_on_c,0,61,127,
2,32542, Note_off_c,0,64,127,
2,32554, Note_on_c,0,58,127,
2,32554, Note_off_c,0,61,127,
2,32555, Note_on_c,0,61,127,
2,32555, Note_off_c,0,58,127,
2,32564, Note_on_c,0,39,127,
2,32564, Note_off_c,0,40,127,
2,32565, Note_on_c,0,40,127,
2,32565, Note_off_c,0,39,127,
2,32567, Note_on_c,0,64,127,
2,32567, Note_off_c,0,61,127,
2,32568, Note_on_c,0,61,127,
2,32568, Note_off_c,0,64,127,
2,32581, Note_on_c,0,64,127,
2,32581, Note_off_c,0,61,127,
2,32582, Note_on_c,0,61,127,
2,32582, Note_off_c,0,64,127,
2,32606, Note_on_c,0,59,127,
2,32606, Note_off_c,0,61,127,
2,32607, Note_on_c,0,61,127,
2,32607, Note_off_c,0,59,127,
2,32609, Note_on_c,0,35,127,
2,32609, Note_off_c,0,40,127,
2,32610, Note_on_c,0,64,127,
2,32610, Note_on_c,0,40,127,
2,32610, Note_off_c,0,61,127,
2,32610, Note_off_c,0,35,127,
2,32611, Note_on_c,0,61,127,
2,32611, Note_off_c,0,40,127,
2,32612, Note_on_c,0,40,127,
2,32612, Note_off_c,0,64,127,
2,32614, Note_on_c,0,56,127,
2,32615, Note_off_c,0,56,127,
2,32616, Note_on_c,0,58,127,
2,32616, Note_off_c,0,61,127,
2,32617, Note_on_c,0,61,127,
2,32617, Note_off_c,0,58,127,
2,32622, Note_on_c,0,64,127,
2,32622, Note_off_c,0,61,127,
2,32623, Note_on_c,0,61,127,
2,32623, Note_off_c,0,64,127,
2,32657, Note_on_c,0,64,127,
2,32657, Note_off_c,0,61,127,
2,32658, Note_on_c,0,61,127,
2,32658, Note_off_c,0,64,127,
2,32660, Note_on_c,0,64,127,
2,32660, Note_off_c,0,61,127,
2,32661, Note_on_c,0,61,127,
2,32661, Note_off_c,0,64,127,
2,32663, Note_on_c,0,64,127,
2,32663, Note_off_c,0,61,127,
2,32664, Note_on_c,0,61,127,
2,32664, Note_off_c,0,64,127,
2,32672, Note_on_c,0,64,127,
2,32672, Note_off_c,0,61,127,
2,32673, Note_on_c,0,61,127,
2,32673, Note_off_c,0,64,127,
2,32674, Note_on_c,0,39,127,
2,32674, Note_off_c,0,40,127,
2,32675, Note_on_c,0,40,127,
2,32675, Note_off_c,0,39,127,
2,32683, Note_on_c,0,64,127,
2,32683, Note_off_c,0,61,127,
2,32684, Note_on_c,0,61,127,
2,32684, Note_off_c,0,64,127,
2,32686, Note_on_c,0,34,127,
2,32686, Note_off_c,0,40,127,
2,32687, Note_on_c,0,40,127,
2,32687, Note_off_c,0,34,127,
2,32688, Note_on_c,0,64,127,
2,32688, Note_off_c,0,61,127,
2,32689, Note_on_c,0,61,127,
2,32689, Note_off_c,0,64,127,
2,32702, Note_on_c,0,64,127,
2,32702, Note_off_c,0,61,127,
2,32703, Note_on_c,0,61,127,
2,32703, Note_off_c,0,64,127,
2,32704, Note_on_c,0,37,127,
2,32704, Note_off_c,0,40,127,
2,32705, Note_on_c,0,40,127,
2,32705, Note_off_c,0,37,127,
2,32723, Note_on_c,0,64,127,
2,32723, Note_off_c,0,61,127,
2,32724, Note_on_c,0,61,127,
2,32724, Note_off_c,0,64,127,
2,32725, Note_on_c,0,64,127,
2,32725, Note_off_c,0,61,127,
2,32726, Note_on_c,0,61,127,
2,32726, Note_off_c,0,64,127,
2,32766, Note_on_c,0,34,127,
2,32766, Note_off_c,0,40,127,
2,32767, Note_on_c,0,40,127,
2,32767, Note_off_c,0,34,127,
2,32783, Note_on_c,0,64,127,
2,32783, Note_off_c,0,61,127,
2,32784, Note_on_c,0,61,127,
2,32784, Note_off_c,0,64,127,
2,32795, Note_on_c,0,39,127,
2,32795, Note_off_c,0,40,127,
2,32796, Note_on_c,0,40,127,
2,32796, Note_off_c,0,39,127,
2,32804, Note_off_c,0,40,127,
2,32805, Note_on_c,0,40,127,
2,32815, Note_on_c,0,64,127,
2,32815, Note_off_c,0,61,127,
2,32816, Note_on_c,0,61,127,
2,32816, Note_off_c,0,64,127,
2,32825, Note_off_c,0,40,127,
2,32826, Note_on_c,0,40,127,
2,32827, Note_off_c,0,61,127,
2,32827, Note_off_c,0,40,127,
2,32828, Note_on_c,0,61,127,
2,32829, Note_off_c,0,61,127,
2,32830, Note_on_c,0,61,127,
2,32831, Note_on_c,0,40,127,
2,32831, Note_off_c,0,61,127,
2,32833, Note_on_c,0,61,127,
2,32833, Note_off_c,0,40,127,
2,32834, Note_on_c,0,40,127,
2,32834, Note_on_c,0,70,127,
2,32834, Note_off_c,0,61,127,
2,32835, Note_on_c,0,61,127,
2,32835, Note_off_c,0,70,127,
2,32839, Note_on_c,0,64,127,
2,32839, Note_off_c,0,61,127,
2,32840, Note_on_c,0,61,127,
2,32840, Note_off_c,0,64,127,
2,32843, Note_on_c,0,64,127,
2,32843, Note_off_c,0,61,127,
2,32844, Note_on_c,0,61,127,
2,32844, Note_off_c,0,64,127,
2,32846, Note_on_c,0,64,127,
2,32846, Note_on_c,0,37,127,
2,32846, Note_off_c,0,61,127,
2,32846, Note_off_c,0,40,127,
2,32847, Note_on_c,0,61,127,
2,32847, Note_on_c,0,40,127,
2,32847, Note_off_c,0,64,127,
2,32847, Note_off_c,0,37,127,
2,32850, Note_on_c,0,64,127,
2,32850, Note_off_c,0,61,127,
2,32851, Note_on_c,0,61,127,
2,32851, Note_off_c,0,64,127,
2,32855, Note_on_c,0,64,127,
2,32855, Note_off_c,0,61,127,
2,32856, Note_on_c,0,61,127,
2,32856, Note_off_c,0,64,127,
2,32871, Note_on_c,0,64,127,
2,32871, Note_off_c,0,61,127,
2,32872, Note_on_c,0,61,127,
2,32872, Note_off_c,0,64,127,
2,32878, Note_on_c,0,46,127,
2,32878, Note_off_c,0,40,127,
2,32879, Note_on_c,0,40,127,
2,32879, Note_off_c,0,46,127,
2,32906, Note_on_c,0,56,127,
2,32906, Note_off_c,0,61,127,
2,32907, Note_on_c,0,61,127,
2,32907, Note_off_c,0,56,127,
2,32916, Note_on_c,0,49,127,
2,32916, Note_off_c,0,40,127,
2,32917, Note_on_c,0,40,127,
2,32917, Note_off_c,0,49,127,
2,32918, Note_on_c,0,39,127,
2,32918, Note_off_c,0,40,127,
2,32919, Note_on_c,0,40,127,
2,32919, Note_off_c,0,39,127,
2,32924, Note_off_c,0,40,127,
2,32925, Note_on_c,0,40,127,
2,32929, Note_on_c,0,44,127,
2,32929, Note_off_c,0,40,127,
2,32930, Note_on_c,0,40,127,
2,32930, Note_off_c,0,44,127,
2,32934, Note_on_c,0,64,127,
2,32934, Note_off_c,0,61,127,
2,32935, Note_on_c,0,61,127,
2,32935, Note_off_c,0,64,127,
2,32939, Note_on_c,0,64,127,
2,32939, Note_off_c,0,61,127,
2,32940, Note_on_c,0,61,127,
2,32940, Note_off_c,0,64,127,
2,32946, Note_on_c,0,64,127,
2,32946, Note_off_c,0,61,127,
2,32948, Note_on_c,0,61,127,
2,32948, Note_off_c,0,64,127,
2,32950, Note_on_c,0,46,127,
2,32950, Note_off_c,0,61,127,
2,32951, Note_on_c,0,61,127,
2,32951, Note_off_c,0,46,127,
2,32955, Note_on_c,0,64,127,
2,32955, Note_off_c,0,61,127,
2,32956, Note_on_c,0,61,127,
2,32956, Note_off_c,0,64,127,
2,32957, Note_on_c,0,64,127,
2,32957, Note_off_c,0,61,127,
2,32959, Note_on_c,0,61,127,
2,32959, Note_off_c,0,64,127,
2,32959, Note_off_c,0,40,127,
2,32960, Note_on_c,0,76,127,
2,32960, Note_on_c,0,40,127,
2,32961, Note_on_c,0,64,127,
2,32961, Note_off_c,0,76,127,
2,32964, Note_off_c,0,64,127,
2,32967, Note_off_c,0,40,127,
2,32968, Note_on_c,0,40,127,
2,32971, Note_on_c,0,64,127,
2,32972, Note_on_c,0,59,127,
2,32972, Note_off_c,0,61,127,
2,32972, Note_off_c,0,64,127,
2,32973, Note_on_c,0,61,127,
2,32973, Note_off_c,0,59,127,
2,32974, Note_on_c,0,64,127,
2,32975, Note_off_c,0,64,127,
2,32977, Note_off_c,0,40,127,
2,32978, Note_on_c,0,40,127,
2,32984, Note_on_c,0,52,127,
2,32984, Note_off_c,0,40,127,
2,32985, Note_on_c,0,40,127,
2,32985, Note_off_c,0,52,127,
2,32990, Note_on_c,0,64,127,
2,32990, Note_off_c,0,61,127,
2,32991, Note_on_c,0,61,127,
2,32991, Note_off_c,0,64,127,
2,32998, Note_on_c,0,64,127,
2,32998, Note_off_c,0,61,127,
2,32999, Note_on_c,0,61,127,
2,32999, Note_off_c,0,64,127,
2,33003, Note_on_c,0,64,127,
2,33003, Note_off_c,0,61,127,
2,33004, Note_on_c,0,61,127,
2,33004, Note_off_c,0,64,127,
2,33005, Note_on_c,0,64,127,
2,33005, Note_off_c,0,61,127,
2,33006, Note_on_c,0,61,127,
2,33006, Note_off_c,0,64,127,
2,33008, Note_on_c,0,64,127,
2,33008, Note_off_c,0,61,127,
2,33009, Note_on_c,0,58,127,
2,33009, Note_off_c,0,64,127,
2,33010, Note_on_c,0,61,127,
2,33010, Note_off_c,0,58,127,
2,33027, Note_on_c,0,64,127,
2,33027, Note_off_c,0,61,127,
2,33030, Note_on_c,0,61,127,
2,33030, Note_off_c,0,64,127,
2,33058, Note_on_c,0,58,127,
2,33058, Note_off_c,0,61,127,
2,33059, Note_on_c,0,61,127,
2,33059, Note_off_c,0,58,127,
2,33060, Note_on_c,0,64,127,
2,33060, Note_off_c,0,61,127,
2,33061, Note_on_c,0,61,127,
2,33061, Note_off_c,0,64,127,
2,33066, Note_on_c,0,39,127,
2,33066, Note_off_c,0,40,127,
2,33067, Note_on_c,0,64,127,
2,33067, Note_on_c,0,40,127,
2,33067, Note_off_c,0,61,127,
2,33067, Note_off_c,0,39,127,
2,33068, Note_on_c,0,61,127,
2,33068, Note_off_c,0,64,127,
2,33084, Note_on_c,0,64,127,
2,33084, Note_off_c,0,61,127,
2,33085, Note_on_c,0,61,127,
2,33085, Note_off_c,0,64,127,
2,33090, Note_on_c,0,64,127,
2,33090, Note_off_c,0,61,127,
2,33091, Note_on_c,0,61,127,
2,33091, Note_off_c,0,64,127,
2,33104, Note_on_c,0,64,127,
2,33104, Note_off_c,0,61,127,
2,33105, Note_on_c,0,61,127,
2,33105, Note_off_c,0,64,127,
2,33107, Note_on_c,0,56,127,
2,33107, Note_off_c,0,61,127,
2,33108, Note_on_c,0,61,127,
2,33108, Note_off_c,0,56,127,
2,33109, Note_on_c,0,39,127,
2,33109, Note_off_c,0,40,127,
2,33110, Note_on_c,0,40,127,
2,33110, Note_off_c,0,39,127,
2,33122, Note_on_c,0,39,127,
2,33122, Note_off_c,0,40,127,
2,33123, Note_on_c,0,40,127,
2,33123, Note_off_c,0,39,127,
2,33128, Note_on_c,0,39,127,
2,33128, Note_off_c,0,40,127,
2,33129, Note_on_c,0,40,127,
2,33129, Note_off_c,0,39,127,
2,33144, Note_on_c,0,46,127,
2,33144, Note_off_c,0,40,127,
2,33145, Note_on_c,0,40,127,
2,33145, Note_off_c,0,46,127,
2,33153, Note_on_c,0,49,127,
2,33153, Note_off_c,0,40,127,
2,33154, Note_on_c,0,40,127,
2,33154, Note_off_c,0,49,127,
2,33163, Note_on_c,0,64,127,
2,33163, Note_off_c,0,61,127,
2,33164, Note_on_c,0,61,127,
2,33164, Note_off_c,0,64,127,
2,33165, Note_on_c,0,68,127,
2,33165, Note_off_c,0,61,127,
2,33166, Note_on_c,0,61,127,
2,33166, Note_off_c,0,68,127,
2,33174, Note_on_c,0,64,127,
2,33174, Note_off_c,0,61,127,
2,33175, Note_on_c,0,61,127,
2,33175, Note_on_c,0,39,127,
2,33175, Note_off_c,0,64,127,
2,33175, Note_off_c,0,40,127,
2,33176, Note_on_c,0,40,127,
2,33176, Note_off_c,0,39,127,
2,33190, Note_on_c,0,66,127,
2,33190, Note_off_c,0,61,127,
2,33191, Note_on_c,0,61,127,
2,33191, Note_off_c,0,66,127,
2,33199, Note_on_c,0,64,127,
2,33199, Note_off_c,0,61,127,
2,33201, Note_on_c,0,61,127,
2,33201, Note_off_c,0,64,127,
2,33202, Note_on_c,0,64,127,
2,33202, Note_off_c,0,61,127,
2,33203, Note_on_c,0,61,127,
2,33203, Note_off_c,0,64,127,
2,33204, Note_on_c,0,64,127,
2,33204, Note_off_c,0,61,127,
2,33206, Note_on_c,0,61,127,
2,33206, Note_off_c,0,64,127,
2,33210, Note_on_c,0,64,127,
2,33210, Note_off_c,0,61,127,
2,33211, Note_on_c,0,61,127,
2,33211, Note_off_c,0,64,127,
2,33214, Note_on_c,0,39,127,
2,33214, Note_off_c,0,40,127,
2,33215, Note_on_c,0,40,127,
2,33215, Note_off_c,0,39,127,
2,33217, Note_off_c,0,61,127,
2,33218, Note_on_c,0,61,127,
2,33228, Note_on_c,0,56,127,
2,33228, Note_off_c,0,61,127,
2,33229, Note_on_c,0,61,127,
2,33229, Note_off_c,0,56,127,
2,33232, Note_on_c,0,64,127,
2,33232, Note_off_c,0,61,127,
2,33233, Note_on_c,0,61,127,
2,33233, Note_off_c,0,64,127,
2,33244, Note_on_c,0,64,127,
2,33244, Note_off_c,0,61,127,
2,33245, Note_on_c,0,61,127,
2,33245, Note_off_c,0,64,127,
2,33246, Note_on_c,0,43,127,
2,33246, Note_off_c,0,40,127,
2,33247, Note_on_c,0,64,127,
2,33247, Note_on_c,0,40,127,
2,33247, Note_off_c,0,43,127,
2,33247, Note_off_c,0,61,127,
2,33249, Note_on_c,0,61,127,
2,33249, Note_off_c,0,64,127,
2,33250, Note_on_c,0,64,127,
2,33250, Note_off_c,0,61,127,
2,33251, Note_on_c,0,61,127,
2,33251, Note_off_c,0,64,127,
2,33252, Note_on_c,0,39,127,
2,33252, Note_off_c,0,40,127,
2,33253, Note_on_c,0,40,127,
2,33253, Note_off_c,0,39,127,
2,33259, Note_on_c,0,10,127,
2,33259, Note_off_c,0,61,127,
2,33259, Note_off_c,0,40,127,
2,33269, End_track,,,,
3,0, Start_track,,,,
3,0, Title_t," ""MIDI""",,,
3,1536, End_track,,,,
0,0, End_of_file,,,,